<?xml version="1.0" encoding="UTF-8" standalone="no"?>
<!-- Generator: Adobe Illustrator 27.5.0, SVG Export Plug-In . SVG Version: 6.00 Build 0)  -->

<svg
   version="1.1"
   x="0px"
   y="0px"
   viewBox="0 0 351.39532 401.72916"
   xml:space="preserve"
   id="svg153"
   sodipodi:docname="Conservatory.svg"
   width="351.39532"
   height="401.72916"
   inkscape:version="1.4.3 (0d15f75, 2025-12-25)"
   xmlns:inkscape="http://www.inkscape.org/namespaces/inkscape"
   xmlns:sodipodi="http://sodipodi.sourceforge.net/DTD/sodipodi-0.dtd"
   xmlns:xlink="http://www.w3.org/1999/xlink"
   xmlns="http://www.w3.org/2000/svg"
   xmlns:svg="http://www.w3.org/2000/svg"><defs
   id="defs153" /><sodipodi:namedview
   id="namedview153"
   pagecolor="#ffffff"
   bordercolor="#000000"
   borderopacity="0.25"
   inkscape:showpageshadow="2"
   inkscape:pageopacity="0.0"
   inkscape:pagecheckerboard="0"
   inkscape:deskcolor="#d1d1d1"
   inkscape:zoom="1.4486944"
   inkscape:cx="118.03732"
   inkscape:cy="176.02056"
   inkscape:window-width="1470"
   inkscape:window-height="923"
   inkscape:window-x="0"
   inkscape:window-y="33"
   inkscape:window-maximized="0"
   inkscape:current-layer="svg153" />
<g
   id="BACKGROUND"
   transform="scale(0.70279066,0.80345834)">
	<rect
   style="fill:#e5f4d7"
   width="500"
   height="500"
   id="rect1"
   x="0"
   y="0" />
</g>
<g
   id="OBJECTS"
   transform="scale(0.70279066,0.80345834)">
	<g
   id="g153">
		<defs
   id="defs1">
			<rect
   id="SVGID_1_"
   width="500"
   height="500"
   x="0"
   y="0" />
		</defs>
		<clipPath
   id="SVGID_00000158025099707743583390000003679277864098942108_">
			<use
   xlink:href="#SVGID_1_"
   style="overflow:visible"
   id="use1" />
		</clipPath>
		<g
   clip-path="url(#SVGID_00000158025099707743583390000003679277864098942108_)"
   id="g152">
			<g
   id="g146">
				<defs
   id="defs2">
					<polygon
   id="SVGID_00000142161824772828251660000001145951429193741732_"
   points="29.183,188.662 29.183,213.197 29.183,409.479 29.183,434.014 470.817,434.014 470.817,409.479 470.817,213.197 470.817,188.662 470.817,164.127 397.211,65.986 102.789,65.986 29.183,164.127 " />
				</defs>
				<clipPath
   id="SVGID_00000026874074527667352770000003020143496628118182_">
					<use
   xlink:href="#SVGID_00000142161824772828251660000001145951429193741732_"
   style="overflow:visible"
   id="use2" />
				</clipPath>
				<polygon
   style="fill:#b5ca9e"
   points="470.817,164.127 470.817,434.014 29.183,434.014 29.183,164.127 102.789,65.986 397.211,65.986 "
   clip-path="url(#SVGID_00000026874074527667352770000003020143496628118182_)"
   id="polygon2" />
				<g
   clip-path="url(#SVGID_00000026874074527667352770000003020143496628118182_)"
   id="g12">
					<g
   id="g11">
						<path
   style="fill:#77a960"
   d="m 73.46,217.649 c 0,0 -12.658,0.123 -28.13,-22.38 22.035,10.671 28.13,22.38 28.13,22.38 z"
   id="path2" />
						<g
   id="g3">
							<path
   style="fill:#4e7f6a"
   d="m 50.487,168.538 c 0,0 -1.407,24.718 22.973,49.11 -2.345,-31.222 -22.973,-49.11 -22.973,-49.11 z"
   id="path3" />
						</g>
						<path
   style="fill:#77a960"
   d="m 61.966,153.578 c 0,0 -4.915,26.994 11.494,64.071 11.72,-28.296 -11.494,-64.071 -11.494,-64.071 z"
   id="path4" />
						<g
   id="g5">
							<path
   style="fill:#4e7f6a"
   d="m 76.765,154.878 c 0,0 -6.587,28.621 -3.306,62.77 17.816,-2.601 13.644,-51.386 3.306,-62.77 z"
   id="path5" />
						</g>
						<path
   style="fill:#77a960"
   d="m 101.589,173.417 c 0,0 -11.721,14.31 -28.13,44.232 28.599,0.65 28.13,-44.232 28.13,-44.232 z"
   id="path6" />
						<g
   id="g7">
							<path
   style="fill:#ecb452"
   d="M 89.228,214.383 H 59.395 V 229.3 c 0,8.238 6.678,14.917 14.917,14.917 v 0 c 8.238,0 14.917,-6.678 14.917,-14.917 v -14.917 z"
   id="path7" />
						</g>
						
							<rect
   x="59.395"
   y="214.235"
   style="fill:none;stroke:#3b3813;stroke-width:0.75;stroke-linecap:round;stroke-linejoin:round;stroke-miterlimit:10"
   width="7.4580002"
   height="7.579"
   id="rect7" />
						
							<rect
   x="66.852997"
   y="214.235"
   style="fill:none;stroke:#3b3813;stroke-width:0.75;stroke-linecap:round;stroke-linejoin:round;stroke-miterlimit:10"
   width="7.4580002"
   height="7.579"
   id="rect8" />
						
							<rect
   x="74.310997"
   y="214.235"
   style="fill:none;stroke:#3b3813;stroke-width:0.75;stroke-linecap:round;stroke-linejoin:round;stroke-miterlimit:10"
   width="7.4580002"
   height="7.579"
   id="rect9" />
						
							<rect
   x="81.769997"
   y="214.235"
   style="fill:none;stroke:#3b3813;stroke-width:0.75;stroke-linecap:round;stroke-linejoin:round;stroke-miterlimit:10"
   width="7.4580002"
   height="7.579"
   id="rect10" />
						
							<polygon
   style="fill:none;stroke:#3b3813;stroke-width:0.75;stroke-linecap:round;stroke-linejoin:round;stroke-miterlimit:10"
   points="66.853,221.815 59.395,214.235 74.311,137.57 89.228,214.235 81.77,221.815 74.311,214.235 "
   id="polygon10" />
						
							<line
   style="fill:none;stroke:#3b3813;stroke-width:0.75;stroke-linecap:round;stroke-linejoin:round;stroke-miterlimit:10"
   x1="74.310997"
   y1="137.57001"
   x2="74.310997"
   y2="104.063"
   id="line10" />
						
							<polygon
   style="fill:none;stroke:#3b3813;stroke-width:0.75;stroke-linecap:round;stroke-linejoin:round;stroke-miterlimit:10"
   points="81.77,214.235 89.228,221.815 74.311,244.216 59.395,221.815 66.853,214.235 74.311,221.815 "
   id="polygon11" />
						
							<polyline
   style="fill:none;stroke:#3b3813;stroke-width:0.75;stroke-linecap:round;stroke-linejoin:round;stroke-miterlimit:10"
   points="        66.853,221.815 74.311,244.216 81.77,221.815 74.311,221.815 74.311,244.216       "
   id="polyline11" />
					</g>
				</g>
				<g
   clip-path="url(#SVGID_00000026874074527667352770000003020143496628118182_)"
   id="g18">
					<g
   id="g17">
						<path
   style="fill:#77a960"
   d="m 411.608,212.162 c 0,0 12.658,0.123 28.13,-22.38 -22.035,10.672 -28.13,22.38 -28.13,22.38 z"
   id="path12" />
						<g
   id="g13">
							<path
   style="fill:#4e7f6a"
   d="m 434.58,163.052 c 0,0 1.407,24.718 -22.973,49.11 2.345,-31.222 22.973,-49.11 22.973,-49.11 z"
   id="path13" />
						</g>
						<path
   style="fill:#77a960"
   d="m 423.102,148.091 c 0,0 4.915,26.994 -11.494,64.071 -11.721,-28.295 11.494,-64.071 11.494,-64.071 z"
   id="path14" />
						<g
   id="g15">
							<path
   style="fill:#4e7f6a"
   d="m 408.302,149.392 c 0,0 6.587,28.62 3.306,62.77 -17.816,-2.602 -13.644,-51.387 -3.306,-62.77 z"
   id="path15" />
						</g>
						<path
   style="fill:#77a960"
   d="m 383.478,167.93 c 0,0 11.721,14.31 28.13,44.232 -28.599,0.651 -28.13,-44.232 -28.13,-44.232 z"
   id="path16" />
						<g
   id="g16">
							<rect
   x="396.89999"
   y="209.888"
   style="fill:#ecb452"
   width="29.833"
   height="34.327999"
   id="rect16" />
						</g>
						
							<polygon
   style="fill:none;stroke:#3b3813;stroke-width:0.75;stroke-linecap:round;stroke-linejoin:round;stroke-miterlimit:10"
   points="396.9,209.888 411.817,112.956 426.733,209.888 396.9,244.216 426.733,244.216 "
   id="polygon16" />
						
							<line
   style="fill:none;stroke:#3b3813;stroke-width:0.75;stroke-linecap:round;stroke-linejoin:round;stroke-miterlimit:10"
   x1="411.81699"
   y1="112.956"
   x2="411.81699"
   y2="84.545998"
   id="line16" />
					</g>
				</g>
				<g
   clip-path="url(#SVGID_00000026874074527667352770000003020143496628118182_)"
   id="g28">
					<g
   id="g24">
						<g
   id="g23">
							<g
   id="g19">
								<path
   style="fill:#789f2b"
   d="m 120.577,226.8 c 0,0 -22.66,-2.278 -27.819,-23.896 13.548,5.574 27.819,23.896 27.819,23.896 z"
   id="path18" />
							</g>
							<g
   id="g20">
								<path
   style="fill:#8caf3b"
   d="m 108.488,193.497 c 0,0 -10.993,19.479 11.282,32.497 -1.157,-14.851 -4.723,-25.461 -11.282,-32.497 z"
   id="path19" />
							</g>
							<g
   id="g21">
								<path
   style="fill:#789f2b"
   d="m 128.931,184.625 c 0,0 -24.011,15.525 -9.161,41.368 5.882,-9.739 7.813,-21.12 7.522,-28.351 -0.289,-7.231 1.639,-13.017 1.639,-13.017 z"
   id="path20" />
							</g>
							<g
   id="g22">
								<path
   style="fill:#8caf3b"
   d="m 144.553,202.175 c 0,0 -19.093,-5.4 -24.782,23.818 13.693,1.157 11.378,-13.886 24.782,-23.818 z"
   id="path21" />
							</g>
						</g>
					</g>
					<rect
   x="104.854"
   y="225.228"
   style="fill:#ce693b"
   width="29.833"
   height="18.988001"
   id="rect24" />
					<g
   id="g26">
						
							<polygon
   style="fill:none;stroke:#3b3813;stroke-width:0.75;stroke-linecap:round;stroke-linejoin:round;stroke-miterlimit:10"
   points="104.854,234.722 112.626,230.174 104.854,225.228 "
   id="polygon24" />
						
							<polygon
   style="fill:none;stroke:#3b3813;stroke-width:0.75;stroke-linecap:round;stroke-linejoin:round;stroke-miterlimit:10"
   points="119.771,225.228 112.626,230.174 119.771,234.722 126.916,230.174 "
   id="polygon25" />
						
							<polygon
   style="fill:none;stroke:#3b3813;stroke-width:0.75;stroke-linecap:round;stroke-linejoin:round;stroke-miterlimit:10"
   points="134.687,225.228 126.916,230.174 134.687,234.722 "
   id="polygon26" />
					</g>
					
						<polygon
   style="fill:none;stroke:#3b3813;stroke-width:0.75;stroke-linecap:round;stroke-linejoin:round;stroke-miterlimit:10"
   points="104.854,225.228 119.771,148.447 134.687,225.228 "
   id="polygon27" />
					
						<polygon
   style="fill:none;stroke:#3b3813;stroke-width:0.75;stroke-linecap:round;stroke-linejoin:round;stroke-miterlimit:10"
   points="104.854,234.722 119.771,244.216 134.687,234.722 "
   id="polygon28" />
					
						<line
   style="fill:none;stroke:#3b3813;stroke-width:0.75;stroke-linecap:round;stroke-linejoin:round;stroke-miterlimit:10"
   x1="119.771"
   y1="148.44701"
   x2="119.771"
   y2="65.986"
   id="line28" />
				</g>
				<g
   clip-path="url(#SVGID_00000026874074527667352770000003020143496628118182_)"
   id="g30">
					<path
   style="fill:#95ac79"
   d="m 155.6,326.498 v 0 c -14.5,0 -26.255,11.755 -26.255,26.255 v 80.238 h 52.509 V 352.753 C 181.855,338.252 170.1,326.498 155.6,326.498 Z"
   id="path28" />
					<path
   style="fill:#95ac79"
   d="m 250,262.971 v 0 c -23.15,0 -41.917,18.767 -41.917,41.916 V 432.99 h 83.833 V 304.887 c 0,-23.15 -18.766,-41.916 -41.916,-41.916 z"
   id="path29" />
					<path
   style="fill:#95ac79"
   d="m 351.977,326.498 v 0 c -14.5,0 -26.255,11.755 -26.255,26.255 v 80.238 h 52.509 v -80.238 c 0,-14.501 -11.754,-26.255 -26.254,-26.255 z"
   id="path30" />
				</g>
				<g
   clip-path="url(#SVGID_00000026874074527667352770000003020143496628118182_)"
   id="g35">
					<path
   style="fill:#8caf3b"
   d="m 166.404,413.935 c 0,0 3.566,20.756 26.882,20.39 -2.468,-13.807 -15.635,-7.772 -26.882,-20.39 z"
   id="path31" />
					<path
   style="fill:#789f2b"
   d="m 173.262,394.185 c 0,0 -0.494,14.37 5.212,22.926 5.706,8.556 14.812,17.214 14.812,17.214 0,0 -1.097,-26.94 -20.024,-40.14 z"
   id="path32" />
					<path
   style="fill:#8caf3b"
   d="m 220.168,413.935 c 0,0 -3.566,20.756 -26.882,20.39 2.469,-13.807 15.636,-7.772 26.882,-20.39 z"
   id="path33" />
					<path
   style="fill:#789f2b"
   d="m 213.311,394.185 c 0,0 0.494,14.37 -5.212,22.926 -5.706,8.556 -14.813,17.214 -14.813,17.214 0,0 1.098,-26.94 20.025,-40.14 z"
   id="path34" />
					<path
   style="fill:#8caf3b"
   d="m 195.892,371.006 c 0,0 -21.807,19.307 -2.606,63.319 15.91,-32.734 -4.526,-36.439 2.606,-63.319 z"
   id="path35" />
				</g>
				<g
   clip-path="url(#SVGID_00000026874074527667352770000003020143496628118182_)"
   id="g55">
					<path
   style="fill:#789f2b"
   d="m 343.271,365.602 c 0,0 10.521,18.307 23.146,31.353 12.625,13.046 23.146,21.253 23.146,21.253 0,0 -12.836,-19.569 -18.728,-28.828 -5.89,-9.259 -27.564,-23.778 -27.564,-23.778 z"
   id="path36" />
					<path
   style="fill:#789f2b"
   d="m 338.642,348.768 c 0,0 11.573,13.046 25.882,27.355 14.309,14.309 25.04,27.145 25.04,27.145 0,0 -11.573,-19.569 -17.676,-30.722 -6.102,-11.152 -15.558,-21.027 -33.246,-23.778 z"
   id="path37" />
					<path
   style="fill:#789f2b"
   d="m 338.642,332.355 c 0,0 17.676,11.152 29.038,26.092 11.363,14.94 20.621,29.038 20.621,29.038 0,0 -6.733,-18.307 -12.415,-30.722 -5.681,-12.414 -19.239,-23.035 -37.244,-24.408 z"
   id="path38" />
					<path
   style="fill:#789f2b"
   d="m 337.8,322.255 c 0,0 14.519,7.365 26.303,15.571 11.784,8.207 22.515,27.776 22.515,27.776 0,0 -7.786,-21.381 -17.044,-31.312 -9.259,-9.931 -31.774,-12.035 -31.774,-12.035 z"
   id="path39" />
					<path
   style="fill:#789f2b"
   d="m 337.8,290.481 c 0,0 10.1,18.096 23.567,31.774 13.467,13.677 22.515,26.513 22.515,26.513 0,0 -14.098,-23.567 -21.673,-35.141 C 354.634,302.055 337.8,290.481 337.8,290.481 Z"
   id="path40" />
					<path
   style="fill:#789f2b"
   d="m 346.638,272.175 c 0,0 5.471,19.569 16.834,36.193 11.363,16.623 18.728,25.923 18.728,25.923 0,0 -9.68,-17.122 -13.467,-28.151 -3.788,-11.029 -15.993,-31.44 -22.095,-33.965 z"
   id="path41" />
					<path
   style="fill:#789f2b"
   d="m 364.418,255.972 c 0,0 -4.314,33.457 15.256,66.283 -2.315,-29.459 -15.256,-66.283 -15.256,-66.283 z"
   id="path42" />
					<path
   style="fill:#789f2b"
   d="m 399.243,268.387 c 0,0 -7.365,13.467 -12.625,26.303 -5.26,12.836 -4.419,39.6 -4.419,39.6 0,0 12.836,-33.732 15.782,-45.293 2.946,-11.562 1.262,-20.61 1.262,-20.61 z"
   id="path43" />
					<path
   style="fill:#789f2b"
   d="m 407.881,289.696 c 0,0 -7.165,9.833 -9.9,21.828 -2.736,11.994 -14.519,26.934 -14.098,37.245 7.154,-14.099 22.325,-25.77 23.998,-59.073 z"
   id="path44" />
					<path
   style="fill:#789f2b"
   d="m 419.444,313.838 c 0,0 -16.623,10.942 -24.409,26.513 -7.786,15.571 -8.417,25.251 -8.417,25.251 0,0 2.22,-12.625 13.104,-19.99 10.884,-7.365 18.67,-22.936 19.722,-31.774 z"
   id="path45" />
					<path
   style="fill:#789f2b"
   d="m 426.809,338.458 c 0,0 -19.569,10.732 -28.407,23.567 -8.838,12.836 -10.1,25.461 -10.1,25.461 0,0 11.784,-20.201 21.674,-29.038 9.889,-8.838 16.833,-19.99 16.833,-19.99 z"
   id="path46" />
					<path
   style="fill:#789f2b"
   d="m 429.755,353.819 c 0,0 -17.886,8.838 -25.251,20.832 -7.365,11.994 -14.94,28.618 -14.94,28.618 0,0 11.994,-14.519 25.04,-25.672 13.046,-11.153 15.151,-23.778 15.151,-23.778 z"
   id="path47" />
					<path
   style="fill:#789f2b"
   d="m 432.28,367.917 c 0,0 -14.919,12.204 -24.398,25.461 -9.479,13.257 -18.317,24.83 -18.317,24.83 0,0 18.728,-10.311 28.828,-22.305 10.099,-11.994 13.887,-27.986 13.887,-27.986 z"
   id="path48" />
					
						<path
   style="fill:none;stroke:#3b3813;stroke-width:0.75;stroke-linecap:round;stroke-linejoin:round;stroke-miterlimit:10"
   d="m 343.271,366.311 46.293,51.897 c 0,0 29.965,-26.78 42.716,-50.291"
   id="path49" />
					
						<path
   style="fill:none;stroke:#3b3813;stroke-width:0.75;stroke-linecap:round;stroke-linejoin:round;stroke-miterlimit:10"
   d="m 429.755,353.819 c 0,0 -26.77,27.313 -39.659,48.298 -19.493,-19.789 -51.454,-53.348 -51.454,-53.348"
   id="path50" />
					
						<path
   style="fill:none;stroke:#3b3813;stroke-width:0.75;stroke-linecap:round;stroke-linejoin:round;stroke-miterlimit:10"
   d="m 338.642,332.355 c 0,0 30.087,18.38 49.66,55.131 11.46,-25.556 37.703,-48.573 37.703,-48.573"
   id="path51" />
					
						<path
   style="fill:none;stroke:#3b3813;stroke-width:0.75;stroke-linecap:round;stroke-linejoin:round;stroke-miterlimit:10"
   d="m 337.8,322.255 c 0,0 38.529,16.878 48.818,43.347 5.03,-19.855 32.826,-51.764 32.826,-51.764"
   id="path52" />
					
						<path
   style="fill:none;stroke:#3b3813;stroke-width:0.75;stroke-linecap:round;stroke-linejoin:round;stroke-miterlimit:10"
   d="m 337.8,290.481 c 0,0 29.555,32.307 46.082,58.287 11.011,-24.158 23.999,-59.072 23.999,-59.072"
   id="path53" />
					
						<path
   style="fill:none;stroke:#3b3813;stroke-width:0.75;stroke-linecap:round;stroke-linejoin:round;stroke-miterlimit:10"
   d="m 399.243,268.387 c 0,0 -13.675,41.833 -17.044,65.903 -20.244,-23.471 -35.561,-62.116 -35.561,-62.116"
   id="path54" />
					
						<path
   style="fill:none;stroke:#3b3813;stroke-width:0.75;stroke-linecap:round;stroke-linejoin:round;stroke-miterlimit:10"
   d="m 364.418,255.972 c 0,0 7.176,42.672 15.256,66.283 l 2.525,12.035 1.683,14.478 2.736,16.834 1.683,21.884 1.263,15.782 v 14.94 16.341"
   id="path55" />
				</g>
				<g
   clip-path="url(#SVGID_00000026874074527667352770000003020143496628118182_)"
   id="g75">
					<path
   style="fill:#789f2b"
   d="m 85.555,365.602 c 0,0 10.521,18.307 23.146,31.353 12.625,13.046 23.146,21.253 23.146,21.253 0,0 -12.836,-19.569 -18.728,-28.828 -5.89,-9.259 -27.564,-23.778 -27.564,-23.778 z"
   id="path56" />
					<path
   style="fill:#789f2b"
   d="m 80.926,348.768 c 0,0 11.573,13.046 25.882,27.355 14.309,14.309 25.04,27.145 25.04,27.145 0,0 -11.573,-19.569 -17.676,-30.722 -6.102,-11.152 -15.558,-21.027 -33.246,-23.778 z"
   id="path57" />
					<path
   style="fill:#789f2b"
   d="m 80.926,332.355 c 0,0 17.675,11.152 29.038,26.092 11.363,14.94 20.621,29.038 20.621,29.038 0,0 -6.733,-18.307 -12.415,-30.722 -5.681,-12.414 -19.239,-23.035 -37.244,-24.408 z"
   id="path58" />
					<path
   style="fill:#789f2b"
   d="m 80.084,322.255 c 0,0 14.519,7.365 26.303,15.571 11.784,8.207 22.515,27.776 22.515,27.776 0,0 -7.786,-21.381 -17.044,-31.312 -9.259,-9.931 -31.774,-12.035 -31.774,-12.035 z"
   id="path59" />
					<path
   style="fill:#789f2b"
   d="m 80.084,290.481 c 0,0 10.1,18.096 23.567,31.774 13.467,13.677 22.515,26.513 22.515,26.513 0,0 -14.098,-23.567 -21.674,-35.141 -7.574,-11.572 -24.408,-23.146 -24.408,-23.146 z"
   id="path60" />
					<path
   style="fill:#789f2b"
   d="m 88.922,272.175 c 0,0 5.471,19.569 16.834,36.193 11.363,16.623 18.728,25.923 18.728,25.923 0,0 -9.68,-17.122 -13.467,-28.151 -3.788,-11.029 -15.993,-31.44 -22.095,-33.965 z"
   id="path61" />
					<path
   style="fill:#789f2b"
   d="m 106.703,255.972 c 0,0 -4.314,33.457 15.256,66.283 -2.315,-29.459 -15.256,-66.283 -15.256,-66.283 z"
   id="path62" />
					<path
   style="fill:#789f2b"
   d="m 141.528,268.387 c 0,0 -7.365,13.467 -12.625,26.303 -5.261,12.836 -4.419,39.6 -4.419,39.6 0,0 12.836,-33.732 15.782,-45.293 2.945,-11.562 1.262,-20.61 1.262,-20.61 z"
   id="path63" />
					<path
   style="fill:#789f2b"
   d="m 150.165,289.696 c 0,0 -7.165,9.833 -9.9,21.828 -2.736,11.994 -14.519,26.934 -14.098,37.245 7.154,-14.099 22.326,-25.77 23.998,-59.073 z"
   id="path64" />
					<path
   style="fill:#789f2b"
   d="m 161.728,313.838 c 0,0 -16.623,10.942 -24.409,26.513 -7.786,15.571 -8.417,25.251 -8.417,25.251 0,0 2.22,-12.625 13.104,-19.99 10.884,-7.365 18.67,-22.936 19.722,-31.774 z"
   id="path65" />
					<path
   style="fill:#789f2b"
   d="m 169.093,338.458 c 0,0 -19.569,10.732 -28.407,23.567 -8.838,12.836 -10.1,25.461 -10.1,25.461 0,0 11.784,-20.201 21.674,-29.038 9.889,-8.838 16.833,-19.99 16.833,-19.99 z"
   id="path66" />
					<path
   style="fill:#789f2b"
   d="m 172.039,353.819 c 0,0 -17.886,8.838 -25.251,20.832 -7.365,11.994 -14.94,28.618 -14.94,28.618 0,0 11.994,-14.519 25.04,-25.672 13.047,-11.153 15.151,-23.778 15.151,-23.778 z"
   id="path67" />
					<path
   style="fill:#789f2b"
   d="m 174.564,367.917 c 0,0 -14.919,12.204 -24.399,25.461 -9.48,13.257 -18.317,24.83 -18.317,24.83 0,0 18.728,-10.311 28.828,-22.305 10.1,-11.994 13.888,-27.986 13.888,-27.986 z"
   id="path68" />
					
						<path
   style="fill:none;stroke:#3b3813;stroke-width:0.75;stroke-linecap:round;stroke-linejoin:round;stroke-miterlimit:10"
   d="m 85.555,366.311 46.293,51.897 c 0,0 29.965,-26.78 42.716,-50.291"
   id="path69" />
					
						<path
   style="fill:none;stroke:#3b3813;stroke-width:0.75;stroke-linecap:round;stroke-linejoin:round;stroke-miterlimit:10"
   d="m 172.039,353.819 c 0,0 -26.769,27.313 -39.658,48.298 -19.493,-19.789 -51.454,-53.348 -51.454,-53.348"
   id="path70" />
					
						<path
   style="fill:none;stroke:#3b3813;stroke-width:0.75;stroke-linecap:round;stroke-linejoin:round;stroke-miterlimit:10"
   d="m 80.926,332.355 c 0,0 30.087,18.38 49.66,55.131 11.46,-25.556 37.703,-48.573 37.703,-48.573"
   id="path71" />
					
						<path
   style="fill:none;stroke:#3b3813;stroke-width:0.75;stroke-linecap:round;stroke-linejoin:round;stroke-miterlimit:10"
   d="m 80.084,322.255 c 0,0 38.529,16.878 48.818,43.347 5.03,-19.855 32.826,-51.764 32.826,-51.764"
   id="path72" />
					
						<path
   style="fill:none;stroke:#3b3813;stroke-width:0.75;stroke-linecap:round;stroke-linejoin:round;stroke-miterlimit:10"
   d="m 80.084,290.481 c 0,0 29.555,32.307 46.083,58.287 11.011,-24.158 23.999,-59.072 23.999,-59.072"
   id="path73" />
					
						<path
   style="fill:none;stroke:#3b3813;stroke-width:0.75;stroke-linecap:round;stroke-linejoin:round;stroke-miterlimit:10"
   d="m 141.528,268.387 c 0,0 -13.675,41.833 -17.044,65.903 C 104.24,310.819 88.923,272.174 88.923,272.174"
   id="path74" />
					
						<path
   style="fill:none;stroke:#3b3813;stroke-width:0.75;stroke-linecap:round;stroke-linejoin:round;stroke-miterlimit:10"
   d="m 106.703,255.972 c 0,0 7.176,42.672 15.256,66.283 l 2.525,12.035 1.683,14.478 2.735,16.834 1.683,21.884 1.263,15.782 v 14.94 16.341"
   id="path75" />
				</g>
				<g
   clip-path="url(#SVGID_00000026874074527667352770000003020143496628118182_)"
   id="g95">
					<path
   style="fill:#8caf3b"
   d="m 464.27,352.316 c 0,0 -12.574,21.878 -27.662,37.469 -15.088,15.591 -27.662,25.399 -27.662,25.399 0,0 15.34,-23.387 22.381,-34.452 7.041,-11.064 32.943,-28.416 32.943,-28.416 z"
   id="path76" />
					<path
   style="fill:#8caf3b"
   d="m 469.802,332.198 c 0,0 -13.831,15.591 -30.931,32.691 -17.1,17.1 -29.925,32.44 -29.925,32.44 0,0 13.831,-23.387 21.124,-36.715 7.292,-13.328 18.594,-25.128 39.732,-28.416 z"
   id="path77" />
					<path
   style="fill:#8caf3b"
   d="m 469.802,312.583 c 0,0 -21.124,13.328 -34.703,31.183 -13.58,17.855 -24.644,34.703 -24.644,34.703 0,0 8.047,-21.878 14.837,-36.715 6.79,-14.837 22.992,-27.531 44.51,-29.171 z"
   id="path78" />
					<path
   style="fill:#8caf3b"
   d="m 470.808,300.513 c 0,0 -17.352,8.801 -31.434,18.609 -14.082,9.807 -26.908,33.194 -26.908,33.194 0,0 9.305,-25.552 20.369,-37.421 11.066,-11.868 37.973,-14.382 37.973,-14.382 z"
   id="path79" />
					<path
   style="fill:#8caf3b"
   d="m 470.808,262.54 c 0,0 -12.071,21.627 -28.165,37.972 -16.094,16.346 -26.908,31.686 -26.908,31.686 0,0 16.849,-28.165 25.902,-41.996 9.054,-13.831 29.171,-27.662 29.171,-27.662 z"
   id="path80" />
					<path
   style="fill:#8caf3b"
   d="m 460.247,240.662 c 0,0 -6.538,23.387 -20.118,43.253 -13.579,19.866 -22.381,30.98 -22.381,30.98 0,0 11.568,-20.463 16.094,-33.643 4.526,-13.179 19.112,-37.572 26.405,-40.59 z"
   id="path81" />
					<path
   style="fill:#8caf3b"
   d="m 438.997,221.299 c 0,0 5.155,39.984 -18.232,79.214 2.766,-35.207 18.232,-79.214 18.232,-79.214 z"
   id="path82" />
					<path
   style="fill:#8caf3b"
   d="m 397.378,236.135 c 0,0 8.802,16.094 15.088,31.434 6.287,15.34 5.281,47.326 5.281,47.326 0,0 -15.34,-40.312 -18.86,-54.129 -3.52,-13.817 -1.509,-24.631 -1.509,-24.631 z"
   id="path83" />
					<path
   style="fill:#8caf3b"
   d="m 387.055,261.602 c 0,0 8.563,11.752 11.832,26.086 3.269,14.334 17.352,32.188 16.849,44.511 -8.55,-16.85 -26.681,-30.797 -28.681,-70.597 z"
   id="path84" />
					<path
   style="fill:#8caf3b"
   d="m 373.237,290.454 c 0,0 19.866,13.077 29.171,31.686 9.305,18.609 10.059,30.177 10.059,30.177 0,0 -2.653,-15.088 -15.661,-23.89 -13.007,-8.803 -22.312,-27.412 -23.569,-37.973 z"
   id="path85" />
					<path
   style="fill:#8caf3b"
   d="m 364.435,319.876 c 0,0 23.387,12.825 33.949,28.165 10.562,15.34 12.071,30.428 12.071,30.428 0,0 -14.082,-24.141 -25.902,-34.703 -11.819,-10.562 -20.118,-23.89 -20.118,-23.89 z"
   id="path86" />
					<path
   style="fill:#8caf3b"
   d="m 360.915,338.233 c 0,0 21.375,10.562 30.177,24.896 8.802,14.334 17.855,34.2 17.855,34.2 0,0 -14.334,-17.352 -29.925,-30.68 -15.593,-13.327 -18.107,-28.416 -18.107,-28.416 z"
   id="path87" />
					<path
   style="fill:#8caf3b"
   d="m 357.897,355.082 c 0,0 17.829,14.585 29.158,30.428 11.329,15.843 21.891,29.674 21.891,29.674 0,0 -22.381,-12.322 -34.452,-26.656 -12.07,-14.334 -16.597,-33.446 -16.597,-33.446 z"
   id="path88" />
					
						<path
   style="fill:none;stroke:#3b3813;stroke-width:0.75;stroke-linecap:round;stroke-linejoin:round;stroke-miterlimit:10"
   d="m 464.27,353.163 -55.324,62.021 c 0,0 -35.81,-32.005 -51.049,-60.102"
   id="path89" />
					
						<path
   style="fill:none;stroke:#3b3813;stroke-width:0.75;stroke-linecap:round;stroke-linejoin:round;stroke-miterlimit:10"
   d="m 360.915,338.233 c 0,0 31.992,32.641 47.395,57.72 23.296,-23.649 61.492,-63.755 61.492,-63.755"
   id="path90" />
					
						<path
   style="fill:none;stroke:#3b3813;stroke-width:0.75;stroke-linecap:round;stroke-linejoin:round;stroke-miterlimit:10"
   d="m 469.802,312.583 c 0,0 -35.957,21.966 -59.348,65.886 -13.695,-30.542 -45.058,-58.049 -45.058,-58.049"
   id="path91" />
					
						<path
   style="fill:none;stroke:#3b3813;stroke-width:0.75;stroke-linecap:round;stroke-linejoin:round;stroke-miterlimit:10"
   d="m 470.808,300.513 c 0,0 -46.046,20.17 -58.342,51.803 -6.011,-23.728 -39.23,-61.862 -39.23,-61.862"
   id="path92" />
					
						<path
   style="fill:none;stroke:#3b3813;stroke-width:0.75;stroke-linecap:round;stroke-linejoin:round;stroke-miterlimit:10"
   d="m 470.808,262.54 c 0,0 -35.321,38.61 -55.073,69.658 -13.159,-28.871 -28.68,-70.596 -28.68,-70.596"
   id="path93" />
					
						<path
   style="fill:none;stroke:#3b3813;stroke-width:0.75;stroke-linecap:round;stroke-linejoin:round;stroke-miterlimit:10"
   d="m 397.378,236.135 c 0,0 16.343,49.994 20.369,78.76 24.194,-28.05 42.499,-74.233 42.499,-74.233"
   id="path94" />
					
						<path
   style="fill:none;stroke:#3b3813;stroke-width:0.75;stroke-linecap:round;stroke-linejoin:round;stroke-miterlimit:10"
   d="m 438.997,221.299 c 0,0 -8.576,50.997 -18.232,79.214 l -3.018,14.383 -2.012,17.303 -3.269,20.118 -2.012,26.153 -1.509,18.86 v 17.855 19.529"
   id="path95" />
				</g>
				<g
   clip-path="url(#SVGID_00000026874074527667352770000003020143496628118182_)"
   id="g107">
					<path
   style="fill:#4e7f6a"
   d="m 10.909,335.938 c 0,0 26.376,-11.773 53.124,15.116 18.203,18.345 30.462,82.575 30.462,82.575 0,0 -4.458,-64.655 -27.119,-97.691 -22.661,-33.037 -49.408,-13.773 -56.467,0 z"
   id="path96" />
					<path
   style="fill:#496f55"
   d="m 156.163,360.854 c 0,0 -6.315,-19.771 -30.834,-18.946 -24.519,0.825 -30.834,91.72 -30.834,91.72 0,0 12.631,-71.111 30.834,-77.886 14.489,-4.546 30.834,5.112 30.834,5.112 z"
   id="path97" />
					
						<path
   style="fill:none;stroke:#3b3813;stroke-width:0.75;stroke-linecap:round;stroke-linejoin:round;stroke-miterlimit:10"
   d="m 10.909,335.938 c 0,0 56.863,-22.693 76.223,64.586"
   id="path98" />
					
						<path
   style="fill:none;stroke:#3b3813;stroke-width:0.75;stroke-linecap:round;stroke-linejoin:round;stroke-miterlimit:10"
   d="m 156.163,360.854 c 0,0 -35.626,-27.293 -49.237,24.333"
   id="path99" />
					<path
   style="fill:#496f55"
   d="m 1.622,366.427 c 0,0 24.519,-10.695 53.124,4.125 28.605,14.82 39.75,63.076 39.75,63.076 0,0 -1.114,-42.717 -33.063,-70.934 -31.949,-28.216 -59.811,3.733 -59.811,3.733 z"
   id="path100" />
					<path
   style="fill:#496f55"
   d="m 88.18,275.783 c 0,0 -11.54,21.055 -10.773,63.897 0.766,42.842 17.089,93.949 17.089,93.949 0,0 10.402,-53.481 10.03,-91.745 C 104.154,303.619 88.18,275.783 88.18,275.783 Z"
   id="path101" />
					<path
   style="fill:#4e7f6a"
   d="m 146.133,303.403 c 0,0 -33.806,10.643 -41.236,22.531 -7.43,11.888 -10.402,107.694 -10.402,107.694 0,0 13.745,-76.117 23.776,-93.949 10.03,-17.831 27.862,-36.276 27.862,-36.276 z"
   id="path102" />
					<path
   style="fill:#4e7f6a"
   d="m 45.458,417.322 c 0,0 23.033,-46.886 49.037,16.307 C 84.123,374.697 45.458,374.971 45.458,417.322 Z"
   id="path103" />
					<path
   style="fill:#4e7f6a"
   d="m 140.932,403.576 c 0,0 -33.434,-29.055 -46.437,30.052 -1.213,-71.286 39.007,-64.601 46.437,-30.052 z"
   id="path104" />
					
						<path
   style="fill:none;stroke:#3b3813;stroke-width:0.75;stroke-linecap:round;stroke-linejoin:round;stroke-miterlimit:10"
   d="m 88.18,275.783 6.315,157.846 C 71.326,338.203 1.622,366.428 1.622,366.428"
   id="path105" />
					
						<path
   style="fill:none;stroke:#3b3813;stroke-width:0.75;stroke-linecap:round;stroke-linejoin:round;stroke-miterlimit:10"
   d="m 146.133,303.403 c 0,0 -52.463,48.263 -51.638,130.225 0,0 8.401,-55.555 46.437,-30.052"
   id="path106" />
					
						<path
   style="fill:none;stroke:#3b3813;stroke-width:0.75;stroke-linecap:round;stroke-linejoin:round;stroke-miterlimit:10"
   d="m 45.458,417.322 c 0,0 22.717,-47.035 49.037,16.307"
   id="path107" />
				</g>
				<g
   clip-path="url(#SVGID_00000026874074527667352770000003020143496628118182_)"
   id="g114">
					<g
   id="g113">
						<path
   style="fill:#4e7f6a"
   d="m 308.424,345.261 c 0,0 7.154,6.523 11.152,19.569 3.998,13.046 8.627,28.407 22.515,17.465 13.888,-10.942 -12.835,-31.353 -33.667,-37.034 z"
   id="path108" />
						<path
   style="fill:#496f55"
   d="m 358.715,328.006 c 0,0 -18.096,20.621 -17.465,44.61 0.842,11.363 3.998,13.467 12.204,13.467 8.206,0 10.1,-6.102 10.521,-14.309 0.421,-8.207 -9.679,-19.99 -5.26,-43.768 z"
   id="path109" />
						<path
   style="fill:#4e7f6a"
   d="m 382.913,355.361 c 0,0 -20.201,1.683 -26.303,24.199 -1.683,5.261 8.206,11.573 13.151,2.525 4.946,-9.049 5.788,-19.57 13.152,-26.724 z"
   id="path110" />
						
							<path
   style="fill:none;stroke:#3b3813;stroke-width:0.75;stroke-linecap:round;stroke-linejoin:round;stroke-miterlimit:10"
   d="m 308.424,345.261 c 0,0 28.102,17.601 39.155,54.804"
   id="path111" />
						
							<path
   style="fill:none;stroke:#3b3813;stroke-width:0.75;stroke-linecap:round;stroke-linejoin:round;stroke-miterlimit:10"
   d="m 358.715,328.006 c 0,0 -6.92,13.524 -7.262,37.636 -0.342,24.112 0.684,34.422 0.684,34.422"
   id="path112" />
						
							<path
   style="fill:none;stroke:#3b3813;stroke-width:0.75;stroke-linecap:round;stroke-linejoin:round;stroke-miterlimit:10"
   d="m 382.913,355.361 c 0,0 -22.801,13.768 -25.08,44.704"
   id="path113" />
					</g>
					<path
   style="fill:#ecb452"
   d="m 369.657,396.852 h -36.311 v 18.156 c 0,10.027 8.129,18.156 18.156,18.156 v 0 c 10.027,0 18.156,-8.129 18.156,-18.156 v -18.156 z"
   id="path114" />
				</g>
				<g
   clip-path="url(#SVGID_00000026874074527667352770000003020143496628118182_)"
   id="g127">
					<g
   id="g126">
						<path
   style="fill:#74b597"
   d="m 186.177,325.023 c 0,0 13.188,-5.887 26.562,7.558 9.102,9.173 15.231,41.287 15.231,41.287 0,0 -2.229,-32.327 -13.56,-48.845 -11.33,-16.518 -24.704,-6.886 -28.233,0 z"
   id="path115" />
						<path
   style="fill:#62a081"
   d="m 258.804,337.481 c 0,0 -3.158,-9.886 -15.417,-9.473 -12.259,0.413 -15.417,45.86 -15.417,45.86 0,0 6.315,-35.555 15.417,-38.943 7.244,-2.273 15.417,2.556 15.417,2.556 z"
   id="path116" />
						
							<path
   style="fill:none;stroke:#3b3813;stroke-width:0.75;stroke-linecap:round;stroke-linejoin:round;stroke-miterlimit:10"
   d="m 186.177,325.023 c 0,0 28.432,-11.347 38.112,32.293"
   id="path117" />
						
							<path
   style="fill:none;stroke:#3b3813;stroke-width:0.75;stroke-linecap:round;stroke-linejoin:round;stroke-miterlimit:10"
   d="m 258.804,337.481 c 0,0 -17.813,-13.647 -24.618,12.166"
   id="path118" />
						<path
   style="fill:#62a081"
   d="m 181.533,340.267 c 0,0 12.259,-5.348 26.562,2.063 14.303,7.41 19.875,31.538 19.875,31.538 0,0 -0.557,-21.359 -16.532,-35.467 -15.974,-14.108 -29.905,1.866 -29.905,1.866 z"
   id="path119" />
						<path
   style="fill:#62a081"
   d="m 224.812,294.945 c 0,0 -5.77,10.527 -5.387,31.948 0.383,21.421 8.544,46.974 8.544,46.974 0,0 5.201,-26.741 5.015,-45.873 -0.185,-19.13 -8.172,-33.049 -8.172,-33.049 z"
   id="path120" />
						<path
   style="fill:#74b597"
   d="m 253.789,308.756 c 0,0 -16.903,5.322 -20.618,11.265 -3.715,5.944 -5.201,53.847 -5.201,53.847 0,0 6.873,-38.059 11.888,-46.974 5.015,-8.916 13.931,-18.138 13.931,-18.138 z"
   id="path121" />
						<path
   style="fill:#74b597"
   d="m 203.451,365.715 c 0,0 11.516,-23.443 24.519,8.153 -5.187,-29.466 -24.519,-29.328 -24.519,-8.153 z"
   id="path122" />
						<path
   style="fill:#74b597"
   d="m 251.188,358.842 c 0,0 -16.717,-14.527 -23.218,15.026 -0.607,-35.643 19.503,-32.3 23.218,-15.026 z"
   id="path123" />
						
							<path
   style="fill:none;stroke:#3b3813;stroke-width:0.75;stroke-linecap:round;stroke-linejoin:round;stroke-miterlimit:10"
   d="m 224.812,294.945 3.158,78.923 c -11.585,-47.713 -46.437,-33.601 -46.437,-33.601"
   id="path124" />
						
							<path
   style="fill:none;stroke:#3b3813;stroke-width:0.75;stroke-linecap:round;stroke-linejoin:round;stroke-miterlimit:10"
   d="m 253.789,308.756 c 0,0 -26.232,24.132 -25.819,65.112 0,0 4.201,-27.777 23.218,-15.026"
   id="path125" />
						
							<path
   style="fill:none;stroke:#3b3813;stroke-width:0.75;stroke-linecap:round;stroke-linejoin:round;stroke-miterlimit:10"
   d="m 203.451,365.715 c 0,0 11.358,-23.518 24.519,8.153"
   id="path126" />
					</g>
					<path
   style="fill:#ce693b"
   d="m 226.492,432.573 v 0 c -6.608,0 -11.964,-5.357 -11.964,-11.964 v -47.904 h 23.928 v 47.904 c 0.001,6.607 -5.356,11.964 -11.964,11.964 z"
   id="path127" />
				</g>
				<g
   clip-path="url(#SVGID_00000026874074527667352770000003020143496628118182_)"
   id="g133">
					<path
   style="fill:#4e7f6a"
   d="m 209.456,349.923 c 0,0 10.86,9.901 16.928,29.705 6.069,19.803 13.096,43.12 34.176,26.511 21.081,-16.61 -19.483,-47.592 -51.104,-56.216 z"
   id="path128" />
					<path
   style="fill:#496f55"
   d="m 285.794,323.732 c 0,0 -27.469,31.302 -26.511,67.714 1.278,17.248 6.069,20.442 18.526,20.442 12.457,0 15.331,-9.263 15.97,-21.719 0.639,-12.458 -14.693,-30.344 -7.985,-66.437 z"
   id="path129" />
					<path
   style="fill:#4e7f6a"
   d="m 322.525,365.254 c 0,0 -30.663,2.555 -39.926,36.732 -2.555,7.985 12.457,17.567 19.963,3.833 7.507,-13.734 8.784,-29.705 19.963,-40.565 z"
   id="path130" />
					
						<path
   style="fill:none;stroke:#3b3813;stroke-width:0.75;stroke-linecap:round;stroke-linejoin:round;stroke-miterlimit:10"
   d="m 209.456,349.923 c 0,0 42.657,26.717 59.434,83.188"
   id="path131" />
					
						<path
   style="fill:none;stroke:#3b3813;stroke-width:0.75;stroke-linecap:round;stroke-linejoin:round;stroke-miterlimit:10"
   d="m 285.794,323.732 c 0,0 -10.505,20.529 -11.024,57.129 -0.519,36.6 1.038,52.251 1.038,52.251"
   id="path132" />
					
						<path
   style="fill:none;stroke:#3b3813;stroke-width:0.75;stroke-linecap:round;stroke-linejoin:round;stroke-miterlimit:10"
   d="m 322.525,365.254 c 0,0 -34.611,20.898 -38.07,67.857"
   id="path133" />
				</g>
				<g
   clip-path="url(#SVGID_00000026874074527667352770000003020143496628118182_)"
   id="g139">
					<g
   id="g138">
						<path
   style="fill:#77a960"
   d="m 453.97,442.333 c 0,0 -14.318,6.024 -42.349,-12.338 29.984,1.875 42.349,12.338 42.349,12.338 z"
   id="path134" />
						<path
   style="fill:#77a960"
   d="m 405.051,397.242 c 0,0 9.894,28.724 48.919,45.091 -17.177,-34.367 -48.919,-45.091 -48.919,-45.091 z"
   id="path135" />
						<path
   style="fill:#77a960"
   d="m 411.131,374.917 c 0,0 6.968,32.94 42.839,67.417 0.156,-37.582 -42.839,-67.417 -42.839,-67.417 z"
   id="path136" />
						<path
   style="fill:#77a960"
   d="m 428.542,369.514 c 0,0 5.825,35.564 25.427,72.819 19.023,-11.237 -8.395,-64.698 -25.427,-72.819 z"
   id="path137" />
						<path
   style="fill:#77a960"
   d="m 465.351,379.026 c 0,0 -6.658,21.7 -11.382,63.307 32.78,-12.557 11.382,-63.307 11.382,-63.307 z"
   id="path138" />
					</g>
				</g>
				<g
   clip-path="url(#SVGID_00000026874074527667352770000003020143496628118182_)"
   id="g145">
					<g
   id="g144">
						<g
   id="g140">
							<path
   style="fill:#789f2b"
   d="m 52.737,434.956 c 0,0 -43.811,-4.404 -53.787,-46.202 26.194,10.779 53.787,46.202 53.787,46.202 z"
   id="path139" />
						</g>
						<g
   id="g141">
							<path
   style="fill:#8caf3b"
   d="m 29.364,370.566 c 0,0 -21.254,37.661 21.813,62.83 -2.237,-28.712 -9.133,-49.226 -21.813,-62.83 z"
   id="path140" />
						</g>
						<g
   id="g142">
							<path
   style="fill:#789f2b"
   d="m 68.889,353.414 c 0,0 -46.423,30.017 -17.712,79.982 11.373,-18.83 15.105,-40.833 14.544,-54.815 -0.561,-13.981 3.168,-25.167 3.168,-25.167 z"
   id="path141" />
						</g>
						<g
   id="g143">
							<path
   style="fill:#8caf3b"
   d="m 99.092,387.346 c 0,0 -36.915,-10.441 -47.915,46.05 26.474,2.237 22,-26.847 47.915,-46.05 z"
   id="path142" />
						</g>
					</g>
				</g>
			</g>
			<g
   id="g151">
				
					<rect
   x="29.183001"
   y="164.127"
   style="fill:none;stroke:#ffffff;stroke-width:0.75;stroke-linecap:round;stroke-linejoin:round;stroke-miterlimit:10"
   width="441.633"
   height="245.35201"
   id="rect146" />
				
					<polygon
   style="fill:none;stroke:#ffffff;stroke-width:0.75;stroke-linecap:round;stroke-linejoin:round;stroke-miterlimit:10"
   points="250,65.986 176.394,164.127 323.605,164.127 "
   id="polygon146" />
				
					<polygon
   style="fill:none;stroke:#ffffff;stroke-width:0.75;stroke-linecap:round;stroke-linejoin:round;stroke-miterlimit:10"
   points="470.817,164.127 29.183,164.127 102.789,65.986 397.211,65.986 "
   id="polygon147" />
				
					<line
   style="fill:none;stroke:#ffffff;stroke-width:0.75;stroke-linecap:round;stroke-linejoin:round;stroke-miterlimit:10"
   x1="102.789"
   y1="164.127"
   x2="176.394"
   y2="65.986"
   id="line147" />
				
					<line
   style="fill:none;stroke:#ffffff;stroke-width:0.75;stroke-linecap:round;stroke-linejoin:round;stroke-miterlimit:10"
   x1="397.211"
   y1="164.127"
   x2="323.60501"
   y2="65.986"
   id="line148" />
				
					<rect
   x="29.183001"
   y="188.662"
   style="fill:none;stroke:#ffffff;stroke-width:0.75;stroke-linecap:round;stroke-linejoin:round;stroke-miterlimit:10"
   width="441.633"
   height="24.535"
   id="rect148" />
				
					<rect
   x="29.183001"
   y="409.479"
   style="fill:none;stroke:#ffffff;stroke-width:0.75;stroke-linecap:round;stroke-linejoin:round;stroke-miterlimit:10"
   width="441.633"
   height="24.535"
   id="rect149" />
				
					<rect
   x="176.394"
   y="213.19701"
   style="fill:none;stroke:#ffffff;stroke-width:0.75;stroke-linecap:round;stroke-linejoin:round;stroke-miterlimit:10"
   width="147.211"
   height="196.28101"
   id="rect150" />
				
					<path
   style="fill:none;stroke:#ffffff;stroke-width:0.75;stroke-linecap:round;stroke-linejoin:round;stroke-miterlimit:10"
   d="m 90.521,262.268 v 0 c -20.326,0 -36.803,16.477 -36.803,36.803 v 110.408 h 73.605 V 299.07 c 0.001,-20.325 -16.476,-36.802 -36.802,-36.802 z"
   id="path150" />
				
					<path
   style="fill:none;stroke:#ffffff;stroke-width:0.75;stroke-linecap:round;stroke-linejoin:round;stroke-miterlimit:10"
   d="m 409.479,262.268 v 0 c -20.326,0 -36.803,16.477 -36.803,36.803 v 110.408 h 73.605 V 299.07 c 0,-20.325 -16.477,-36.802 -36.802,-36.802 z"
   id="path151" />
				
					<rect
   x="200.92999"
   y="237.73199"
   style="fill:none;stroke:#ffffff;stroke-width:0.75;stroke-linecap:round;stroke-linejoin:round;stroke-miterlimit:10"
   width="98.140999"
   height="171.746"
   id="rect151" />
			</g>
		</g>
	</g>
</g>
<text
   xml:space="preserve"
   style="font-style:oblique;font-weight:bold;font-size:42.5855px;font-family:Courier;-inkscape-font-specification:'Courier, Bold Oblique';writing-mode:lr-tb;direction:ltr;fill:#000000;stroke-width:0.530796"
   x="81.348587"
   y="32.434464"
   id="text153"
   transform="scale(0.75520185,1.3241493)"><tspan
     sodipodi:role="line"
     id="tspan153"
     x="81.348587"
     y="32.434464"
     style="stroke-width:0.530796">Conservatory</tspan></text></svg>
