<?xml version="1.0" encoding="UTF-8" standalone="no"?>
<!-- Generator: Adobe Illustrator 19.0.0, SVG Export Plug-In . SVG Version: 6.00 Build 0)  -->

<svg
   version="1.1"
   x="0px"
   y="0px"
   viewBox="0 0 348.44257 399.00494"
   xml:space="preserve"
   id="svg84"
   sodipodi:docname="Kitchen.svg"
   width="348.44257"
   height="399.00494"
   inkscape:version="1.4.3 (0d15f75, 2025-12-25)"
   xmlns:inkscape="http://www.inkscape.org/namespaces/inkscape"
   xmlns:sodipodi="http://sodipodi.sourceforge.net/DTD/sodipodi-0.dtd"
   xmlns="http://www.w3.org/2000/svg"
   xmlns:svg="http://www.w3.org/2000/svg"><defs
   id="defs84" /><sodipodi:namedview
   id="namedview84"
   pagecolor="#ffffff"
   bordercolor="#000000"
   borderopacity="0.25"
   inkscape:showpageshadow="2"
   inkscape:pageopacity="0.0"
   inkscape:pagecheckerboard="0"
   inkscape:deskcolor="#d1d1d1"
   inkscape:zoom="1.506147"
   inkscape:cx="146.06808"
   inkscape:cy="205.15926"
   inkscape:window-width="1470"
   inkscape:window-height="923"
   inkscape:window-x="0"
   inkscape:window-y="33"
   inkscape:window-maximized="0"
   inkscape:current-layer="svg84" />
<style
   type="text/css"
   id="style1">
	.st0{fill:#C68060;}
	.st1{fill:#FFDEA8;}
	.st2{fill:#9D5B1D;}
	.st3{fill:#C5711B;}
	.st4{fill:#FFFFFF;}
	.st5{fill:#575756;}
	.st6{fill:#4F4C4D;}
	.st7{fill:#878787;}
	.st8{fill:#F6F6F6;stroke:#F6F6F6;stroke-miterlimit:10;}
	.st9{fill:#97DAF8;}
	.st10{opacity:0.46;fill:#FFFFFF;}
	.st11{opacity:0.27;fill:#FFFFFF;}
	.st12{fill:#BEC0C2;}
	.st13{fill:#3C3C3B;}
	.st14{fill:#39C7BD;}
	.st15{fill:#683C11;}
	.st16{fill:none;stroke:#F6F6F6;stroke-width:0.75;stroke-miterlimit:10;}
	.st17{fill:#03A1C3;}
	.st18{fill:#FFD04F;}
	.st19{fill:#57BD7D;}
</style>
<g
   id="Layer_1"
   transform="matrix(0.24636085,0,0,0.40698181,0,0.16279273)">
	<rect
   x="0"
   y="836.59998"
   class="st0"
   width="1400"
   height="143.39999"
   id="rect1" />
	<rect
   x="0"
   y="0"
   class="st1"
   width="1400"
   height="836.59998"
   id="rect2" />
</g>
<g
   id="Layer_3"
   transform="matrix(0.24636085,0,0,0.40698181,0,0.16279273)">
	<g
   id="g26">
		<rect
   x="375.79999"
   y="569.90002"
   class="st2"
   width="1042.4"
   height="31.9"
   id="rect3" />
		<rect
   x="395.39999"
   y="601.79999"
   class="st3"
   width="1003.1"
   height="301.89999"
   id="rect4" />
		<rect
   x="779.40002"
   y="635"
   class="st2"
   width="62.900002"
   height="10"
   id="rect5" />
		<rect
   x="698.70001"
   y="601.79999"
   class="st2"
   width="3.4000001"
   height="301.89999"
   id="rect6" />
		<path
   class="st2"
   d="M 684,886.4 H 407.9 V 673.9 H 684 Z M 411.2,883.1 H 680.7 V 677.3 H 411.2 Z"
   id="path6" />
		<path
   class="st2"
   d="m 907.7,681.7 h -200 v -69.6 h 200 z M 711.5,679.9 H 903.9 V 614 H 711.5 Z"
   id="path7" />
		<rect
   x="779.40002"
   y="695.20001"
   class="st2"
   width="62.900002"
   height="10"
   id="rect7" />
		<path
   class="st2"
   d="m 907.7,751.3 h -200 v -69.6 h 200 z M 711.5,749.5 H 903.9 V 683.6 H 711.5 Z"
   id="path8" />
		<rect
   x="779.40002"
   y="783.29999"
   class="st2"
   width="62.900002"
   height="10"
   id="rect8" />
		<path
   class="st2"
   d="m 907.7,830 h -200 v -69.6 h 200 z M 711.5,828.2 H 903.9 V 762.3 H 711.5 Z"
   id="path9" />
		<rect
   x="779.40002"
   y="843.40002"
   class="st2"
   width="62.900002"
   height="10"
   id="rect9" />
		<path
   class="st2"
   d="m 907.7,899.6 h -200 V 830 h 200 z M 711.5,897.8 H 903.9 V 831.9 H 711.5 Z"
   id="path10" />
		<rect
   x="1268.5"
   y="635"
   class="st2"
   width="62.900002"
   height="10"
   id="rect10" />
		<path
   class="st2"
   d="m 1396.8,681.7 h -200 v -69.6 h 200 z m -196.2,-1.8 H 1393 V 614 h -192.4 z"
   id="path11" />
		<rect
   x="1268.5"
   y="695.20001"
   class="st2"
   width="62.900002"
   height="10"
   id="rect11" />
		<path
   class="st2"
   d="m 1396.8,751.3 h -200 v -69.6 h 200 z m -196.2,-1.8 H 1393 v -65.9 h -192.4 z"
   id="path12" />
		<rect
   x="1268.5"
   y="783.29999"
   class="st2"
   width="62.900002"
   height="10"
   id="rect12" />
		<path
   class="st2"
   d="m 1396.8,830 h -200 v -69.6 h 200 z m -196.2,-1.8 H 1393 v -65.9 h -192.4 z"
   id="path13" />
		<rect
   x="1268.5"
   y="843.40002"
   class="st2"
   width="62.900002"
   height="10"
   id="rect13" />
		<path
   class="st2"
   d="m 1396.8,899.6 h -200 V 830 h 200 z m -196.2,-1.8 H 1393 v -65.9 h -192.4 z"
   id="path14" />
		<path
   class="st2"
   d="M 684,673.9 H 407.9 V 612.1 H 684 Z M 411.2,670.1 H 680.7 V 616 H 411.2 Z"
   id="path15" />
		<rect
   x="660.59998"
   y="737.90002"
   class="st2"
   width="11.5"
   height="79.099998"
   id="rect15" />
		<rect
   x="513.09998"
   y="640.59998"
   class="st2"
   width="62.900002"
   height="10"
   id="rect16" />
		<g
   id="g25">
			<rect
   x="913.20001"
   y="601.79999"
   class="st4"
   width="276.39999"
   height="301.89999"
   id="rect17" />
			<rect
   x="970.09998"
   y="689.90002"
   class="st5"
   width="162.7"
   height="10.5"
   id="rect18" />
			<rect
   x="913.20001"
   y="601.79999"
   class="st6"
   width="276.39999"
   height="57.700001"
   id="rect19" />
			<path
   class="st7"
   d="m 1158.8,644 h -41.5 c -5.7,0 -10.2,-4.6 -10.2,-10.2 v 0 c 0,-5.7 4.6,-10.2 10.2,-10.2 h 41.5 c 5.7,0 10.2,4.6 10.2,10.2 v 0 c 0,5.7 -4.6,10.2 -10.2,10.2 z"
   id="path19" />
			<line
   class="st8"
   x1="1130.1"
   y1="626.40002"
   x2="1150.8"
   y2="641"
   id="line19" />
			<line
   class="st8"
   x1="1118.9"
   y1="626.40002"
   x2="1139.6"
   y2="641"
   id="line20" />
			<path
   class="st9"
   d="m 936.7,718.2 v 139 h 229.4 v -139 z"
   id="path20" />
			<line
   class="st8"
   x1="1010.4"
   y1="748.40002"
   x2="1103"
   y2="812.90002"
   id="line21" />
			<line
   class="st8"
   x1="1013.6"
   y1="790.70001"
   x2="1056.1"
   y2="818.20001"
   id="line22" />
			<circle
   class="st4"
   cx="943.40002"
   cy="633.79999"
   r="11.7"
   id="circle22" />
			<circle
   class="st4"
   cx="984.40002"
   cy="633.79999"
   r="11.7"
   id="circle23" />
			<circle
   class="st4"
   cx="1027.5"
   cy="633.79999"
   r="11.7"
   id="circle24" />
			<circle
   class="st4"
   cx="1068.5"
   cy="633.79999"
   r="11.7"
   id="circle25" />
		</g>
	</g>
	<g
   id="g33">
		<rect
   x="388.70001"
   class="st3"
   width="449.5"
   height="261.70001"
   id="rect26"
   y="0" />
		<rect
   x="626.20001"
   y="104.3"
   class="st2"
   width="9.1999998"
   height="121.7"
   id="rect27" />
		<rect
   x="591.90002"
   y="104.3"
   class="st2"
   width="9.1999998"
   height="121.7"
   id="rect28" />
		<rect
   x="611.29999"
   y="-0.2"
   class="st2"
   width="4.4000001"
   height="261.89999"
   id="rect29" />
		<rect
   x="1204"
   class="st3"
   width="196"
   height="261.70001"
   id="rect30"
   y="0" />
		<rect
   x="1204"
   y="-0.2"
   class="st2"
   width="4.4000001"
   height="261.89999"
   id="rect31" />
		<rect
   x="833.90002"
   y="-0.2"
   class="st2"
   width="4.4000001"
   height="261.89999"
   id="rect32" />
		<rect
   x="388.70001"
   y="-0.2"
   class="st2"
   width="4.4000001"
   height="176.60001"
   id="rect33" />
	</g>
	<g
   id="g38">
		<rect
   x="23"
   class="st3"
   width="365.79999"
   height="176.39999"
   id="rect34"
   y="0" />
		<rect
   x="23"
   y="17.4"
   class="st2"
   width="365.79999"
   height="4.4000001"
   id="rect35" />
		<rect
   x="149.5"
   y="156"
   class="st2"
   width="121.7"
   height="9.1999998"
   id="rect36" />
		<rect
   x="51"
   y="34.200001"
   class="st10"
   width="311.70001"
   height="110.7"
   id="rect37" />
		<polygon
   class="st11"
   points="215.2,34.2 240.5,34.2 180.5,144.9 155.3,144.9 "
   id="polygon37" />
		<polygon
   class="st11"
   points="270.4,34.2 322.7,34.2 262.8,144.9 210.4,144.9 "
   id="polygon38" />
	</g>
	<g
   id="g44">
		<rect
   x="838.29999"
   y="0"
   class="st3"
   width="365.79999"
   height="261.5"
   id="rect38" />
		<rect
   x="838.29999"
   y="102.6"
   class="st2"
   width="365.79999"
   height="4.4000001"
   id="rect39" />
		<rect
   x="964.79999"
   y="241.2"
   class="st2"
   width="121.7"
   height="9.1999998"
   id="rect40" />
		<rect
   x="866.29999"
   y="119.4"
   class="st10"
   width="311.70001"
   height="110.7"
   id="rect41" />
		<polygon
   class="st11"
   points="1030.5,119.4 1055.7,119.4 995.8,230.1 970.6,230.1 "
   id="polygon41" />
		<polygon
   class="st11"
   points="1085.6,119.4 1138,119.4 1078.1,230.1 1025.7,230.1 "
   id="polygon42" />
		<rect
   x="964.79999"
   y="80.400002"
   class="st2"
   width="121.7"
   height="9.1999998"
   id="rect42" />
		<rect
   x="866.29999"
   y="-0.40000001"
   class="st10"
   width="311.70001"
   height="69.699997"
   id="rect43" />
		<polygon
   class="st11"
   points="1033.5,-0.4 1008.3,-0.4 970.6,69.3 995.8,69.3 "
   id="polygon43" />
		<polygon
   class="st11"
   points="1115.8,-0.4 1063.4,-0.4 1025.7,69.3 1078.1,69.3 "
   id="polygon44" />
	</g>
</g>
<g
   id="Layer_2_1_"
   transform="matrix(0.24636085,0,0,0.40698181,0,0.16279273)">
	<g
   id="g46">
		<path
   class="st4"
   d="M 367.9,857.9 V 201.1 c 0,-8.8 -7.1,-15.9 -15.9,-15.9 H 39 c -8.8,0 -15.9,7.1 -15.9,15.9 v 656.8 c 0,8.8 7.2,16 16,16 H 352 c 8.7,0 15.9,-7.2 15.9,-16 z"
   id="path44" />
		<rect
   x="33.700001"
   y="873.90002"
   class="st12"
   width="318.10001"
   height="25.700001"
   id="rect44" />
		<rect
   x="23"
   y="457.5"
   class="st12"
   width="344.89999"
   height="20.1"
   id="rect45" />
		<path
   class="st12"
   d="m 67.3,238.9 v 0 c -5.8,0 -10.6,4.7 -10.6,10.6 0,26.7 0,96.6 0,123.3 0,5.8 4.7,10.6 10.6,10.6 v 0 c 5.8,0 10.6,-4.7 10.6,-10.6 V 249.4 c 0,-5.8 -4.7,-10.5 -10.6,-10.5 z"
   id="path45" />
		<path
   class="st12"
   d="m 67.3,523.9 v 0 c -5.8,0 -10.6,4.7 -10.6,10.6 v 151.6 c 0,5.8 4.7,10.6 10.6,10.6 v 0 c 5.8,0 10.6,-4.7 10.6,-10.6 V 534.5 c 0,-5.9 -4.7,-10.6 -10.6,-10.6 z"
   id="path46" />
	</g>
</g>
<g
   id="Layer_4"
   transform="matrix(0.24636085,0,0,0.40698181,0,0.16279273)">
	<rect
   x="714.09998"
   y="488.20001"
   class="st4"
   width="18.700001"
   height="5"
   id="rect46" />
	<rect
   x="817.20001"
   y="488.20001"
   class="st4"
   width="18.700001"
   height="5"
   id="rect47" />
	<rect
   x="724.59998"
   y="488.29999"
   class="st6"
   width="100.4"
   height="81.599998"
   id="rect48" />
	<path
   class="st13"
   d="m 717.9,488.2 h -13 c -1.6,0 -2.8,1.3 -2.8,2.8 v 0 c 0,4.9 3.9,8.8 8.8,8.8 h 7 c 1.6,0 2.8,-1.3 2.8,-2.8 v -6 c 0,-1.5 -1.2,-2.8 -2.8,-2.8 z"
   id="path48" />
	<path
   class="st13"
   d="m 832,488.2 h 13 c 1.6,0 2.8,1.3 2.8,2.8 v 0 c 0,4.9 -3.9,8.8 -8.8,8.8 h -7 c -1.6,0 -2.8,-1.3 -2.8,-2.8 v -6 c 0,-1.5 1.3,-2.8 2.8,-2.8 z"
   id="path49" />
	<path
   class="st4"
   d="m 542.8,468.3 h -16.6 c -3.9,0 -6.2,4.5 -3.8,7.6 l 20.3,26.4 v -34 z"
   id="path50" />
	<path
   class="st4"
   d="m 627.7,493.2 c 0,0 -2.9,-13.3 -16.5,-13.3 h -11.4 v -14.4 h -57 v 104.8 h 57 v -23.1 c 6.8,-1.6 12.5,-5.1 17,-10.4 16.9,-19.9 11.2,-41.9 10.9,-43.6 z m -17.5,38.2 c -2.9,3.4 -6.4,5.7 -10.5,7.1 v -41.4 c 0,-4.8 3.9,-8.7 8.7,-8.7 h 2.7 c 4.6,0 8.3,3.6 8.6,8.1 0.6,12.2 -0.2,24 -9.5,34.9 z"
   id="path51" />
	<path
   class="st14"
   d="m 599.8,465.5 h -57 v 0 c 0,-11.6 9.4,-10.5 20.9,-10.5 h 15.1 c 11.6,0.1 21,-1 21,10.5 z"
   id="path52" />
	<rect
   x="459.79999"
   y="499.79999"
   class="st4"
   width="47.900002"
   height="70.099998"
   id="rect52" />
	<g
   id="g54">
		<path
   class="st13"
   d="m 1144.9,547.1 c 0,3.5 2.8,6.4 6.4,6.4 h 42.9 c 3.5,0 6.4,-2.8 6.4,-6.4 v 0 c 0,-3.5 -2.8,-6.4 -6.4,-6.4 h -42.9 c -3.5,0.1 -6.4,2.9 -6.4,6.4 z"
   id="path53" />
		<rect
   x="1051.9"
   y="529.5"
   class="st6"
   width="104.8"
   height="40.400002"
   id="rect53" />
		<rect
   x="1049.5"
   y="527.29999"
   class="st4"
   width="109.5"
   height="4.5"
   id="rect54" />
	</g>
	<g
   id="g56">
		<path
   class="st13"
   d="m 874.9,497.4 c 0,3.5 2.8,6.4 6.4,6.4 h 42.9 c 3.5,0 6.4,-2.8 6.4,-6.4 v 0 c 0,-3.5 -2.8,-6.4 -6.4,-6.4 h -42.9 c -3.6,0 -6.4,2.9 -6.4,6.4 z"
   id="path54" />
		<rect
   x="926.59998"
   y="484.70001"
   class="st6"
   width="80.699997"
   height="85.199997"
   id="rect55" />
		<rect
   x="924"
   y="483.70001"
   class="st4"
   width="85.800003"
   height="4.5"
   id="rect56" />
	</g>
</g>
<g
   id="Layer_5"
   transform="matrix(0.24636085,0,0,0.40698181,0,0.16279273)">
	<g
   id="g61">
		<g
   id="g60">
			<g
   id="g59">
				<g
   id="XMLID_2_">
					<g
   id="g58">
						<path
   class="st13"
   d="m 1156.2,322.8 c 0.7,3 0.5,6.1 -0.3,9 0,0.1 -0.1,0.1 -0.1,0.2 -1.2,4 -7,3.4 -7.4,-0.7 -1,-12 -3.1,-27.7 -6.6,-32.6 -1.2,-1.6 -17.4,7.5 -17.4,7.5 l -0.5,0.3 c -1.9,-4.6 -3.7,-8.4 -4.9,-10.7 h 0.4 l 19.7,-8.7 c 4.6,-2 9.9,0.8 10.8,5.6 z"
   id="path56" />
						<path
   class="st4"
   d="m 1123.9,306.5 c 8.7,21.9 22,64 -30,69.8 0,0 -73.8,3.1 -25.7,-80.7 l 50.9,0.1 c 1.2,2.4 3,6.2 4.8,10.8 z"
   id="path57" />
						<path
   class="st15"
   d="m 1066.3,364 h 50.5 c 17.9,-13.3 9.5,-39.1 3.5,-54.2 -1.6,-4.1 -3.2,-7.5 -4.3,-9.5 l -45.3,-0.1 c -21.3,37.3 -15.5,55.2 -4.4,63.8 z"
   id="path58" />
					</g>
				</g>
			</g>
			<line
   class="st16"
   x1="1096.6"
   y1="314.60001"
   x2="1077.9"
   y2="337.70001"
   id="line59" />
			<line
   class="st16"
   x1="1100.3"
   y1="327.10001"
   x2="1087.4"
   y2="343"
   id="line60" />
		</g>
		<path
   class="st13"
   d="M 1119.8,297.3 H 1060 c -1.6,0 -2.1,-2.1 -0.7,-2.9 l 9.3,-4.9 h 51.2 z"
   id="path60" />
	</g>
	<rect
   x="931.90002"
   y="370.10001"
   class="st3"
   width="454.20001"
   height="21.5"
   id="rect61" />
	<rect
   x="957.90002"
   y="391.29999"
   class="st2"
   width="25.200001"
   height="30.200001"
   id="rect62" />
	<rect
   x="1335.2"
   y="391.29999"
   class="st2"
   width="25.200001"
   height="30.200001"
   id="rect63" />
	<g
   id="g64">
		<rect
   x="983.09998"
   y="300.20001"
   class="st4"
   width="44.099998"
   height="70.099998"
   id="rect64" />
	</g>
	<g
   id="g65">
		<rect
   x="984.90002"
   y="344"
   class="st15"
   width="40.599998"
   height="26.299999"
   id="rect65" />
	</g>
	<g
   id="g67">
		<g
   id="g66">
			<path
   class="st4"
   d="M 1213.6,319.5 H 1180 c -2.9,0 -5.2,2.3 -5.2,5.2 v 45.5 h 44.1 v -45.5 c -0.1,-2.8 -2.4,-5.2 -5.3,-5.2 z"
   id="path65" />
		</g>
		<rect
   x="1180"
   y="311.70001"
   class="st17"
   width="33.700001"
   height="7.8000002"
   id="rect66" />
		<rect
   x="1175.9"
   y="336"
   class="st17"
   width="41.700001"
   height="20.5"
   id="rect67" />
	</g>
	<g
   id="g69">
		<g
   id="g68">
			<path
   class="st4"
   d="m 1264.8,311.3 h -33.6 c -2.9,0 -5.2,2.3 -5.2,5.2 v 53.7 h 44.1 v -53.7 c -0.1,-2.9 -2.4,-5.2 -5.3,-5.2 z"
   id="path67" />
		</g>
		<rect
   x="1231.1"
   y="303.39999"
   class="st18"
   width="33.700001"
   height="7.8000002"
   id="rect68" />
		<rect
   x="1227.1"
   y="327.79999"
   class="st18"
   width="41.700001"
   height="28.700001"
   id="rect69" />
	</g>
	<g
   id="g71">
		<g
   id="g70">
			<path
   class="st4"
   d="m 1307.1,327.8 h -24.8 c -2.9,0 -5.2,2.3 -5.2,5.2 v 37.3 h 35.2 V 333 c 0,-2.9 -2.3,-5.2 -5.2,-5.2 z"
   id="path69" />
		</g>
		<rect
   x="1282.3"
   y="319.89999"
   class="st19"
   width="24.9"
   height="7.8000002"
   id="rect70" />
		<rect
   x="1278.3"
   y="344.20001"
   class="st19"
   width="32.900002"
   height="12.2"
   id="rect71" />
	</g>
</g>
<g
   id="Layer_6"
   transform="matrix(0.24636085,0,0,0.40698181,0,0.16279273)">
	<g
   id="g74">
		<path
   class="st17"
   d="m 474.4,283.1 c 1.4,19.3 33.1,34.7 72,34.7 38.9,0 70.7,-15.4 72,-34.7 z"
   id="path71" />
		<path
   class="st18"
   d="m 474.4,298.2 c 1.4,19.3 33.1,34.7 72,34.7 38.9,0 70.7,-15.4 72,-34.7 z"
   id="path72" />
		<path
   class="st19"
   d="m 474.4,315.6 c 1.4,19.3 33.1,34.7 72,34.7 38.9,0 70.7,-15.4 72,-34.7 z"
   id="path73" />
		<path
   class="st4"
   d="m 474.4,335.8 c 1.4,19.3 33.1,34.7 72,34.7 38.9,0 70.7,-15.4 72,-34.7 z"
   id="path74" />
	</g>
	<g
   id="g78">
		<path
   class="st17"
   d="m 647.9,332.9 c 1.4,8.3 33.1,14.9 72,14.9 38.9,0 70.7,-6.6 72,-14.9 z"
   id="path75" />
		<path
   class="st18"
   d="m 647.9,339.4 c 1.4,8.3 33.1,14.9 72,14.9 38.9,0 70.7,-6.6 72,-14.9 z"
   id="path76" />
		<path
   class="st19"
   d="m 647.9,346.9 c 1.4,8.3 33.1,14.9 72,14.9 38.9,0 70.7,-6.6 72,-14.9 z"
   id="path77" />
		<path
   class="st4"
   d="m 647.9,355.6 c 1.4,8.3 33.1,14.9 72,14.9 38.9,0 70.7,-6.6 72,-14.9 z"
   id="path78" />
	</g>
	<g
   id="g82">
		<path
   class="st17"
   d="m 400.3,332.9 c 0.4,8.3 10.7,14.9 23.2,14.9 12.5,0 22.8,-6.6 23.2,-14.9 z"
   id="path79" />
		<path
   class="st18"
   d="m 400.3,339.4 c 0.4,8.3 10.7,14.9 23.2,14.9 12.5,0 22.8,-6.6 23.2,-14.9 z"
   id="path80" />
		<path
   class="st19"
   d="m 400.3,346.9 c 0.4,8.3 10.7,14.9 23.2,14.9 12.5,0 22.8,-6.6 23.2,-14.9 z"
   id="path81" />
		<path
   class="st4"
   d="m 400.3,355.6 c 0.4,8.3 10.7,14.9 23.2,14.9 12.5,0 22.8,-6.6 23.2,-14.9 z"
   id="path82" />
	</g>
	<rect
   x="388.5"
   y="370.10001"
   class="st3"
   width="454.20001"
   height="21.5"
   id="rect82" />
	<rect
   x="414.39999"
   y="391.29999"
   class="st2"
   width="25.200001"
   height="30.200001"
   id="rect83" />
	<rect
   x="791.79999"
   y="391.29999"
   class="st2"
   width="25.200001"
   height="30.200001"
   id="rect84" />
</g>
<text
   xml:space="preserve"
   style="font-style:oblique;font-weight:bold;font-size:62.6841px;font-family:Courier;-inkscape-font-specification:'Courier, Bold Oblique';writing-mode:lr-tb;direction:ltr;fill:#000000;stroke-width:0.781309"
   x="85.753792"
   y="388.76263"
   id="text84"
   transform="scale(0.98358871,1.0166851)"><tspan
     sodipodi:role="line"
     id="tspan84"
     x="85.753792"
     y="388.76263"
     style="stroke-width:0.781309">Kitchen</tspan></text></svg>
