<?xml version="1.0" encoding="UTF-8" standalone="no"?>
<svg
   viewBox="109.8 127.5 377.76826 431.56645"
   overflow="visible"
   width="349.78543"
   height="399.59857"
   version="1.1"
   id="svg2"
   sodipodi:docname="Miss Scarlett..svg"
   inkscape:version="1.4.3 (0d15f75, 2025-12-25)"
   xmlns:inkscape="http://www.inkscape.org/namespaces/inkscape"
   xmlns:sodipodi="http://sodipodi.sourceforge.net/DTD/sodipodi-0.dtd"
   xmlns="http://www.w3.org/2000/svg"
   xmlns:svg="http://www.w3.org/2000/svg"
   xmlns:bx="https://boxy-svg.com">
  <sodipodi:namedview
     id="namedview2"
     pagecolor="#ffffff"
     bordercolor="#000000"
     borderopacity="0.25"
     inkscape:showpageshadow="2"
     inkscape:pageopacity="0.0"
     inkscape:pagecheckerboard="0"
     inkscape:deskcolor="#d1d1d1"
     inkscape:zoom="0.85711256"
     inkscape:cx="54.835272"
     inkscape:cy="247.92543"
     inkscape:window-width="1470"
     inkscape:window-height="816"
     inkscape:window-x="0"
     inkscape:window-y="33"
     inkscape:window-maximized="0"
     inkscape:current-layer="svg2" />
  <rect
     id="Blush Background Color"
     fill="#ff0000"
     x="109.8"
     y="127.5"
     width="377.76825"
     height="431.56644"
     style="stroke-width:0.20454" />
  <g
     id="Master/Character/Sitting"
     stroke="none"
     stroke-width="1"
     fill="none"
     fill-rule="evenodd"
     transform="matrix(0.14635724,0,0,0.11770469,163.3678,132.99569)">
    <g
       id="Sitting"
       transform="translate(-81,637)">
      <g
         id="Sitting/Crossed Legs"
         stroke="none"
         stroke-width="1"
         fill="none"
         fill-rule="evenodd">
        <path
           d="m 1677.9436,728.29435 c -7.6335,-2.19323 -17.1706,-2.75703 -25.5219,-3.15768 -29.5178,-1.73683 -59.6161,12.33748 -88.5587,18.68074 -12.6696,3.13187 -26.0848,6.82031 -39.6426,9.56805 -12.0364,1.63357 -24.4797,2.85927 -36.9902,3.63888 -10.1123,0.30255 -21.8792,-0.4719 -25.3319,10.15974 -20.3258,3.94142 -38.3185,5.58016 -57.6941,2.23041 1.8147,-6.17391 2.8485,-12.62765 0.9719,-19.27758 0.9471,-1.57575 2.2361,-3.70703 2.9249,-5.14337 h -2.329 c -34.0085,-13.61378 -70.7839,-22.9113 -104.9712,-37.01659 -44.6217,-16.08272 -110.3397,-47.15671 -161.8978,-68.37557 3.495,-19.14231 4.7902,-38.5913 3.3081,-57.49921 l 2.0718,-1.67487 c 0.6806,-3.71529 1.7382,-8.16166 3.6551,-11.52896 2.4323,-6.45374 2.4891,-15.26284 3.4548,-22.55712 2.014,-14.26741 3.3587,-35.74959 -0.3068,-52.68936 -1.6008,-22.97222 -17.0858,-40.68128 -33.7823,-54.88674 -20.5004,-20.27507 -41.0265,-40.05655 -61.0394,-61.11433 C 945.50213,264.73099 936.74283,122.50812 763.35074,79.283547 l -0.0847,-0.671189 c -1.36642,-1.524115 -1.92517,-2.733288 -3.48162,-0.324236 -5.7249,-2.194272 -12.86372,-2.010469 -17.65804,-5.719563 -8.51143,-7.764107 -14.5503,-16.727061 -18.49875,-27.363857 -3.04164,-20.106756 -0.88926,-51.0960665 -18.50392,-63.96121 -19.56461,-11.719992 -123.51539,-20.064419 -132.48022,5.55951 -5.56171,5.2239151 -8.09211,11.860425 -9.83033,19.9859418 -5.79203,10.9558692 -9.44613,23.1043892 -15.2805,34.2285712 -12.40411,24.950675 -20.44458,19.421111 -42.34439,25.123119 -2.37754,-5.298262 -9.59382,-4.230555 -14.85291,-3.46127 C 426.64785,71.629927 348.99978,96.056042 321.7314,155.9199 l 2.32073,-0.29635 c -47.06848,88.43585 -16.54363,200.90234 -8.12515,294.61994 6.80935,83.30487 -0.97808,167.00627 -19.48406,244.71033 -22.7147,82.43336 -24.01811,174.6413 21.0498,249.25789 4.58054,8.54062 10.15774,20.61067 20.02629,15.25251 5.40782,4.08909 11.48284,6.91325 19.87343,9.3729 2.3135,1.67797 4.7086,4.49696 7.13055,5.70097 0.11361,0.16315 4.01249,-2.08481 4.21698,-2.1447 7.36914,10.51701 411.92797,45.65741 453.91087,51.11261 36.9882,4.4598 85.86204,15.8483 116.00475,-10.833 24.90944,-7.1177 50.97459,-25.64666 70.88111,-44.04447 12.0798,175.19377 18.76,533.98967 29.5385,536.48957 4.7168,1.5985 11.0842,3.514 16.4228,5.0443 0.032,12.5863 0.9688,26.8878 -0.021,39.2614 -1.6546,13.9763 -5.8478,30.4772 -7.7451,45.168 -8.154,-0.5453 -10.5522,7.634 -11.5014,13.1904 -7.0386,45.8979 -6.83,82.9021 -6.3249,133.3508 82.7698,48.7551 179.7759,75.5676 272.91,107.0773 8.9204,6.7036 28.2506,-0.5473 38.5508,-2.3595 35.7602,-7.0413 76.3943,-27.8688 67.3675,-66.0563 -6.609,-28.7527 -34.3587,-45.297 -57.7179,-62.2131 -25.556,-18.5155 -52.4969,-37.0165 -75.9997,-59.0625 -18.8551,-17.7638 -32.9365,-31.5438 -48.6611,-51.5897 -6.9746,-9.3223 -14.4119,-24.6388 -23.794,-31.5107 9.912,-11.7582 -10.1153,-0.7373 -17.6972,-0.058 -4.4608,-20.9958 -9.9832,-41.1542 -16.6056,-61.295 l 6.4375,0.2912 c 21.1355,-19.7392 32.984,-114.5018 34.4557,-142.6142 10.5947,-183.2677 10.3426,-394.49806 -32.1577,-548.84055 32.2827,19.88062 67.6835,36.48583 99.7885,56.14754 20.2442,11.86043 40.7849,28.3283 63.4779,34.07884 1.4779,4.24605 6.8888,5.89614 9.8417,1.7389 4.062,0.50081 9.2953,-1.18439 9.7425,-3.03584 4.154,-8.49519 10.1732,-17.6502 9.4492,-26.88163 0,0 -5.5741,-12.9302 -5.5741,-12.9302 12.4868,5.07729 26.0631,15.75848 39.3926,16.73739 26.9235,89.90731 79.9699,39.54232 131.0147,4.55169 30.8058,-21.52658 64.5034,-45.29803 96.9235,-68.24959 27.5059,-21.88179 81.2061,-42.64528 54.8817,-85.98757"
           id="Skin"
           fill="#ffffff" />
        <path
           d="m 497.61855,67.998143 c 2.39582,0.497836 3.9561,3.021088 5.25019,5.630699 l 0.26414,0.540516 0.54439,1.146196 c 12.83783,38.804116 53.57849,60.453676 90.31025,74.857766 l 2.2436,0.87292 2.27737,0.87259 c 60.00415,26.64412 159.57833,14.22113 168.87332,-63.632487 140.60341,37.370067 178.69565,195.576967 268.23079,291.923737 20.9831,23.54302 43.0313,46.09257 64.5087,69.17032 6.7739,6.64787 12.9688,16.6331 22.4351,18.98214 5.6759,8.91852 9.745,19.01103 10.4436,29.55644 -30.4043,-13.59198 -64.7213,-7.13564 -96.9038,3.15545 -9.3909,3.00294 -105.96983,50.74613 -162.21379,39.39637 -2.87373,-0.57991 2.55389,113.16916 -3.05699,114.69842 -48.65987,13.26241 -197.18899,26.46392 -226.96281,18.59049 C 542.29496,646.90103 388.09808,1018.549 331.43602,951.50631 317.16666,934.62277 280.46996,867.04731 281,793.1115 281.57746,712.5612 320.1145,622.80307 321.00001,540.4708 322.33625,416.23091 305.40127,342.51881 304.67856,332.73202 292.34028,241.69406 307.13569,121.55874 409.7449,91.931121 437.50295,79.208957 467.41679,70.975451 497.61855,67.998143 Z M 1127.9738,515.99814 c 8.0317,5.72287 9.7258,14.5775 8.7971,24.47266 -0.3674,3.84585 -0.8471,7.6917 -1.3369,11.52734 -10.0902,-10.4858 -25.0596,-14.20005 -39.434,-15.34259 0.5542,-0.98747 1.1675,-2.33301 1.1328,-3.59082 10.9199,-4.49872 21.2274,-10.20119 30.841,-17.06659 z"
           id="Top"
           fill="#ee0b03"
           fill-rule="nonzero" />
        <path
           d="m 1203.7402,1578.7712 1.358,1.9056 c 49.5323,69.5073 104.3348,121.8292 162.4911,148.624 l 1.9545,0.8904 0.181,0.1058 c 16.5824,9.6871 30.3445,25.0466 35.7426,40.8178 6.3183,18.4599 0.9734,35.8636 -16.971,48.5877 l -0.5476,0.3842 -0.092,0.062 c -22.5865,14.765 -49.2422,23.9444 -75.4261,25.7772 l -0.9695,0.064 -1.2698,0.08 -1.0827,-0.6681 c -6.9459,-4.2864 -13.6245,-6.7507 -27.8965,-10.8454 l -6.0122,-1.7216 -2.4823,-0.726 -1.2331,-0.3669 c -5.2075,-1.5598 -8.6995,-2.7504 -12.357,-4.2331 l -1.1608,-0.4781 -3.886,-1.3114 c -69.8353,-23.655 -138.8216,-50.7594 -206.7101,-81.1789 l -3.9922,-1.7932 -6.1168,-2.7632 -0.1418,-2.4132 c -3.1064,-52.8576 -2.979,-95.0495 1.4443,-134.7969 l 0.1457,-1.2952 7.9631,0.7521 c -1.165,15.4971 14.342,28.61 28.9876,23.6647 l 0.4435,-0.1554 0.2062,-0.069 0.6094,-0.1902 c 4.1274,-1.3276 7.5595,-3.2573 13.6595,-7.4075 l 4.5193,-3.0974 1.149,-0.7724 0.833,-0.5493 c 0.4043,-0.2639 0.7947,-0.5148 1.192,-0.766 l 0.5583,-0.3505 c 25.0798,-15.7013 52.0754,-26.2822 79.4885,-30.7805 2.2625,-0.4148 4.5983,-0.7673 7.1513,-1.0882 l 2.8242,-0.3341 2.9037,-0.306 9.0096,-0.8815 z m 462.9281,-852.42529 1.795,1.92217 c 5.941,6.362 10.4476,12.59426 13.2986,19.02473 3.5569,8.02252 4.3089,15.96687 1.658,23.64877 l -0.2124,0.59587 -0.049,0.11326 c -4.4604,10.2362 -14.9152,19.28683 -34.9288,32.49163 l -3.0408,1.98794 c -3.207,2.07656 -11.8601,7.66443 -14.4747,9.39757 l -1.152,0.76686 c -4.7059,3.14639 -8.246,5.69226 -11.0756,8.00889 l -0.4667,0.38512 -6.6898,4.65132 -13.7658,9.58299 -10.2135,7.12072 -7.0279,4.90525 c -26.8585,18.75502 -52.7855,36.96003 -78.1132,54.85379 l -1.2867,0.87219 -1.0128,0.69795 -1.4534,1.01588 -2.0518,1.45403 v 0 l -6.8145,4.87766 -1.3616,0.96483 -1.3437,0.94334 -1.3586,0.94269 -1.3757,0.94213 -1.352,0.9127 c -13.8518,9.2798 -24.0588,13.87109 -34.9304,14.50715 -7.7384,0.45274 -15.0323,-1.4563 -21.8166,-5.96638 l -0.4837,-0.32658 -0.2112,-0.14477 -0.7294,-0.655 -0.6095,-0.55846 -0.5973,-0.55855 -0.5879,-0.56155 c -3.1153,-3.00812 -5.9469,-6.26899 -10.3947,-11.77564 l -3.7448,-4.66264 -1.496,-1.84395 -1.1035,-1.34275 -0.7886,-0.94717 c -2.4331,-2.90311 -4.2835,-4.92338 -6.3726,-6.95884 l -0.6917,-0.66632 -4.7264,-4.50352 6.1587,-2.16583 c 24.8397,-8.73533 45.1478,-36.5096 53.4927,-68.29886 l 0.2948,-1.14374 0.062,-0.17424 c 1.5081,-4.24495 2.0516,-8.59228 2.1998,-15.69275 l 0.072,-5.41459 0.035,-1.7829 0.032,-1.20315 0.04,-1.18207 c 0.3179,-8.49918 1.256,-13.33658 3.9424,-18.69718 l 0.3407,-0.66508 0.1129,-0.21556 0.1381,-0.2003 c 0.1676,-0.24308 0.1864,-0.28124 0.1172,-0.40764 l -1.4147,-2.39913 1.6773,-2.1477 c 0.7423,-0.95049 1.559,-1.88487 2.5117,-2.88998 l 0.4168,-0.43535 0.9298,-0.96194 1.3215,-0.20895 c 41.5562,-6.5708 84.2113,-16.25844 135.0363,-30.1124 l 5.1163,-1.39901 2.5466,-0.68608 1.7203,-0.45688 1.7029,-0.44628 c 16.8086,-4.3728 27.0754,-6.05594 38.8157,-5.90585 l 0.9963,0.017 c 1.0876,0.0196 2.011,0.0801 3.5834,0.22225 l 1.6251,0.14896 0.7477,0.0625 0.7181,0.053 c 2.642,0.17913 4.0473,0.0808 5.4226,-0.38167 l 0.1665,-0.0578 z"
           id="Shoes"
           fill="#ffffff" />
        <path
           d="M 520.83167,60.648921 C 546.83335,54.329085 551.27621,-8.0164365 566.97693,0.86189457 576.05259,8.7562682 561.20658,23.649852 558.57947,32.56019 l -1.1526,2.263183 c -5.32682,10.378033 -11.35085,20.721454 -21.84932,26.705224 -6.74791,7.105556 -26.91833,0.129061 -23.95264,11.446119 10.3567,34.107084 65.32059,57.724124 97.71405,68.344254 50.34967,18.91614 131.80144,12.51577 143.63118,-50.893207 -27.61717,-5.057107 -48.03534,-54.898214 -31.01435,-75.64908 0.58013,20.157188 6.08622,40.959678 21.90566,54.616346 l 0.87292,0.801525 c 2.78354,2.540579 6.38832,5.573938 9.98133,5.009296 3.5035,-4.880553 10.30508,-2.104203 12.30767,3.04686 157.24261,27.18737 192.27246,196.81522 291.29753,296.65954 19.7802,20.82933 40.4585,40.77279 60.8705,60.96922 20.8465,16.54349 35.5986,39.60712 36.6267,66.68711 1.8633,15.06188 0.9404,30.13718 -1.0529,45.22281 l -0.1383,1.36292 c -0.9237,9.34901 -1.4723,19.39119 -5.9211,27.69118 -0.768,2.81249 -0.4573,6.36733 -2.8903,8.3528 1.0632,17.21151 0.052,34.73276 -2.8594,51.89265 l 7.5868,3.38656 c 83.4833,37.18901 167.9304,72.24208 254.9797,100.11997 7.4395,-1.35152 6.8326,7.3007 3.231,11.23343 0.9497,4.62553 1.0529,9.43691 -0.062,14.01081 15.9402,2.29109 32.1312,0.38615 47.866,-2.51926 4.9776,-10.96395 18.203,-10.37853 28.4286,-10.68621 12.704,-0.79708 25.3854,-2.03709 37.9976,-3.79954 31.0752,-6.94346 61.591,-16.07991 92.3669,-24.10851 20.5947,-5.79533 42.8038,-5.52069 63.4635,-0.18584 3.5097,3.93376 6.751,8.13597 9.4865,12.5963 18.8853,29.28745 0.2767,56.12584 -26.0853,71.50986 -42.2938,29.98437 -84.5991,59.93054 -127.0819,89.63923 l -3.0863,2.20201 c -50.5443,36.18224 -107.4068,81.98291 -134.4008,-6.08311 -9.0726,-1.0645 -17.0231,-7.15512 -25.4763,-10.74816 2.2741,10.5685 -4.5162,21.24336 -9.1975,30.30341 -2.016,5.16035 -7.5262,6.86292 -12.6142,6.81439 -4.3562,4.27449 -12.5317,2.59154 -15.3807,-2.47796 -23.1062,-6.61513 -42.1959,-22.06109 -62.6481,-34.06062 -29.0799,-17.66477 -59.5853,-32.72458 -89.0843,-49.64287 49.0046,202.92547 37.019,414.30177 23.9784,620.86367 l -0.092,1.8664 c -1.6161,30.1564 -8.5305,44.4234 -33.5398,62.9086 4.3562,13.2922 8.254,26.637 11.2259,40.3102 1.0498,3.1718 5.8798,0.1869 5.919,4.5419 8.8847,-2.0794 26.9421,0.1456 20.6422,12.4384 17.8385,14.972 29.916,35.2551 45.5527,52.3252 27.5398,33.0147 63.5389,57.5868 98.8361,81.7986 81.1421,41.352 85.7925,113.0136 -9.1438,137.4949 l -0.9517,0.2227 c -13.0734,3.1468 -28.8182,10.3405 -41.4918,4.284 -18.9586,-3.6508 -37.7736,-11.0413 -56.3224,-16.6715 -74.6873,-24.7176 -147.7365,-53.6623 -218.5167,-86.9269 -2.5662,-1.207 -4.0186,-3.9688 -4.0857,-6.7318 0.7897,-22.8241 -5.407,-147.8971 18.2556,-150.5899 5.2841,-25.5519 6.1141,-51.9298 5.1541,-78.0083 -7.6759,-2.4149 -15.4375,-4.7442 -23.388,-6.2537 -7.7193,-2.4315 -19.7906,-2.9767 -24.9591,-9.2315 -1.8581,-0.6711 -3.22068,-2.3334 -2.94197,-4.9559 4.18067,-39.1931 7.34967,-78.4894 9.66197,-117.8374 7.9185,-131.9587 5.2305,-264.3294 -3.7884,-396.14351 -18.58486,16.07371 -39.76278,30.14751 -63.33967,37.63401 -13.01375,13.0414 -33.87992,15.8383 -51.64413,17.4181 -22.84399,1.4144 -45.2854,-3.1491 -67.83003,-5.9885 -38.28192,-4.8198 -76.29763,-0.5531 -114.30105,4.1738 l -12.98734,1.6205 c -93.04202,10.2061 -193.59376,12.3165 -280.3111,-27.4558 -16.32731,1.4507 -36.59683,-16.19759 -46.78218,-27.99062 -4.49757,2.77738 -8.91669,-2.64833 -12.5007,-5.50315 -5.91487,-1.79652 -12.62459,-4.37773 -17.99235,-8.1463 -13.61762,4.45621 -20.96321,-13.22508 -26.13588,-22.83958 -82.099,-140.60885 9.33166,-280.5724 2.45472,-429.67756 4.16415,-116.89785 -49.14915,-238.68555 2.37731,-350.80197 10.42379,-47.44471 71.38823,-80.234343 117.27646,-92.292725 14.78718,-2.441825 70.76785,-22.684709 76.93252,-5.662143 2.91718,-3.831549 7.89785,-4.118579 12.36549,-4.136131 z M 1201.8407,1582.9981 c -7.6935,0.8262 -15.1961,1.3003 -22.7998,2.6945 -27.7573,4.5554 -54.2341,15.303 -78.0873,30.2364 -7.7245,4.8167 -14.6194,10.8871 -23.4839,13.5712 -18.2169,6.6157 -36.1203,-9.81 -34.7852,-27.5689 -5.0781,44.6287 -4.2074,90.5503 -1.5713,135.4052 71.2532,32.2379 144.1025,60.9821 218.2754,85.9536 16.7035,6.9999 36.4814,9.242 51.8209,18.708 26.1581,-1.6503 52.4884,-10.8354 74.4588,-25.1977 36.4432,-25.2896 12.2495,-65.4011 -17.9611,-83.0496 -66.5043,-30.0154 -123.1123,-90.7569 -165.8665,-150.7527 z m -145.7081,-66 c -1.3913,13.23 8.6594,33.8379 7.2411,60.2058 -1.0903,8.2338 -3.6578,16.8588 -2.7661,25.1247 4.0923,30.6603 37.2889,-8.3031 51.0067,-12.5727 19.4736,-10.7128 40.6364,-18.0057 62.3857,-21.9938 -0.1324,-7.0714 -4.8133,-9.894 -5.4278,-16.8806 -0.8823,-10.2946 -0.8379,-20.1845 -1.3023,-30.5784 -28.2881,12.8656 -81.132,3.7686 -111.1373,-3.305 z m 152.4155,64 c -0.4932,0.3296 -1.0138,0.6087 -1.5481,0.8593 3.9314,4.7617 7.3369,10.0456 12,14.1407 l -1.9853,-3.0827 c -2.6556,-4.1139 -5.3722,-8.2107 -8.4666,-11.9173 z M 329.97633,483.99814 c -1.42518,5.79336 -4.02112,11.24102 -7.90986,15.87447 20.08181,162.84147 -83.23758,298.5943 11.75515,449.99972 1.20076,0.55931 2.29601,1.25485 3.35094,2.12581 0.55849,-0.3715 1.11697,-0.76364 1.66512,-1.15578 C 383.36165,872.0469 446.74185,804.07761 497.24165,728.67417 506.93453,709.7472 522.89076,690.6964 529.00001,668.82838 427.51536,628.75162 386.97735,570.27523 329.97633,483.99814 Z m 1335.56347,247 c -4.3031,1.53987 -9.0911,0.2687 -13.6831,0.18603 -16.3031,-0.34828 -32.2358,3.9065 -47.8289,8.20572 -45.3523,12.40574 -90.9441,23.38839 -137.4088,30.7353 -0.939,0.97146 -1.8368,1.96359 -2.652,3.00739 0.8049,1.36418 0.9287,3.0694 -0.2394,4.76325 -7.0098,13.39166 -1.3436,29.78761 -6.436,44.1218 -7.3781,29.01974 -27.004,61.7517 -56.2916,72.05123 9.7691,9.30843 16.7675,21.28941 26.8296,30.27231 24.7286,16.95195 51.9627,-8.31321 72.151,-21.85989 38.4364,-27.15641 76.9741,-54.12265 115.6169,-80.98039 17.3123,-14.34968 55.6095,-32.43638 63.8937,-51.44804 5.3071,-14.57601 -4.3526,-28.77585 -13.9514,-39.05471 z m -264.8901,37 c -16.5444,33.7461 -26.0955,69.62395 -35.6497,105.85573 9.9372,2.73333 19.0908,7.01647 28.8593,9.89528 13.7578,3.0955 33.1819,-23.49483 40.08,-34.05048 7.1113,-11.80417 12.0903,-24.77431 14.3996,-38.36355 1.9492,-13.30858 -0.1273,-27.12998 5.6611,-39.45729 -17.9232,1.83151 -36.1051,2.21535 -53.3503,-3.87969 z M 417.06475,698.37071 c 15.53658,-4.35292 -19.80687,30.79853 -21.84257,34.55016 -22.98083,27.13684 -44.03611,55.79786 -64.93035,84.54768 l -6.33412,8.72626 c -0.60845,0.88416 -4.80313,7.08415 -1.76995,6.29579 0.27764,-0.0725 0.40714,0.29185 0.18647,0.44398 -19.32307,3.41838 85.37293,-132.17421 94.69052,-134.56387 z M 795.8271,681.77769 c 1.25687,-3.78551 -4.70811,-5.40493 -5.96498,-1.64004 l -3.96051,11.9283 c -14.94576,45.07097 -29.79982,90.20363 -47.66385,134.22141 -1.49382,3.69268 4.48146,5.30178 5.96498,1.65036 19.42996,-47.90171 35.30566,-97.1237 51.62436,-146.16003 z m 173.73243,-15.77955 c -5.44796,25.85701 -19.21431,49.16975 -27.55952,73.88601 15.67344,-3.45523 27.74724,-18.0624 36.88355,-30.62611 l 0.27419,-0.41827 c 4.31005,-6.63505 9.31998,-17.00042 19.10823,-12.31857 14.85862,8.6324 4.21442,39.24821 3.93692,53.75955 -1.8844,19.89151 -8.35036,38.49904 -12.75761,57.82172 11.32701,-7.74206 14.58221,-23.00668 20.10231,-34.90264 l 21.2473,-50.97928 v 0 c 15.6198,-21.40427 8.3658,42.69313 7.5592,48.74312 -1.2707,13.28712 -6.8682,26.65461 -4.6712,40.03447 8.8083,-9.48049 14.3573,-21.39293 19.0193,-33.48056 6.468,-16.81139 12.3709,-33.83917 18.5243,-50.76185 2.1278,-5.4214 10.1946,-3.51912 9.0249,2.45256 -0.3969,19.20583 -0.7119,38.411 -1.0185,57.61656 l -0.2295,14.40426 c -0.041,2.7308 -1.3924,10.70678 3.3243,8.50256 24.7685,-26.00128 31.1189,-77.99147 27.8968,-112.92193 -48.6892,1.17579 -98.3644,-5.14007 -140.66497,-30.8116 z m 433.27047,97 c -0.2,0.63462 -0.43,1.26923 -0.66,1.90385 0.14,0.0288 0.29,0.0577 0.43,0.0962 0.09,-0.67307 0.17,-1.33654 0.23,-2 z m -1080.59808,0 c -5.40068,-3.98996 85.37498,-120.55975 79.49403,-86.90902 -25.32506,29.96881 -54.85787,56.2308 -79.49403,86.90902 z M 1123.9064,505.40941 c -84.8939,-19.94502 -159.65281,54.56699 -244.90639,43.30976 0.98723,26.68737 2.35799,53.55554 1.8194,80.25531 113.21556,9.3397 100.33397,57.53318 230.66329,52.68149 16.8419,-11.28203 23.7588,-80.42681 22.3363,-101.30063 1.0886,-24.67995 -20.1458,-35.75845 -41.2974,-40.08736 -7.6435,4.6151 -21.3563,-9.15476 -10.0067,-13.99922 14.9377,-4.49421 28.9141,-11.56098 41.3915,-20.85935 z M 497.61855,67.998143 C 467.41679,70.975451 437.50295,79.208957 409.7449,91.931121 307.13569,121.55874 292.34028,241.69406 304.67856,332.73202 c 5.1124,69.23118 24.85201,136.9407 66.35389,193.23824 110.48937,168.5336 293.49144,141.84718 466.83321,119.55554 6.2486,-4.34836 16.83666,-1.26067 22.85823,-7.00483 -0.6295,-0.21664 -1.19709,-0.51582 -1.68212,-0.88721 2.89366,-2.25825 5.13201,-6.21975 5.7997,-10.42986 l 1.24869,0.12379 v 0 c 1.22495,-26.13758 0.24561,-51.76245 0.64085,-77.69474 -56.95776,-15.62313 -118.04238,-23.60801 -175.7669,-39.16925 -6.56129,4.57738 -14.1267,-0.69016 -20.53629,-3.17744 -16.6151,-7.06879 -33.37793,-13.78333 -50.26414,-20.17607 l -4.22411,-1.5915 c -11.00772,-4.12656 -22.0073,-8.35908 -32.91174,-12.77002 l -4.08454,-1.6626 c -6.24654,-2.55537 -22.0213,-12.01343 -28.83543,-6.10833 l 0.54991,1.18536 c 4.04043,8.8185 17.9599,41.44585 0.84842,34.99316 -13.8945,-9.7593 -21.09872,-77.81132 -34.86113,-78.41277 -4.73263,12.66955 -8.1237,25.81985 -8.89871,39.3632 -0.27863,3.04746 -4.28373,5.61727 -6.69029,2.76995 -16.32274,-21.50038 8.33319,-44.9196 8.99159,-67.61358 1.55519,-26.38828 -10.11747,-51.07848 -15.93265,-76.33608 l -0.35767,-1.74193 c -3.40962,-16.38597 -8.71573,-36.25306 -7.30784,-50.949 l 3.38627,12.757 c 3.39768,12.76464 6.87749,25.53174 10.87046,38.11721 9.90902,31.43402 27.80036,63.81922 17.85832,97.45372 19.94496,0.66438 23.31746,32.15307 30.80959,46.53411 12.12157,-15.73352 97.42044,21.99144 116.88451,28.04303 l 3.75402,-4.26025 c 60.96024,-69.139 104.96704,-115.92985 199.44999,-61.2395 -16.32171,-52.66617 -17.89856,-108.6047 -20.68283,-163.29391 0.95458,-10.40407 -5.05771,-37.84875 3.421,-43.52792 1.47056,0.21458 2.90191,0.65922 4.25276,1.25138 l -0.002,5.39074 c 0.0406,10.44242 0.52763,27.75828 4.90557,31.6915 l 2.00863,20.67711 c 5.26139,53.76552 11.22757,107.4904 27.27881,159.30252 38.53082,21.54679 73.68916,48.5262 106.76394,77.63284 l 3.76747,-1.37527 c 40.8677,-14.96624 90.0402,-34.15024 131.8236,-15.47138 -0.6986,-10.54541 -4.7677,-20.63792 -10.4436,-29.55644 -9.4663,-2.34904 -15.6612,-12.33427 -22.4351,-18.98214 -21.4774,-23.07775 -43.5256,-45.6273 -64.5087,-69.17032 C 946.07746,283.86331 907.98522,125.65641 767.38181,88.286343 758.08682,166.13996 658.51264,178.56295 598.50849,151.91883 l -2.27737,-0.87259 C 558.93026,136.64574 516.7771,114.91159 503.67727,75.315554 l -0.54439,-1.146196 c -1.34699,-2.792459 -2.95328,-5.639046 -5.51433,-6.171215 z m 22.13067,443.042277 c 0.10929,-0.12039 0.32072,0.0412 0.22777,0.17493 -17.48262,21.94416 -31.70793,51.87429 -14.33358,78.08772 3.21134,5.90123 -4.29405,11.57095 -9.09881,7.07222 -24.1147,-27.39367 2.64037,-64.52259 23.20462,-85.33487 z m 608.22458,4.95772 c -9.6136,6.8654 -19.9211,12.56787 -30.841,17.06659 0.035,1.25781 -0.5786,2.60335 -1.1328,3.59082 14.3744,1.14254 29.3438,4.85679 39.434,15.34259 0.4898,-3.83564 0.9695,-7.68149 1.3369,-11.52734 0.9287,-9.89516 -0.7654,-18.74979 -8.7971,-24.47266 z m -661.04757,-97.00571 0.1115,-0.52874 c 0.078,-0.59984 0.98876,-0.64128 0.96228,0 -0.33456,7.8445 -6.04042,13.42433 -10.87343,19.01037 -7.17156,8.28686 -14.34415,16.57166 -21.51879,24.85541 -11.99533,14.43649 -29.66679,28.94964 -25.6933,49.86415 0.0749,7.42803 -9.23216,9.02035 -13.00769,3.55758 -15.01699,-28.64712 32.25356,-53.0208 48.18752,-71.50282 7.48211,-7.99908 19.27285,-13.88499 21.83191,-25.25595 z m 225.07378,86.00571 c 0.224,0.35644 0.384,0.74258 0.46933,1.13862 2.51733,0.26732 5.024,0.55445 7.53067,0.86138 z m -376,-67 c 0.44861,2.99324 0.86867,5.99339 1.27068,8.99699 l 0.3962,3.00301 0.0617,-0.26199 c 0.20513,-0.77956 0.59232,-1.45678 1.09838,-1.99801 l 0.173,-0.17533 c -1.04216,-3.17254 -2.04185,-6.36042 -3,-9.56467 z m 690.13319,-30.98457 c 6.0239,-0.64264 -21.2699,18.9874 -22.77764,21.41663 -2.20065,1.91368 -4.77214,-1.48662 -2.42417,-3.14406 8.47952,-5.98511 16.83711,-12.12782 25.20181,-18.27257 z m -53.09998,-57.74621 c 4.19134,-1.71697 7.0376,5.26483 3.06234,7.20964 -14.48048,7.08648 -29.7922,12.09885 -43.13439,21.4216 -0.58517,0.40846 -1.31922,-0.54393 -0.76403,-0.98215 l 1.6032,-1.26816 c 12.28913,-9.76287 24.56509,-20.37358 39.23288,-26.38093 z M 321.00001,260.99814 c 4.04692,19.06378 25.94344,25.32499 42.93682,30.40326 l 5.30959,2.02279 c 15.00626,5.74494 30.55223,12.20762 41.34818,24.34711 4.23158,13.69289 -25.96202,-10.15967 -30.17709,-11.3675 -20.61839,-12.78908 -57.87321,-14.96193 -59.4175,-45.40566 z m 447,-177.999997 c 0.11374,0.969388 0.17061,1.959184 0.19905,2.94898 1.27014,0 2.53081,0.0102 3.80095,0.05102 -1.47868,-0.867347 -2.83413,-1.857143 -4,-3 z"
           id="Ink"
           fill="#000000" />
      </g>
    </g>
    <g
       id="Head"
       transform="matrix(0.9978903,0,0,1,345,180)">
      <g
         id="Head/Long Bangs"
         stroke="none"
         stroke-width="1"
         fill="none"
         fill-rule="evenodd">
        <path
           d="m 405.8668,203.178 c -10.301,-37.186 -49.676,-53.412 -85.138,-55.987 -96.014,-9.981 -193.744,43.543 -236.31,130.334 -34.073,65.903 -35.14,135.133 38.102,172.762 4,2.205 8.177,4.562 12.443,6.702 3.706,3.446 7.523,6.757 11.689,9.537 39.883,26.226 88.834,37.569 136.272,35.109 70.041,-1.412 95.045,-48.939 110.346,-109.888 16.138,-60.679 25.163,-126.521 12.596,-188.569 z"
           id="Skin-2"
           fill="#ffffff" />
        <path
           d="m 451.8433,553.684 c -3.27,-9.89 -7.37,-19.48 -11.2,-29.17 -0.81,-4.83 -1.35,-9.7 -1.489,-14.61 -0.531,-17.54 2.75,-35.23 6.429,-52.31 7.48,-34.71 15.41,-69.06 19.39,-104.41 7.11,-63.23 2.88,-128.98 -25.88,-186.7 -24.92,-50 -67.15,-90.89 -121.7,-106.21 -16.126,-4.531 -32.723,-7.03 -49.434,-8.028 -2.069,-0.329 -4.135,-0.651 -6.191,-0.961 -23.244,-3.504 -46.774,-5.25 -70.268,-3.739 -38.96,2.507 -77.556,13.703 -110.004,35.847 -32.669,22.297 -55.881,53.561 -66.682,91.694 -11.236,39.67 -10.283,82.633 -29.686,119.825 -5.732,10.988 -12.423,21.434 -18.804,32.054 -16.931,18.891 -35.313,39.892 -39.341,65.867 -4.97,32.101 13.5,59.231 30.98,84.281 15.8,22.62 37.24,53.86 20.98,81.71 -7.67,13.14 -19.96,22.97 -29.19,34.95 -9.57,12.44 -17.04,26.72 -20.9,41.98 -7.25,28.659 -0.58,58.53 18.81,80.93 10.1,11.66 23.07,19.37 37.11,25.38 14.37,6.14 28.41,11.97 40.29,22.42 5.43,4.77 10.4,10 15.1,15.48 4.38,6.85 9.48,13.25 15.23,19.11 6.33,6.45 18.73,-2.38 12.92,-9.97 -0.43,-0.56 -0.85,-1.11 -1.28,-1.67 -4.25,-5.54 -8.52,-11.08 -12.99,-16.44 -13.33,-21.121 -18.46,-46.98 -11.83,-71.65 1.72,-6.41 4.14,-12.49 7.151,-18.23 0.639,1.67 1.339,3.32 2.079,4.95 2.88,6.32 6.921,13.809 12.06,20.21 0.2,4.389 0.861,8.74 2.14,13 7.92,26.41 34.4,39.44 58.28,49.58 2.34,1 4.65,1.96 6.92,2.91 6.24,2.609 12.84,-6.28 8.95,-11.641 -1.02,-1.409 -2.01,-2.849 -2.95,-4.309 -11.2,-17.34 -16.53,-38.08 -13.51,-58.74 3.18,-21.85 16.06,-39.93 28.85,-57.28 12.56,-17.06 26.05,-34.47 31.67,-55.28 6.22,-22.99 0.56,-45.91 -9.04,-67.07 -8.79,-19.363 -20.499,-37.21 -30.318,-56.04 3.362,3.353 6.831,6.596 10.405,9.724 4.019,3.518 8.148,7.544 12.911,10.024 3.522,1.833 7.05,-2.555 4.261,-5.522 -3.666,-3.898 -8.357,-6.91 -12.428,-10.389 -3.908,-3.339 -7.703,-6.812 -11.404,-10.379 -4.557,-4.391 -8.892,-8.989 -13.072,-13.726 -3.345,-8.521 -6.101,-17.271 -8.345,-26.152 -3.05,-12.02 -5.87,-24.81 -5.65,-37.27 0.22,-12.78 6.86,-21.73 15.7,-30.31 3.744,-3.633 7.524,-7.223 11.297,-10.82 8.036,-5.899 15.616,-12.489 22.979,-19.061 13.12,-11.711 25.81,-24.09 37.929,-36.831 3.251,-3.418 6.475,-6.874 9.659,-10.37 11.125,-11.416 21.735,-23.336 31.736,-35.668 9.94,-3.62 19.49,-8.41 28.45,-14.05 -3.9,3.95 -7.84,7.85 -11.76,11.78 -8.73,8.76 -17.799,17.56 -27.92,24.699 -1.04,0.741 -0.41,2.311 0.871,2.061 12.869,-2.57 24.909,-6.85 36.149,-13.67 11.43,-6.94 21.5,-16.37 30.9,-25.83 5.32,-2.4 10.451,-5.49 15.14,-8.53 0.25,-0.16 0.5,-0.33 0.75,-0.491 -4.62,14.641 -11.399,31.221 -25.85,36.441 -0.47,0.17 -0.44,0.95 0.12,0.92 12.174,-0.714 21.958,-6.191 29.682,-14.174 6.212,-4.47 12.14,-9.207 17.797,-14.364 5.48,-4.996 10.671,-10.354 15.601,-15.902 -6.89,13.649 -14.608,26.995 -22.22,40.19 -0.4,0.7 0.44,1.65 1.16,1.16 16.07,-10.88 28.26,-24.92 38.23,-41.521 1.472,-2.444 2.877,-4.928 4.247,-7.431 -1.034,3.917 -2.163,7.809 -3.372,11.681 -2.189,7.009 -4.344,14.034 -6.537,21.039 -1.182,3.777 -2.623,7.468 -4.204,11.096 -1.132,2.596 -2.614,5.187 -2.844,8.034 -0.015,0.189 0.191,0.313 0.356,0.272 6.408,-1.602 12.375,-8.91 16.941,-13.437 2.543,-2.521 4.925,-5.288 7.116,-8.206 0.407,16.807 0.687,33.616 0.317,50.473 -0.689,30.96 -2.689,61.91 -5.25,92.769 -2.26,27.281 -3.93,55.911 -19.15,79.621 -11.78,18.35 -30.88,31.049 -51.63,37.2 -1.83,0.55 -3.67,1.04 -5.52,1.48 -30.04,7.13 -59.96,-0.95 -86.52,-15.23 -7.98,-4.29 -14.8,7.349 -7.1,12.139 28.82,17.941 65.35,24.051 97.97,16.011 -1.029,38.529 17.96,75.08 36.85,107.76 10.57,18.29 21.15,36.46 28.621,56.29 6.339,16.84 10.649,34.31 12.099,52.28 1.72,21.18 0.03,42.48 -2.93,63.48 -0.16,1.139 -0.32,2.29 -0.49,3.429 -0.66,4.511 3.39,8.29 7.78,5.981 19.41,-10.2 27.78,-31.941 32.87,-52.04 4.76,-18.83 7.99,-38.03 9.79,-57.36 2.64,7.29 4.78,14.76 6.44,22.379 0.231,1.091 0.45,2.181 0.67,3.271 1.26,6.37 10.9,5.92 12.44,0 0.28,-1.07 0.55,-2.14 0.8,-3.22 7.95,-32.15 10.09,-65.68 5.89,-98.551 -2.21,-17.289 -5.9,-34.349 -11.38,-50.899"
           id="Ink-2"
           fill="#000000" />
      </g>
    </g>
    <g
       id="Face"
       transform="translate(504,366)"
       fill="#000000">
      <g
         id="Face/Hero Mask"
         stroke="none"
         stroke-width="1"
         fill="none"
         fill-rule="evenodd">
        <g
           id="Group-26"
           transform="translate(12,44)">
          <path
             d="m 253.19647,53.433689 c -0.8947,-4.829974 -2.41816,-9.515244 -4.62674,-13.905809 0.0616,0.121764 0.12505,0.245293 0.18845,0.367057 -0.1409,-0.278822 -0.2818,-0.554114 -0.41917,-0.834701 0.0528,0.109411 0.10567,0.215293 0.15851,0.31941 -18.76235,-35.6256951 -64.3799,-49.0532715 -86.03066,-8.403485 0.27651,-0.308822 0.54422,-0.619409 0.81897,-0.929996 C 136.09072,71.433595 138.93158,13.316842 78.56728,9.4698032 51.793105,9.0392172 30.145863,30.958514 14.851366,50.81488 6.0751716,59.354247 5.0378088,74.8624 6.6105846,89.544676 10.152412,122.57627 38.143595,140.2797 71.207112,142.75204 c 29.861608,2.23234 43.798198,-10.60053 70.662198,-38.82332 4.81343,-5.055858 14.93344,-12.331702 26.45187,-10.678181 10.51276,1.51058 11.4832,5.516441 19.0142,15.562861 43.03559,57.40558 71.92676,-11.978762 65.86109,-55.379711"
             id="Fill-1"
             fill="#ee0b03" />
          <g
             id="Group-5"
             fill="#ee0b03">
            <path
               d="m 77.107119,14.644414 c -19.180095,0 -38.41481,12.86692 -58.780667,39.315885 -0.155047,0.197763 -0.322428,0.386697 -0.502143,0.561505 -6.134952,5.97172 -8.4412852,17.863954 -6.672333,34.387715 3.511476,32.742051 33.173143,46.534221 59.760286,48.522431 27.816952,2.08534 40.477998,-9.90754 66.469618,-37.21995 6.771,-7.11592 18.4771,-14.072921 31.03771,-12.27187 11.00662,1.5821 14.29962,6.206563 19.28582,13.20771 0.94085,1.32254 1.98742,2.79339 3.21195,4.4267 8.38666,11.1877 20.89619,23.48606 32.88066,18.52081 14.25381,-5.89756 27.92091,-38.37475 23.56019,-69.900208 -0.82633,-4.41434 -2.21647,-8.577947 -4.12814,-12.381343 l -0.002,-0.0035 c -0.0159,-0.03002 -0.0317,-0.0618 -0.0458,-0.09182 -9.61295,-18.229462 -27.30952,-30.499564 -44.0441,-30.53841 h -0.0846 c -12.81785,0 -23.569,6.828102 -31.23681,19.797436 -0.12862,0.653322 -0.38409,1.290753 -0.76995,1.876978 -7.41762,11.290118 -13.31824,16.408988 -19.73333,17.117048 -7.57267,0.849319 -13.32705,-4.725111 -19.97119,-11.171814 -9.75919,-9.464347 -23.11972,-22.42132 -49.671621,-24.151742 -0.186762,-0.0035 -0.377048,-0.0035 -0.56381,-0.0035 M 76.851643,148.25768 c -2.161857,0 -4.401238,-0.0865 -6.725191,-0.26133 C 30.783119,145.05287 4.1589762,122.84697 0.64221429,90.041356 -1.4949762,70.093833 1.7116905,55.683658 10.177643,47.201061 32.888595,17.803316 55.065691,3.6509389 77.965167,4.0570582 c 0.08457,0 0.167381,0.00353 0.25019,0.00883 30.519713,1.9458415 46.140763,17.0958588 56.477853,27.1217098 4.72719,4.583852 8.79719,8.539102 11.46296,8.253052 1.78128,-0.195996 5.04962,-2.208936 10.68595,-10.368404 0.0846,-0.234843 0.18676,-0.466154 0.30833,-0.693934 9.546,-17.925756 24.42353,-27.79269016 41.90338,-27.79269016 h 0.10748 c 20.6689,0.0476749 41.41886,13.98816316 53.04743,35.57958716 0.0898,0.146557 0.17266,0.294878 0.24843,0.452029 l 0.32771,0.649791 c 0.0388,0.07769 0.0775,0.158916 0.11276,0.238374 2.26229,4.605041 3.90262,9.605606 4.87695,14.871032 0.0141,0.07769 0.0264,0.155385 0.0388,0.231311 4.29376,30.734408 -7.61496,72.024384 -29.97881,81.280374 -10.06753,4.1689 -26.11319,3.7416 -45.36905,-21.95163 -1.28267,-1.711 -2.37857,-3.24896 -3.36524,-4.63329 -4.67786,-6.57031 -5.65219,-7.936989 -12.18005,-8.874595 -11.06123,-1.590928 -20.17733,7.297785 -21.88814,9.097075 -24.97147,26.23707 -40.15909,40.732 -68.180427,40.732"
               id="Fill-3" />
          </g>
          <g
             id="Group-8"
             fill="#000000">
            <path
               d="m 77.107119,14.644414 c -19.180095,0 -38.41481,12.86692 -58.780667,39.315885 -0.155047,0.197763 -0.322428,0.386697 -0.502143,0.561505 -6.134952,5.97172 -8.4412852,17.863954 -6.672333,34.387715 3.511476,32.742051 33.173143,46.534221 59.760286,48.522431 27.816952,2.08534 40.477998,-9.90754 66.469618,-37.21995 6.771,-7.11592 18.4771,-14.072921 31.03771,-12.27187 11.00662,1.5821 14.29962,6.206563 19.28582,13.20771 0.94085,1.32254 1.98742,2.79339 3.21195,4.4267 8.38666,11.1877 20.89619,23.48606 32.88066,18.52081 14.25381,-5.89756 27.92091,-38.37475 23.56019,-69.900208 -0.82633,-4.41434 -2.21647,-8.577947 -4.12814,-12.381343 l -0.002,-0.0035 c -0.0159,-0.03002 -0.0317,-0.0618 -0.0458,-0.09182 -9.61295,-18.229462 -27.30952,-30.499564 -44.0441,-30.53841 h -0.0846 c -12.81785,0 -23.569,6.828102 -31.23681,19.797436 -0.12862,0.653322 -0.38409,1.290753 -0.76995,1.876978 -7.41762,11.290118 -13.31824,16.408988 -19.73333,17.117048 -7.57267,0.849319 -13.32705,-4.725111 -19.97119,-11.171814 -9.75919,-9.464347 -23.11972,-22.42132 -49.671621,-24.151742 -0.186762,-0.0035 -0.377048,-0.0035 -0.56381,-0.0035 M 76.851643,148.25768 c -2.161857,0 -4.401238,-0.0865 -6.725191,-0.26133 C 30.783119,145.05287 4.1589762,122.84697 0.64221429,90.041356 -1.4949762,70.093833 1.7116905,55.683658 10.177643,47.201061 32.888595,17.803316 55.065691,3.6509389 77.965167,4.0570582 c 0.08457,0 0.167381,0.00353 0.25019,0.00883 30.519713,1.9458415 46.140763,17.0958588 56.477853,27.1217098 4.72719,4.583852 8.79719,8.539102 11.46296,8.253052 1.78128,-0.195996 5.04962,-2.208936 10.68595,-10.368404 0.0846,-0.234843 0.18676,-0.466154 0.30833,-0.693934 9.546,-17.925756 24.42353,-27.79269016 41.90338,-27.79269016 h 0.10748 c 20.6689,0.0476749 41.41886,13.98816316 53.04743,35.57958716 0.0898,0.146557 0.17266,0.294878 0.24843,0.452029 l 0.32771,0.649791 c 0.0388,0.07769 0.0775,0.158916 0.11276,0.238374 2.26229,4.605041 3.90262,9.605606 4.87695,14.871032 0.0141,0.07769 0.0264,0.155385 0.0388,0.231311 4.29376,30.734408 -7.61496,72.024384 -29.97881,81.280374 -10.06753,4.1689 -26.11319,3.7416 -45.36905,-21.95163 -1.28267,-1.711 -2.37857,-3.24896 -3.36524,-4.63329 -4.67786,-6.57031 -5.65219,-7.936989 -12.18005,-8.874595 -11.06123,-1.590928 -20.17733,7.297785 -21.88814,9.097075 -24.97147,26.23707 -40.15909,40.732 -68.180427,40.732"
               id="Fill-6" />
          </g>
          <path
             d="m 149.26982,93.345623 c -16.34368,5.632478 -2.13063,10.389577 -2.13063,10.389577 8.09283,-10.783939 52.91053,-2.1681 18.1405,21.22481 -15.64234,10.52398 -21.85311,-3.08593 -24.15774,3.13721 -1.14699,7.18693 6.01724,11.13763 12.23512,11.70353 C 169.79839,141.75134 187.04581,129.15298 187,111.9832 187.10085,91.584257 165.61349,87.713144 149.26982,93.345623"
             id="Fill-9"
             fill="#000000" />
          <g
             id="Group-13"
             transform="translate(77,165)"
             fill="#000000">
            <path
               d="M 124.91885,0.24726573 C 93.528588,20.245531 56.095571,10.077061 21.447046,7.5832065 c 0.315259,0.019305 0.639324,0.040365 0.954583,0.061425 -6.72963,-0.03861 -13.5807848,-2.54475 -20.2188313,-1.693575 -5.405191,3.44331 1.600951,8.8592405 5.0776037,10.6265245 14.4314546,7.067385 31.0098396,9.38574 46.9260046,10.338705 21.548554,0.43173 43.898464,-0.47736 63.418094,-10.558079 5.886,-1.651456 21.10824,-16.1389805 7.31435,-16.11094127"
               id="Fill-11" />
          </g>
          <path
             d="m 58.108,151.031 c -0.072,-0.018 -0.144,-0.046 -0.216,-0.062 0.07,0.022 0.146,0.042 0.216,0.062"
             id="Fill-14"
             fill="#000000" />
          <path
             d="m 57.294,151.078 c -0.196,-0.054 -0.392,-0.106 -0.588,-0.156 0.196,0.052 0.392,0.104 0.588,0.156"
             id="Fill-16"
             fill="#000000" />
          <path
             d="m 55.144731,53.657497 c 16.580905,-1.77179 35.406236,0.0504 50.317059,4.935749 l 0.82431,0.274556 0.2999,0.103198 0.0327,0.0047 c 0.13779,0.0221 0.27573,0.05146 0.41634,0.08911 l 0.21321,0.06282 0.21909,0.07601 0.18464,0.07376 1.67693,0.711382 0.64034,0.280202 c 0.80187,0.356625 1.41187,0.653097 2.02001,0.98248 l 0.22833,0.125243 0.43613,0.247914 c 11.1056,6.643917 14.37674,17.173853 8.50297,26.569893 -4.98298,7.971097 -15.20789,12.665416 -25.498939,11.667479 L 95.210309,99.815026 94.898,99.776 94.683599,99.797118 C 87.828944,100.30134 72.357634,93.424269 59.678356,84.547761 L 59.215746,84.222129 58.761212,83.898678 57.875626,83.257893 56.9838,82.59765 C 49.800378,77.215448 45.250929,72.219649 43.656577,67.718154 41.184986,60.739863 45.502821,55.513076 54.808018,53.708052 l 0.167818,-0.02886 z"
             id="Stroke-20"
             fill="#000000"
             fill-rule="nonzero" />
          <path
             d="m 105.91794,67.991292 c -1.08495,-0.620427 -2.24938,-1.077993 -3.39925,-1.560117 0.1232,0.06075 0.24243,0.121501 0.36166,0.182251 -11.727809,-4.185302 -26.498509,-5.399014 -38.423696,-4.141355 -22.806491,4.36626 21.501635,30.009313 29.627507,28.33545 14.693869,2.113332 27.313209,-13.676553 11.833779,-22.816229"
             id="Fill-18"
             fill="#ffffff" />
          <path
             d="m 222.01687,52.105979 0.71375,0.0082 c 6.61275,0.135336 11.04,1.865447 13.21826,5.611373 0.25239,0.434031 0.40845,0.917282 0.45757,1.416952 0.78476,7.981926 -2.47738,14.336962 -11.72429,23.821065 l -0.43103,0.439967 -3.24584,3.231762 -2.08132,2.076736 -0.61746,0.630791 c -0.3935,0.405214 -0.75219,0.781355 -1.08489,1.137756 l -0.48066,0.520961 -0.46435,0.516278 c -0.12271,0.138323 -0.25619,0.266704 -0.39919,0.383937 -8.27222,6.781845 -16.57789,9.109703 -23.71656,6.654554 -6.27321,-2.157492 -10.83755,-7.866084 -12.23045,-15.08067 -1.39542,-7.227611 0.60613,-14.741034 5.51852,-20.337383 3.74106,-4.261925 12.35541,-7.572338 25.84307,-9.93124 l 1.01201,-0.189629 c 0.64711,-0.115464 1.3238,-0.224524 2.0212,-0.32497 2.16723,-0.312145 4.25481,-0.50421 6.23094,-0.565317 l 0.73577,-0.01676 z"
             id="Stroke-24"
             fill="#000000"
             fill-rule="nonzero" />
          <path
             d="m 219.36516,61.545499 c -2.43232,-0.175618 -14.36956,1.830848 -16.20402,2.230687 -22.66778,4.940688 -11.32836,37.748114 8.57381,21.071989 4.92363,-5.672318 13.66084,-11.966129 12.86179,-20.272621 -1.20023,-2.109519 -3.11046,-2.876906 -5.23158,-3.030055 z"
             id="Fill-22"
             fill="#ffffff" />
        </g>
      </g>
    </g>
    <g
       id="Beard"
       transform="translate(468,518)"
       fill="#000000">
      <g
         id="Beard/None"
         stroke="none"
         stroke-width="1"
         fill="none"
         fill-rule="evenodd"
         fill-opacity="0" />
    </g>
    <g
       id="Mask"
       transform="translate(370,480)"
       fill="#000000">
      <g
         id="Mask/None"
         stroke="none"
         stroke-width="1"
         fill="none"
         fill-rule="evenodd"
         fill-opacity="0" />
    </g>
    <g
       id="Accessories"
       transform="translate(392,421)"
       fill="#000000">
      <g
         id="Accessories/None"
         stroke="none"
         stroke-width="1"
         fill="none"
         fill-rule="evenodd"
         fill-opacity="0" />
    </g>
  </g>
  <text
     style="font-style:oblique;font-variant:normal;font-weight:bold;font-stretch:normal;font-size:43.9696px;font-family:Courier;-inkscape-font-specification:'Courier, Bold Oblique';font-variant-ligatures:normal;font-variant-caps:normal;font-variant-numeric:normal;font-variant-east-asian:normal;text-transform:uppercase;white-space:pre;fill:#000000;stroke-width:0.488552"
     transform="scale(0.83234943,1.2014185)"
     id="text1"
     x="-63.720871"
     y="-527.03455"><tspan
       x="183.07426"
       y="396.255"
       dx="0 0 0 0 0 0 0 0 0 0 0 0 5.9114795"
       dy="0 0 0 0 0 0 0 0 0 0 0 0 0.26479518"
       style="font-style:oblique;font-variant:normal;font-weight:bold;font-stretch:normal;font-size:43.9696px;font-family:Courier;-inkscape-font-specification:'Courier, Bold Oblique';font-variant-ligatures:normal;font-variant-caps:normal;font-variant-numeric:normal;font-variant-east-asian:normal;baseline-shift:sub;fill:#000000;stroke-width:0.488552"
       id="tspan1">Miss Scarlett</tspan></text>
  <defs
     id="defs1">
    <style
       bx:fonts="Delicious Handrawn"
       id="style1">@import url(https://fonts.googleapis.com/css2?family=Delicious+Handrawn%3Aital%2Cwght%400%2C400&amp;display=swap);</style>
    <path
       id="path-0"
       d="m 480.943,1796.887 c 97.129,0 193.473,12.078 279.364,38.904 l 2.657,0.569 C 707.989,1768.23 594.756,1736.283 517.175,1702.145"
       style="fill:none" />
  </defs>
  <text
     style="font-size:28px;font-family:Arial, sans-serif;white-space:pre;fill:#333333"
     x="1063.3597"
     y="-73.376068"
     id="text2" />
</svg>
