<?xml version="1.0" encoding="UTF-8" standalone="no"?>
<svg
   viewBox="145.83784 95.8125 348.80354 385.04475"
   overflow="visible"
   width="348.80353"
   height="385.04474"
   version="1.1"
   id="svg5"
   sodipodi:docname="Mrs White.svg"
   inkscape:version="1.4.3 (0d15f75, 2025-12-25)"
   xmlns:inkscape="http://www.inkscape.org/namespaces/inkscape"
   xmlns:sodipodi="http://sodipodi.sourceforge.net/DTD/sodipodi-0.dtd"
   xmlns="http://www.w3.org/2000/svg"
   xmlns:svg="http://www.w3.org/2000/svg">
  <defs
     id="defs5" />
  <sodipodi:namedview
     id="namedview5"
     pagecolor="#ffffff"
     bordercolor="#111111"
     borderopacity="1.0"
     inkscape:showpageshadow="0"
     inkscape:pageopacity="1"
     inkscape:pagecheckerboard="0"
     inkscape:deskcolor="#d1d1d1"
     inkscape:zoom="1.1999629"
     inkscape:cx="58.335139"
     inkscape:cy="204.17299"
     inkscape:window-width="1470"
     inkscape:window-height="923"
     inkscape:window-x="0"
     inkscape:window-y="33"
     inkscape:window-maximized="0"
     inkscape:current-layer="svg5" />
  <g
     id="Master/Character/Bust"
     stroke="none"
     stroke-width="1"
     fill="none"
     fill-rule="evenodd"
     transform="matrix(0.21306356,0,0,0.16615158,177.97139,106.87215)">
    <g
       id="Body"
       transform="translate(147,639)">
      <g
         id="Body/Macbook"
         stroke="none"
         stroke-width="1"
         fill="none"
         fill-rule="evenodd">
        <path
           d="m 996.0819,209.47214 c -14.2794,1.402 -28.55881,2.802 -42.83822,4.204 -68.38801,5.225 -136.74899,16.137 -204.61347,22.686 -1.68971,-2.75 -4.99705,-2.297 -7.00507,-0.386 -6.77184,-0.593 -14.3615,-5.769 -20.49569,-0.385 -0.1992,-0.028 -0.3984,-0.061 -0.5996,-0.08 -10.92202,-20.963 -18.47164,-43.322 -25.79903,-65.711 -4.67672,-13.765 -10.96907,-27.09 -22.59681,-36.332 -19.84402,-13.775 -65.3119,-41.708001 -88.61341,-40.534001 -0.38639,-4.172 -2.33136,-8.472 -5.52458,-11.25 7.0381,-11.999 -21.10329,-19.828 -23.0883,-18.437 1.27229,-40.088 -17.58474,-74.902 -59.1647,-82.885 -37.25059,-7.762 -90.23305,-9.066 -110.26727,29.863 -2.20222,-0.2479997 -24.7133,-0.3651997 -26.8915,-0.1212 C 355.19783,5.8149393 318.00832,46.457021 333.2507,60.606021 196.97819,120.88802 119.49335,113.69514 81.775295,283.16414 c -5.099146,15.92 -5.470521,33.341 -10.854954,48.906 -19.15633,44.731 -34.694009,92.362 -38.560911,141.034 -9.339424,2.393 -10.413508,18.86 0.404408,21.242 4.13217,0.911 7.587657,2.155 10.600697,4.514 -2.355377,39.886 7.291358,131 13.369491,130.719 12.393506,39.443 67.675094,50.57481 106.812584,36.71381 -6.74681,12.693 0,20.67377 0,27.45568 140.82711,5.328 294.80668,2.25951 435.59475,9.56651 18.00917,-0.256 36.95129,4.423 54.71421,1.73 10.83293,-2.597 10.85095,-19.63 -0.13714,-21.736 l 48.01279,-10.42813 c -1.07308,-0.405 19.79115,-14.28276 35.56006,-40.21576 14.67781,-29.01 4.68822,-64.0278 11.33893,-95.5838 51.94441,-4.248 104.7477,-6.06431 156.12354,-14.86131 7.00507,20.959 37.32866,-4.107 46.96739,-14.19 -0.012,-0.016 -0.024,-0.031 -0.036,-0.047 4.6647,-1.276 8.40548,-5.648 8.5306,-10.824 3.2713,-4.674 3.958,-11.262 0.82083,-15.779 14.37851,-82.968 36.29863,-167.68 44.22163,-251.428 2.8008,-0.62 5.4384,-1.848 7.6747,-3.74 l -0.1812,-0.181 c 3.7889,-4.224 4.5256,-11.515 -1.7908,-15.104 -5.0951,-2.898 -9.3494,-1.999 -14.87897,-1.455 z"
           id="Skin"
           fill="#827070" />
        <path
           d="m 453,520 11,7 90,29 55,7 45,-7 v 77 l 9,72 c -4,7.33333 -42,7.33333 -114,0 -45.89812,-4.67481 -213.64391,-6.94279 -251.83597,-7.94077 L 295,697 c -44.87966,-1.29452 -89.213,-1.29452 -133,0 V 670 L 287,608 399,545 Z M 389.22904,3.9318775 l 8.26576,6.1720615 -18.04689,29.65011 87.91289,71.110671 v 56.79904 l 27.83251,26.3246 15.90885,-26.3246 22.41697,-29.81134 15.93089,-48.324035 -5.42425,-31.836619 10.90829,-1.027686 c 0.0528,2.175888 0.0438,4.371448 -0.0263,6.583059 1.98501,-1.391 30.1264,6.438 23.0883,18.437 3.19322,2.778 5.13819,7.078 5.52458,11.25 23.30151,-1.174 68.76939,26.759001 88.61341,40.534001 11.62774,9.242 17.92009,22.567 22.59681,36.332 l 1.10117,3.35795 1.13688,3.44717 1.14545,3.4445 c 6.32822,18.93539 13.16133,37.69949 22.41553,55.46138 0.2012,0.019 0.4004,0.052 0.5996,0.08 6.13419,-5.384 13.72385,-0.208 20.49569,0.385 1.96132,-1.86656 5.16223,-2.34214 6.88459,0.19931 l 0.12048,0.18669 -84.37126,16.62088 -55.66063,195.244 -48.47263,-39.34611 -26.01809,3.86927 -68.70894,24.78128 -79.91286,20.75769 -182.43036,50.29505 H 179.82355 L 44.638995,475.93889 32.456026,471.91757 c 4.023117,-48.2595 19.463682,-95.47999 38.464315,-139.84743 5.384433,-15.565 5.755808,-32.986 10.854954,-48.906 C 119.49335,113.69514 196.97819,120.88802 333.2507,60.606021 318.00832,46.457021 355.19783,5.8149393 358.58425,10.103939 l 0.21347,-0.01852 0.46151,-0.0247 0.59463,-0.02075 c 5.31623,-0.1545877 23.64573,-0.03737 25.62189,0.185172 1.14628,-2.2273536 2.40041,-4.3229988 3.75329,-6.2932615 z"
           id="Top"
           fill="#f7f7f7" />
        <path
           d="m 1009.5673,215.40044 -2.5131,14.00471 c -0.5973,0.19559 -1.205,0.36123 -1.8205,0.49749 -0.7899,8.34875 -1.7188,16.70708 -2.7655,25.0723 l -15.5809,86.8395 c -2.68739,15.36322 -5.23856,30.75915 -7.77108,46.1605 l -3.35594,16.54309 -2.07832,10.2818 c -4.48655,22.26645 -8.84506,44.46033 -12.66992,66.53081 0.57728,0.83119 1.02508,1.7325 1.35112,2.67911 l -0.29434,1.244 -0.20465,0.82947 -0.20937,0.81936 c -3.01779,11.60066 -8.26882,22.8501 -20.6435,26.26386 -9.33428,2.57368 -19.5761,2.80693 -29.21461,3.82275 l -1.06839,0.11625 -168.659,18.967 c -20.3792,2.2912 -40.7488,4.65152 -61.11648,7.03693 l -17.65669,2.07088 c -24.61024,2.84985 -49.36201,5.0926 -73.60983,10.25119 -0.891,0.19 -1.629,0.546 -2.231,1.014 4.883,-18.483 9.557,-36.942 13.793,-55.612 4.768,-21.013 9.293,-42.067 14.393,-63.004 10.274,-42.18 21.791,-84.083 34.399,-125.626 2.64584,-8.71917 5.35278,-17.42097 8.1191,-26.10252 l 1.94107,-6.06856 1.49413,-4.83587 c 2.31177,-7.37344 5.17254,-14.95187 11.9517,-19.01905 7.9335,-4.7603 18.75225,-5.54944 27.75025,-7.1957 l 6.09317,-1.14455 c 9.11636,-1.70083 18.24442,-3.33708 27.38358,-4.90875 43.756,-7.526 87.76,-13.563 131.926,-18.098 45.95807,-4.71968 92.07628,-7.78639 138.2504,-9.28533 z m -418.6174,289.54306 0.4304,0.0359 -6.3,50.361 c -1.007,-0.705 -2.286,-1.137 -3.847,-1.133 -20.66475,0.0608 -40.47369,-6.54371 -59.63367,-13.80455 l -2.9177,-1.11188 -8.13467,-3.1266 C 502.27842,532.99624 493.9653,529.898 485.4973,527.3284 l -3.42312,-1.03303 -1.74001,-0.51384 c -6.41143,-1.87164 -13.15581,-3.57299 -19.82494,-3.99641 l -0.90893,-0.0497 1.942,-1.019 c 0.284,-0.149 0.533,-0.316 0.754,-0.496 3.671,0.272 7.349,0.198 11.221,-0.5 7.282,-1.311 14.363,-3.844 20.865,-7.371 l 2.90397,-1.57394 1.18877,-0.63069 0.78534,-0.40715 0.78099,-0.39496 c 5.58431,-2.78372 10.92401,-4.52669 17.97493,-3.04426 8.0042,1.68484 15.01849,5.9985 22.23376,9.64382 l 1.28053,0.63761 0.86094,0.41598 0.87772,0.41284 0.88822,0.40583 c 9.75712,4.39049 25.28548,9.12895 29.02683,-4.13708 1.503,-5.33 0.326,-10.321 -2.282,-14.697 4.86,-0.42065 13.54224,5.3093 20.0476,5.96306 z m 242.8776,-165.92784 0.11758,0.60423 c 1.37969,7.42756 -2.08027,14.53273 -7.31608,19.71255 -4.295,4.248 -11.896,6.609 -14.049,12.72 -1.226,3.477 0.078,6.774 2.596,9.073 l -0.57995,0.28642 -0.56697,0.28981 -0.55353,0.29268 -0.53971,0.29507 -0.52559,0.29701 c -8.55401,4.91418 -15.52021,12.90604 -7.80525,22.55901 8.75183,10.95066 27.03894,11.30548 39.92322,10.44867 l 0.86798,-0.0607 c 12.4933,-0.9368 27.29245,-5.13325 34.0668,-16.66892 3.107,-5.292 2.765,-11.692 -1.566,-16.221 -2.613,-2.732 -7.274,-5.538 -11.548,-5.87 0.187,-2.408 -0.1,-4.734 -0.947,-6.697 -1.832,-4.243 -6.707,-7.1 -11.409,-7.203 0.38075,-9.00965 -6.83552,-17.9029 -12.14894,-25.10546 l -0.54248,-0.73899 -0.52658,-0.72655 c -2.4379,-3.392 -7.65431,-1.49168 -6.9475,2.71322 z m 7.1295,9.58978 4.841,18.134 -0.0831,0.14915 c -1.70522,3.23813 2.76483,6.9139 5.41621,4.1931 l 0.26694,-0.28769 c 3.14673,-3.24993 7.97691,1.11865 8.03698,4.57744 0.086,4.86928 -3.08384,8.63406 -6.86056,11.12116 l -0.26444,0.17144 -0.69631,0.43259 c -3.09945,2.04836 -0.75294,6.33098 2.65431,5.80981 4.216,-0.645 7.671,-3.989 9.801,-8.164 2.276,0.652 4.866,0.573 7.263,1.914 6.04013,3.37805 2.5663,9.28768 -1.36696,12.85945 l -0.15969,0.14351 -0.32035,0.27904 c -7.21622,6.15366 -17.04115,8.29127 -26.30234,8.74941 l -0.53366,0.0246 c -9.355,0.4 -21.543,0.534 -29.561,-4.968 -4.99,-3.424 -6.435,-8.28 -2.212,-12.879 2.388,-2.599 4.799,-5.221 7.281,-7.755 3.715,1.773 7.033,1.054 10.832,-0.624 0.487,-0.216 0.217,-0.961 -0.26,-0.961 -2.096,-0.002 -9.787,-3.893 -10.161,-6.379 -0.34555,-2.301 3.9089,-4.24088 5.97774,-5.35258 l 0.30012,-0.16443 0.26014,-0.15099 c 2.164,-1.311 4.201,-2.837 6.063,-4.551 4.7258,-4.35018 8.15817,-9.80631 9.65708,-15.77774 z"
           id="Computer"
           fill="#f7f7f7" />
        <path
           d="m 388.0718,1.1839393 c 4.243,-10.663 18.586,-6.518 16.987,4.684 -0.957,6.7099997 -4.632,13.7969997 -7.933,19.6779997 -2.688,4.787 -5.754,9.459 -9.911,13.047 7.4,6.904 15.081,13.556 22.957,19.872 8.594,6.891 17.631,13.243 26.972,19.081 8.191,5.12 16.752,9.656 24.473,15.498 7.179,5.431 13.719,11.963001 17.047,20.490001 3.54522,9.08034 2.00452,18.45784 -0.6061,27.53206 l -0.2999,1.02594 c -2.667,8.99 -7.284,19.827 -0.882,28.297 3.259,4.312 7.997,7.366 12.088,10.813 3.636,3.064 7.049,6.396 10.179,9.975 6.825,7.802 12.376,16.581 15.879,26.363 l 0.31327,0.88868 c 3.0025,8.65941 5.19683,19.26749 1.13973,27.76932 -1.164,2.437 -4.918,1.645 -5.57,-0.728 -1.474,-5.376 -1.397,-11.006 -2.633,-16.458 -1.286,-5.67 -3.426,-11.052 -6.221,-16.144 -5.40784,-9.85076 -12.73171,-18.26522 -21.38452,-25.37905 l -2.59023,-2.10641 c -6.75018,-5.53962 -12.95211,-11.41644 -14.32225,-20.58454 -1.466,-9.809 2.464,-19.153 4.991,-28.437 1.761,-6.47 2.336,-12.672 0.433,-18.519 -2.325,3.795 -5.497,7.397 -8.006,10.61 -4.997,6.401 -10.041,12.763 -15.072,19.137 -5.158,6.536 -10.189,13.175 -14.98,19.986 -2.143,3.047 -4.263,6.112 -6.376,9.18 -1.589,2.306 -3.805,4.61 -5.537,6.962 0.421,1.258 0.389,2.708 -0.374,3.738 -9.185,12.41 -22.252,-13.484 -25.66,-20.026 -6.94,-13.323 -12.105,-27.477 -19.068,-40.797 -7.215,-13.808 -15.431,-27.248001 -24.588,-39.854001 -5.539,-7.625 -11.747,-14.787 -16.814,-22.654 -11.937,10.824 -27.645,18.08 -42.073,24.66 -15.85238,7.228572 -32.32154,13.133791 -48.57474,19.404451 l -4.80109,1.86474 c -28.00475,10.9294 -56.69387,22.93666 -79.97117,42.34981 -27.353,22.813 -43.535,54.609 -55.582,87.535 -13.867996,37.905 -25.340996,76.833 -36.035996,115.736 -5.473,19.905 -10.666,39.9 -15.548,59.959 -4.302,17.672 -7.868,35.52 -12.848,53.01 10.1,-0.357 21.619,3.553 30.242,4.682 39.298996,5.144 78.068996,13.344 115.171996,27.541 4.583,1.754 5.909,6.331 4.911,10.041 2.643,-0.746 5.284,-1.502 7.927,-2.244 -2.89566,-4.43682 -1.51359,-12.36916 -1.28594,-17.28688 l 0.0139,-0.33812 c 0.234,-6.553 0.945,-13.113 1.406,-19.654 0.87785,-12.46892 2.02069,-24.84668 3.54021,-37.24415 l 0.38779,-3.09985 c 1.722,-13.488 2.995,-27.055 4.874,-40.52 l 0.222,-1.541 c -0.901,-3.445 -1.95,-6.848 -3.051,-10.236 -2.934,-9.025 -7.075,-17.52 -10.704,-26.261 -0.428,-1.029 1.038,-1.62 1.723,-1.003 6.146,5.529 11.028,12.543 14.95,19.879 0.068,-0.346 0.128,-0.693 0.199,-1.039 l 0.44754,-2.2028 c 1.10362,-5.37205 2.44601,-11.02417 5.74146,-15.3812 0.351,-0.463 1.045,-0.56 1.377,0 3.154,5.337 3.507,12.096 3.992,18.169 0.549,6.87 0.618,13.827 0.521,20.716 -0.189,13.463 -1.138,26.964 -1.894,40.405 -0.74164,13.20847 -2.19814,26.24864 -4.07519,39.32726 l -0.35681,2.45274 c -0.91758,6.22508 -1.66879,12.52747 -2.87907,18.70998 l -0.34193,1.68302 c -0.647,3.066 -1.045,7.389 -2.333,10.98 33.138,-9.243 66.327,-18.275 99.579,-27.148 24.033,-6.414 48.091,-12.732 72.139,-19.09 1.269,-2.287 2.849,-4.423 4.821,-6.332 6.497,-6.292 15.107,-9.099 23.004,-4.256 0.642,0.395 0.696,1.401 0,1.782 -1.513,0.827 -3.029,1.675 -4.518,2.559 l 14.44,-3.911 c 10.793,-2.925 21.715,-6.58 32.762,-8.619 20.347,-10.041 42.231,-17.309 63.665,-24.492 l 2.52576,-0.85434 c 10.97474,-3.74158 22.32646,-7.93023 33.66524,-10.00466 8.301,-1.518 18.045,0.314 21.383,8.818 4.226,2.785 8.202,6.058 12.039,9.277 2.774,2.326 5.433,4.799 8.137,7.207 l 0.4985,0.43762 c 2.21056,1.91798 3.96171,3.20252 4.5045,6.25538 0.28,1.577 -0.722,3.709 -2.667,3.5 -5.951,-0.637 -10.79,-7.535 -14.826,-11.654 -3.118,-3.184 -6.261,-6.476 -9.107,-9.975 -1.659,0.903 -3.933,0.741 -4.989,-1.259 -5.476,-10.369 -20.477,-3.184 -28.777,-0.725 l -11.88993,3.51923 c -5.94459,1.76213 -11.88687,3.53297 -17.81907,5.33477 -16.304,4.951 -32.528,10.492 -48.98,15.039 1.472,1.618 1.269,4.496 -1.527,5.591 -12.878,5.053 -27.006,7.666 -40.385,11.133 -8.447,2.191 -16.889,4.395 -25.328,6.612 -1.447,2.344 -2.488,4.996 -2.926,8.083 -1.61045,11.35053 1.49554,24.44657 4.52106,35.42466 l 0.45575,1.63794 c 2.48707,8.82623 6.14611,19.64607 13.76119,25.2194 1.859,1.359 4.226,2.305 6.612,2.519 14.907,-7.673 29.813,-15.345 44.728,-23.003 2.763,-1.419 5.316,0.502 5.936,2.786 5.259,-0.863 10.506,-2.223 15.285,-3.845 8.03,-2.727 14.3,-7.928 21.828,-11.525 14.56608,-6.95808 29.4409,1.58884 42.48251,8.08671 l 3.00576,1.4773 c 5.84835,2.83755 18.01544,8.28873 20.82173,0.52799 2.714,-7.508 -5.867,-15.532 -11.409,-18.911 -6.606,-4.029 -14.298,-6.185 -21.764,-7.981 -4.263,-1.026 -8.578,-1.863 -12.919,-2.474 -4.924,-0.693 -10.01,-0.589 -14.751,-2.186 -2.356,-0.792 -2.718,-4.534 0,-5.152 7.29809,-1.66089 16.00864,0.15078 23.62447,2.00213 l 3.98053,0.98087 c 7.673,1.883 15.42,4.246 22.409,8.002 5.082,2.732 10.446,6.882 13.95,11.962 3.04293,-2.82662 6.83016,-2.73105 10.77523,-1.68271 l 2.14129,0.59525 c 3.53587,0.97987 6.40191,1.65432 9.84248,0.97546 0.46,-2.503 0.926,-5.007 1.425,-7.511 4.903,-24.614 10.28,-49.134 16.213,-73.523 10.23387,-42.06774 22.07576,-83.67378 35.42596,-124.85345 l 1.34004,-4.11655 c 3.079,-9.419 5.557,-19.681 10.521,-28.334 4.695,-8.182 12.217,-12.895 21.154,-15.391 10.142,-2.832 20.799,-4.314 31.145,-6.227 2.308,-0.426 4.622,-0.831 6.932,-1.25 -1.95216,-3.52467 -3.40928,-7.52565 -4.7218,-10.5961 l -0.2302,-0.5319 c -2.8197,-6.4287 -5.35266,-12.97323 -7.79862,-19.55267 l -1.82968,-4.94628 c -4.41632,-11.91079 -8.97534,-23.62598 -15.1847,-34.76605 -6.536,-11.724 -15.207,-21.309 -26.016,-29.242 -22.038,-16.176 -48.601,-24.427 -69.976,-41.714001 -0.876,-0.708 0.247,-1.919 1.136,-1.471 14.433,7.252001 30.014,12.183001 45.026,18.087001 l 2.96136,1.16843 c 11.86536,4.70366 23.91549,9.82419 34.18564,17.43957 11.45,8.492 20.468,19.038 27.246,31.579 6.68,12.362 10.953,26.199 15.666,39.403 l 1.26053,3.51826 c 1.90099,5.27571 3.86447,10.53565 6.11447,15.66974 1.786,4.076 5.119,8.729 6.634,13.385 4.145,-0.719 8.289,-1.44 12.438,-2.133 89.867,-15.004 180.738,-23.82 271.81104,-26.399 3.563,-0.101 5.406,3.299 4.881,6.407 -8.74,51.681 -16.507,103.539 -25.02904,155.259 -3.72,22.573 -7.514,45.129 -11.397,67.674 -1.967,11.422 -4.241,22.8 -6.104,34.239 -1.504,9.238 -2.596,18.548 -5.178,27.572 -2.316,8.091 -5.87,15.893 -11.707,22.066 -6.292,6.654 -15.074,9.875 -23.914,11.397 -22.441,3.862 -45.459,5.439 -68.082,8.012 l -120.447,13.703 c 1.76014,15.99862 1.89169,31.74834 1.08409,47.93321 l -0.46026,8.83535 c -0.37626,7.10663 -0.82608,14.22394 -1.84683,21.25744 -1.28,8.823 -5.316,16.294 -11.261,22.884 -5.459,6.052 -12.091,11.216 -18.542,16.164 -6.696,5.138 -13.615,10.097 -21.488,13.274 l -1.02187,0.40558 c -6.90687,2.69666 -19.86344,6.87249 -29.30413,5.34642 1.234,6.183 3.622,12.831 1.505,18.949 -0.982,2.841 -4.697,4.258 -6.973,1.841 -4.509,-4.791 -4.861,-11.119 -5.929,-17.369 -1.111,-6.504 -2.069,-13.031 -2.92,-19.574 -1.646,-12.651 -2.927,-25.418 -3.318,-38.176 -0.402,-13.102 -0.247,-26.222 0.459,-39.31 0.363,-6.721 0.813,-13.438 1.666,-20.116 0.364,-2.848 0.736,-5.698 1.161,-8.539 0.155,-1.036 0.327,-2.067 0.512,-3.096 l -10.81081,1.21969 c -16.57671,1.8506 -33.16129,3.52174 -49.85519,3.78131 -1.977,0.03 -3.498,-0.87 -4.492,-2.181 -1.059,1.725 -2.903,2.959 -5.544,2.949 -23.313,-0.087 -45.023,-7.71 -66.227,-16.694 -10.688,-4.53 -21.21,-9.434 -31.914,-13.925 -9.991,-4.192 -20.672,-7.183 -30.422,-11.905 l -25.62,13.438 c -0.188,0.661 -0.429,1.286 -0.685,1.809 -1.668,3.405 -4.957,5.252 -8.316,6.643 -3.224,1.338 -6.563,1.754 -9.816,1.416 -19.43025,10.182 -38.865,20.35444 -58.31268,30.50297 l -19.45232,10.14003 c -38.756,20.179 -77.359,40.689 -116.359,60.394 l -2.87118,1.44535 c -13.47075,6.75465 -27.93562,13.60158 -42.88482,18.71065 -0.266,3.784 -0.098,7.464 0.219,11.469 l 0.0763,0.87246 c 0.44572,4.73283 1.4014,10.66313 -2.39531,14.03254 -1.975,1.752 -5.503,1.759 -6.846,-0.883 -2.437,-4.791 -0.249,-12.344 0.523,-17.549 0.274,-1.851 0.608,-3.754 1.102,-5.6 -17.138,5.102 -34.795,7.576 -52.235,4.711 -16.979996,-2.787 -30.130996,-13.484 -40.732996,-26.568 -11.189,-13.807 -19.14,-29.898 -23.406,-47.147 -4.855,-19.628 -5.172,-39.898 -5.058,-60.003 0.121,-21.409 0.913,-42.924 3.517,-64.189 -2.853,-0.671 -6.017,-1.251 -8.9,-1.051 -1.428,2.285 -4.198,3.247 -6.701,2.95 -5.443,6.003 8.363,12.138 12.775,13.674 1.532,0.534 1.368,3.022 -0.399,2.947 l -1.113023,-0.0529 c -6.817361,-0.36268 -13.860615,-1.52666 -17.868977,-7.86209 -3.212,-5.078 -2.247,-11.094 1.582,-15.235 2.529,-23.912 8.575,-47.197 14.202,-70.523 5.522,-22.895 11.663,-45.643 18.172,-68.276 l 2.918025,-10.13009 c 10.248298,-35.48857 20.960323,-71.26348 35.096975,-105.34191 7.059,-17.016 15.190996,-33.719 26.213996,-48.556 10.275,-13.831 22.406,-25.666 36.35,-35.774 25.99502,-18.84572 56.49748,-30.23275 86.46744,-41.081569 l 1.34156,-0.485432 c 15.531,-5.618 31.024,-11.303 46.378,-17.39 13.579,-5.383 26.588,-12.208 40.103,-17.672 -0.439,-0.797 -0.863,-1.603 -1.271,-2.418 l -0.24985,0.210148 c -0.0427,0.03396 -0.0865,0.06685 -0.13215,0.09785 -1.359,0.942 -3.36,0.479 -4.48,-0.578 -3.16242,-2.98402 -2.09178,-6.296492 0.0191,-9.391161 l 0.27488,-0.393839 c 2.582,-3.617 4.885,-7.441 7.268,-11.189 l 1.49226,-2.343863 c 3.99995,-6.261618 8.20341,-12.565026 13.53674,-17.740137 2.47,-2.398 5.174,-4.192 8.039,-5.5289997 -0.245,-0.518 1.903,-1.577 2.512,-1.044 9.077,-3.322 19.52,-2.626 29.416,-1.71 m 356.624,544.9510027 -12.62,1.435 c -13.884,1.5798 -27.7734,3.1074 -41.66452,4.62017 l -30.17248,3.27883 c -0.077,1.72 -0.286,3.402 -0.324,4.701 -0.197,6.697 -0.344,13.397 -0.483,20.096 -0.279,13.428 0.027,26.869 0.911,40.271 0.85688,12.98625 1.98534,25.97426 3.73886,38.87256 l 0.35914,2.57844 0.208,1.356 c 1.431,0.138 2.837,0.818 4.006,2.215 2.552,3.047 11.793,0.085 15.402,-1.199 5.935,-2.112 11.524,-5.68 16.681,-9.258 5.03624,-3.49365 9.5711,-7.5675 13.92891,-11.8589 l 3.56555,-3.52638 c 3.5468,-3.52453 7.09744,-7.27927 9.27054,-11.71272 2.947,-6.012 3.328,-13.392 4.192,-19.94 1.064,-8.054 2.331,-16.107 3.67,-24.121 m -357.024,-122.35 -1.309,0.344 c -47.551,12.635 -95.031,25.643 -142.728,37.72 -23.604,5.978 -47.32,11.521 -70.953,17.384 l -3.82624,0.95695 c -18.64391,4.71209 -37.51164,10.38327 -51.78876,23.90605 -0.527,0.498 -1.292,-0.267 -0.796,-0.796 15.387,-16.38 37.271,-23.314 58.283,-29.325 3.884,-1.111 7.773,-2.196 11.658,-3.301 -28.576,-10.187 -57.603,-19.05 -87.299996,-25.371 -7.647,-1.628 -15.383,-2.823 -23.024,-4.457 -5.3289,-1.1403 -10.53306,-2.78847 -15.805665,-4.15573 l -4.147335,-1.04327 -0.05508,13.10762 c -0.06902,18.56507 -0.03606,37.115 0.91108,55.67738 l 0.179293,3.43856 c 1.105062,20.65732 2.82997,41.74354 10.160707,61.22144 5.957,15.828 15.452,30.739 27.869,42.268 6.283,5.833 13.038,10.374 21.387996,12.616 7.753,2.081 15.876,2.325 23.846,1.77 38.229,-2.667 72.259,-23.434 105.467,-40.628 54.317,-28.123 108.64,-56.232 163.012,-84.247 -1.47,-1.005 -2.854,-2.163 -4.113,-3.464 -7.291,-7.53 -11.137,-17.838 -13.663,-27.821 -2.689,-10.626 -4.297,-22.015 -4.484,-32.985 m 70.4021,75.1261 c 0.48,-0.258 1.036,0.065 1.058,0.607 0.168,4.15269 -2.12693,8.24851 -3.84164,11.98955 l -0.18136,0.39945 c -2.083,4.634 -4.364,9.206 -6.723,13.706 -4.715,8.991 -9.615,17.886 -14.729,26.655 -10.284,17.641 -21.712,34.539 -35.22,49.899 -3.051,3.47 -8.069,-0.979 -6.111,-4.715 9.44,-18.01 20.445,-35.015 31.773,-51.872 5.671,-8.44 11.338,-16.888 17.065,-25.29 2.38917,-3.50583 4.80889,-6.99917 7.29389,-10.43949 l 1.49911,-2.05751 m 572.07187,-348.9581 c -47.71697,1.441 -95.37797,4.553 -142.86797,9.43 -44.166,4.535 -88.17,10.572 -131.926,18.098 -9.13916,1.57167 -18.26722,3.20792 -27.38358,4.90875 l -5.46842,1.02825 c -9.118,1.728 -20.257,2.441 -28.375,7.312 -8.559,5.135 -10.872,15.867 -13.72,24.717 -3.348,10.408 -6.611,20.846 -9.786,31.309 -12.608,41.543 -24.125,83.446 -34.399,125.626 -5.1,20.937 -9.625,41.991 -14.393,63.004 -4.236,18.67 -8.91,37.129 -13.793,55.612 0.602,-0.468 1.34,-0.824 2.231,-1.014 24.24782,-5.15859 48.99959,-7.40134 73.60983,-10.2512 l 2.38117,-0.2778 c 25.459,-2.994 50.918,-5.966 76.392,-8.83 l 168.659,-18.967 c 9.947,-1.118 20.603,-1.27 30.283,-3.939 16.45776,-4.54014 20.31536,-22.93987 23.07665,-37.59313 l 0.0833,-0.44287 c 8.325,-44.273 14.952,-88.931 22.716,-133.316 m -395.507,163.165 c -6.548,-0.432 -15.51,-6.429 -20.478,-5.999 2.608,4.376 3.785,9.367 2.282,14.697 -4.183,14.832 -23.1,7.158 -32.212,2.627 -7.471,-3.717 -14.685,-8.265 -22.956,-10.006 -9.37,-1.97 -15.718,1.756 -23.634,6.051 -6.502,3.527 -13.583,6.06 -20.865,7.371 -3.872,0.698 -7.55,0.772 -11.221,0.5 -0.221,0.18 -0.47,0.347 -0.754,0.496 l -1.942,1.019 c 8.781,0.402 17.725,3.112 25.897,5.593 8.468,2.5696 16.78112,5.66784 25.04996,8.83597 l 8.13467,3.1266 c 20.06542,7.68383 40.83587,14.98037 62.55137,14.91643 1.561,-0.004 2.84,0.428 3.847,1.133 m -30.3357,-96.835 c 6.469,-0.791 12.44,0.057 17.609,4.268 6.234,5.078 10.422,13.5 19.384,14.053 2.613,0.161 3.22,3.835 0.623,4.603 -6.671,1.975 -12.072,-1.634 -16.617,-6.32 l -3.05581,-3.19271 c -4.49147,-4.65074 -8.63388,-8.24616 -16.25519,-7.96829 -8.162,0.298 -16.338,2.184 -24.447,3.143 -9.186,1.086 -18.37,2.012 -27.585,2.811 -0.428,0.037 -0.501,-0.637 -0.1,-0.736 l 10.32121,-2.56866 m 33.87839,-34.53854 1.06691,-0.10678 c 9.39375,-0.91214 17.98468,-0.94753 26.37409,4.10578 l 1.60908,0.97305 c 7.56392,4.59736 15.79679,10.01362 20.52692,17.45695 0.774,1.219 -0.505,2.652 -1.8,2.342 -9.091,-2.182 -15.737,-8.852 -23.382,-13.844 -8.58,-5.602 -17.443,-4.678 -27.226,-3.808 -9.472,0.843 -18.939,2.001 -28.318,3.58 -8.813,1.482 -17.654,3.822 -26.556,4.568 l 0.002,-0.018 c -1.017,-0.002 -1.597,-1.529 -0.56,-2.047 9.034,-4.511 19.497,-6.646 29.324,-8.707 m 314.3038,-97.3398 c -0.908,-4.343 4.434,-6.357 6.91,-2.912 l 0.52658,0.72655 c 5.3492,7.32836 13.0853,16.52413 12.69142,25.84445 4.702,0.103 9.577,2.96 11.409,7.203 0.847,1.963 1.134,4.289 0.947,6.697 4.274,0.332 8.935,3.138 11.548,5.87 4.331,4.529 4.673,10.929 1.566,16.221 -6.77435,11.53567 -21.5735,15.73212 -34.0668,16.66892 l -0.4452,0.0321 c -12.904,0.892 -31.498,0.651 -40.346,-10.42 -8.535,-10.679 0.898,-19.325 10.571,-24.02 -2.518,-2.299 -3.822,-5.596 -2.596,-9.073 2.153,-6.111 9.754,-8.472 14.049,-12.72 5.23581,-5.17982 8.69577,-12.28499 7.31608,-19.71255 m 7.01192,8.98555 c -1.423,6.184 -4.919,11.84 -9.788,16.322 -1.862,1.714 -3.899,3.24 -6.063,4.551 l -0.26014,0.15099 c -1.9205,1.07812 -6.64113,3.09801 -6.27786,5.51701 0.374,2.486 8.065,6.377 10.161,6.379 0.477,0 0.747,0.745 0.26,0.961 -3.799,1.678 -7.117,2.397 -10.832,0.624 -2.482,2.534 -4.893,5.156 -7.281,7.755 -4.223,4.599 -2.778,9.455 2.212,12.879 8.018,5.502 20.206,5.368 29.561,4.968 9.416,-0.402 19.481,-2.502 26.836,-8.774 l 0.32035,-0.27905 c 3.99733,-3.55509 7.64841,-9.57925 1.52665,-13.00295 -2.397,-1.341 -4.987,-1.262 -7.263,-1.914 -2.13,4.175 -5.585,7.519 -9.801,8.164 -3.40725,0.52117 -5.75376,-3.76145 -2.65431,-5.80981 l 0.69631,-0.43259 c 3.89196,-2.48403 7.213,-6.31008 7.125,-11.2926 -0.0601,-3.45879 -4.89025,-7.82737 -8.03698,-4.57744 l -0.14402,0.15544 c -2.6331,2.96803 -7.27099,-0.77212 -5.53913,-4.06085 l 0.0831,-0.14915 M 226.8622,176.67554 c -0.0117,-0.743 1.0333,-1.021 1.3983,-0.378 6.112,10.753 9.307,23.934 12.563,35.781 3.41,12.41 6.163,24.946 8.636,37.574 5.009,25.571 7.678,50.995 7.85923,77.057 0.0248,3.721 -6.03723,4.711 -6.63023,0.898 -3.937,-25.351 -7.709,-50.728 -11.676,-76.072 -1.996,-12.747 -4.319,-25.445 -6.542,-38.154 m 54.9,-17.9765 c -0.45,-1.483 1.708,-1.979 2.26,-0.623 12.266,30.109 16.42,64.231 8.545,95.996 -1.205,4.859 -8.322,2.754 -7.413,-2.044 m 154.8254,-120.0828 c -0.062,-1.11 1.379,-1.285 1.922,-0.521 5.812,8.189 8.223,19.156 18.42,23.388 5.091,2.113 10.82,1.745 15.318,5.314 3.007,2.387 5.313,6.155 3.056,9.77 -0.728,1.168 -2.766,1.753 -3.754,0.484 -1.442,-1.849 -2.205,-4.063 -4.164,-5.449 -2.763,-1.955 -6.489,-2.076 -9.657,-2.995 -4.098,-1.188 -7.71,-3.267 -10.668,-6.356 M 542.6861,32.067339 c 0.599,-0.305 1.174,-0.11 1.557,0.408 0.547,0.738 0.48,1.456 -0.19,1.962 0.895,1.829 1.952,6.411 2.103,7.078 0.612,2.704 1.263,5.392 1.944,8.078 1.374,5.417 2.578,10.876 3.953,16.295 1.458,5.744 3.195,11.427 5.128,17.028 0.12467,0.362667 0.26178,0.732889 0.40571,1.108593 l 0.22029,0.567407 0.054,-0.086 c 0.393,-0.621 1.211,-0.187 1.114,0.469 -0.09,0.598 -0.211,1.193 -0.313,1.791 l 0.20255,0.535727 c 1.26443,3.403163 2.13035,6.987323 -0.18955,9.990273 -0.868,1.123 -1.823,1.788 -3.013,1.986 -1.908,6.290001 -4.302,12.463001 -6.865,18.391001 l -0.75119,1.73124 c -3.77011,8.65017 -7.79099,17.1867 -13.79381,24.55076 -6.554,8.04 -15.569,13.53 -21.278,22.34 -2.656,4.098 -4.504,8.407 -6.004,13.035 l -0.56426,1.75668 c -1.0647,3.2734 -2.29307,6.4462 -5.36374,8.36632 -0.98,0.612 -2.448,0.417 -3.238,-0.418 -6.297,-6.661 0.295,-19.099 4.092,-25.548 5.278,-8.968 12.917,-14.705 20.566,-21.471 8.245,-7.293 13.504,-17.049 18.591,-26.66 3.116,-5.888 6.124,-11.903 9.291,-17.817001 -3.30873,-2.924382 -4.36787,-8.733296 -5.48885,-12.770949 l -0.10215,-0.362051 c -1.853,-6.466 -3.325,-13.1 -4.255,-19.763 -0.89506,-6.406588 -1.26837,-12.721052 -1.03157,-19.163489 l 0.0683,-1.641122 m 15.45353,18.724411 c -0.731,-1.002 0.479,-2.137 1.482,-1.928 6.09821,1.260966 12.06031,4.952238 17.53348,7.937046 l 0.58452,0.316954 c 4.369,2.356 8.765,5.242 11.059,9.819 2.49503,4.974546 2.28949,10.704162 1.94922,16.110168 l -0.0322,0.505832 c -0.417,6.483001 -0.484,13.219001 -1.856,19.585001 -0.702,3.258 -3.653,4.176 -6.176,3.406 -3.002,9.479 -11.435,16.463 -17.595,23.943 -7.854,9.536 -6.376,22.411 -5.555,33.896 0.332,4.65 -5.452,5.972 -8.431,3.491 l -6.86526,-5.70222 c -1.14329,-0.95178 -2.28507,-1.90545 -3.42374,-2.86278 -0.97533,-0.82067 -1.94177,-1.64756 -2.90022,-2.48482 l -1.43178,-1.26418 c -0.635,-0.568 -3.436,-3.697 -4.255,-3.827 -1.98373,-0.31533 -6.69668,4.91268 -8.30964,6.55241 l -0.20436,0.20459 c -3.036,2.977 -5.779,6.18 -8.334,9.577 -0.47,0.624 -1.389,0.106 -1.053,-0.615 2.28938,-4.90406 4.95141,-9.59279 8.11217,-13.98132 l 0.63883,-0.87368 c 2.103,-2.834 4.926,-7.838 8.638,-8.675 4.53257,-1.02127 9.05842,3.52406 12.35619,6.04679 l 0.20881,0.15821 c 1.569,1.177 3.12,2.375 4.668,3.581 -0.162,-8.551 0.918,-17.191 5.333,-24.56 3.113,-5.197 7.777,-9.046 11.768,-13.512 4.443,-4.973 6.763,-11.085 10.785,-16.264 0.518,-0.666 1.232,-1.025 2.005,-1.139 0.15455,-4.16364 0.76777,-8.3686 1.24163,-12.487153 l 0.13737,-1.232848 c 0.479,-4.475 1.611,-9.941 -0.58,-14.132 -2.06963,-3.9585 -6.81831,-6.752682 -10.33478,-9.4385 l -2.87125,-2.22719 M 357.0738,15.240939 c -1.836,1.062 -3.552,2.383 -5.109,4.034 -4.901,5.199 -8.405,11.669 -11.815,17.893 -1.836,3.352 -3.606,6.741 -5.457,10.085 -0.805,1.455 -1.633,2.894 -2.47,4.331 -0.387,0.662 -1.537,1.978 -2.107,2.789 0.63336,0.887417 1.28819,1.761212 1.95616,2.625556 0.25486,0.32978 17.8356,19.481135 23.96384,26.976444 9.384,11.481 17.772,23.608001 24.943,36.588001 7.022,12.711 12.368,26.169 18.873,39.126 3.256,6.487 6.892,12.928 11.527,18.542 0.179,0.219 0.368,0.426 0.551,0.642 1.76894,-4.77884 6.30169,-9.89554 8.52793,-12.83356 l 0.20807,-0.27744 c 5.049,-6.806 10.381,-13.407 15.829,-19.896 4.976,-5.92533 10.07842,-11.72267 15.30445,-17.42431 l 1.96555,-2.13369 c 3.641,-3.933 8.266,-9.818 13.596,-12.628 -0.571,-1.018 -1.232,-2.025 -1.992,-3.019 -4.994,-6.52575 -12.0534,-11.261709 -19.01918,-15.535024 l -4.51736,-2.7479 C 424.80435,82.001231 408.04171,71.143525 393.2588,57.660939 c -7.821,-7.134 -15.534,-14.607 -22.108,-22.928 l -2.32494,-2.942117 M 385.4858,10.103939 c -7.974,0.669 -16.585,0.51 -23.954,3.108 6.551,6.193 12.778,12.88 19.175,19.177 0.569,-4.259 1.733,-8.466 2.719,-12.619"
           id="Ink"
           fill="#3f3939" />
      </g>
    </g>
    <g
       id="Head"
       transform="matrix(0.9978903,0,0,1,372,180)">
      <g
         id="Head/Bun"
         stroke="none"
         stroke-width="1"
         fill="none"
         fill-rule="evenodd">
        <path
           d="M 120.4319,26.519919 C 183.44632,23.079942 239.27554,5.37473 283.6318,44.999783 331.46989,9.2749599 359.37989,-1.784301 367.3618,11.822 c 8.02265,13.67574 -3.10324,32.034411 -0.12,48.909916 19.45204,33.16061 18.35226,89.288634 19.45204,102.442094 2.77201,33.15348 20.23239,157.91014 20.23239,187.53553 0,15.12191 -12.46774,54.72662 -20.23239,76.76677 -17.28236,49.05642 -50.27158,74.0576 -104.37256,74.0576 -54.10099,0 -142.40451,-45.21785 -170.72492,-85.36461 -2.48197,-3.51843 -18.532066,6.74632 -35.319794,-11.05938 C 58.089672,385.82021 48.0006,349.02823 48.0006,327.09644 48.0006,299.2658 30.014168,279.96554 32.106273,244.34146 36.778538,164.78277 53.003524,30.200855 120.4319,26.519919 Z"
           id="path1"
           fill="#827070" />
        <path
           d="m 367.42484,11.629248 c 8.02265,13.67574 -3.10323,32.034412 -0.12,48.909917 7.50641,12.796442 11.95237,29.013038 14.64529,44.860465 l -14.70833,7.80646 -5.44286,0.79821 c -88.24848,13.01085 -144.57193,24.72013 -168.97035,35.12786 -24.64738,10.51394 -54.55937,47.44108 -89.73598,110.78145 l -1.06757,1.92749 -6.970357,47.2719 -31.955262,9.80089 -15.041501,7.12935 C 47.693897,298.67225 30.098841,279.4045 32.169318,244.14871 36.841583,164.59002 53.066569,30.008103 120.49495,26.327167 183.50937,22.88719 239.33858,5.1819782 283.69484,44.807031 c 47.83809,-35.7248229 75.74809,-46.7840838 83.73,-33.177783 z"
           id="bandana"
           fill="#c4aeae" />
        <path
           d="m 113.3918,-65.978 c 0.82,-0.05 1.65,-0.01 2.48,0.071 0.91,0.04 1.82,0.129 2.73,0.31 4.63,0.889 8.76,3.339 11.96,6.789 0.09,0.09 0.16,0.191 0.24,0.28 1.5,1.13 2.89,2.411 4.14,3.77 0.22,-0.21 0.43,-0.419 0.66,-0.629 0.66,-0.581 1.35,-1.131 2.07,-1.65 3.01304,-2.583565 6.5476,-4.461716 10.34987,-5.53031 l 0.52013,-0.14069 c 0.1,-0.03 0.2,-0.05 0.3,-0.07 2.7,-0.899 5.54,-1.359 8.4,-1.35 3.42,-0.11 6.85,0.451 10.05,1.77 3.79,1.571 7.09,4.05 9.86,7.031 1.82,1.48 3.41,3.109 5.09,4.9 3.47,3.709 6.21,8.049 7.94,12.83 0.24,0.67 0.45,1.359 0.64,2.049 4.23,-0.489 8.48,-0.839 12.73,-1.01 4.77,-0.289 9.54,-0.39 14.32,-0.229 13.17,0.429 26.05,2.75 38.52,7 2.5,0.739 4.93,1.679 7.27,2.839 3.67,1.46 7.14,3.32 10.41,5.57 l 2.7856,1.652 c 1.3992,0.8316 2.7984,1.674 4.1544,2.538 3.23,2.071 6.29,4.39 9.19,6.89 3.06,2.471 5.95,5.161 8.7,7.98 0.747,0.763 1.468,1.536 2.179,2.314 6.339,3.421 11.97,7.801 17.222,13.025 4.165,-2.396 8.478,-4.568 12.929,-6.499 4.59,-1.99 10.42,-4.04 15.23,-5.389 4.32,-1.21 8.59,-2.04 12.92,-2.651 1.97,-0.34 3.95,-0.61 5.94,-0.84 l -0.08,0.031 v 0 c 1.4,-0.151 2.79,-0.281 4.2,-0.401 l -0.04,-0.01 v 0 c 0.6,-0.049 1.21,-0.1 1.81,-0.14 l 1.46,-0.119 v 0 c 0.44,-0.04 1.08,0.989 1.12,1.349 l 0.05,0.37 v 0 c 0.33,0.371 0.63,0.781 0.84,1.031 0.26,-0.021 0.52,-0.04 0.78,-0.051 0.78,-0.069 1.68,1.32 2.14,1.85 l 0.41588,0.4886709 c 0.47382,0.5697315 0.9472,1.2259445 1.02412,1.9413291 0.51,4.151 0.99,8.31 1.43,12.47 0.17,3.15 0,6.27 -0.52,9.36 -0.39,3 -0.79,6 -1.19,8.99 -0.64,2.101 -1.27,4.201 -1.9,6.3 -0.25,0.801 -0.53,1.59 -0.8,2.38 -1.599,5.276 -3.474,10.412 -5.707,15.389 1.629,1.802 3.148,3.67 4.561,5.599 0.338,0.347 0.678,0.692 0.996,1.052 0.09,-0.139 0.22,-0.269 0.36,-0.34 0.48,-0.21 0.83,0.04 1.13,0.451 3.15,3.009 5.44,6.52 6.86,10.529 l 0.88444,2.090815 c 0.14667,0.349629 0.29223,0.699518 0.43556,1.049185 1.13,3.041 2,6.161 2.72,9.32 0.644,2.486 1.106,5.006 1.404,7.553 2.16,7.253 3.868,14.673 5.479,21.993 0.254,1.152 0.134,2.18 -0.235,3.056 l 0.942,0.918 v 0 l 1.6094,1.6028 c 2.70393,2.69581 5.46227,5.5297 7.4706,8.7372 2.08,3.33 3.61,6.89 5.31,10.421 l 0.36625,0.75 v 0 l 0.74859,1.50407 c 0.80938,1.64218 1.19766,2.54955 1.91516,4.53493 1.19,3.311 1.83,6.64 2.13,10.151 0.44,5.109 0.38,10.679 -1.86,15.429 -0.01,0.04 -0.03,0.071 -0.05,0.1 -1.02,4.591 -3.54,8.85 -7.37,11.57 -0.82,0.771 -1.7,1.461 -2.64,2.01 -2.256,1.3248 -4.32768,1.44323 -6.79012,0.83038 l -0.30988,-0.0804 c -0.31,-0.08 -0.59,-0.15 -0.86,-0.21 0.4,0.33 0.6,0.721 0,1 -0.58,0.28 -1.1,0.44 -1.59,0.5 0.21,0.27 0.23,0.56 -0.21,0.8 -0.96,0.51 -1.74,0.671 -2.54,0.53 l 0.16823,1.39021 c 1.31191,10.52016 2.48544,12.60065 3.51177,23.90079 0.68,11.569 1.76,23.109 3.25,34.6 l 0.51356,4.17532 c 1.64494,13.23357 3.49453,26.56416 6.32644,39.58368 1.43,5.69 2.66,11.42 3.7,17.19 1.47,4.39 2.5,8.88 3.07,13.46 0.83,4.66 1.4,9.36 1.73,14.1 1.15,3.031 1.71,6.11 1.68,9.25 0.15,4.22 0.01,8.431 -0.44,12.621 -0.25,4.359 -0.85,8.679 -1.8,12.959 -0.85,5.871 -2.4,11.541 -4.62,17.041 -1.78,6.139 -3.96,12.16 -6.44,18.049 -3.85,9.12 -8.5,17.59 -13.79,25.94 -4.96,7.83 -10.28,15.37 -16.36,22.381 -7.86,9.059 -16.82,17.359 -26.64,24.359 -5.6,4.141 -11.51,7.86 -17.69,11.041 -7.56,3.899 -15.24,7.409 -23.43,9.779 -5.11,1.48 -10.31,2.5 -15.57,3.281 -10.33,1.529 -21.03,1.299 -31.42,-0.491 -6.7,-0.9 -13.29,-2.46 -19.52,-4.69 -5.12,-1.839 -10,-3.95 -14.88,-6.33 -2.51,-1.21 -4.93,-2.61 -7.25,-4.18 -3.9,-2.53 -7.55,-5.389 -10.95,-8.55 -1.11,-0.95 -2.19,-1.92 -3.25,-2.94 -0.51,-0.45 -0.23,-1.12 0.36,-1.279 l 0.18,-0.021 v 0 c -0.23,-0.21 -0.47,-0.42 -0.7,-0.64 -0.05,-0.04 -0.09,-0.089 -0.13,-0.14 -0.11,-0.1 -0.23,-0.199 -0.33,-0.299 -0.39,-0.341 0,-1.101 0.34,-1.281 0.13,-0.07 0.3,-0.079 0.49,-0.06 -0.04,-0.04 -0.07,-0.07 -0.11,-0.099 -0.04,-0.031 -0.05,-0.111 -0.04,-0.191 l -0.15,-0.119 v 0 c -0.51,-0.451 -0.25,-1.11 0.35,-1.281 0.29333,-0.0889 0.7763,-0.0435 1.28033,0.0661 l 0.18967,0.0439 -0.34,-0.32 c -0.6,-0.52 -0.41,-1.1 0.33,-1.279 0.552,0.032 1.0976,0.10816 1.6368,0.23974 l 0.4032,0.10926 c 0.2,0.05 0.39,0.11 0.59,0.171 -0.34,-0.311 -0.68,-0.61 -1.01,-0.921 -0.33,-0.289 0.02,-1.12 0.32,-1.289 0.41,-0.23 1.21,0.089 1.58,0.359 0.91,0.101 2.11,0.5 2.55,0.88 1.21,1.16 2.46,2.27 3.73,3.35 0.77,0.24 1.5,0.56 2.06,1.04 1.44,1.38 2.94,2.681 4.47,3.94 l 1.16296,0.80148 c 0.19482,0.13185 0.39037,0.26185 0.58704,0.38852 2.2,1.29 4.4,2.57 6.59,3.86 8.03,2.72 16.06,5.441 24.08,8.151 l 1.06,0.319 v 0 l 7.79,0.96 v 0 c 5.12,0.54 10.25,0.511 15.37,-0.08 3.84,0.051 7.65,-0.33 11.4,-1.11 6.37,-1.08 12.62,-2.669 18.7,-4.89 7,-2.55 13.67,-5.909 20.18,-9.529 2.34,-1.311 4.64,-2.701 6.9,-4.17 0.73,-0.52 1.46,-1.051 2.19,-1.591 4.81,-3.61 9.41,-7.46 13.84,-11.53 2.08,-1.91 4.08,-3.899 6.01,-5.959 0.28,-0.301 0.55,-0.59 0.82,-0.891 1.85,-2.02 3.64,-4.109 5.35,-6.27 l 1.63,-1.839 v 0 c 6.58,-8.19 12.43,-17 17.69,-26.071 5.22,-8.99 9.52,-18.45 12.94,-28.24 1.1,-3.49 2.06,-7.029 2.86,-10.609 1.48,-4.301 2.45,-8.71 2.9,-13.21 0.15,-0.881 0.27,-1.761 0.39,-2.641 l 0.0689,-1.38718 c 0.01,-0.2316 0.0178,-0.46282 0.0211,-0.69282 0.2,-1.399 0.37,-2.8 0.5,-4.2 0.08,-1.409 0.13,-2.82 0.14,-4.23 l -0.11,-8.65 v 0 c -0.03,-0.27 -0.06,-0.549 -0.08,-0.83 l -0.22,-1.909 c -0.48,-3.941 -0.85,-7.891 -1.33,-11.83 0,-0.021 0,-0.051 -0.01,-0.081 -0.18,-1.47 -0.37,-2.95 -0.59,-4.43 -0.11,-0.88 -0.25,-1.76 -0.38,-2.64 l -0.25,-1.539 v 0 c -0.46375,-2.6775 -1.02703,-5.3328 -1.70994,-7.96455 l -0.30006,-1.12645 -1.74,-8.75 -1.96,-8.61 c -1.27,-5.77 -2.33,-11.58 -3.17,-17.44 -1.52,-9.339 -2.82,-18.69 -3.95,-28.08 -0.06,-0.45 -0.12,-0.91 -0.17,-1.36 -1.15,-8.709 -1.98,-17.45 -2.52,-26.22 -0.73,-8.639 -1.15,-17.3 -1.26,-25.969 -0.01,-0.391 0.25,-0.71 0.56,-0.891 l -0.0277,-1.66681 c -0.0369,-1.47459 -0.0634,0.29436 -0.0762,-1.38674 l -0.019,-4.6238 c 10e-4,-0.38535 0.005,-0.65356 0.0129,-0.67265 -5.34316,0.36947 -8.93618,0.0667 -14.09511,-0.2051 l -0.87489,-0.0449 c -4.73,-0.219 -9.43,-0.739 -14.1,-1.52 -0.02,0.241 -0.18,0.41 -0.45,0.46 -0.48,0.02 -0.93,0.02 -1.39,0.031 l 0.17,0.649 v 0 c 0.01,0.331 -0.14,0.54 -0.46,0.63 l -1.334,0.0599 c -1.7808,0.0749 -3.568,0.11008 -5.336,-0.12992 -1.59,-0.209 -3.14,-0.58 -4.68,-1.02 -0.95,-0.16 -1.92,-0.379 -2.91,-0.66 -2.54,-0.73 -5.06,-1.71 -7.61,-2.489 -2.6,-0.551 -5.24,-0.73 -8,-0.071 -2.92,0.69 -5.39,1.94 -8.45,1.18 -0.61,-0.149 -1.2,-0.379 -1.79,-0.62 l -0.54593,-0.0381 c -0.093,-0.008 -0.1874,-0.0183 -0.28407,-0.0319 -3.19,-0.459 -6.03,-2.479 -9.07,-3.56 -1.06154,-0.25846 -2.11456,-0.19314 -3.14332,0.23609 l -0.25668,0.11491 -1.01,0.75 c -0.40667,0.47933 -0.80889,0.96356 -1.20667,1.44941 l -0.59333,0.72959 c -1.09,1.35 -2.25,2.56 -3.66,3.44 -1.7,1.57 -3.72,2.49 -6.13,2.55 -1.37,0.04 -2.73,-0.25 -4.05,-0.669 -4.98,1.54 -10.31,1.85 -15.28,0.35 -1.97,-0.301 -3.9,-0.83 -5.75,-1.661 -0.87,-0.39 -1.74,-0.85 -2.58,-1.36 -3.51,1.481 -6.83,3.45 -10.22,5.151 l -0.76355,0.38338 c -3.46382,1.72549 -7.2968,3.408 -11.21645,3.15662 -4.94,-0.321 -9.79,-0.98 -14.63,-1.811 -0.04,0 -0.09,-0.01 -0.13,-0.02 l -0.66625,-0.11088 v 0 l -2.42116,-0.42482 v 0 l -1.95259,-0.3633 v 0 l -0.99781,0.38228 c -8.01533,3.03265 -16.79779,5.39832 -24.85219,3.27672 -3.51,-0.429 -6.8,-1.61 -9.77,-3.62 -0.1,-0.07 -0.2,-0.14 -0.3,-0.22 -0.47,-0.24 -0.91,-0.509 -1.3,-0.799 l -0.0837,-0.0655 v 0 l -0.0763,-0.0655 -0.04,-0.02 c -4.39,-2.019 -6.91,-6.32 -6.47,-11.139 -0.27,-1.531 -0.26,-3.031 0.04,-4.63 -1.43,1.689 -2.89,3.36 -4.37,5.019 -5.41357,6.51857 -10.71505,13.16734 -15.62421,20.08883 l -1.12579,1.60217 c -2.7,3.809 -5.21,7.75 -7.53,11.809 -2.35,4.01 -4.76,7.981 -7.25,11.901 -3.2375,3.57787 -6.36781,7.2415 -9.38424,10.99489 l -1.28576,1.61411 -4.34,5.71 c -3.07,3.641 -5.62,7.621 -7.63,11.94 -1.65,3.071 -3.17,6.201 -4.54,9.411 -0.44,0.969 -0.86,1.949 -1.27,2.929 -1.41,3.83 -2.6,7.731 -3.53,11.76 -0.747,2.916 -1.2834,5.8725 -1.60191,8.87023 l -0.0981,1.00077 c -0.12,1.179 -0.21,2.359 -0.26,3.539 0.29,0.171 0.53,0.34 0.71,0.51 l 0.73,0.261 v 0 l 0.59025,0.17488 c 0.92014,0.28569 2.50906,0.87584 2.12975,1.60412 l -1.93,3.681 v 0 c 0.2,0.21 0.29,0.429 0.16,0.67 -1.29,2.469 -2.59,4.939 -3.89,7.41 -0.04,0.09 -0.11,0.159 -0.18,0.21 1.11,0.509 2.19,1.069 3.22,1.679 2.01,1.201 3.49,2.59 4.86,4.21 1.44,0.861 2.8,1.801 4.08,2.88 1.58,1.66 2.96,3.481 4.13,5.45 1.08,1.86 1.96,3.8 2.64,5.83 0.3,1.07 0.44,2.18 0.43,3.31 -1.21,8.541 -10.98,2.69 -11.17,1.94 -1.34,-5.16 -2.88,-8.419 -6.34,-12.259 l -0.09,-0.061 v 0 c -2,-0.88 -3.98,-1.75 -6.05,-2.43 -0.31,0.06 -0.63,0.101 -0.95,0.15 0.36,0.511 0.18,1.011 -0.55,1.1 -3.15,0.621 -6.33,0.79 -9.53,0.52 l -4.86,-0.689 v 0 c -2.016,0.7731 -3.9429,1.76571 -5.75883,2.94794 l -0.60117,0.40106 -0.11,0.08 c -4.69,3.77 -8.31,8.78 -10.79,14.24 -0.22,0.48667 -0.431111,0.97778 -0.633333,1.47333 l -0.296667,0.74667 -0.02,0.04 c -3.24,12.731 -0.35,26.71 5.57,38.26 3.23,5.17 6.6,10.24 10.12,15.21 l 3.42,4.471 v 0 c 2.02,1.9 4,3.849 5.93,5.849 0.3,0.301 0.62,0.6 0.94,0.89 1.02,0.67 2.06,1.261 3.12,1.761 0.41,0.139 0.83,0.269 1.25,0.38 2.04,0.979 4.18,1.5 6.43,1.56 2.97187,0.19687 5.85586,-0.15205 8.64371,-1.03689 l 0.55629,-0.18411 0.41,-0.15 c 1.52,-0.97 2.93,-2.18 4.27,-3.6 0.3,-0.31 0.86,-0.31 1.5,-0.14 0.35,-0.36 0.7,-0.74 1.03,-1.15 0.23,-0.25 0.59,-0.259 0.87,-0.07 0.95,-0.109 3.52,1.351 2.85,2.12 -0.11,0.18 -0.25,0.34 -0.37,0.51 0.45,0.23 0.9,0.49 1.3,0.761 2.1,0.58236 5.20193,2.67801 4.94992,3.30861 l -0.0299,0.0504 c -0.486,0.9189 -1.1178,1.69038 -1.8954,2.30205 l -0.2646,0.19795 -0.59,0.41 c 0.83,0.521 1.53,1.12 1.18,1.54 -0.16,0.31 -0.33,0.611 -0.53,0.881 1.7,2.1 3.39,4.219 5.07,6.339 1.68,3.641 3.76,7.04 6.24,10.19 2.07,3.42 4.56,6.491 7.47,9.23 0.24,0.241 0.49,0.471 0.73,0.701 2.14375,1.58375 4.38703,3.0672 6.72314,4.49256 l 1.00686,0.60744 c 0.53,0.319 1.42,0.719 1,1.489 -0.05,0.1 -0.11,0.181 -0.18,0.24 1.47,0.961 2.99,1.87 4.56,2.711 l 0.14882,0.0916 c 0.5935,0.37892 1.39758,1.06623 0.55118,1.62743 -0.72,0.48 -2.63,-0.82 -3.53,-1.42 -0.17,0 -0.37,-0.049 -0.57,-0.109 0.3,0.15933 0.59556,0.33244 0.89556,0.50156 l 0.45444,0.24844 c 0.35,0.209 2.07,1.349 0.87,1.83 -0.59,0.049 -1.13,-0.101 -1.63,-0.441 -0.59,-0.29 -1.17,-0.599 -1.74,-0.92 0.2,0.31 0.2,0.62 -0.3,0.821 -0.17,0.009 -0.34,0 -0.51,-0.02 1.18,0.75 2.39,1.449 3.64,2.109 l 0.20203,0.12662 c 0.52828,0.34229 1.37047,0.9935 0.75797,1.55438 -0.69,0.619 -2.59,-0.701 -3.08,-1 l -1.46,-0.871 v 0 c -0.11,0.05 -0.23,0.07 -0.36,0.081 0.44,0.27 0.85,0.56 1.3,0.819 l 0.6122,0.33343 c 0.76699,0.42398 1.85039,1.12027 1.4578,1.81657 -0.39259,0.68889 -1.55885,0.12181 -2.31195,-0.32462 l -0.81027,-0.50197 c -0.0356,-0.0218 -0.0711,-0.0431 -0.10778,-0.0634 l -0.0311,0.12022 c -0.007,0.0199 -0.0156,0.0398 -0.0289,0.0598 -0.375,0.6525 -1.31813,0.225 -1.96875,-0.15145 L 145.6218,457.903 c -0.88667,-0.534 -1.76444,-1.06311 -2.6363,-1.59622 l -1.3037,-0.80378 h -0.02 c -4.51,-2.711 -8.68,-5.41 -12.61,-8.89 -2.35,-2.081 -4.54,-4.281 -6.62,-6.631 -4.18,-4.71 -7.29,-10.099 -10.29,-15.599 -0.05,-0.091 0.02,-0.321 0.14,-0.571 -0.33,-0.679 -0.65,-1.37 -0.97,-2.08 -3.08,0.861 -6.52,1.111 -9.69,0.901 -1.7,-0.111 -3.38,-0.411 -5.05,-0.861 -5.33,-0.74 -10.47,-3.17 -14.91,-6.08 -0.28,-0.18 -0.53,-0.38 -0.79,-0.559 -1.83,-1.031 -3.57,-2.23 -5.22,-3.601 -3.22,-2.66 -6.29,-5.62 -9.08,-8.71 -2.02,-2.399 -3.93,-4.89 -5.72,-7.47 -1.82,-2.55 -3.66,-5.099 -5.5,-7.65 -5.11,-8 -8.38,-17.21 -9.65,-26.62 -0.62,-3.469 -0.94,-6.98 -0.87,-10.48 0.05,-2.53 0.33,-5.09 0.82,-7.639 -0.29,-0.281 -0.58,-0.56 -0.87,-0.85 -0.16,0.279 -0.32,0.48 -0.42,0.379 l -2.291953,-2.29481 C 40.444045,338.55812 39.353229,337.352 37.4818,334.702 c -2.98,-4.23 -5.2,-8.88 -6.85,-13.779 -1.19,-3.5 -1.98,-7.481 -2.29,-11.33 -0.1,-0.641 -0.2,-1.291 -0.28,-1.951 -0.64,-5.21 -0.05,-10.2 0.74,-15.34 0.05,-0.339 0.22,-0.549 0.45,-0.66 0.058,-0.407 0.127,-0.825 0.195,-1.242 -6.624,-7.012 -11.391,-15.463 -11.002,-25.669 0.122,-3.216 0.782,-6.386 2.042,-9.346 l 0.153,-0.334 v 0 c -5.529,-0.85 -9.915,-4.734 -13.21,-9.548 -0.292,-0.231 -0.575,-0.464 -0.847,-0.696 -5.892,-5.032 -9.977,-12.157 -12.774,-19.683 -2.003,-4.37 -3.33,-9.04 -3.893,-13.884 -0.04,-0.346 -0.064,-0.689 -0.095,-1.033 -1.368,-7.659 -1.716,-15.395 -1.084,-23.016 -1.373,-4.717 -2.49,-9.517 -3.255,-14.429 -0.36,-2.339 -0.61,-4.68 -0.8,-7.02 l -0.02,-0.129 -0.03,-0.421 -0.08444,-1.04963 c -0.01333,-0.1737 -0.02556,-0.34704 -0.03556,-0.52037 -1.69,-21.42 3.1,-42.5 11.02,-62.34 0.69,-1.78425 1.4025,-3.564 2.1375,-5.329547 L -1.5512,94.108 v 0 c 7.95,-12.82 19.888,-23.189 29.999,-34.14 3.489,-3.778 -2.154,-9.45 -5.656,-5.657 -6.718,7.276 -13.925,14.245 -20.432,21.724 -1.149,0.084 -2.3,0.115 -3.448,0.058 -2,-0.101 -3.94,-0.42 -5.82,-0.931 -4.69,-0.69 -8.96,-2.58 -12.84,-5.36 -5.19,-2.419 -9.62,-6.98 -10.06,-12.93 -0.05,-0.6 -0.04,-1.19 0,-1.779 -0.48,-2.911 -0.05,-5.96 1.17,-8.771 0.21,-0.77 0.48,-1.53 0.82,-2.28 0.99,-2.23 2.62,-4.369 4.61,-5.82 0.05,-0.03 0.09,-0.049 0.13,-0.08 0.21,-0.219 0.41,-0.44 0.64,-0.639 0.34,-0.311 0.7,-0.6 1.08,-0.87 -1.35,-2.221 -2.57,-4.5 -3.61,-6.931 -1.13,-2.64 -1.71,-5.319 -2.03,-8.15 -0.13,-1.12 -0.18,-2.23 -0.2,-3.339 -0.06,-0.511 -0.1,-1.031 -0.14,-1.551 -0.25,-3.96 0.21,-8.069 1.69,-11.77 0.11,-0.279 0.25,-0.56 0.38,-0.85 0.28,-0.84 0.59,-1.679 0.97,-2.5 1.48,-3.15 3.58,-5.82 6.17,-8.01 1.4,-1.41 2.97,-2.66 4.68,-3.72 1.01,-0.63 2.16,-1.19 3.37,-1.65 2.16,-1.14 4.93,-2.18 7.18,-2.259 0.27,-0.011 0.51,0.02 0.77,0.02 0.21,-5.741 0.95,-11.991 3.22,-17.191 1.32,-3.769 3.3,-7.119 6.28,-9.53 1.7283333,-1.803889 3.858056,-3.268827 6.51553,-4.226331 l 0.47447,-0.163669 0.18,-0.05 c 2.39,-1.16 4.97,-1.62 7.62,-1.609 3.09,-0.161 6.24,0.42 8.93,1.839 0.56,0.3 1.16,0.67 1.73,1.07 0.43,-0.86 0.91,-1.73 1.46,-2.599 1.93,-3.091 4.26,-5.781 6.96,-8.231 0.32,-0.29 0.67,-0.55 1.01,-0.829 1.31,-1.19 2.7,-2.29 4.14,-3.29 3.11,-2.161 6.52,-3.77 10.1,-4.811 4.133182,-1.527273 8.494153,-2.236349 12.856781,-2.087156 L 70.2518,-65.747 v 0 c 0.2,0.019 0.4,0.029 0.59,0.039 4.33,0.281 8.6,1.341 12.68,2.94 4.23,1.671 7.81,4.2 11.14,7.1 0.78,-1.079 1.67,-2.1 2.76,-3.06 0.31,-0.269 0.64,-0.51 0.95,-0.76 0.24,-0.24 0.49,-0.47 0.75,-0.7 1.19,-1.05 2.45,-1.96 3.83,-2.77 1.55,-0.909 3.22,-1.539 4.95,-1.929 1.76,-0.601 3.61,-0.971 5.49,-1.091 z M 92.8419,346.27216 c 0.177049,-0.01 9.43875,3.4633 14.05321,5.70881 l 0.22679,0.11123 c 5.32,2.64 7.88,4.54 12.66,7.93 0.32,0.23 0.65,0.58 0.65,0.92 0,4.93742 -1.19975,10.97461 -5.35,8.3 -0.6,-0.38667 -1.20444,-0.76444 -1.81333,-1.1363 l -0.91667,-0.5537 -0.03,0.01 c 0.01,0 0.02,-0.01 0.03,-0.02 -9.04,-5.51 -18.59,-9.83 -28.67,-12.92 -0.69,-0.25 4.4199,-7.9702 5.8299,-7.5402 -0.81,-0.32 3.195386,-0.80232 3.3301,-0.80984 z M 187.8248,128.187 c -6.011,0.643 -12.022,1.276 -18.033,1.895 -3.83,0.44 -7.67,0.83 -11.51,1.16 -5.77,0.431 -11.54,0.5 -17.29,-0.29 -2.04,-0.279 -4.04,-0.68 -6.02,-1.17 -1.35,0.99 -2.75,1.92 -4.18,2.811 l -15.88,12.149 v 0 c -10.65,8.371 -21.07,17.24 -30.45,27.03 -16.382,17.104 -29.725,37.114 -38.114,59.279 -0.761,0.449 -1.349,1.232 -1.545,2.433 -1.482,9.085 -5.816,17.371 -7.382,26.419 -1.542,8.912 0.509,16.488 6.107,23.552 1.195,1.509 3.643,1.429 5.145,0.41 0.349,0.686 1.861,0.657 2.392,-2.373 2.489,-2.695 4.618,-5.52 6.06,-9.018 1.062,-2.576 -0.723,-4.362 -2.889,-4.713 0.9,-3.24 1.915,-6.451 3.056,-9.628 3.38,-9.441 7.68,-18.46 13.09,-26.92 4.76,-7.441 10.27,-13.921 16.19,-20.421 0.07,-0.09 0.19,-0.119 0.32,-0.139 l 1.23,-1.361 v 0 c 0.17,-0.19 0.52,-0.17 0.91,-0.07 0.37,-0.39 0.73,-0.79 1.11,-1.18 0.37,-0.4 0.78,-0.28 1.01,0.04 0.63,-0.14 1.78,0.54 2.13,0.761 0.6,0.399 0.79,0.849 0.28,1.419 -0.09,0.101 -0.18,0.201 -0.27,0.29 0.69,0.291 1.37,0.68 1.9,1.061 1.85,0.409 4.45,2.129 4,2.64 -0.95,0.989 -1.87,2 -2.78,3.029 0.8,0.561 1.32,1.11 1.11,1.351 -3.9,4.109 -7.5,8.46 -10.8,13.069 -2.51,3.44 -4.78,7.02 -6.81,10.75 -3.02,5.28 -5.58,10.71 -7.85,16.29 -0.32,0.851 -0.63,1.7 -0.93,2.55 -3.32,9.29 -5.8,18.93 -6.85,28.75 l -0.04388,0.66241 c -0.195586,3.53746 -0.272119,13.00892 -0.636119,15.26759 2.21,1.09 4.51,2.02 6.9,2.781 0.45,0.13 0.91,0.25 1.37,0.36 0.26,-0.11 0.53,-0.201 0.8,-0.281 2.2,-0.89 4.5,-1.53 6.85,-1.84 1.58375,-0.20913 3.159844,-0.28197 4.734981,-0.23662 l 0.675019,0.0266 c 0.7,0.02 1.39,0.07 2.09,0.141 -0.04,-0.401 -0.06,-0.79 -0.09,-1.191 -0.2,-0.13 -0.35,-0.309 -0.36,-0.55 -0.47,-4.5 -0.48,-9 -0.03,-13.5 0.3,-2.35 0.65,-4.69 1.03,-7.029 0.39,-1.921 0.84,-3.81 1.33,-5.701 1.3,-5.299 3.03,-10.47 5.13,-15.529 5.979999,-14.431 14.549999,-27.441 23.169999,-40.381 6.29,-9.449 12.24,-19.11 18.75,-28.4 5.54,-7.91 11.36,-15.7 17.57,-23.1 6.2,-7.389 12.75,-14.5 19.82,-21.079 1.14,-1.051 2.29,-2.071 3.46,-3.08 6.7,-6 13.98,-10.931 21.56,-15.77 0.29,-0.19 0.81,0.02 1.24,0.379 l 1.22296,-0.75185 c 0.20482,-0.12482 0.41037,-0.24815 0.61704,-0.36815 0.19,-0.119 0.4,0.08 0.51,0.25 0.52,-0.27 1.04,-0.529 1.56,-0.79 0.379,-0.306 0.77,-0.596 1.152,-0.898 -5.621,-0.283 -11.234,-0.703 -16.839,-1.247 z m 70.497,-66.665 c -4.54,-0.909 -9.1,-1.04 -13.68,-0.36 -1.919,0.281 -3.829,0.619 -5.723,1.028 4.301,3.75 7.76,8.549 10.005,14.072 2.426,5.97 -7.251,8.543 -9.643,2.659 -2.307,-5.676 -6.674,-10.03 -11.949,-12.64 -1.14,0.637 -2.245,1.327 -3.3,2.091 -1.38,1.12 -2.68,2.33 -3.9,3.66 -2.66,2.891 -5.1,6.75 -6.7,10.57 -0.62,2.08 -1.08,4.22 -1.37,6.42 -0.06,0.5 -0.12,1.01 -0.17,1.52 -0.986,10.349 1.973,20.418 7.064,29.328 l 0.2,0.003 v 0 c 4.544,-2.464 9.301,-4.54 14.196,-6.231 3.92,-2.639 7.99,-5.08 12.18,-7.29 8.90741,-4.69926 18.31556,-8.321926 28.01014,-10.799243 L 274.6618,95.272 c 2.28333,-0.583333 4.5875,-1.097222 6.90093,-1.546875 L 282.9518,93.463 h 0.02 l -0.15,-1.491 v 0 c -0.78,-5.85 -3.07,-11.28 -6.03,-16.299 -2.22,-3.79 -5.57,-7.67 -9.29,-10.77 l -0.02,-0.011 c -1.68889,-0.96 -3.46469,-1.754074 -5.29229,-2.410316 L 261.5018,62.242 Z m -121.9,-8.889 c -9.44,-0.891 -18.88,-0.801 -28.32,-0.031 -6.17,0.611 -12.3,1.46 -18.4,2.54 -4.13,0.71 -8.18,1.71 -12.16,2.951 l 2.276481,4.603653 c 3.80463,7.667014 7.701852,15.28368 12.293519,22.525347 2.37,3.73 4.94,7.281 7.74,10.69 1.89,2.44 3.97,4.701 6.25,6.78 0.6,0.731 1.24,1.421 1.89,2.09 2.08,1.78 4.32,3.34 6.77,4.63 1.96444,1.43111 4.0158,2.68128 6.15407,3.77721 l 0.80593,0.40379 7.5,2.879 c 0.4,0.11333 0.80444,0.22667 1.21037,0.33437 l 0.60963,0.15663 1.14,0.239 0.85556,-0.46444 c 0.14333,-0.0767 0.28777,-0.15223 0.43444,-0.22556 0.24,-0.129 0.41,0.121 0.46,0.3 0.02,0.071 -0.01,0.17 -0.06,0.27 l 1.093,-0.591 v 0 c 1.879,0.763 3.873,1.373 6.012,1.775 0.968,0.181 1.938,0.32 2.909,0.439 l 0.13007,0.0869 c 0.0217,0.0152 0.0436,0.0318 0.0659,0.0511 h 1.062 v 0 c 7.476,0.721 15.058,-0.232 22.522,-1.573 10.562,-1.062 21.122,-2.233 31.676,-3.328 0.2,-0.019 0.28,0.07 0.28,0.211 l 0.65,-0.06 v 0 c 0.94,-0.101 2.04,1.469 1.33,2.04 0.57,0.339 1.12,0.83 1.53,1.21 l 0.24,-0.021 c -1.45,-2.84 -2.57,-5.81 -3.37,-8.899 l -1.02,-5.181 v 0 c -0.28,-1.93 -0.44,-3.989 -0.47,-6.02 -0.07,-0.93 -0.12,-1.799 -0.12,-2.56 0,-0.72 0.01,-1.44 0.04,-2.159 -1.99,-0.821 -4.01,-1.54 -6.07,-2.151 -5.85,-0.719 -11.69,-1.44 -17.54,-2.15 -3.51,0.13 -7.02,0.38 -10.52,0.77 -3.97,0.35 -7.93,0.8 -11.88,1.34 -0.37,0.04 -1.03,-0.46 -1.43,-1.04 l -1.69,0.231 v 0 c -0.88,0.11 -1.8,-1.651 -0.64,-2.011 0.42,-0.166667 0.84,-0.324444 1.26,-0.476296 l 0.63,-0.223704 -0.36,0.04 c -0.12,0.011 -0.27,-0.02 -0.44,-0.079 -0.93,0.119 -1.86,0.239 -2.78,0.349 -1.16679,0.145607 -0.90161,-1.392739 -0.0832,-1.754761 L 147.2818,85.202 c -0.6912,-0.43104 -1.29946,-1.610419 -0.44458,-1.996043 L 146.9518,83.162 c 0.4,-0.159 0.79,-0.29 1.19,-0.44 -0.03,-0.129 -0.03,-0.25 0.01,-0.359 l -1.65,0.209 v 0 c -0.15059,0.01976 0.56692,-1.03319 0.9103,-1.24134 l 0.0597,-0.02866 0.79,-0.24 c 0.12,-0.34 0.76,-1.09 0.98,-1.159 2.9,-0.911 5.6,-1.73 8.42,-2.361 0.14,-0.17 0.3,-0.3 0.48,-0.34 1.76,-0.42 3.54,-0.75 5.32,-1.029 0.12,-0.181 0.24,-0.31 0.38,-0.321 4.41,-0.56 8.83,-0.69 13.27,-0.389 0.85,0.079 1.7,0.17 2.55,0.279 1.63,0.181 3.26,0.411 4.88,0.721 4.05786,0.696429 8.02087,1.755 11.88102,3.18292 l 0.88898,0.33608 c 0.97,0.361 1.93,0.74 2.88,1.151 0.48,-1.71 1.08,-3.391 1.79,-5.04 0.11,-0.321 0.23,-0.63 0.36,-0.94 l -0.97,-0.581 v 0 c -0.21,0.4 -0.64,0.71 -0.92,0.541 -6.95,-4.69 -14.3,-8.601 -22.05,-11.721 -4.34,-1.92 -8.78,-3.549 -13.33,-4.91 -2.27,-0.729 -4.56,-1.389 -6.86,-2.019 -1.15,-0.241 -2.3,-0.481 -3.47,-0.681 -6.01,-1.62 -12.12,-2.669 -18.32,-3.149 z m 229.013,15.873 c -0.844,1.458 -1.722,2.902 -2.653,4.326 -4.521,6.919 -9.941,13.412 -16.087,19.073 1.603,-0.004 3.202,0.057 4.781,0.205 2.723,0.257 5.39,0.709 7.99,1.342 0.211,-0.169 0.447,-0.254 0.636,-0.12 l 0.678,0.469 v 0 c 5.577,1.505 10.813,3.871 15.556,7.041 l -0.085,-0.626 c -0.0145,-0.10433 -0.0303,-0.20867 -0.049,-0.313 0.08,-1.23 0.1,-2.461 0.06,-3.681 -0.98,-7.21 -3.43,-13.85 -6.23,-20.569 -0.053,-0.13 -0.015,-0.299 0.066,-0.471 -1.413,-2.308 -2.96,-4.54 -4.663,-6.676 z m 1.287,-56.684 c -2.09,0.38 -4.16,0.87 -6.22,1.48 -3.87,0.581 -7.62,1.601 -11.24,3.05 -4.99,1.77 -9.83,3.83 -14.65,6.011 -9.36,4.239 -18.14,9.6 -26.13,16.06 -0.51,0.389 -1,0.79 -1.49,1.19 -1.79,1.549 -3.53,3.169 -5.18,4.879 -1.73,1.88 -3.47,3.761 -5.2,5.65 -2.12,2.221 -4.56,4.23 -6.48,6.63 -0.39,0.49 -0.73,1.03 -1.04,1.571 l 1.13,0.389 v 0 c 0.95,0.32 0.79,2.1 -0.15,1.84 -0.32,-0.09 -0.62,-0.2 -0.92,-0.319 0.13,0.17 0.22,0.34 0.24,0.489 0.06,0.48 -0.31,1.141 -0.9,0.971 -0.27,-0.071 -0.54,-0.171 -0.81,-0.281 -0.08,0.31 -0.14,0.62 -0.14,0.92 0.05,0.02 0.1,0.04 0.16,0.051 0.66,0.23 1.9,1.259 2.08,1.96 0.14,0.54 -0.32,1.119 -0.91,0.959 -0.44,-0.12 -0.87,-0.3 -1.29,-0.5 0.28,0.271 0.5,0.561 0.52,0.811 0.04,0.46 -0.36,1.109 -0.91,0.96 -1.02,-0.281 -1.84,-0.71 -2.52,-1.25 -0.18,0.239 -0.44,0.429 -0.65,0.37 l -0.39,-0.12 v 0 c 0.10667,0.09933 0.20444,0.204 0.29926,0.306889 L 284.0718,66.052 c 2.76,2.98 5.17,6.28 7.1,9.831 0.09,-0.101 0.2,-0.191 0.34,-0.301 0.9,-0.76 1.83,-1.5 2.76,-2.219 l 0.28125,-0.245875 v 0 l 0.28875,-0.245125 -2.09,0.69 0.0462,-0.05415 c 0.14768,-0.189036 0.60756,-0.819564 0.82183,-1.029634 l 0.0519,-0.04622 c 2.87,-2.569 6,-4.75 9.38,-6.529 2.19,-1.421 4.49,-2.621 6.9,-3.611 5.75,-2.67 11.61,-4.699 17.63,-6.579 0.9,-0.29 1.8,-0.6 2.7,-0.881 0.26,-0.09 0.31,0.02 0.27,0.2 l 0.47,-0.14 v 0 c 0.84,-0.27 2.27,1.21 1.7,1.9 0.344,0.28 0.6816,0.592 0.97696,0.8848 l 0.21304,0.2152 0.24,-0.07 c 0.7144,-0.2204 1.91976,0.893456 2.68545,1.682239 L 337.4018,60.102 c 0.43,0.46 1.27,1.41 0.24,1.781 l -1.29,0.439 v 0 c 0.04,0.26 -0.07,0.48 -0.47,0.63 -0.45,0.15 -0.89,0.31 -1.33,0.471 0.26667,0.232667 0.52889,0.474667 0.78667,0.719778 L 335.7218,64.512 c 0.45259,0.462222 1.52647,1.480823 0.5785,1.930681 l -0.1185,0.04932 -1.23,0.44 c 0.16,0.36 0.12,0.701 -0.42,0.9 -7.18,2.44 -14.19,5.301 -21.04,8.551 -5.13,2.839 -10.55,4.96 -16.26,6.349 -0.47,0.151 -1.49,-0.559 -1.91,-1.269 l -0.85259,0.250889 c -0.14185,0.04144 -0.28408,0.08144 -0.42741,0.118111 l -0.14,0.031 v 0 c 1.07,2.85 1.86,5.939 2.3,8.929 0.05,0.27 0.09,0.551 0.12,0.821 1.12,-0.091 2.23,-0.171 3.35,-0.23 7.75,-0.411 15.59,-0.161 23.36,0.759 3.14,-1.87 6.16,-3.92 9.05,-6.139 0.88,-0.681 1.75,-1.381 2.61,-2.091 5.16,-4.48 9.83,-9.509 13.97,-14.94 3.83,-5.03 7.16,-10.43 9.96,-16.089 2.48,-5.311 4.53,-10.831 6.08,-16.531 1.42,-5.21 1.91,-10.28 2.27,-15.67 0.12,-0.88 0.2,-1.759 0.27,-2.64 l -0.008,-0.377037 v 0 L 367.2218,17.482 c -0.1,-1.889 -0.29,-3.78 -0.5,-5.66 z m -73.27,66.97 c -0.23,0.08 -0.47,0.16 -0.71,0.23 0.14,0.31 0.27,0.611 0.4,0.92 l 0.015,-0.0061 v 0 l 0.945,-0.743875 v 0 c -0.2,-0.09 -0.43,-0.229 -0.65,-0.4 z m 71.87,-81.1497 c 1.8,-0.67 3.16,-0.8 4.08,-0.38 -1.36,0.1 -2.72,0.23 -4.08,0.38 z"
           id="path2"
           fill="#3f3939" />
      </g>
    </g>
    <g
       id="Face"
       transform="translate(531,366)"
       fill="#3f3939">
      <g
         id="Face/Eating Happy"
         stroke="none"
         stroke-width="1"
         fill="none"
         fill-rule="evenodd">
        <path
           d="m 126.14989,196.29221 c 5.59411,-9.202 17.51793,13.33985 18.78482,17.21589 1.12206,3.43358 1.86275,6.95089 2.23924,10.50891 4.33692,0.97205 8.8405,0.97384 13.2843,0.12201 6.60463,-1.26715 10.64207,-4.8178 16.38225,-7.86659 3.96478,-2.10671 8.96159,0.36375 11.02339,3.8577 2.42524,4.11255 0.88015,8.38106 -2.30959,11.44697 -6.04898,5.81372 -17.95069,7.14932 -25.84666,5.60539 -4.52396,-0.88422 -8.6702,-2.58077 -12.33169,-5.04635 -0.0243,0.4601 -0.0405,0.92032 -0.0768,1.37974 l -0.0699,0.79695 c -0.60667,6.44797 -2.37892,14.55581 -7.38727,18.75146 -8.21429,6.88238 -18.35184,-6.35362 -10.37022,-13.22822 l 0.24744,-0.20634 c 4.96116,-4.00856 6.04351,-14.76359 5.77635,-20.68742 -0.17518,-3.86638 -0.87946,-7.78228 -2.10023,-11.46466 l -0.25103,-0.73328 c -0.36747,-1.04022 -4.37411,-10.90761 -5.82193,-9.65097 l -0.0691,0.0709 c -0.59702,0.71285 -1.56184,-0.11751 -1.10337,-0.87205 z m 44.66441,-51.92506 c 7.55138,4.59005 19.05736,15.29314 10.93382,26.67242 -9.56219,10.03349 -23.32959,-1.47059 -30.11392,-6.67344 -6.29075,-4.03223 -13.35876,6.33838 -7.5222,11.04669 49.02374,36.29524 68.91861,-29.84543 30.52169,-36.44243 -4.22764,-0.72697 -5.7978,3.97678 -3.81939,5.39676 z M 90.1787,101.9403 c 7.38,-1.309 14.94,0.526 21.047,4.844 l 0.46284,0.33288 c 5.88352,4.30287 12.46631,11.8583 9.09016,19.27512 -1.355,2.978 -5.413,3.445 -7.988,2.095 -4.287,-2.248 -5.064,-7.779 -8.889,-10.84 -3.137,-2.509 -7.361,-4.031 -11.401,-3.664 -9.491,0.862 -15.329,10.223 -18.277,18.29 -0.377,1.032 -1.892,1.433 -2.484,0.325 -6.951,-12.992 5.353,-28.336 18.439,-30.658 z m 118.2106,-4.903 c 14.137,-1.165 30.684,13.491 26.962,28.413 -1.785,7.16 -12.406,6.955 -14.294,0 -1.039,-3.827 -0.935,-7.213 -3.69,-10.391 -2.274,-2.624 -5.505,-4.148 -8.978,-3.914 -3.828,0.258 -7.359,2.171 -10.042,4.86 -2.423,2.428 -3.872,5.981 -6.382,8.13 -0.618,0.528 -1.445,0.562 -2.055,0 -4.32,-3.983 -1.727,-12.275 1.012,-16.433 3.92,-5.95 10.303,-10.074 17.467,-10.665 z M 63.2578,75.4751 c 9.069,-8.028 25.548,-15.781 37.777,-11.83 7.031,2.271 10.096,13.6 2.247,17.191 -9.089,4.158 -19.568,2.466 -28.819,6.776 -3.885,1.811 -7.539,4.074 -10.244,7.393 -2.131,2.616 -4.299,6.058 -7.381,7.566 -0.81,0.397 -1.907,0.407 -2.556,-0.329 -6.756,-7.642 3.077,-21.546 8.976,-26.767 z M 192.8016,63.2466 c 5.605,-1.573 11.823,-1.541 17.517,-0.553 5.692,0.988 11.471,3.347 16.118,6.788 l 0.53946,0.402911 c 5.07309,3.822839 11.12695,9.384951 10.80254,16.157089 -0.271,5.655 -6.22,9.48 -11.356,6.516 -4.187,-2.417 -6.157,-7.259 -9.702,-10.483 -2.925,-2.661 -6.361,-4.759 -10.027,-6.229 -4.072,-1.633 -8.151,-2.398 -12.521,-2.471 -3.365,-0.056 -6.75,1.048 -10.052,1.401 0.272,0.558 -2.338,0.298 -3.834,-0.197 -1.108,-0.472 -1.114,-1.873 -0.73,-2.782 1.905,-4.503 8.836,-7.314 13.245,-8.55 z"
           id="path3"
           fill="#3f3939" />
      </g>
    </g>
    <g
       id="Beard"
       transform="translate(494.99993,517.99966)"
       fill="#3f3939">
      <g
         id="Beard/None"
         stroke="none"
         stroke-width="1"
         fill="none"
         fill-rule="evenodd"
         fill-opacity="0" />
    </g>
    <g
       id="Mask"
       transform="translate(400,480)"
       fill="#3f3939">
      <g
         id="Mask/Medical Mask"
         stroke="none"
         stroke-width="1"
         fill="none"
         fill-rule="evenodd">
        <path
           d="m 393.2574,70.3562 c -1.885,-23.883 -32,-34 -47,-37 -49.948,-11.742 -92.442,18.384 -152,19 -6.011,0.094 -23.201,-0.92 -31.195,-3.031 -40.559,-9.216 -81.076,-19.019 -120.872,-31.106 -5.851,1.37 -7.582,9.007 -3.565,13.358 38.116,13.517 96.429,25.621 127.223,26.999 -0.591,39.78 -21.591,79.78 -50.591,101.78 46.123,51.005 153.692,67.779 216.998,41.006 31.141,-9.346 64.002,-93.006 61.002,-131.006"
           id="Color"
           fill="#f7f7f7" />
        <path
           d="m 38.9721,19.4231 c -1.715,-0.067 -0.715,-5.067 3.148,-4.354 49.844,11.657 111.944,33.861 163.177,33.698 37.689,-1.234 71.46,-22.224 109.357,-22.351 25.475,0.488 57.959,4.111 75.787,24.553 23.515,74.578 -29.438,176.014 -112.755,176.601 l -15.76977,-1.14098 C 208.16275,222.4689 149.27444,216.13275 114.6271,170.5281 l -0.27,0.232 v 0 c -5.181,-3.476 -4.892,-10.983 -0.489,-14.844 l 0.131,0.206 v 0 c 0.084,-0.136 0.177,-0.266 0.267,-0.399 l -0.056,-0.175 v 0 c 1.694,-1.778 3.62,-3.441 5.371,-4.93 l 0.009,0.029 v 0 c 26.016,-21.675 43.003,-54.45 43.981,-88.389 -8.613,2.366 -153.319,-27.634 -127.488,-34.955 18.476,6.246 37.061,11.887 56.021,16.377 0.318,-0.179 0.774,-0.132 0.949,0.221 23.194,5.708 46.856,8.97 70.549,11.611 -0.025,-1.132 -0.068,-2.264 -0.126,-3.398 -42.128,-8.201 -83.428,-20.377 -124.504,-32.691 z m 341.123,30.267 c -86.409,-43.651 -129.301,20.838 -212.87,3.082 8.743,39.006 -12.846,81.057 -42.169,106.543 42.606,36.876 61.046,42.46 116.936,48.445 l 7.3014,0.8694 c 10.97783,1.30009 22.05869,2.51278 33.0706,2.7026 57.12,-4.157 100.281,-63.585 106.74,-117.43 l 0.035,-1.487436 c 0.28953,-13.665114 -0.33814,-28.129792 -6.392,-40.648564 -1.115,-0.388 -2.084,-1.087 -2.652,-2.076 z M 259.7989,83.9558 c 2.986,-0.672 6.033,2.586 4.182,5.439 -5.981,9.225 -20.608,12.799 -30.838,14.249 -11.847,1.679 -23.331,0.355 -34.585,-3.686 -0.603,-0.217 -0.56,-1.283 0.162,-1.197 10.686,1.272 21.702,0.341 32.085,-2.487 10.528,-2.051 19.029,-9.053 28.994,-12.318 z m 81.18897,-6.6449 c -0.0496,-1.753 8.56843,3.319 9.93143,4.002 10.526,6.32 22.71,6.783 34.319,9.264 2.706,1.038 2.702,4.478 -10e-4,5.516 -14.489,3.853 -36.478,-6.259 -44.24943,-18.782 z"
           id="path4"
           fill="#3f3939" />
      </g>
    </g>
    <g
       id="Accessories"
       transform="translate(419,421)"
       fill="#3f3939">
      <g
         id="Accessories/Glasses 4"
         stroke="none"
         stroke-width="1"
         fill="none"
         fill-rule="evenodd">
        <path
           d="m 370.26723,94.081219 c -9.17971,11.468951 -45.11634,24.199421 -64.24277,10.379701 -19.12643,-13.819715 -26.68498,-23.450684 -29.24157,-40.719092 -0.2726,-1.841303 -3.60185,-3.066035 -5.00932,-1.758728 -7.88103,7.3202 -12.98263,16.643613 -18.03694,25.99088 -5.70045,10.542211 -11.31509,21.14913 -21.67434,28.28571 -18.34839,9.83532 -51.54225,11.23605 -61.34901,6.89763 -18.786,-8.31076 -33.64657,-26.084788 -37.02589,-50.544514 -2.29156,-7.233195 -4.44104,-11.610793 -6.44844,-13.132794 -2.8544,-2.164191 -18.60701,-4.092184 -20.3327,-4.412381 C 75.807136,49.297279 36.474906,45.619033 8.7760072,65.920022 5.0274955,68.185883 -7.805392,76.698518 -7.9979056,74.60536 -8.129286,66.406356 1.1622036,47.848771 22.293908,39.018566 48.42574,28.098982 87.270787,27.460364 109.77467,29.870192 c 1.13178,0.121197 4.98992,-0.826831 5.26252,-0.944853 34.09346,-14.760898 73.3223,-10.84061 109.8023,-4.63654 5.22737,1.014399 52.02401,12.601702 70.6384,5.581393 30.77618,-12.564076 63.58926,-21.6663314 96.82396,-18.085269 0.2779,0.02994 4.47347,25.496297 1.20514,27.233643 -2.60093,1.382575 -7.02675,4.925336 -8.599,6.864198 -1.40554,1.73327 -2.29127,3.888101 -2.21271,6.873344 0.63204,17.269182 -4.29536,31.164293 -12.42805,41.325111 z M 243.72836,78.67208 c 3.9024,-5.645046 5.13386,-18.326027 3.50004,-27.577216 -0.82725,-4.684167 -2.43354,-8.412668 -4.44933,-10.268667 -1.33991,-1.233693 -2.86872,-1.814459 -4.53598,-1.728262 -0.91412,0.04726 -1.90461,0.307247 -2.95258,0.872638 -14.19329,-7.677617 -31.3877,-10.441964 -47.68641,-9.646957 -12.9748,-0.0024 -22.23203,3.060093 -28.5097,7.827319 -7.55369,5.736224 -10.95686,13.982362 -11.15377,22.92527 -0.23364,10.611653 4.12554,22.220805 11.27632,31.406681 6.84434,8.792214 16.20709,15.310354 26.36437,16.814224 11.53061,2.28891 23.28094,0.0745 33.4973,-5.34234 10.47822,-5.555666 19.32932,-14.478252 24.64974,-25.28269 z m 113.77908,5.98646 c 6.57659,-7.771595 10.94961,-17.881893 11.61526,-27.899221 0.60579,-9.116488 -1.83539,-18.146838 -8.58509,-25.609597 -6.11909,-5.252221 -16.93188,-5.339245 -28.30644,-2.414436 -14.708,3.781957 -29.92371,12.233772 -34.996,17.692276 -1.19479,0.626455 -2.30376,1.717362 -3.26986,4.057364 l -0.007,0.834209 c -1.53656,7.086549 -0.62484,14.277886 2.03314,20.911926 2.88726,7.206272 7.83912,13.748117 13.87695,18.739499 8.02174,6.607918 16.3955,8.630773 24.23311,7.563699 8.87781,-1.208695 17.13318,-6.463288 23.40584,-13.875719 z"
           id="Background"
           fill="#f7f7f7" />
        <path
           d="m 294.4196,27.0634 c 31.165,-12.724 64.478,-21.895 98.204,-18.261 2.789,-1.061 6.251,-0.167 7.487,3.777 12.013,36.595 -14.776,26.418 -14.416,40.098 2.808,76.703 -100.287,89.802 -111.879,11.504 l -0.213,0.126 v 0 c -16.678,15.563 -20.191,40.888 -39.838,54.423 -39.633,28.985 -95.815,6.02 -103.031,-45.58 l -0.15739,-0.698068 C 128.15396,61.921616 125.2579,59.310528 113.3116,59.3624 l -1.88729,-0.374966 C 80.385228,52.872048 39.05216,47.3766 10.4636,68.4074 c -6.218,3.616 -6.51,12.912 -11.764,16.951 -5.756,1.118 -9.302,-5.805 -9.692,-10.596 -0.912,-47.763 84.558,-51.199 122.836,-47.1 0.731,-0.757 2.292,-0.663 2.818,0.28 34.618,-14.988 73.619,-12.914 110.685,-6.611 22.961,4.445 45.639,14.57 69.073,5.732 z m 95.101,-9.443 c -18.701,-0.935 -35.999,0.088 -54.355,4.583 -9.674,2.334 -17.098,5.285 -26.358,8.834 -57.758,25.589 -64.42,-19.896 -193.888,-2.066 1.675,7.174 1.983,14.277 2.073,21.017 26.43498,-1.06524 20.21107,24.176384 30.1149,41.906071 l 0.3051,0.534929 c 14.434,25.868 48.494,37.934 75.969,20.776 22.922,-13.36 25.158,-47.245 47.98,-60.693 19.783,-0.778 11.881,25.922 22.647,36.896 15.154,20.221 47.365,23.048 66.367,4.028 8.915,-9.152 13.653,-20.772 13.915,-33.256 0.497,-7.976 -0.871,-16.081 5.159,-21.691 4.227,-4.294 11.737,-2.861 12.599,-9.352 0.548,-3.838 -1.048,-8.001 -2.528,-11.517 z M 186.28,28.0747 c 18.577,-0.915 38.233,2.311 54.184,11.422 11.807,-9.396 14.7,27.946 6.863,38.747 -11.291,23.102 -37.578,38.291 -62.889,33.247 -39.486,-5.722 -66.998,-83.485 1.842,-83.416 z m 53.05,13.926 -1.01037,-0.147663 C 221.20724,39.24197 174.61224,27.14534 156.641,46.2377 c -17.441,31.669 26.806,84.863 72.851,42.493 12.815,-13.047 17.782,-28.868 9.838,-46.73 z m 54.2295,4.0475 c 8.862,-10.493 54.027,-31.747 69.77,-18.108 28.733,32.201 -16.834,97.334 -55,65.601 -12.712,-10.607 -21.075,-27.507 -17.415,-43.872 l 0.006,-0.686 c 0.008,-0.248667 0.0544,-0.192 0.32037,-0.502 0.471,-1.237 1.319,-2.027 2.319,-2.433 z m 69.369,19.517 c 9.69,-52.557 -30.809,-32.577 -64.069,-18.549 1.785,1.631 1.777,3.858 1.264,5.688 -3.508,38.996 43.889,61.094 62.805,12.861 z M 111.1716,30.2164 c -13.873,4.698 -105.634,-3.704 -114.111,39.31 8.948,-14.497 27.48,-20.25 44.14,-23.372 22.661,-4.247 45.198,-1.788 67.541,2.681 l 0.46146,-4.624038 c 0.49554,-4.904768 1.01801,-9.493139 1.96854,-13.994962 z"
           id="path5"
           fill="#3f3939" />
      </g>
    </g>
  </g>
  <text
     xml:space="preserve"
     style="font-style:oblique;font-weight:bold;font-size:54.4847px;font-family:Courier;-inkscape-font-specification:'Courier, Bold Oblique';writing-mode:lr-tb;direction:ltr;fill:#000000;stroke-width:0.679109"
     x="224.65903"
     y="347.16864"
     id="text5"
     transform="scale(0.86426927,1.1570468)"><tspan
       sodipodi:role="line"
       id="tspan5"
       x="224.65903"
       y="347.16864"
       style="stroke-width:0.679109">Mrs White</tspan></text>
</svg>
