<?xml version="1.0" encoding="UTF-8" standalone="no"?>
<svg
   version="1.0"
   width="348.25278pt"
   height="396.4866pt"
   viewBox="0 0 348.25278 396.4866"
   preserveAspectRatio="xMidYMid"
   id="svg5"
   sodipodi:docname="Pistol.svg"
   inkscape:version="1.4.3 (0d15f75, 2025-12-25)"
   xmlns:inkscape="http://www.inkscape.org/namespaces/inkscape"
   xmlns:sodipodi="http://sodipodi.sourceforge.net/DTD/sodipodi-0.dtd"
   xmlns="http://www.w3.org/2000/svg"
   xmlns:svg="http://www.w3.org/2000/svg">
   <rect width="100%" height="100%" fill="#ffffff" />
  <defs
     id="defs5" />
  <sodipodi:namedview
     id="namedview5"
     pagecolor="#ffffff"
     bordercolor="#000000"
     borderopacity="0.25"
     inkscape:showpageshadow="2"
     inkscape:pageopacity="0.0"
     inkscape:pagecheckerboard="0"
     inkscape:deskcolor="#d1d1d1"
     inkscape:document-units="pt"
     inkscape:zoom="1.0830482"
     inkscape:cx="185.5873"
     inkscape:cy="240.9865"
     inkscape:window-width="1470"
     inkscape:window-height="923"
     inkscape:window-x="0"
     inkscape:window-y="33"
     inkscape:window-maximized="0"
     inkscape:current-layer="svg5" />
  <metadata
     id="metadata1">
Created by potrace 1.15, written by Peter Selinger 2001-2017
</metadata>
  <g
     transform="matrix(0.01757232,0,0,-0.01874556,73.801049,210.68377)"
     fill="#000000"
     stroke="none"
     id="g5">
    <path
       d="m 1327.0241,7455.2338 -30,-98 -347.00003,-3 -347,-2 v -103 -103 l -94,-67 -95,-67 h -80 c -94,0 -109,5 -122,38 l -10,25 -29,-34 c -25,-30 -27,-37 -16,-54 25,-38 62,-57 125,-62 63,-6 86,-22 63,-45 -8,-8 -31,-8 -82,2 -38,7 -73,10 -77,6 -4,-4 -6,-34 -5,-66 3,-48 0,-62 -17,-79 -30,-30 -52,-26 -133.999998,20 -103,59 -165.000002,81 -223.000002,82 -60,0 -100,-21 -133,-69 l -23,-34 -26,20 c -68,54 -89,123 -55,180 16,27 15,29 -11,61 -16,18 -32,44 -38,58 l -9,26 -19,-25 c -53,-68 -52,-185 2,-350 l 34,-105 80,3 c 100,4 235,-12 310.000002,-38 133,-46 284.999998,-167 385.999998,-308 l 46,-63 -15,-67 c -32,-141 -85,-310 -118,-379 -45,-91 -130.999998,-201 -193.999998,-247 -127.000002,-93 -256.000002,-120 -448.000002,-92 -65,9 -127,18 -138,19 -31,3 -47,-61 -43,-173 5,-113 33,-182 103,-254 86,-89 172,-116 460.000002,-141 299.999998,-27 422.999998,-55 521.999998,-121 34,-22 60,-49 74,-76 35,-68 24,-134 -54,-318 -95,-226 -169,-420 -436.999998,-1145 -89,-239 -266.000002,-723 -410.000002,-1120 -255,-700 -350,-959 -431,-1161.99998 -44,-111 -82,-224 -86,-250 -10,-89 34,-149 142,-191 28,-11 242,-70 475,-131 1381.00003,-358.9999959 1969.00003,-506 1980.00003,-495 4,5 52,126.000004 105,269 141,377 147,394 140,405 -3,5 -44,22 -90,36 -47,14 -85,31 -85,38 0,6 7,34 16,61 8,28 83,280 165,559.99998 423,1435 631,2134 647,2170 27,63 87,121 150,147 57,22 63,22 722,28 738,7 709,5 855,77 178,88 318,251 394,460 30,80 44,155 61,323 21,205 138,331 370,396 61,17 136,19 1202,22 l 1138,3 4,22 c 3,12 8,49 11,82 12,105 68,237 129,303 62,67 -110,62 2069,62 1875.9999,0 1985.9999,1 2005.9999,18 21,17 21,24 24,372 l 2,355 40,6 c 54,7 82,24 105,62 19,30 20,54 20,472 0,418 -1,442 -20,472 -23,38 -46,52 -103,61 l -42,8 -3,137 -3,137 h -283 -284 l -4,-147 c -5,-164 -12,-188 -72,-241 -85,-74 -207,-46 -260,60 -24,48 -26,62 -26,190 v 138 l -287,-2 -288,-3 -2,-80 c -8,-256 -6,-239 -35,-281 -71,-102 -205,-117 -287.9999,-34 -55,55 -70,114 -70,272 v 129 l -222,-2 -223,-2 -33,67 -33,66 h -253 -252 l -34,-35 -34,-35 h -218 -218 l -28,-30 -27,-30 -1765,-3 -1765,-2 -50,-127 -50,-128 h -712 -713 v 33 c 0,59 -21,108 -63,151 -69,69 -73,69 -527,73 l -405,3 -30,65 -30,64 -411,1 h -411 z m 7961,-3 c 8,-16 15,-30 15,-32 0,-2 -99,-3 -220,-3 h -219 l 31,33 32,32 h 173 172 z m -7335,-63 c -50,-33 -72,-78 -78,-158 l -5,-69 h -217 -218 l 19,73 c 10,39 23,96 29,125 l 11,52 h 246 246 z m 113,-60 c 16,-11 11,-18 -47,-76 -68,-67 -78,-68 -78,-3 0,64 78,114 125,79 z m 52,-71 c 9,-44 -15,-89 -54,-106 -33,-13 -81,-7 -81,11 0,12 109,129 121,129 4,0 11,-15 14,-34 z m 984,9 c 11,-11 23,-39 27,-62 l 7,-43 h -477 -476 v 65 66 l 450,-3 c 434,-3 450,-4 469,-23 z m 2206,0 25,-24 v -236 c 0,-277 -5,-298 -66,-308 -22,-4 -128,-7 -236,-7 h -198 v 293 c 0,162 3,297 7,300 3,4 105,7 225,7 h 219 z m 4130,-130 v -140 l -1997,-3 -1998,-2 v 108 c 0,86 -4,115 -19,145 l -19,37 2017,-2 2016,-3 z m 345,93 c 0,-68 27,-176 55,-224 l 26,-44 h -116 -115 v 155 155 h 75 75 z m 961.9999,-36 c 4,-77 30,-150 74,-209 l 16,-23 h -221 c -121,0 -221,3 -221,8 0,4 6,17 14,28 29,40 56,143 56,209 v 65 h 139 138 z m 948,-77 v -155 h -186 -186 l 16,23 c 44,59 70,132 74,209 l 5,78 h 138 139 z m -10914.99993,3 c -300,-983 -441,-1430 -467,-1482 -33,-66 -104,-161 -150,-201 -50,-43 -200.999998,-119 -272,-136 -54,-13 -112,-63 -122,-105 -14,-54 40,-97 135.000002,-108 48,-5 67,-22 48,-44 -9,-11 -30,-13 -92.000002,-9 -186,13 -295,91 -295,212 0,80 6,85 108,78 240.000002,-14 477,116 576,318 20,41 85,229 144,419 385,1222 343,1100 373,1100 h 27 z m 439.00003,12 -2,-30 h 959 959 v -65 -65 h -1176 c -1115.00003,0 -1175.00003,1 -1170.00003,18 3,9 15,49 27,87 12,39 23,73 26,78 2,4 89,7 192.00003,7 h 187 z m 3316,-95 v -65 h -650 -650 v 58 c 0,32 3,62 7,65 3,4 296,7 650,7 h 643 z m 7297.9999,-17 c 9,-9 12,-79 11,-257 v -246 l -40,135 c -36,124 -39,145 -39,258 v 122 h 28 c 15,0 33,-5 40,-12 z m -10767.9999,-168 v -80 h -46 c -71.00003,0 -121.00003,-19 -174.00003,-67 -80,-72 -114,-183 -87,-287 34,-129 129,-206 253.00003,-206 h 54 v -100 -100 H 896.02407 c -192,0 -220,-9 -244,-74 l -13,-36 h -89 c -69,0 -88,3 -85,14 2,7 71,239 153,514 l 150,502 h 148 147.00003 z m 212,-112 c 0,-101 0,-334 -1,-518 l -2,-335 -45,-3 -44,-3 v 194 195 l 34,51 c 71,105 71,235 1,336 -35,51 -35,52 -35,158 v 107 h 45 45 z m 168,-339 v -520 l -47,3 -48,3 -3,518 -2,517 h 50 50 z m 170,1 v -520 h -50 -50 v 520 520 h 50 50 z m 170,0 v -520 h -50 -50 v 520 520 h 50 50 z m 168,3 -3,-518 -47,-3 -48,-3 v 520 521 h 50 50 z m 167,-3 v -515 h -47 c -27,0 -48,3 -48,8 0,4 0,237 0,518 v 510 l 48,-3 47,-3 z m 165,-1 v -520 l -47,3 -48,3 -3,518 -2,517 h 50 50 z m 852,456 c 17,-135 76,-226 164,-253 32,-9 275,-12 1023,-12 1079,0 1025,-3 1073,61 36,49 40,63 47,169 l 6,95 1993,3 1992,2 v -415 -415 h -808 -809 l -102,-105 -102,-105 h -2630 -2629 v 513 c 0,283 3,517 7,520 4,4 178,6 387,5 l 381,-3 z m 1398,-20 c 0,-78 -2,-88 -25,-110 l -24,-25 h -571 c -640,0 -612,-3 -648,72 -17,35 -28,102 -23,141 1,4 291,7 646,7 h 645 z m 5448,33 c 53.9999,-27 73.9999,-32 139.9999,-32 68,-1 86,3 144,32 l 65,32 h 290 c 276,0 293,-1 339,-22 64,-28 172,-29 229,-2 34,16 73,19 273,24 l 232,5 v -407 -408 h -1035 -1034.9999 v 403 c 0,222 2,406 4,408 2,2 69,3 148,1 138,-2 145,-4 206,-34 z m -8910,-163 c 100,-42 149,-161 107,-261 l -14,-34 -130,137 -130.00003,138 37,17 c 46,22 82.00003,22 130.00003,3 z m -90.00003,-216 c 67.00003,-73 122.00003,-135 122.00003,-140 0,-15 -73,-31 -116.00003,-26 -116,13 -194,148 -153,266 6,17 14,31 18,31 4,0 62,-59 129,-131 z m 6742.00003,-851 -1,-243 -39,-18 c -73,-34 -172,-191 -210,-335 l -18,-67 -1,158 c -1,223 25,339 124,542 45,93 119,205 136,205 5,0 9,-97 9,-242 z m -4690,112 v -40 h -1209 -1210.00003 l -141,-85 c -78,-47 -143,-85 -145,-85 -2,0 12,29 30,64 19,36 41,92 51,125 l 17,61 h 1303.00003 1304 z m 4480,-70 c -48,-96 -96,-235 -105,-305 -3,-27 -8,-65 -11,-84 l -5,-34 -552,7 c -304,3 -790,7 -1082,8 -530,2 -530,2 -574,-20 -56,-28 -60,-27 -34,1 11,12 31,42 44,67 33,63 35,212 3,281 -22,46 -79,111 -124,141 -23,16 57,17 1228,17 l 1252,1 z m -4150,40 c 0,-25 -5,-30 -36,-39 -192,-53 -194,-355 -4,-412 34,-11 40,-16 40,-41 0,-22 -4,-28 -22,-28 -69,1 -170,88 -203,173 -26,68 -17,179 19,241 31,53 89,105 137,122 56,21 69,18 69,-16 z m 6078,-72 3,-98 h -821 -820 v 93 c 0,52 3,97 7,100 3,4 371,6 817,5 l 811,-3 z m 601.9999,71 c 339,-23 511,-40 760,-75 171,-23 479,-80 489,-90 2,-2 -370,-4 -827,-4 h -831.9999 v 93 c 0,52 3,96 6,99 3,3 31,4 62,2 31,-3 185,-14 341.9999,-25 z m -5889.9999,-266 c 0,-227 -1,-246 -16,-225 -15,22 -17,22 -295,22 -272,0 -279,0 -279,20 0,20 7,20 271,20 252,0 270,1 267,18 -3,16 -27,17 -306,20 l -303,2 3,23 3,22 293,3 c 250,2 292,4 292,17 0,13 -44,15 -320,15 h -320 v 25 25 l 318,2 c 274,3 317,5 317,18 0,13 -46,15 -347,18 -340,2 -348,3 -348,22 0,20 7,20 350,20 193,0 350,2 350,4 0,2 3,11 6,20 6,14 -27,16 -320,16 -319,0 -326,0 -326,20 0,20 7,20 334,20 295,0 335,2 340,16 3,9 6,18 6,20 0,2 -142,4 -315,4 -308,0 -315,0 -315,20 0,20 7,20 330,20 h 330 z m 835,228 c 79,-37 128,-116 127,-206 -1,-88 -42,-159 -115,-198 -41,-22 -50,-22 -424,-25 l -383,-3 v 225 226 h 378 c 346,0 380,-2 417,-19 z m -3907,-93 -3,-63 -217.00003,-3 -218,-2 v 65 65 h 220 221.00003 z m 1882,25 c -219,-122 -469,-198 -740,-223 -333,-31 -720,51 -1015,215 l -80,44 950,1 h 950 z m -2452.00003,-79 c -17,-44 -19,-63 -12,-92 22,-88 165,-122 365,-87 47,8 104,21 128,29 l 43.00003,16 -7,-33 c -11,-49 -49.00003,-141 -86.00003,-205 -19,-31 -85,-109 -148,-172 l -113,-114 -21,29 c -11,17 -49,58 -84,93 -112,109 -301,184 -505.999998,199 -97,7 -123,18 -113,51 8,24 67,62 290.999998,189 234,133 269,152 277,152 4,1 -2,-24 -14,-55 z m 1610.00003,-343 c -10,-28 -154,-291 -159,-291 -16,0 -39,72 -39,121 0,70 34,129 92,158 43,21 112,29 106,12 z m 118,-97 c 31,-75 4,-181 -58,-226 -30,-20 -128,-39 -128,-23 0,19 155,293 163,288 5,-3 15,-20 23,-39 z m 1872,29 c 10,-20 5,-44 -12,-55 -6,-4 -234,-8 -506,-8 -513,0 -520,1 -520,40 0,39 7,40 527,40 468,0 503,-1 511,-17 z m 820,5 c 16,-16 15,-33 -4,-52 -13,-14 -56,-16 -313,-16 -306,0 -321,2 -321,40 0,38 15,40 325,40 221,0 304,-3 313,-12 z m -1412,-275 c -8,-28 -24,-141 -31,-223 -15,-172 44,-473 114,-586 12,-18 12,-18 7,1 -31,126 -37,355 -11,475 21,103 40,160 88,263 l 41,89 195,-4 c 174,-4 202,-7 253,-27 131,-51 241,-170 289,-311 32,-92 32,-248 0,-340 -58,-169 -196,-297 -355,-330 -36,-7 -193,-10 -478,-8 -415,3 -424,3 -480,26 -227,92 -358,349 -304,596 41,182 157,316 324,373 57,19 88,23 210,23 132,0 143,-1 138,-17 z m 1399,-10 c -80,-74 -146,-182 -179,-292 -8,-29 -20,-101 -26,-160 -13,-132 -40,-231 -86,-324 -97,-192 -261,-326 -462,-378 -71,-18 -117,-19 -793,-19 h -719 l 18,48 18,47 744,5 c 738,5 746,5 803,27 90,34 146,71 214,139 76,78 137,195 159,309 41,216 -44,456 -207,585 l -51,40 h 298 298 z m -4366.00003,-3663 c 410,-43 790.00003,-217.99998 1096.00003,-504.99998 35,-33 52,-54 40,-50 -409,108 -1726.000028,460.99998 -1765.000028,471.99998 -66.000002,19 -60.000002,22 92,53 188.999998,39 359.999998,48 536.999998,30 z m -792,-174 c 3,-3 -31,-110.99998 -76,-239.99998 -44,-129 -81,-240 -81,-246 0,-6 -8,-9 -17,-6 -10,3 -47,12 -83,21 -36,9 -66,18 -68,20 -3,3 127,414 149,471.99998 l 8,21 81,-18 c 45,-10 84,-21 87,-24 z m 1165,-311.99998 c 505.00003,-134 920.00003,-244 923.00003,-244 3,0 5,-5 5,-10 0,-10 -128,-360.999996 -155,-425.999996 l -13,-32 -944.00003,237.999996 c -518,131 -942,242 -941,246 0,5 36,116 78,247 l 77.000002,239 27,-7 c 13.9999997,-3 438.999998,-116 942.999998,-251 z"
       id="path1" />
    <path
       d="m 608,7373 c -40,-10 -10,-173 32,-173 34,0 54,38 58,111 l 4,69 -38,-1 c -22,-1 -47,-3 -56,-6 z"
       id="path2" />
    <path
       d="m 751,7343 c -26,-94 -1,-160 50,-133 23,13 55,73 64,122 6,31 4,36 -17,41 -12,4 -37,7 -55,7 -29,0 -33,-4 -42,-37 z"
       id="path3" />
    <path
       d="m 915,7301 c -54,-80 -40,-148 25,-121 38,16 101,87 93,106 -6,15 -64,54 -82,54 -6,0 -22,-17 -36,-39 z"
       id="path4" />
    <path
       d="m 450,7302 c -39,-34 -36,-53 16,-106 92,-95 154,-24 76,89 -35,50 -52,53 -92,17 z"
       id="path5" />
  </g>
  <text
     xml:space="preserve"
     style="font-style:oblique;font-weight:bold;font-size:52.3505px;font-family:Courier;-inkscape-font-specification:'Courier, Bold Oblique';writing-mode:lr-tb;direction:ltr;fill:#000000;stroke-width:0.652508"
     x="74.865417"
     y="294.52094"
     id="text5"
     transform="scale(1.0050886,0.99493717)"><tspan
       sodipodi:role="line"
       id="tspan5"
       style="stroke-width:0.652508"
       x="74.865417"
       y="294.52094">Pistol</tspan></text>
</svg>
