<?xml version="1.0" encoding="UTF-8" standalone="no"?>
<svg
   viewBox="146.60541 185.493 377.48216 431.99661"
   overflow="visible"
   width="349.52054"
   height="399.99689"
   version="1.1"
   id="svg7"
   sodipodi:docname="Professor Plum...svg"
   inkscape:version="1.4.3 (0d15f75, 2025-12-25)"
   xmlns:inkscape="http://www.inkscape.org/namespaces/inkscape"
   xmlns:sodipodi="http://sodipodi.sourceforge.net/DTD/sodipodi-0.dtd"
   xmlns="http://www.w3.org/2000/svg"
   xmlns:svg="http://www.w3.org/2000/svg"
   xmlns:bx="https://boxy-svg.com">
  <sodipodi:namedview
     id="namedview7"
     pagecolor="#ffffff"
     bordercolor="#000000"
     borderopacity="0.25"
     inkscape:showpageshadow="2"
     inkscape:pageopacity="0.0"
     inkscape:pagecheckerboard="0"
     inkscape:deskcolor="#d1d1d1"
     inkscape:zoom="1.1776418"
     inkscape:cx="182.56825"
     inkscape:cy="191.48438"
     inkscape:window-width="1470"
     inkscape:window-height="816"
     inkscape:window-x="0"
     inkscape:window-y="33"
     inkscape:window-maximized="0"
     inkscape:current-layer="svg7" />
  <defs
     id="defs1">
    <style
       bx:fonts="Delicious Handrawn"
       id="style1">@import url(https://fonts.googleapis.com/css2?family=Delicious+Handrawn%3Aital%2Cwght%400%2C400&amp;display=swap);</style>
  </defs>
  <rect
     id="Blush Background Color"
     fill="#c775c7"
     x="146.60541"
     y="185.493"
     width="377.48215"
     height="431.99661"
     style="stroke-width:0.365761" />
  <g
     id="Master/Character/Bust"
     stroke="none"
     stroke-width="1"
     fill="none"
     fill-rule="evenodd"
     transform="matrix(0.24003656,0,0,0.20132327,184.93855,174.04006)">
    <g
       id="Body"
       transform="translate(147,639)">
      <g
         id="Body/Jacket 2"
         stroke="none"
         stroke-width="1"
         fill="none"
         fill-rule="evenodd">
        <path
           d="m 456.90601,-38.817021 c 29.13225,1.437622 74.49217,13.926744 76.75994,21.908763 3.54107,12.4637943 -4.06837,59.191205 8.65903,84.360267 5.42552,10.72924 26.02759,9.767343 34.01047,13.2616 26.70944,11.691219 105.7811,33.864081 122.08432,61.783761 6.53154,11.18543 46.67098,149.97504 67.99957,220.78144 2.40461,7.98278 5.12049,15.36576 8.0731,22.20367 l 1.0851,-5.31327 c 8.69628,-42.79546 13.04441,-68.70283 13.04441,-77.72211 0,-14.09262 -11.24168,-73.55216 0,-88.67297 11.12927,-14.9696 37.95019,-27.20948 50.01721,-27.45279 l 0.36112,-0.004 c 7.92313,0 14.79796,-2.47661 20.62449,-7.42984 l 8.54274,-4.29618 c 43.45875,-21.80717 68.84924,-33.76919 76.17147,-35.88604 11.6844,-3.37796 31.57002,3.81877 21.62721,14.62283 -6.62854,7.2027 -23.28526,19.94436 -49.97017,38.22499 l -10.06167,7.99449 1.21556,0.63499 c 13.00371,6.84567 20.64972,12.60762 22.93801,17.28585 2.3587,4.82218 1.22691,10.52626 -3.39537,17.11224 l 0.70115,0.68358 c 5.84523,5.73637 8.76784,9.58416 8.76784,11.54337 v 9.57076 c 5.81507,8.51625 7.26883,15.61848 4.3613,21.30671 -2.90753,5.68822 -7.51763,10.61723 -13.83029,14.78701 -4.65157,12.23598 -10.191,20.94457 -16.61831,26.12577 -6.4273,5.18121 -17.53544,9.49433 -33.32442,12.93938 l -14.28764,34.16225 -11.5772,47.99444 -5.83361,53.55323 1.69374,1.22621 c 7.85084,5.71803 12.87966,9.9568 12.87966,14.33727 0,6.82362 -31.67672,167.30248 -80.96026,174.48509 -10.65864,1.55339 -65.93537,-6.06564 -84.08489,-20.82981 l 0.26792,1.59463 c 4.27041,25.79267 3.36702,39.18715 -2.71017,40.18346 C 617.45009,690.48877 405.33316,694.27198 55.786574,689.59396 53.706921,504.07245 63.11066,380.51795 83.99779,318.93046 137.41778,161.41705 196.31583,107.61821 216.92122,103.0105 c 18.04931,-4.036141 80.63793,-28.94695 98.13394,-35.558491 11.42079,-4.315784 13.86756,-17.255454 26.88211,-17.255454 l 1.05209,0.0054 c 12.58631,0.126399 23.7476,2.377305 30.01838,-4.095729 16.45634,-16.987119 11.85606,-40.5004756 18.68307,-63.014467 3.76163,-12.404993 29.46632,-23.672904 65.2152,-21.908763 z"
           id="Skin"
           fill="#ae5d29" />
        <path
           d="m 341.93727,50.196555 h 1.05209 c 3.11071,0.03662 6.13437,0.197634 9.01867,0.324641 l -6.07716,20.707245 -0.13148,2.174825 c -3.94596,71.393284 31.01478,105.569804 104.88224,102.529554 73.86745,-3.04025 110.60994,-26.40429 110.22746,-70.09214 l -0.023,-1.3301 5e-4,-27.1869 1.1623,0.222711 c 5.60679,1.049428 11.00975,1.732917 14.28651,3.167218 26.70944,11.691219 105.7811,33.864081 122.08432,61.783761 6.53154,11.18543 46.67098,149.97504 67.99957,220.78144 0.77939,2.58739 1.59147,5.11177 2.43372,7.575 l 1.2e-4,13.99386 -0.23187,0.84879 c -7.47535,27.95882 2.47757,50.8178 29.85876,68.57695 19.4079,12.58775 39.33997,20.75899 59.79622,24.51372 0.8784,1.35848 1.34848,2.68453 1.34848,4.02383 0,6.82362 -31.67672,167.30248 -80.96026,174.48509 -10.65864,1.55339 -65.93537,-6.06564 -84.08489,-20.82981 l 0.26792,1.59463 0.25002,1.53269 c 3.98219,24.7908 2.99546,37.67439 -2.96019,38.65077 C 617.45009,690.48877 405.33316,694.27198 55.786574,689.59396 53.706921,504.07245 63.11066,380.51795 83.99779,318.93046 137.41778,161.41705 196.31583,107.61821 216.92122,103.0105 c 18.04931,-4.036141 80.63793,-28.94695 98.13394,-35.558491 11.42079,-4.315784 13.86756,-17.255454 26.88211,-17.255454 z"
           id="Jacket"
           fill="#ba98de"
           fill-rule="nonzero" />
        <path
           d="m 376.87018,5.6630091 c 1.71,-3.388 6.249,-2.949 9.244,-1.412 8.983,6.5669999 -0.416,19.2959999 -2.901,27.3099999 -6.392,15.544 -17.494,30.735 -32.82,38 1.27,15.452 2.709,30.870001 3.24,46.370001 19.595,24.305 52.632,33.176 81.959,39.998 46.061,12.738 98.045,-13.36 113.591,-58.889001 -17.693,-10.053 -23.419,-36.375 -18.14,-54.739 0.459,-1.29 2.459,-1.86 3.17,-0.42 4.845,9.965 4.199,22.122 9.707,31.967 52.868,5.061 121.098,25.009 155.733,67.763001 15.349,21.39 21.429,49.21 28.989,74 16.13,51.108 28.982,103.25 44.801,154.41 l 1.86531,-9.68015 c 5.11042,-26.66559 9.75431,-53.69288 6.30269,-80.81085 l -0.0618,-1.29757 c -1.12765,-21.57772 -7.88071,-61.67573 8.85377,-76.24343 15.137,-11.567 37.065,-20.862 56.06,-15.53 33.803,-15.042 62.979,-40.372 98.98,-50.238 11.08,-2.28 27.02,0.42 24.401,15.451 -7.258,26.289 -37.653,36.493 -58.431,50.049 13.319,3.609 29.556,19.806 19.15,33.93 -0.09,0.25 -0.17,0.44 -0.25,0.59 8.439,3.74 9.621,13.14 7.55,21.2 -0.21,2.13 -0.77,0.3 0.481,2.23 9.522,8.98 5.313,34.013 -9.031,34.859 0.939,11.861 -6.68,23.381 -16.33,29.851 -10.401,6.97 -25.44,7.27 -34.051,16.81 -20.217,35.648 -27.191,77.732 -29.395,118.554 13.327,4.988 25.284,19.905 13.176,32.56 -0.239,0.028 -0.478,0.056 -0.72,0.076 -7.019,18.731 -9.729,38.698 -13.441,58.26 -5.711,33.379 -20.594,64.026 -39.599,91.832 -21.978,36.807 -81.077,30.972 -110.85,7.218 0.119,6.232 1.146,12.427 -0.85,18.449 -2.946,6.499 -10.129,3.691 -10.84,-2.709 -15.739,8.851 -19.446,-20.365 -1.95,-15.731 -1.346,-21.121 -2.126,-42.272 -2.759,-63.429 -19.808,6.411 -20.662,-26.451 -0.401,-19.88 l -0.024,-9.0849 c -0.14897,-69.66186 0.62073,-139.56202 9.81403,-208.6751 0.85,-5.17 2.29,-10.17 3.13,-15.31 0.09,-0.531 0.92,-0.38 0.923,0.129 1.423,96.76 -4.901,193.727 1.697,290.521 5.493,1.674 7.683,7.977 11.75,11.649 9.029,8.336 21.325,12.395 33.349,13.809 33.67,4.721 48.207,-5.562 63.201,-34.828 -6.76269,4.51935 -15.90115,-3.4615 -11.77899,-10.61354 l 0.12899,-0.21646 c 4.281,-7.579 16.37,-3.037 14.839,5.45 15.075,-24.14 22.965,-51.361 28.792,-78.98 l 0.78831,-3.29962 c 2.83252,-11.72534 6.50851,-25.16173 13.31069,-35.77038 -41.482,-10.572 -82.06,-42.783 -88.551,-86.976 -10.532,33.089 -24.8,65.434 -38.399,97.616 -4.2,11.19 -5.95,23.219 -11.97,33.6 -1.4,2.4 -4.95,1.78 -5.742,-0.751 -5.414,-24.206 10.992,-47.23 19.51,-69.02 6.956,-12.315 26.922,-68.552 39.301,-68.688 -13.91,-60.968 -32.463,-121.48 -50.132,-181.689 -17.085,-81.298 -51.902,-96.975 -125.66,-122.572001 13.304,67.796001 74.044,133.421001 41.723,204.530001 l -0.78601,1.84411 c -3.30585,7.84077 -6.05198,15.7408 -3.74399,24.34589 2.24,8.35 7.34,15.6 11.421,23.11 22.808,42.421 7.108,91.963 -1.711,136.14 -11.14,51.807 -22.145,103.662 -33.66,155.39 -2.27,10.319 -3.741,20.95 -7.17,30.95 -1.77,5.16 -10.6,4.67 -10.029,-1.35 1.089,-11.68 4.369,-23.07 6.771,-34.54 14.338,-74.26 33.739,-147.645 46.075,-222.23 7.935,-55.212 -23.304,-63.696 -22.138,-99.37 4.246,-18.245 15.485,-34.527 14.84,-53.97 2.498,-59.516 -40.854,-108.617 -46.206,-166.501001 L 575.516,87.669017 c -4.7231,-1.690728 -9.44102,-3.395208 -14.14382,-5.140008 24.755,173.125001 17.238,350.032001 4.863,524.012001 -2.528,8.028 -0.123,90.107 -10.722,85.13 -0.535,3.134 -2.2,6.215 -5.82,6.199 -32.87,0.301 -65.75,0.821 -98.62,1.213 -15.811,-1.457 -37.543,4.579 -50.991,-4.543 -15.527,-4.431 -17.312,-72.481 -21.463,-87.469 L 377.0007,596.17098 C 350.61675,418.06148 327.00622,236.27813 345.97118,56.405009 c -26.386,1.014 -31.832,29.491 -33.789,50.225001 -4.893,45.763 -34.461,85.173 -35.879,131.461 -0.12,11.23 2,22.109 6.489,32.42 11.91,25.262 32.508,54.467 17.113,82.681 -18.207,21.964 -16.631,27.745 -9.95,54.888 18.797,89.732 50.013,175.997 79.708,262.513 -6.452,33.627 -45.26,-91.209 -48.911,-100.622 -17.179,8.638 -26.563,-20.028 -6.859,-22.07 -12.656,-42.362 -24.303,-85.041 -34,-128.19 l -0.25686,-1.21623 c -4.28347,-19.93597 -12.70878,-43.28067 1.51886,-60.96477 36.686,-37.099 -24.237,-78.566 -16.552,-123.509 -6.636,4.92 -16.681,-0.256 -16.53,-8.52 -0.301,-9.304 12.197,-14.07 18.211,-6.971 6.18338,-36.46326 27.69598,-68.29538 34.20594,-104.65146 l 0.29406,-1.70754 c 2.206,-12.849001 2.828,-26.369001 9.139,-38.080001 -8.591,5.58 -17.74,10.09 -27.15,14.07 16.825,14.053001 -15.756,26.879001 -13.06,5.17 -92.268,26.694001 -113.123,63.920001 -147,149.410001 6.328,-6.148 17.168,1.808 13.38,9.649 -3.022,8.26 -16.205,5.845 -16.2,-2.959 l -1.54405,3.68174 c -20.542629,49.11945 -39.239857,99.43143 -48.635954,151.99826 18.432,-2.602 13.739,26.855 -2.961,18.55 -6.702,46.75 -6.808,94.162 -5.989,141.289 15.547,-8.152 16.015,19.55 0.15,11.651 0.58,38.62 1.43,77.24 2.07,115.86 0.13,8.22 -12.55,8.18 -12.75,0 -1.481,-59.341 -4.18,-118.79 -2.897,-178.149 -1.207,-103.026 28.411,-202.326 72.541004,-294.616 39.047,-106.265 92.983,-118.35 192.216,-149.246001 9.16,-13.597 28.73,-26.457 44.697,-17.919 8.933,-14.42 13.47,-31.504 20.08,-46.8679999 z M 206.85328,376.02101 c 0.37,-1.31 2.24,-0.981 2.3,0.31 0.83,16.67 0.09,33.449 -1.05,50.19 -0.691,10.22 -1.54,20.429 -2.26,30.58 -1.91,26.78 -3.45,53.59 -4.62,80.42 0.41,-0.17 0.83,-0.321 1.27,-0.44 2.02,-0.551 4.041,-0.551 6.06,0 1.80133,0.50307 3.37617,1.38245 4.73266,2.65198 l 0.28734,0.27802 c 1.11,1.029 1.9,2.25 2.36,3.66 0.65538,1.25446 0.98698,2.59583 0.98614,4.02962 l -0.007,0.36038 c -0.009,2.059 -0.519,3.969 -1.559,5.75 -1.01,1.71 -2.37,3.07 -4.08,4.089 -1.78,1.031 -3.691,1.541 -5.75,1.55 -0.22,0.021 -0.441,0.041 -0.66,0.051 -1.531,0.06 -2.96,-0.26 -4.281,-0.95 l -0.199,-0.06 c -0.5,13.61 -0.91,27.23 -1.21,40.85 -0.27,11.87 -0.63,23.74 -0.87,35.609 l -0.11149,5.93811 -0.21761,13.12247 c -0.0707,5.3969 -0.0361,10.5643 -1.8708,15.65354 l -0.2201,0.58688 c -1.32,3.399 -2.349,8.13 -5.881,10.02 -2.819,1.509 -6.619,0.95 -8.239,-1.991 -1.36,-2.459 -0.181,-6 1.83,-7.66 -0.04,-0.109 -0.1,-0.209 -0.15,-0.319 -0.31,-0.901 -0.781,-1.75 -1.06,-2.66 -0.881,-2.88 -0.64,-5.95 -0.65,-8.941 0,-5.279 0.179,-10.559 0.32,-15.83 0.31,-11.22 0.67,-22.429 1.109,-33.639 1.48637,-37.605 4.28514,-75.21 7.49065,-112.70939 l 1.08776,-12.65683 c 1.44934,-16.83063 2.94925,-33.67978 5.07259,-50.42378 0.099,-0.8 0.2,-1.6 0.31,-2.401 -1.14,-0.569 -2.2,-1.359 -3.041,-2.239 -3.36886,-3.53786 -5.41245,-8.82607 -7.32855,-13.38261 l -0.44045,-1.03739 c -2.08,-4.86 -4,-9.78 -4.99,-15 l -0.0947,-0.48037 c -0.45161,-2.22269 -1.34291,-6.16249 1.01474,-7.23963 1.23,-0.56 2.009,-0.16 2.41,1.07 0.051,0.16 0.009,0.34 -0.08,0.48 0.97,1.489 2.49,2.88 3.45,4.26 l 3.2857,4.69822 1.6243,2.36078 c 2.06,3.031 4.26,5.931 6.53,8.791 1.789,-12.56 3.98,-25.07 7.39,-37.3 z m 134.7401,279.8903 c 4.11,-3.221 10.8,-1.471 10.8,4.47 0,5.969 -6.7,7.69 -10.8,4.469 l -0.20413,-0.15088 -0.19587,-0.15912 c -2.23275,-1.74428 -2.30759,-6.28529 -0.16889,-8.17867 l 0.16889,-0.14033 c 0.129,-0.111 0.26,-0.21 0.4,-0.31 z m -178.6904,-11.6011 c 1.86,0 3.59,0.47 5.2,1.411 0.7,0.53 1.39,1.069 2.09,1.61 1.28,1.279 2.16,2.8 2.65,4.55 l 0.371,2.739 c 0.049,1.42 -0.241,2.74 -0.891,3.971 -0.42,1.279 -1.13,2.389 -2.13,3.32 -0.94,1.01 -2.04,1.72 -3.319,2.129 -1.12842,0.59583 -2.33162,0.89849 -3.61808,0.89849 l -0.35292,-0.007 c -1.869,0 -3.6,-0.47 -5.21,-1.411 -0.7,-0.529 -1.39,-1.07 -2.09,-1.609 -1.27,-1.28 -2.16,-2.801 -2.649,-4.551 -0.121,-0.91 -0.24,-1.83 -0.371,-2.74 -0.049,-1.42 0.25,-2.739 0.89,-3.97 0.42,-1.28 1.13,-2.389 2.13,-3.319 0.941,-1.01 2.04,-1.721 3.32,-2.131 1.1275,-0.59492 2.33902,-0.89658 3.62688,-0.89728 z m 467.7598,-19.0202 2.621,0.351 c 2.51,0.57 4.529,2.42 5.879,4.53 0.721,1.13 1.11,2.35 1.17,3.66 0.291,1.3 0.23,2.61 -0.18,3.92 -0.3,1.279 -0.889,2.399 -1.76,3.35 -0.299,0.47 -0.65,0.9 -1.049,1.28 -0.821,1.37 -2.06,2.269 -3.341,3.19 -1.079,0.69 -2.25,1.06 -3.51,1.12 -0.83,0.22 -1.67,0.22 -2.51,0 -1.25,-0.06 -2.42,-0.43 -3.5,-1.12 -0.639,-0.49 -1.279,-0.99 -1.91,-1.48 -0.559,-0.65 -1.08,-1.32 -1.57,-2.02 -0.329,-0.77 -0.65,-1.531 -0.969,-2.291 -0.591,-1.83 -0.301,-3.449 0.02,-5.279 0.049,-0.31 0.13,-0.59 0.24,-0.891 l 0.21588,-0.58084 c 0.57561,-1.51929 0.88312,-2.03485 1.90312,-3.35816 l 0.38899,-0.52013 c 0.19445,-0.25915 0.39401,-0.51247 0.62201,-0.73987 0.639,-0.66 1.55,-1.211 2.269,-1.78 1.54,-0.89 3.2,-1.33 4.97,-1.341 z m -339.1798,-6.3991 c 1.45,0.01 2.811,0.37 4.07,1.1 l 1.64,1.27 c 1,1.01 1.69,2.189 2.08,3.561 0.09,0.718 0.191,1.439 0.29,2.149 0.04,1.11 -0.189,2.149 -0.7,3.12 -0.319,1 -0.88,1.859 -1.67,2.6 -0.729,0.78 -1.6,1.34 -2.6,1.67 -0.87273,0.45455 -1.81158,0.69421 -2.80902,0.69647 l -0.30098,-0.006 c -1.46,0 -2.82,-0.37 -4.08,-1.101 l -1.64,-1.259 c -1,-1.01 -1.69,-2.2 -2.08,-3.571 -0.09,-0.719 -0.19,-1.429 -0.29,-2.149 -0.04,-1.11 0.19,-2.149 0.7,-3.11 0.33,-1 0.88,-1.87 1.67,-2.6 0.73,-0.79 1.6,-1.35 2.6,-1.67 0.873,-0.459 1.7946,-0.6912 2.78667,-0.70389 z m -66.3296,-3.3101 c 2.089,-0.02 4.21,0.57 5.92,1.78 1.66,1.179 2.919,2.45 3.73,4.36 0.22,0.521 0.439,1.03 0.63,1.55 0.86,2.29 1.02,4.59 -0.17,6.83 -1.15,2.17 -3.63,3.12 -5.851,3.769 -1.879,0.561 -4.009,0.651 -5.879,-0.019 -0.93,-0.33 -1.84,-0.68 -2.68,-1.19 -1.57,-0.97 -2.42,-2.121 -3.47,-3.541 -0.82,-1.399 -1.23,-2.92 -1.23,-4.539 0,-1.631 0.41,-3.14 1.23,-4.55 1.609,-2.75 4.59,-4.43 7.77,-4.45 z m -106.0004,1.9301 c 2.641,0 4.96,1.22 6.551,3.279 1.609,2.091 2.199,4.691 1.489,7.282 -0.75,2.739 -3.019,5.139 -5.83,5.829 -2.079,0.51 -3.78,0.49 -5.85,0.139 -1.75,-0.299 -3.089,-1.34 -4.43,-2.42 -1.53,-1.25 -2,-3.529 -1.75,-5.369 0.24,-1.84 1.091,-3.04 2.381,-4.131 l 0.009,-0.029 -0.48,0.37 c 0.181,-0.16 0.36,-0.33 0.541,-0.5 0.059,-0.1 0.109,-0.21 0.159,-0.32 0.74,-1.26 1.74,-2.25 2.99,-2.99 1.31,-0.76 2.71,-1.14 4.22,-1.14 z m 615.5897,-30.2897 c 1.45,-0.39 2.91,-0.39 4.36,0 1.071,0.25 2,0.74 2.791,1.469 0.801,0.522 1.45539,1.1898 1.95004,2.01871 l 0.15896,0.28229 c 1.141,1.94 1.32,4.159 0.83,6.319 -0.609,2.67 -3.069,5.101 -5.73,5.73 l -0.0895,0.0168 -0.0895,0.0243 c -1.08,0.34 -2.171,0.39 -3.25,0.14 -1.091,-0.05 -2.101,-0.37 -3.03,-0.97 -1.18,-0.76 -2.17,-1.74 -2.93,-2.92 -0.601,-0.94 -0.92,-1.95 -0.971,-3.041 -0.189,-0.719 -0.189,-1.439 0,-2.159 0.051,-1.091 0.37,-2.101 0.971,-3.04 l 1.279,-1.651 0.131,-0.109 c 1.02,-1.021 2.229,-1.721 3.619,-2.11 z m -100.6795,-52.9203 c 13.11,0 13.09,20.34 0,20.34 -13.109,0 -13.09,-20.34 0,-20.34 z m -479.9808,-2.57 c 1.381,-0.31 2.761,-0.25 4.131,0.18 0.83,0.35 1.65,0.7 2.47,1.039 l 2.1,1.622 c 0.39,0.329 0.58,0.689 0.94,1.159 l 0.45004,0.58865 c 0.6505,0.87082 0.66596,1.05495 1.37996,2.91135 0.48,1.78 0.48,3.559 0,5.341 -0.231,0.859 -0.58,1.669 -1.03,2.419 -0.41143,0.72 -0.90368,1.35184 -1.45785,1.93329 l -0.28215,0.28671 c -0.94,1.01 -2.05,1.72 -3.33,2.14 -0.81,0.471 -1.68,0.7 -2.61,0.7 -1.38,0.31 -2.761,0.25 -4.13,-0.181 -0.83,-0.349 -1.65,-0.699 -2.471,-1.039 l -2.099,-1.62 -1.62,-2.1 -0.51663,-1.23163 -0.52337,-1.23837 -0.37,-2.75 c -0.05,-1.43 0.24,-2.75 0.889,-3.99 0.25,-0.871 0.691,-1.64 1.33,-2.281 0.461,-0.779 1.08,-1.399 1.861,-1.859 0.639,-0.641 1.41,-1.08 2.28,-1.33 0.81,-0.47 1.68,-0.7 2.609,-0.7 z m 648.4199,-14.5305 c 1.091,-0.039 2.111,0.19 3.051,0.69 0.33,0.111 0.651,0.25 0.96,0.411 1.21,0.709 2.17,1.669 2.88,2.87 0.58,0.92 0.9,1.91 0.95,2.979 0.21727,0.96454 0.19735,1.9357 -0.0643,2.90145 l -0.0857,0.28955 c -0.22,0.79 -0.55,1.519 -0.989,2.189 -0.042,0.08 -0.091,0.16 -0.151,0.23 -0.67,1.061 -1.56,1.93 -2.66,2.581 -1.22,0.699 -2.53,1.059 -3.95,1.07 -2.83,0 -5.27,-1.53 -6.76,-3.881 -0.21,-0.33 -0.33,-0.75 -0.479,-1.09 -0.131,-0.32 -0.341,-0.729 -0.452,-1.099 -0.379,-1.42 -0.379,-2.84 0,-4.26 0.25,-1.041 0.721,-1.95 1.431,-2.721 0.569,-0.869 1.319,-1.559 2.25,-2.059 1.15384,-0.67385 2.39375,-1.03243 3.70949,-1.09226 z m -553.5196,-9.9493 c 1.38461,-0.37846 2.76156,-0.40758 4.13713,-0.0873 l 0.34387,0.0873 c 1.099,0.26 2.05,0.76 2.869,1.5 0.91,0.6 1.641,1.39 2.17,2.369 0.761,1.311 1.141,2.731 1.15,4.25 -0.009,1.521 -0.389,2.941 -1.15,4.25 -0.75,1.271 -1.76,2.271 -3.029,3.021 l -1.1,0.53 c -0.92,0.58 -1.9,0.89 -2.961,0.939 -0.709,0.191 -1.42,0.191 -2.119,0 -0.721,0 -1.391,-0.179 -2.01,-0.539 -0.68,-0.19 -1.261,-0.531 -1.761,-1.031 -0.87,-0.56 -1.549,-1.299 -2.049,-2.229 l -0.811,-1.911 -0.279,-2.12 0.279,-2.109 0.441,-1.04 c 0.399,-1.431 1.12,-2.67 2.169,-3.72 1.05,-1.041 2.29,-1.761 3.71,-2.16 z m 495.9208,-16.8698 c 1.459,-0.46 2.91,-0.521 4.36,-0.2 0.979,0 1.899,0.25 2.75,0.75 0.93,0.259 1.729,0.719 2.41,1.4 1.189,0.769 2.12,1.789 2.81,3.059 l 1.099,2.611 c 0.66,1.689 0.42,4.18 0.021,5.88 -0.33,1.399 -0.97,2.62 -1.92,3.659 -0.48,0.81 -1.12,1.451 -1.931,1.931 -0.92584,0.84242 -1.99368,1.44199 -3.20507,1.79796 l -0.33393,0.091 -0.12,0.03 c -0.021,0.01 -0.04,0.01 -0.06,0.01 -0.01,0.011 -0.031,0.011 -0.041,0.011 -0.479,0.119 -0.969,0.189 -1.479,0.209 -1.45,0.32 -2.901,0.261 -4.36,-0.199 -0.86,-0.361 -1.73,-0.731 -2.6,-1.1 -0.74,-0.56 -1.471,-1.131 -2.21,-1.701 -0.57,-0.739 -1.14,-1.48 -1.71,-2.209 -0.801,-1.25 -1.23,-2.61 -1.29,-4.061 -0.261,-0.969 -0.261,-1.929 0,-2.9 0,-0.989 0.25,-1.899 0.739,-2.75 0.441,-1.359 1.191,-2.529 2.261,-3.519 0.739,-0.571 1.47,-1.141 2.21,-1.701 0.87,-0.37 1.74,-0.739 2.6,-1.099 z m -637.8,-35.8004 c 1.509,-0.41 3.02,-0.41 4.53,0 l 2.029,0.85 c 1,0.54 1.791,1.269 2.391,2.2 0.76,0.819 1.269,1.79 1.529,2.9 0.591,1.52 0.521,3.93 0.051,5.48 -0.53,1.76 -1.35,3.16 -2.62,4.48 -2.11,2.18 -5.351,2.81 -8.22,2.15 -0.791,-0.18 -1.541,-0.53 -2.221,-0.96 -2.169,-1.34 -3.629,-3.68 -3.619,-6.27 0,-0.28 0.02,-0.56 0.06,-0.839 -0.14,-0.571 -0.191,-1.161 -0.17,-1.782 l 0.3,-2.259 0.019,-0.06 c 0.401,-1.431 1.121,-2.67 2.17,-3.72 0.97015,-0.96 2.10135,-1.65586 3.39437,-2.07184 l 0.32663,-0.0982 z m 754.5897,-224.5489 c -2.732,-22.397 -13.003,-46.493 -44.33,-33.341 l -2.32693,0.87172 c -7.75148,2.93464 -16.78446,6.78995 -21.50207,13.56828 -3.25,4.67 -2.151,13.72 -2.6,19.17 -2.043,17.72 -0.947,35.415 1.181,53.06 2.747,41.359 -5.949,84.211 -23.262,121.8 17.327,28.035 40.516,54.184 72.149,65.869 1.338,-31.875 7.579,-63.165 14.221,-94.269 l 0.26149,-1.35605 c 2.65608,-14.02548 3.98566,-28.42023 13.19751,-40.08495 18.738,-20.343 44.51,-8.829 56.841,-41.509 -2.59,-1.31 -1.16,-5.79 1.961,-4.929 10.815,1.919 12.572,-18.13 5.17,-22.961 -7.713,-4.703 0.052,-13.379 -3.231,-19.641 -1.83,-2.699 -5.78,-2.789 -7.571,-5.9 -4.746,-11.449 19.006,-18.786 -8.926,-31.693 -5.717,-2.033 -12.107,-0.772 -17.873,-0.795 -8.482,0.792 -15.223,6.768 -22.98,8.648 8.446,21.869 -12.865,42.928 -32.1,25.461 -10.467,9.893 -22.172,32.444 3.271,21.931 12.453,-8.311 23.174,-19.054 37.63,-24.172 l 0.30554,-0.0953 c 5.36619,-1.75821 28.8487,-13.16715 27.68446,-3.29267 -8.796,8.489 -23.303,8.389 -33.49,15.28 -14.123,6.531 -23.154,22.357 -40.061,22.138 -3.898,23.667 22.959,9.267 32.96,2.74 l 2.77291,-1.50451 c 14.10682,-7.62038 28.42585,-14.68065 44.87709,-14.77449 4.54,-0.03 4.52,6.97 0,7.03 -21.44,0.134 -38.89,13.535 -56.85,23.499 -1.768,13.815 18.463,7.767 26.14,5.729 8.049,-1.131 20.976,-9.837 28.021,-5.238 2.755,7.079 -9.37,6.552 -13.591,8.7 19.272,9.256 2.387,15.085 -2.78,0.86 l -1.5135,0.51562 c -12.905,4.33673 -44.19742,13.26358 -40.4755,-8.59562 -4.723,2.09 -10.482,3.34 -15.701,2.18 -13.015,19.25 -33.776,11.801 -3.6,-1.32 -6.8,-3.163 -9.071,-15.375 -2.539,-19.92 -23.753,-1.45 -6.118,-26.371 3.713,-34.676 -0.928,-0.938 -1.827,-1.895 -2.665,-2.864 -5.669,2.7 -11.628,4.34 -18,4.92 -6.099,0.549 -7.458,-9.83 -1.439,-10.68 6.45,-0.91 12.391,-2.63 18.07,-5.871 8.608,-3.717 11.546,12.255 20.161,12.821 4.699,0.93 7.878,-3.19 8.819,-7.309 z m -199.9793,206.0886 c 2.08,0 3.929,0.871 5.439,2.25 1.51,1.38 2.16,3.451 2.25,5.43 0.04,1.06 -0.18,2.05 -0.66,2.97 -0.31,0.95 -0.84,1.77 -1.59,2.471 -1.4,1.389 -3.47,2.25 -5.439,2.25 -2.08,0 -3.93,-0.871 -5.441,-2.25 -1.509,-1.391 -2.16,-3.451 -2.25,-5.441 -0.04,-1.05 0.181,-2.04 0.66,-2.96 0.279,-0.855 0.7362,-1.6128 1.3716,-2.25882 l 0.2184,-0.21118 c 1.401,-1.4 3.47,-2.25 5.441,-2.25 z m 63.02587,-47.42601 0.33313,0.006 c 1.76,0.011 3.391,0.45 4.91,1.33 0.66,0.51 1.32,1.01 1.971,1.521 1.209,1.219 2.039,2.649 2.5,4.3 0.47,1.72 0.47,3.45 0,5.169 -0.16,0.991 -0.53,1.951 -1.11,2.781 -0.861,1.429 -2,2.58 -3.441,3.429 -1.49,0.871 -3.1,1.3 -4.83,1.31 -1.729,-0.01 -3.34,-0.439 -4.83,-1.31 -1.44,-0.849 -2.58,-2 -3.43,-3.429 -0.59,-0.83 -0.96,-1.79 -1.12,-2.781 -0.47,-1.719 -0.47,-3.449 0,-5.169 0.42714,-1.53307 1.17331,-2.87559 2.24652,-4.03555 l 0.25348,-0.26445 c 0.88,-0.95 1.92,-1.62 3.13,-2.011 1.06333,-0.55825 2.20229,-0.84089 3.41687,-0.84561 z m -480.99737,0.53551 c 0.741,-0.2 1.471,-0.2 2.211,0 1.1,0.05 2.129,0.38 3.08,0.981 0.56,0.439 1.12,0.87 1.68,1.3 l 0.48821,0.58591 c 1.04359,1.27126 1.06999,1.48809 1.87079,3.42409 0.331,1.08 0.381,2.16 0.141,3.24 0,0.73 -0.19,1.41 -0.551,2.04 -0.199,0.69 -0.539,1.29 -1.049,1.79 -0.361,0.609 -0.84,1.099 -1.451,1.46 -0.779,0.71 -1.699,1.2 -2.759,1.45 l -2.151,0.289 c -0.279,-0.039 -0.569,-0.079 -0.849,-0.109 -0.3375,-0.0105 -0.66544,-0.0486 -0.98635,-0.11039 l -0.32465,-0.0706 -0.29568,-0.0789 c -0.39164,-0.11449 -0.77292,-0.26649 -1.14332,-0.46009 -0.7,-0.2 -1.31,-0.55 -1.831,-1.07 -0.899,-0.58 -1.619,-1.361 -2.139,-2.33 l -0.14,-0.32 c -0.19,-0.341 -0.35,-0.69 -0.471,-1.07 -0.339,-0.6 -0.509,-1.24 -0.519,-1.93 -0.1989,-0.918 -0.18558,-1.8279 0.0523,-2.73772 l 0.0876,-0.30328 0.77,-1.83 c 0.4,-0.619 0.82,-1.25 1.359,-1.76 0.3249,-0.288 1.11879,-0.90729 1.56591,-1.21781 l 0.27409,-0.18119 c 0.951,-0.601 1.981,-0.931 3.08,-0.981 z m -107.6291,-17.7093 c 4.049,4.051 2.26,11.49 -3.409,12.93 l -0.651,0.16 c -5.48,1.39 -10.42,-3.56 -9.03,-9.039 l 0.16,-0.641 c 1.44,-5.67 8.88,-7.46 12.93,-3.41 z m 673.4397,-42.8403 c -0.04,-0.56 0.68,-0.759 1.04,-0.429 4.82,4.32 7.89,9.5 13.74,12.849 5.881,3.361 11.94,3.09 18.07,5.26 2.08,0.74 2.09,3.521 0,4.25 -11.6,4.051 -31.97,-9.68 -32.85,-21.93 z m -545.0501,-0.8795 c 1.291,-0.4 2.591,-0.46 3.881,-0.17 0.88,0 1.699,0.22 2.449,0.659 0.83,0.231 1.541,0.651 2.15,1.25 0.731,0.431 1.311,1.021 1.75,1.75 0.861,0.941 1.441,2.041 1.74,3.301 l 0.34,2.59 -0.34,2.59 c -0.33,0.769 -0.66,1.55 -0.98,2.32 l -0.89353,1.21069 c -0.7241,0.96575 -0.84004,0.97598 -2.59647,2.27931 -1.119,0.709 -2.329,1.1 -3.619,1.15 -0.861,0.24 -1.721,0.24 -2.59,0 -0.87,0 -1.691,-0.22 -2.45,-0.66 -0.821,-0.23 -1.54,-0.65 -2.151,-1.25 -1.059,-0.69 -1.889,-1.6 -2.5,-2.73 -0.33,-0.77 -0.659,-1.551 -0.979,-2.32 l -0.351,-2.59 0.351,-2.59 0.019,-0.08 c 0.46,-1.62 1.281,-3.03 2.46,-4.221 l 1.941,-1.5 c 0.759,-0.489 1.549,-0.739 2.369,-0.989 z m 466.8106,1.9402 c 2.769,-0.761 5.81,0.039 7.839,2.07 2.031,2.03 2.831,5.059 2.071,7.83 -0.75,2.7 -2.92,4.889 -5.63,5.62 -0.81,0.219 -1.63,0.34 -2.46,0.3 -1.391,-0.01 -2.69,-0.361 -3.9,-1.06 l -1.56,-1.211 c -0.761,-0.699 -1.29,-1.529 -1.601,-2.489 -0.49,-0.92 -0.71,-1.91 -0.67,-2.98 l -0.009,-0.19 c -0.031,-0.38 0.019,-0.761 0.14,-1.13 0,-0.391 0.06,-0.771 0.16,-1.141 0.73,-2.699 2.93,-4.88 5.62,-5.619 z m -597.1602,-27.0795 c 0.89,-0.031 1.72,0.149 2.49,0.559 0.81,0.26 1.5,0.7 2.08,1.34 0.64,0.58 1.08,1.28 1.34,2.08 0.41,0.771 0.59,1.601 0.56,2.49 0,1.17 -0.3,2.26 -0.88,3.26 -0.34,0.441 -0.68,0.88 -1.02,1.31 -0.8,0.81 -1.75,1.36 -2.85,1.67 l -0.64,0.22 c -0.94,0.34 -1.86,0.36 -2.84,0.231 -1.03,-0.141 -1.981,-0.421 -2.82,-1.061 -0.821,-0.48 -1.47,-1.13 -1.95,-1.95 l -0.55,-1.3 c -0.12,-0.439 -0.17,-1.099 -0.2,-1.56 0,-0.07 0,-0.129 -0.01,-0.2 0,-0.39 0.12,-1.339 0.219,-1.73 0.221,-0.82 0.67,-1.6 1.181,-2.26 0.44,-0.689 1.04,-1.23 1.78,-1.63 l 0.0659,-0.05 0.0741,-0.05 c 0.229,-0.16 0.47,-0.32 0.71,-0.491 1,-0.579 2.09,-0.878 3.26,-0.878 z m 516.3904,-7.101 c 1.6,0 3.09,0.41 4.47,1.21 0.049,0.019 0.099,0.04 0.139,0.061 1.321,0.779 2.37,1.83 3.151,3.149 0.8,1.37 1.199,2.851 1.199,4.431 0,1.589 -0.399,3.059 -1.199,4.429 -0.781,1.321 -1.83,2.37 -3.151,3.151 -0.04,0.029 -0.09,0.048 -0.139,0.069 -1.38,0.8 -2.87,1.2 -4.47,1.21 -1.59,-0.01 -3.08,-0.41 -4.461,-1.21 -2.699,-1.58 -4.39,-4.53 -4.39,-7.649 0,-3.122 1.691,-6.071 4.39,-7.641 1.381,-0.8 2.871,-1.21 4.461,-1.21 z m -415.28231,-11.56342 0.27231,-0.006 c 1.06,-0.041 2.049,0.179 2.959,0.67 0.95,0.309 1.78,0.84 2.481,1.59 l 1.46,1.219 0.4237,0.34326 c 0.0699,0.0583 0.13863,0.11741 0.2053,0.17774 0.981,0.989 1.651,2.149 2.031,3.489 0.12,0.771 0.219,1.53 0.3,2.3 0.219,2 -0.96,4.051 -2.26,5.471 -0.7,0.75 -1.531,1.279 -2.49,1.599 -0.92,0.481 -1.92,0.7 -2.981,0.66 -2.17,-0.189 -4.229,-0.65 -5.789,-2.33 -0.181,-0.2 -0.351,-0.41 -0.53,-0.62 l -1.25,-1.44 c -0.95,-0.959 -1.611,-2.09 -1.97,-3.39 -0.101,-0.69 -0.19,-1.37 -0.28,-2.05 -0.091,-2.05 0.909,-3.97 2.25,-5.429 1.23809,-1.35238 3.33786,-2.17869 5.16769,-2.25432 z m -50.47749,-21.05668 c 10.399,0 10.379,16.131 0,16.131 -10.391,0 -10.371,-16.131 0,-16.131 z m 522.88078,-22.61544 0.32792,0.006 c 1.721,0.01 3.33,0.44 4.821,1.31 l 1.939,1.49 c 1.181,1.2 2,2.6 2.461,4.22 0.109,0.849 0.22,1.7 0.34,2.54 0.05,1.32 -0.231,2.55 -0.83,3.69 -0.38,1.18 -1.04,2.209 -1.971,3.08 -0.869,0.93 -1.89,1.59 -3.079,1.97 -1.14,0.6 -2.37,0.88 -3.681,0.83 -1.729,-0.011 -3.34,-0.44 -4.83,-1.31 -0.649,-0.5 -1.289,-1 -1.939,-1.49 -1.08923,-1.10769 -1.87172,-2.3858 -2.33959,-3.85005 l -0.11041,-0.36995 -0.35,-2.55 c -0.05,-1.31 0.229,-2.54 0.829,-3.68 0.381,-1.19 1.041,-2.21 1.971,-3.08 0.87,-0.931 1.9,-1.591 3.08,-1.97 1.04408,-0.55 2.16547,-0.83195 3.36108,-0.83584 z m -46.84178,-30.19386 c 0.93,-0.031 1.79,0.159 2.601,0.58 0.829,0.269 1.549,0.739 2.159,1.389 1.291,1.031 2.08,3.09 2.08,4.76 0,1.67 -0.789,3.731 -2.08,4.76 -0.84,0.83 -1.83,1.41 -2.97,1.73 l -1.79,0.241 c -1.74,0.08 -3.51,-0.83 -4.75,-1.971 -0.25,-0.229 -0.49,-0.459 -0.74,-0.68 -1.129,-1.04 -1.619,-2.59 -1.69,-4.08 -0.03,-0.789 0.141,-1.529 0.5,-2.219 0.231,-0.72 0.63,-1.331 1.19,-1.861 0.25,-0.22 0.49,-0.449 0.74,-0.68 1.351,-1.25 2.93,-1.879 4.75,-1.969 z m 296.7803,-53.7903 c 6.571,-8.004 2.745,-13.701 -7.13,-11.721 -17.01,2.301 -33.019,13.051 -48,20.76 -16.351,8.636 -33.202,15.759 -49.881,23.874 6.882,4.224 12,10.839 15.91,18.387 7.805,-5.927 17.782,-8.761 27.521,-9.13 17.669,-16.922 46.93,-20.797 61.58,-42.17 z m -776.3189,26.5708 c 1.78173,0.008 3.45109,0.42709 5.01539,1.2634 l 0.33361,0.1856 2.14,1.66 c 1.04,0.96 1.77,2.099 2.2,3.41 0.66,1.26 0.96,2.63 0.91,4.09 0.05,1.46 -0.25,2.82 -0.91,4.08 -0.43,1.32 -1.16,2.45 -2.2,3.41 -0.59,0.77 -1.35,1.37 -2.26,1.811 -0.851,0.349 -1.69,0.709 -2.54,1.069 -0.95,0.3 -2.05,0.34 -3.08,0.39 -1.87,-0.01 -3.609,-0.48 -5.231,-1.42 l -2.099,-1.619 c -1.01,-0.941 -1.731,-2.051 -2.151,-3.341 -0.59492,-1.13575 -0.89651,-2.34881 -0.89651,-3.64456 l 0.008,-0.35544 c 0,-0.079 0,-0.17 0.011,-0.26 0.119,-0.94 0.25,-1.88 0.378,-2.819 0.331,-1.381 0.961,-2.591 1.901,-3.611 0.24,-0.48 0.56,-0.87 0.971,-1.19 1.319,-1.32 2.878,-2.22 4.679,-2.731 0.94,-0.119 1.88,-0.25 2.821,-0.378 z m 464.2985,-26.491 c 1.35,0 2.6,0.34 3.761,1.01 0.509,0.391 1.009,0.78 1.509,1.17 0.931,0.93 1.571,2.03 1.92,3.29 l 0.271,1.979 c 0.029,1.031 -0.181,1.981 -0.651,2.872 -0.299,0.919 -0.81,1.719 -1.54,2.399 -0.67,0.729 -1.469,1.24 -2.399,1.54 -0.881,0.47 -1.841,0.68 -2.871,0.641 -1.34,0 -2.6,-0.341 -3.76,-1.021 -0.5,-0.38 -1.01,-0.77 -1.51,-1.16 -0.84334,-0.8525 -1.45139,-1.84785 -1.81647,-2.97834 l -0.0935,-0.31166 -0.269,-1.981 c -0.04,-1.029 0.17,-1.979 0.639,-2.869 0.3,-0.929 0.821,-1.73 1.54,-2.4 0.68,-0.731 1.481,-1.24 2.401,-1.54 0.8001,-0.423 1.65771,-0.6354 2.56481,-0.64449 z m -405.84853,-10.83544 0.34883,0.005 c 1.99,0.01 3.84,0.51 5.56,1.51 0.74,0.571 1.481,1.141 2.22,1.721 1.37,1.369 2.31,2.989 2.841,4.859 l 0.389,2.92 c 0.06,1.52 -0.26,2.93 -0.95,4.24 -0.439,1.371 -1.2,2.55 -2.28,3.55 -0.989,1.071 -2.17,1.83 -3.54,2.271 -1.31,0.689 -2.72,1.01 -4.24,0.949 -1.99,0 -3.84,-0.5 -5.56,-1.5 -0.739,-0.57 -1.479,-1.149 -2.229,-1.72 -1.361,-1.38 -2.301,-3 -2.831,-4.86 l -0.39,-2.93 c -0.06,-1.51 0.26,-2.929 0.95,-4.24 0.44,-1.359 1.2,-2.55 2.271,-3.539 1,-1.08 2.179,-1.841 3.549,-2.281 1.20923,-0.63692 2.50366,-0.95006 3.89117,-0.95514 z m 370.27943,-27.49406 c 0.91,-0.241 1.819,-0.241 2.729,0 1.36,0.059 2.631,0.469 3.811,1.219 l 2.07,1.601 c 0.029,0.029 0.06,0.06 0.09,0.1 1.25,1.259 2.119,2.75 2.599,4.46 l 0.361,2.69 c 0.05,1.39 -0.24,2.689 -0.87,3.89 -0.37584,1.15408 -0.99619,2.15776 -1.85105,3.02565 l -0.32895,0.32335 c -0.931,1 -2.021,1.71 -3.291,2.12 -0.799,0.471 -1.67,0.701 -2.59,0.701 -1.359,0.309 -2.729,0.25 -4.09,-0.181 -0.809,-0.35 -1.63,-0.69 -2.449,-1.029 l -0.261,-0.151 c -3.09,-1.689 -5,-5.229 -5,-8.699 0,-3.471 1.91,-7.021 5,-8.711 0.091,-0.039 0.17,-0.09 0.261,-0.14 1.18,-0.75 2.449,-1.16 3.81,-1.219 z"
           id="Ink"
           fill="#000000" />
      </g>
    </g>
    <g
       id="Head"
       transform="matrix(0.9978903,0,0,1,372,180)">
      <g
         id="Head/Senior"
         stroke="none"
         stroke-width="1"
         fill="none"
         fill-rule="evenodd">
        <path
           d="M 398.85132,192.08377 C 363.67032,99.526773 300.253,31.7598 193.341,74.3238 c -3.067,-2.088 -7.069,-2.648 -10.904,-0.203 -58.239,36.569 -100.178,95.198 -118.353,161.309 -11.061,2.103 -21.809,5.771 -31.409,11.786 -20.864,13.073 -34.901,33.875 -48.059,54.135 -3.957,6.091 -0.293,16.175 7.143,17.558 3.23,0.602 6.431,0.96 9.614,1.054 -0.775,2.813 -1.795,5.531 -3.094,8.024 -4.703,9.024 4.182,18.605 12.509,16.138 0.924,0.489 1.892,0.891 2.895,1.193 0.114,5.112 2.741,11.955 7.94,12.988 8.408,1.804 19.582,-4.631 17.598,-14.035 2.54,0.447 5.071,0.503 7.538,0.193 0.276,4.897 0.19,10.007 0.866,14.524 2.21,21.288 23.48,35.588 43.764,29.112 1.244,6.633 2.705,15.953 9.238,19.551 7.638,21.427 20.827,45.88 42.429,55.643 -1.923,4.927 -0.88,10.921 4.912,14.218 39.541,22.543 87.001,30.171 131.705,21.79 17.866,-1.064 35.273,-5.101 51.981,-13.702 12.184,-6.272 23.385,-14.237 34.319,-22.448 10.94,-8.214 22.637,-16.212 31.369,-26.877 9.484,-11.583 13.899,-25.211 16.764,-39.716 13.129,-65.839 8.59432,-130.48586 -15.25468,-193.20386 -29.52133,-77.63509 29.51071,66.36797 0,-11.27117 z"
           id="Skin-2"
           fill="#ae5d29" />
        <path
           d="m 32.571431,243.43001 c 32.838988,-19.37049 74.718759,-14.35684 94.448099,15.6486 3.40575,5.17995 5.75748,10.87828 7.41853,17.47461 l 0.26808,1.09671 0.26759,1.1536 c 0.86059,3.81375 1.42415,7.40272 2.18874,13.50466 l 0.84721,6.92389 0.24189,1.88647 c 0.82185,6.26694 1.54289,10.22518 2.66626,14.26027 l 0.22259,0.78259 1.29758,4.46887 -4.89819,1.80987 c -9.38587,3.38995 -11.35079,3.69258 -16.7669,0.86172 -4.22925,-2.21051 -6.43686,-5.18653 -9.37495,-11.21779 l -0.42499,-0.88264 -0.93731,-1.96752 -0.50841,-1.03664 c -1.91435,-3.82215 -3.44728,-7.89773 -5.61276,-9.3776 -2.94143,-2.01016 -12.212897,-2.81054 -18.660736,-2.01817 l -0.336084,0.0425 -0.277939,0.058 -0.477453,0.10732 c -10.842856,2.56289 -20.725581,11.31595 -27.244017,20.56526 -5.248546,7.44796 -8.264598,16.82971 -8.634451,26.57856 l -0.02073,0.65044 -0.128437,4.97582 -10.510599,-0.22381 0.102958,-1.93661 -0.157486,0.34414 c -3.311235,6.9812 -11.631051,11.62994 -18.59186,7.00867 l -0.248011,-0.16899 -0.252653,-0.18127 c -5.876388,-4.3249 -6.584023,-13.08127 -1.760879,-18.39871 l 0.223044,-0.2393 0.216845,-0.22054 -0.04434,-0.0206 -0.04998,-0.0168 -0.03098,-0.003 c -1.643057,0.30202 -3.086257,1.14474 -5.03871,2.93836 l -0.502318,0.47044 -1.008401,1.09116 -1.0434925,1.11372 -0.4483699,0.46019 c -0.2865385,0.28904 -0.5495497,0.54339 -0.7963674,0.76812 -0.3334931,0.30365 -0.6421731,0.55912 -0.9782346,0.79174 -0.3105955,0.21499 -0.6314344,0.40326 -1.0194419,0.57162 -0.9576424,0.41551 -1.9812619,0.61234 -3.2912328,0.29022 -1.7967252,-0.44051 -2.80943658,-1.52652 -3.42249186,-2.80597 -0.23809041,-0.4969 -0.37421239,-0.95432 -0.47068924,-1.43716 -0.100744,-0.5042 -0.1506638,-1.01905 -0.1765688,-1.61298 -0.01693,-0.38815 -0.022937,-0.81201 -0.019578,-1.27554 l 0.011869,-0.72556 0.024752,-0.78807 0.026539,-0.62873 0.1190238,-2.33246 c 0.42557174,-7.65671 2.4380711,-15.17694 5.8835639,-22.27551 L 5.229871,309.62738 5.36,309.37 4.9998285,309.85293 c -2.3497584,3.09665 -4.61889706,5.24343 -7.4507038,6.66094 l -0.3897035,0.1888 -0.3810142,0.17285 c -3.9291634,1.72574 -7.886503,1.0561 -10.277254,-2.14369 -1.653942,-2.21365 -2.141913,-5.12761 -1.803097,-8.19301 0.657932,-5.94714 3.009923,-11.39228 7.6150797,-19.3378 l 0.6453089,-1.1053 2.5279429,-4.28689 C 5.2275212,265.415 17.74898,252.17181 32.571431,243.43001 Z"
           id="hair"
           fill="#e8e1e1" />
        <path
           d="m 228.769,56.2876 c 18.005,-1.271 36.338,1.764 53.484,7.193 27.346,8.656 52.46,23.932 73.093,43.819 21.265,20.495 36.992,45.764 46.555,73.673 11.532,33.658 13.258,69.596 16.504,104.731 1.6397,17.7517 4.34164,35.23265 7.15071,52.81238 L 426,341.2926 c 2.744,17.128 4.288,34.451 0.497,51.552 -6.302,28.422 -25.194,52.548 -47.619,70.375 -46.067,36.622 -117.781,58.949 -171.418,25.25 -8.298,-5.214 -0.435,-18.547 7.666,-13.114 5.701,3.825 11.741,7.178 18.218,9.493 27.062,9.671 56.783,6.226 83.529,-2.77 26.357,-8.865 51.648,-23.844 71.096,-43.832 20.428,-20.995 31.749,-46.928 30.113,-76.436 -0.975,-17.557 -4.975,-34.789 -7.195,-52.203 -1.96653,-15.42333 -3.14558,-30.93029 -4.50466,-46.416 l -0.49814,-5.57009 c -2.88148,-31.55068 -7.01999,-63.96679 -21.3752,-92.60591 -12.075,-24.094 -29.756,-45.529 -51.016,-62.083 -22.258,-17.331 -48.843,-29.452 -76.737,-33.973 -32.802,-5.316 -64.202,4.351 -91.565,22.347 -24.268,15.96 -45.132,37.288 -61.13,61.488 -7.758,11.734 -14.367,24.265 -20.074,37.116 -5.378,12.108 -9.086,24.798 -13.411,37.278 3.559,-0.106 7.177,0.031 10.851,0.437 18.844,2.088 36.401,11.854 47.578,27.253 13.659,18.817 9.967,41.915 15.302,63.315 0.413,1.661 -0.289,3.287 -1.712,4.206 -8.089,5.228 -18.915,5.402 -26.744,-0.485 -6.795,-5.109 -9.985,-14.346 -7.234,-22.417 0.359,-1.052 1.891,-0.866 1.934,0.262 0.517,13.735 13.26,24.312 25.751,17.776 -5.358,-18.453 -2.538,-39.062 -13.497,-55.73 -19.397,-29.5 -59.537,-30.719 -87.73,-14.089 -14.837517,8.75068 -26.5817781,21.9087 -35.32691621,36.62632 l -2.51943399,4.27251 c -3.3521585,5.70865 -6.9021748,12.16667 -7.5976498,18.45317 -0.401,3.628 0.938,7.037 5.1,5.209 3.367,-1.478 5.974,-4.927 7.974,-7.892 3.4109247,-5.05703 11.249082,-0.68809 8.431668,4.69705 L 11.041,309.2586 c -4.1004,7.26434 -6.6248653,15.26947 -7.0884556,23.61019 l -0.11781,2.30969 c -0.077301,1.68335 -0.1328594,4.07581 0.2232656,4.16312 0.427,0.105 3.394,-3.32 3.888,-3.794 2.38,-2.286 4.831,-4.154 8.144,-4.763 4.355147,-0.79821 8.749234,4.59024 4.968761,8.12282 L 20.901,339.0496 c -3.374,2.933 -3.224,8.782 0.503,11.525 5.260061,3.87121 11.735917,-2.44743 12.49935,-7.64985 L 33.929,342.7326 c 0.675,-5.621 8.482,-5.82 8.906,0 0.921,12.63 -14.116,23.216 -25.557,16.844 -4.524,-2.518 -7.4,-7.129 -8.301,-12.071 -1.444,0.763 -3.002,1.292 -4.649,1.438 -5.362,0.475 -9.174,-3.295 -10.041,-8.355 -1.01,-5.895 -0.411,-12.207 1.142,-18.329 -2.912,0.702 -5.975,0.434 -9.054,-1.343 -9.315,-5.375 -6.64,-17.331 -3.123,-25.403 15.015,-34.454 46.123,-65.717 84.663,-68.199 0.211,-6.079 1.035,-11.826 2.383,-17.913 13.182,-59.539 55.886,-114.671 111.481,-140.439 14.856,-6.886 30.611,-11.518 46.99,-12.675 z m -145.7936,237.8358 0.52835,-0.11907 c 6.006308,-1.29409 21.81273,-2.81433 19.90765,7.29307 -0.09,0.475 -0.781,0.417 -0.904,0 -1.866,-6.355 -14.542,-1.273 -18.243,0.257 -5.102,2.108 -10.135,5.218 -14.301,8.833 -9.121,7.916 -15.235,19.072 -16.165,31.188 -0.922,12.019 2.565,25.001 11.235,33.695 4.25,4.261 9.675,7.154 15.769,7.367 5.475,0.19 11.524,-4.072 16.576,-1.576 0.996,0.492 1.785,1.843 1.695,2.955 -0.17,2.105 -1.112,3.744 -2.514,5.015 8.458,15.413 15.38,31.727 26.169,45.743 5.414,7.032 11.549,13.544 18.496,19.086 3.302,2.635 6.892,4.949 10.594,6.982 4.338,2.385 8.092,3.877 11.188,7.917 2.64,3.445 -0.001,10.106 -4.353,10.7 -10.249,1.396 -20.209,-6.89 -27.733,-13.097 -7.517,-6.202 -14.014,-13.852 -19.383,-21.969 -10.31,-15.587 -17.363,-33.975 -20.183,-52.578 -3.274,1.038 -6.96,1.355 -9.733,1.361 -7.378,0.017 -14.423,-2.637 -20.221,-7.122 -21.226,-16.417 -23.585,-50.124 -8.606,-71.38 7.168,-10.171 18.06,-17.686 30.181,-20.551 z m 0.133,39.094 c 4.922,-0.432 9.84,0.345 14.466,2.023 l 1.907012,0.69132 c 4.028458,1.47293 8.316508,3.20485 11.225988,6.22468 4.445,4.616 0.019,12.614 -6.313,10.845 -7.001,-1.956 -12.691,-7.852 -19.69,-10.325 -6.256,-2.21 -13.342,-1.897 -18.894,1.909 -0.733,0.503 -1.697,-0.489 -1.218,-1.219 4.247,-6.467 10.952,-9.486 18.516,-10.149 z"
           id="Ink-2"
           fill="#000000" />
      </g>
    </g>
    <g
       id="Face"
       transform="translate(531,366)"
       fill="#000000">
      <g
         id="Face/Concerned"
         stroke="none"
         stroke-width="1"
         fill="none"
         fill-rule="evenodd">
        <path
           d="m 105.81656,231.14725 c 4.57338,-14.10007 54.18701,-34.85143 62.55127,-28.81743 5.57617,4.02266 4.76816,20.40312 -2.42403,49.14139 -30.84606,3.19841 -47.37241,3.99801 -49.57905,2.39881 -3.30995,-2.39881 -15.12158,-8.62269 -10.54819,-22.72277 z"
           id="teeth"
           fill="#ffffff" />
        <path
           d="m 190.3208,203.4169 c 0.29928,0.32701 -0.36,0.767 -0.689,0.529 -3.809,-2.761 -9.80853,-1.19378 -13.486,0.056 -0.89593,28.87649 -0.84827,43.65685 0.143,44.34107 1.4869,1.02634 22.444,0.41684 22.444,2.98693 0,8.40101 -12.603,11.555 -19.444,11.055 -10.771,-0.785 -21.87232,-2.321 -32.62832,-1.077 -10.756,1.244 -33.60568,8.10796 -45.30168,-1.378 -13.950195,-11.31421 -12.064,-29.908 -0.457,-42.047 7.31669,-7.65135 18.08347,-12.24193 28.69931,-15.64315 15.53473,-4.97719 52.14701,-8.18963 60.71969,1.17715 z m -28.65278,31.79997 c -5.63334,2.1927 -33.6374,11.4415 -40.29117,13.1261 7.77667,-0.55806 34.33036,-1.1747 40.29117,-4.05957 0.66914,-2.70078 1.09571,-9.49341 0,-9.06653 z m 4.27578,-30.02597 c -15.24307,2.47549 -48.16,13.63946 -52.889,19.582 7.186,-1.13 47.27713,-5.94254 51.8,-5.94254 0.657,-3.498 0.22162,-9.63084 1.089,-13.63946 z m 4.8705,-67.82375 c 7.55138,4.59005 19.05736,15.29314 10.93382,26.67242 -9.56219,10.03349 -23.32959,-1.47059 -30.11392,-6.67344 -6.29075,-4.03223 -13.35876,6.33838 -7.5222,11.04669 49.02374,36.29524 68.91861,-29.84543 30.52169,-36.44243 -4.22764,-0.72697 -5.7978,3.97678 -3.81939,5.39676 z M 187.5567,70.39 c 4.433,-0.0363 7.022,2.8407 10.346,5.4027 3.423,2.639 7.55,4.744 11.551,6.356 4.172,1.679 8.632,3.012 13.024,3.963 4.553,0.984 8.742,0.523 13.262,1.356 11.982,2.209 9.146,22.188 -2.869,21.2 -10.814,-0.889 -22.423,-7.533 -30.624,-14.422 -3.91906,-3.291294 -7.22691,-7.063585 -10.44628,-11.0059 l -0.60272,-0.7411 c -2.858,-3.526 -5.527,-7.135 -4.093,-11.764 0.062,-0.2 0.24,-0.342 0.452,-0.3447 z m -99.940663,58.30859 c 0.014,-6.37678 3.72801,-20.93637 12.908123,-20.93637 5.73497,0 9.21684,9.9088 9.81961,20.12336 l 0.0209,0.41647 c 0.26618,6.35052 -1.47654,20.23167 -9.84054,20.23167 -8.452523,0 -12.819926,-13.14717 -12.906833,-19.60984 z m 135.157873,0 c -0.014,-6.37678 -3.72801,-20.93637 -12.90812,-20.93637 -5.59161,0 -9.04134,9.41955 -9.76902,19.35799 l -0.0506,0.76537 c -0.3621,6.13611 1.26765,20.64814 9.81961,20.64814 8.45252,0 12.81992,-13.14717 12.90683,-19.60984 z M 117.658,71.3417 c 5.725,-2.471 12.286,-1.769 15.733,4.125 3.263,5.578 1.042,12.301 -4.126,15.733 -5.07504,3.371143 -11.88796,5.204319 -17.72374,7.132306 L 110.897,98.5467 c -5.656,1.903 -11.316,3.459 -17.158,4.675 -5.459091,1.13636 -10.959504,1.97769 -16.491473,2.64869 L 75.587,106.0667 c -4.315,0.498 -10.334,2.175 -14.218,-0.281 -0.345,-0.217 -0.478,-0.666 -0.27,-1.026 2.261,-3.915 8.263,-5.475 12.114,-7.458 4.945,-2.548 9.819,-5.261 14.649,-8.02 4.883,-2.79 9.753,-5.626 14.584,-8.506 5.018,-2.991 9.876,-7.132 15.212,-9.434 z"
           id="path1"
           fill="#000000" />
      </g>
    </g>
    <g
       id="Beard"
       transform="translate(494.99993,517.99966)"
       fill="#000000">
      <g
         id="Beard/Senior Mustache"
         stroke="none"
         stroke-width="1"
         fill="none"
         fill-rule="evenodd">
        <path
           d="m 245.36528,32.822685 c -14.02631,-2.365455 -28.59864,1.130516 -42.12249,4.855574 -21.48317,-14.105353 -49.32001,0.132125 -64.7058,17.75476 -5.26569,4.336667 -16.32384,10.096868 -10.49795,18.37063 -2.20839,5.84864 -2.79898,8.600878 1.77178,1.763436 25.86854,2.978128 53.62333,-2.647817 79.22443,-7.954107 8.71706,2.931246 16.41502,9.78467 25.9972,7.43733 9.06047,1.92646 18.86855,3.725058 27.0477,-2.087354 6.22806,-0.252528 20.08418,10.93117 19.86132,-2.074567 C 280.0147,58.421803 255.29669,37.678259 245.36528,32.822685 Z"
           id="Background"
           fill="#e8e1e1" />
        <path
           d="m 255.8834,72.8453 c -15.228,1.685 -30.671,-0.791 -43.422,-9.633 -1.331,-0.923 -2.643,-0.913 -3.713,-0.372 -1.301,-0.144 -2.632,0.375 -3.404,1.861 -3.202,6.167 -13.815,4.793 -19.649,4.919 -19.083,0.368 -38.832,-0.685 -57.197,5.084 17.564,-34.334 41.855,-49.156 79.442,-35.677 -3.394,2.733 13.542,-3.665 15.028,-3.787 26.006,-6.516 47.461,15.296 57.942,36.91 -7.929,-1.887 -16.814,-0.214 -25.027,0.695 m 36.324,5.843 c -11.467,-25.829 -34.077,-54.229 -65.614,-49.765 -6.475,0.953 -13.286,5.376 -19.805,4.578 -18.875,-6.971 -34.455,-10.513 -53.358,0.759 -8.02,0.599 -53.152,56.476 -31.705,51.914 26.326,-15.118 72.1,-0.878 88.448,-14.4 32.095,21.069 58.191,-1.818 76.279,11.352 3.145,2.885 7.556,-0.708 5.755,-4.438"
           id="path2"
           fill="#000000" />
      </g>
    </g>
    <g
       id="Mask"
       transform="translate(400,480)"
       fill="#000000">
      <g
         id="Mask/None"
         stroke="none"
         stroke-width="1"
         fill="none"
         fill-rule="evenodd"
         fill-opacity="0" />
    </g>
    <g
       id="Accessories"
       transform="translate(419,421)"
       fill="#000000">
      <g
         id="Accessories/Glasses 4"
         stroke="none"
         stroke-width="1"
         fill="none"
         fill-rule="evenodd">
        <path
           d="m 370.26723,94.081219 c -9.17971,11.468951 -45.11634,24.199421 -64.24277,10.379701 -19.12643,-13.819715 -26.68498,-23.450684 -29.24157,-40.719092 -0.2726,-1.841303 -3.60185,-3.066035 -5.00932,-1.758728 -7.88103,7.3202 -12.98263,16.643613 -18.03694,25.99088 -5.70045,10.542211 -11.31509,21.14913 -21.67434,28.28571 -18.34839,9.83532 -51.54225,11.23605 -61.34901,6.89763 -18.786,-8.31076 -33.64657,-26.084788 -37.02589,-50.544514 -2.29156,-7.233195 -4.44104,-11.610793 -6.44844,-13.132794 -2.8544,-2.164191 -18.60701,-4.092184 -20.3327,-4.412381 C 75.807136,49.297279 36.474906,45.619033 8.7760072,65.920022 5.0274955,68.185883 -7.805392,76.698518 -7.9979056,74.60536 -8.129286,66.406356 1.1622036,47.848771 22.293908,39.018566 48.42574,28.098982 87.270787,27.460364 109.77467,29.870192 c 1.13178,0.121197 4.98992,-0.826831 5.26252,-0.944853 34.09346,-14.760898 73.3223,-10.84061 109.8023,-4.63654 5.22737,1.014399 52.02401,12.601702 70.6384,5.581393 30.77618,-12.564076 63.58926,-21.6663314 96.82396,-18.085269 0.2779,0.02994 4.47347,25.496297 1.20514,27.233643 -2.60093,1.382575 -7.02675,4.925336 -8.599,6.864198 -1.40554,1.73327 -2.29127,3.888101 -2.21271,6.873344 0.63204,17.269182 -4.29536,31.164293 -12.42805,41.325111 z M 243.72836,78.67208 c 3.9024,-5.645046 5.13386,-18.326027 3.50004,-27.577216 -0.82725,-4.684167 -2.43354,-8.412668 -4.44933,-10.268667 -1.33991,-1.233693 -2.86872,-1.814459 -4.53598,-1.728262 -0.91412,0.04726 -1.90461,0.307247 -2.95258,0.872638 -14.19329,-7.677617 -31.3877,-10.441964 -47.68641,-9.646957 -12.9748,-0.0024 -22.23203,3.060093 -28.5097,7.827319 -7.55369,5.736224 -10.95686,13.982362 -11.15377,22.92527 -0.23364,10.611653 4.12554,22.220805 11.27632,31.406681 6.84434,8.792214 16.20709,15.310354 26.36437,16.814224 11.53061,2.28891 23.28094,0.0745 33.4973,-5.34234 10.47822,-5.555666 19.32932,-14.478252 24.64974,-25.28269 z m 113.77908,5.98646 c 6.57659,-7.771595 10.94961,-17.881893 11.61526,-27.899221 0.60579,-9.116488 -1.83539,-18.146838 -8.58509,-25.609597 -6.11909,-5.252221 -16.93188,-5.339245 -28.30644,-2.414436 -14.708,3.781957 -29.92371,12.233772 -34.996,17.692276 -1.19479,0.626455 -2.30376,1.717362 -3.26986,4.057364 l -0.007,0.834209 c -1.53656,7.086549 -0.62484,14.277886 2.03314,20.911926 2.88726,7.206272 7.83912,13.748117 13.87695,18.739499 8.02174,6.607918 16.3955,8.630773 24.23311,7.563699 8.87781,-1.208695 17.13318,-6.463288 23.40584,-13.875719 z"
           id="Background-2"
           fill="#ffffff" />
        <path
           d="m 294.4196,27.0634 c 31.165,-12.724 64.478,-21.895 98.204,-18.261 2.789,-1.061 6.251,-0.167 7.487,3.777 12.013,36.595 -14.776,26.418 -14.416,40.098 2.808,76.703 -100.287,89.802 -111.879,11.504 l -0.213,0.126 v 0 c -16.678,15.563 -20.191,40.888 -39.838,54.423 -39.633,28.985 -95.815,6.02 -103.031,-45.58 l -0.15739,-0.698068 C 128.15396,61.921616 125.2579,59.310528 113.3116,59.3624 l -1.88729,-0.374966 C 80.385228,52.872048 39.05216,47.3766 10.4636,68.4074 c -6.218,3.616 -6.51,12.912 -11.764,16.951 -5.756,1.118 -9.302,-5.805 -9.692,-10.596 -0.912,-47.763 84.558,-51.199 122.836,-47.1 0.731,-0.757 2.292,-0.663 2.818,0.28 34.618,-14.988 73.619,-12.914 110.685,-6.611 22.961,4.445 45.639,14.57 69.073,5.732 z m 95.101,-9.443 c -18.701,-0.935 -35.999,0.088 -54.355,4.583 -9.674,2.334 -17.098,5.285 -26.358,8.834 -57.758,25.589 -64.42,-19.896 -193.888,-2.066 1.675,7.174 1.983,14.277 2.073,21.017 26.43498,-1.06524 20.21107,24.176384 30.1149,41.906071 l 0.3051,0.534929 c 14.434,25.868 48.494,37.934 75.969,20.776 22.922,-13.36 25.158,-47.245 47.98,-60.693 19.783,-0.778 11.881,25.922 22.647,36.896 15.154,20.221 47.365,23.048 66.367,4.028 8.915,-9.152 13.653,-20.772 13.915,-33.256 0.497,-7.976 -0.871,-16.081 5.159,-21.691 4.227,-4.294 11.737,-2.861 12.599,-9.352 0.548,-3.838 -1.048,-8.001 -2.528,-11.517 z M 186.28,28.0747 c 18.577,-0.915 38.233,2.311 54.184,11.422 11.807,-9.396 14.7,27.946 6.863,38.747 -11.291,23.102 -37.578,38.291 -62.889,33.247 -39.486,-5.722 -66.998,-83.485 1.842,-83.416 z m 53.05,13.926 -1.01037,-0.147663 C 221.20724,39.24197 174.61224,27.14534 156.641,46.2377 c -17.441,31.669 26.806,84.863 72.851,42.493 12.815,-13.047 17.782,-28.868 9.838,-46.73 z m 54.2295,4.0475 c 8.862,-10.493 54.027,-31.747 69.77,-18.108 28.733,32.201 -16.834,97.334 -55,65.601 -12.712,-10.607 -21.075,-27.507 -17.415,-43.872 l 0.006,-0.686 c 0.008,-0.248667 0.0544,-0.192 0.32037,-0.502 0.471,-1.237 1.319,-2.027 2.319,-2.433 z m 69.369,19.517 c 9.69,-52.557 -30.809,-32.577 -64.069,-18.549 1.785,1.631 1.777,3.858 1.264,5.688 -3.508,38.996 43.889,61.094 62.805,12.861 z M 111.1716,30.2164 c -13.873,4.698 -105.634,-3.704 -114.111,39.31 8.948,-14.497 27.48,-20.25 44.14,-23.372 22.661,-4.247 45.198,-1.788 67.541,2.681 l 0.46146,-4.624038 c 0.49554,-4.904768 1.01801,-9.493139 1.96854,-13.994962 z"
           id="path3"
           fill="#000000" />
      </g>
    </g>
  </g>
  <text
     style="font-style:oblique;font-variant:normal;font-weight:bold;font-stretch:normal;font-size:41.865px;font-family:Courier;-inkscape-font-specification:'Courier, Bold Oblique';font-variant-ligatures:normal;font-variant-caps:normal;font-variant-numeric:normal;font-variant-east-asian:normal;text-transform:uppercase;white-space:pre;fill:#000000;stroke-width:0.484591"
     transform="matrix(0.86456534,0.00827531,0.01177786,1.1567633,0,0)"
     x="209.98419"
     y="441.71057"
     id="text3">Professor Plum</text>
  <text
     style="font-size:28px;font-family:Arial, sans-serif;white-space:pre;fill:#333333"
     x="471.22815"
     y="450.16788"
     id="text4" />
  <text
     style="font-size:28px;font-family:Arial, sans-serif;white-space:pre;fill:#333333"
     x="1585.8861"
     y="403.59787"
     id="text5" />
  <text
     style="font-size:28px;font-family:Arial, sans-serif;white-space:pre;fill:#333333"
     x="253.45013"
     y="426.38889"
     id="text6" />
  <text
     style="font-size:28px;font-family:Arial, sans-serif;white-space:pre;fill:#333333"
     x="1686.5962"
     y="-46.457127"
     id="text7" />
</svg>
