<?xml version="1.0" encoding="UTF-8" standalone="no"?>
<svg
   version="1.0"
   width="348.57379pt"
   height="399.81964pt"
   viewBox="0 0 348.57379 399.81964"
   preserveAspectRatio="xMidYMid"
   id="svg3"
   sodipodi:docname="Rope.svg"
   inkscape:version="1.4.3 (0d15f75, 2025-12-25)"
   xmlns:inkscape="http://www.inkscape.org/namespaces/inkscape"
   xmlns:sodipodi="http://sodipodi.sourceforge.net/DTD/sodipodi-0.dtd"
   xmlns="http://www.w3.org/2000/svg"
   xmlns:svg="http://www.w3.org/2000/svg">
  <defs
     id="defs3" />
  <sodipodi:namedview
     id="namedview3"
     pagecolor="#ffffff"
     bordercolor="#000000"
     borderopacity="0.25"
     inkscape:showpageshadow="2"
     inkscape:pageopacity="0.0"
     inkscape:pagecheckerboard="0"
     inkscape:deskcolor="#d1d1d1"
     inkscape:document-units="pt"
     inkscape:zoom="0.93537878"
     inkscape:cx="208.4717"
     inkscape:cy="207.40261"
     inkscape:window-width="1470"
     inkscape:window-height="923"
     inkscape:window-x="0"
     inkscape:window-y="33"
     inkscape:window-maximized="0"
     inkscape:current-layer="svg3" />
  <metadata
     id="metadata1">
Created by potrace 1.15, written by Peter Selinger 2001-2017
</metadata>
  <g
     transform="matrix(0.01508396,0,0,-0.02642183,71.33808,215.14156)"
     fill="#000000"
     stroke="none"
     id="g3">
    <path
       d="m 12195,6031 c -33,-9 -125,-47 -205,-83 -179,-81 -214,-92 -365,-118 -200,-33 -249,-51 -368,-132 -32,-22 -88,-54 -125,-71 -57,-27 -79,-32 -148,-33 -71,0 -85,-3 -115,-26 -19,-15 -61,-43 -93,-62 -54,-32 -67,-36 -130,-36 -126,0 -200,-29 -351,-138 -141,-101 -145,-102 -288,-102 -233,0 -497,-51 -832,-160 l -121,-40 -60,58 c -72,68 -182,125 -334,171 -281,87 -361,114 -419,141 -35,17 -65,30 -67,30 -3,0 -3,-53 -2,-117 3,-105 5,-118 21,-121 34,-7 62,7 80,38 10,16 23,30 28,30 29,0 152,-181 168,-248 9,-36 10,-60 2,-88 -20,-71 -27,-74 -66,-29 -34,39 -35,40 -50,20 -10,-12 -12,-21 -5,-23 12,-4 54,-82 47,-88 -2,-3 -35,28 -73,69 -67,70 -101,123 -260,407 -88,156 -81,149 -160,161 -81,13 -126,24 -294,74 -192,57 -283,54 -424,-17 l -59,-29 -51,20 c -113,44 -129,46 -291,46 -191,-1 -283,-20 -594,-120 -268,-87 -433,-134 -497,-141 -53,-7 -53,-7 -121,49 -38,30 -101,85 -141,121 -40,36 -79,66 -86,66 -27,0 -200,61 -463,164 -400,155 -577,205 -798,224 -80,7 -96,5 -146,-15 -30,-12 -144,-49 -252,-83 -302,-94 -407,-143 -501,-234 -59,-58 -92,-112 -120,-198 -21,-67 -25,-73 -61,-85 -48,-16 -115,-68 -157,-119 -17,-22 -51,-82 -76,-134 -125,-265 -162,-337 -181,-354 -21,-19 -25,-19 -304,13 -590,67 -896,142 -1101,268 -53,32 -61,35 -80,22 -13,-8 -61,-15 -133,-17 -110,-4 -113,-4 -144,22 -93,78 -212,110 -389,103 -144,-5 -222,-26 -310,-85 -143,-96 -167,-243 -70,-439 68,-139 232,-294 364,-346 45,-18 84,-21 351,-27 377,-9 381,-10 484,-140 50,-62 75,-69 206,-58 126,10 255,4 475,-23 314,-38 431,-35 582,16 40,13 73,23 75,21 2,-1 -2,-17 -8,-35 -21,-61 -6,-184 41,-321 23,-69 45,-128 49,-132 3,-3 50,12 105,34 117,47 193,59 231,34 37,-24 32,-46 -9,-46 -31,0 -66,-20 -66,-39 0,-22 24,-29 56,-16 43,18 54,2 23,-31 -21,-22 -21,-25 -6,-41 8,-10 20,-30 26,-46 10,-25 9,-27 -17,-27 -28,0 -73,21 -157,73 -45,29 -111,45 -139,34 -14,-6 -14,-11 0,-49 8,-24 32,-113 54,-198 66,-264 103,-345 202,-443 l 59,-58 -34,-38 c -19,-21 -44,-63 -55,-93 -22,-59 -42,-207 -42,-311 0,-58 -5,-73 -45,-144 -85,-150 -125,-325 -97,-425 8,-31 7,-39 -8,-53 -28,-26 -77,-144 -93,-225 -9,-41 -18,-119 -22,-172 l -7,-97 -130,-116 C 2330,864 2265,770 2244,641 c -6,-36 -4,-40 37,-73 93,-74 180,-112 367,-162 l 129,-34 114,86 c 361,273 531,560 556,939 6,86 8,93 34,112 42,31 75,105 109,241 31,122 48,170 60,170 4,0 12,-19 19,-42 18,-62 67,-133 114,-168 79,-58 146,-71 403,-80 l 231,-8 69,-32 c 61,-29 79,-32 150,-31 156,2 355,51 496,122 86,43 207,128 368,256 200,160 297,219 439,269 l 66,23 11,-47 c 23,-100 78,-163 189,-216 100,-48 163,-61 295,-60 97,0 126,4 185,25 l 70,25 60,-28 c 126,-58 217,-60 476,-8 100,20 200,33 283,37 123,6 128,5 122,-13 -19,-60 -24,-127 -16,-182 20,-122 61,-204 211,-419 103,-146 192,-304 204,-359 9,-45 38,-68 135,-105 52,-20 97,-45 118,-65 29,-29 32,-38 32,-91 0,-290 281,-453 557,-324 129,61 201,160 223,306 11,69 10,92 -4,164 -34,167 -118,303 -293,476 l -113,112 v 51 c 0,126 -33,205 -155,367 -83,111 -119,169 -113,185 5,14 346,327 473,433 79,66 122,109 126,126 3,14 13,40 22,58 9,18 17,45 17,61 0,26 9,34 66,68 88,51 178,149 220,238 53,112 68,205 60,377 l -6,146 66,102 c 67,105 94,164 94,210 0,42 -54,145 -139,265 -65,92 -121,184 -121,198 0,2 33,4 73,4 39,0 121,11 181,23 72,15 145,23 213,23 103,0 106,1 166,38 140,85 282,144 646,270 347,119 485,177 606,255 42,27 64,33 130,38 110,8 133,16 270,97 l 120,71 60,-6 c 144,-15 347,61 535,199 47,34 67,42 140,54 253,40 356,190 266,388 -49,108 -172,206 -300,240 -70,19 -198,16 -271,-5 z m 238,-181 c 61,-23 103,-62 116,-108 l 10,-32 -117,-2 c -221,-4 -280,5 -332,48 -17,15 -37,39 -45,54 -14,28 -14,28 28,38 71,19 79,20 184,21 80,1 114,-3 156,-19 z M 4160,5743 c 184,-50 324,-179 480,-442 65,-109 66,-121 9,-121 -29,0 -70,40 -118,117 -30,49 -83,103 -99,103 -4,0 -14,-5 -22,-10 -12,-7 -8,-15 23,-43 37,-34 50,-77 23,-77 -29,0 -67,45 -103,118 -52,109 -81,147 -189,243 -53,46 -105,97 -116,112 l -20,28 38,-6 c 22,-4 64,-13 94,-22 z m 7822,-53 c 88,-22 198,-74 198,-94 0,-32 -26,-37 -79,-16 -70,27 -81,26 -81,-10 0,-25 -4,-30 -25,-30 -14,0 -53,11 -86,25 -34,13 -77,27 -97,31 -34,7 -35,6 -28,-22 11,-43 42,-71 104,-94 83,-31 97,-40 81,-51 -39,-24 -92,-10 -264,69 -113,53 -124,56 -200,57 -44,0 -91,-4 -103,-8 -24,-9 -24,-9 -6,18 26,40 99,92 162,116 113,42 275,45 424,9 z m -7300,-63 c 83,-42 107,-61 169,-138 87,-107 141,-288 122,-408 l -9,-56 -34,68 c -19,37 -38,67 -42,67 -4,0 -11,-15 -16,-32 l -8,-33 -47,63 c -25,35 -74,113 -107,174 -99,180 -169,269 -256,326 -16,10 -5,12 68,9 76,-3 95,-8 160,-40 z m -666,-16 c 106,-53 197,-139 243,-228 17,-34 31,-65 31,-68 0,-4 -19,7 -42,24 -44,31 -88,45 -170,55 -48,6 -48,5 -48,-24 0,-23 14,-43 67,-95 136,-134 16,-74 -134,68 -167,157 -235,208 -326,242 l -49,18 29,15 c 63,34 108,42 210,39 98,-4 107,-6 189,-46 z m -466,-128 c 117,-32 294,-141 394,-242 l 47,-48 -29,-12 c -39,-16 -84,-4 -185,49 -43,23 -95,47 -117,55 -39,14 -40,13 -40,-8 0,-35 25,-62 80,-86 27,-12 50,-25 50,-29 0,-5 -13,-18 -30,-30 -16,-13 -30,-31 -30,-42 0,-46 -65,-6 -79,48 -5,20 -12,49 -15,65 l -6,27 -31,-22 c -46,-34 -119,-30 -256,15 -62,20 -122,37 -133,37 -24,0 -23,-2 -8,41 20,61 78,138 123,165 76,44 149,49 265,17 z m 7752,-42 c 91,-35 95,-55 16,-80 -49,-16 -56,-30 -28,-51 l 22,-17 -30,-12 c -39,-16 -77,-8 -136,30 -68,43 -113,59 -163,59 -41,0 -43,1 -33,20 40,75 219,100 352,51 z m -4410,-10 c 141,-36 288,-127 388,-239 53,-60 58,-73 36,-91 -19,-16 -72,10 -81,39 -7,22 -20,26 -31,9 -3,-6 10,-24 30,-41 24,-19 36,-38 36,-54 0,-24 -1,-24 -47,16 -27,22 -86,62 -133,89 -78,44 -106,70 -158,147 -11,16 -12,7 -8,-56 3,-60 13,-99 50,-190 25,-63 46,-116 46,-118 0,-13 -35,29 -134,161 -162,216 -243,292 -262,243 -3,-7 4,-29 15,-47 12,-19 21,-43 21,-53 0,-17 -2,-18 -17,-4 -10,9 -41,27 -70,42 -84,42 -111,105 -55,128 103,41 255,49 374,19 z m 682,-18 c 126,-31 200,-90 264,-211 28,-52 92,-229 92,-253 0,-5 -15,8 -33,28 -21,23 -40,34 -49,31 -8,-4 -29,-32 -47,-63 -28,-49 -35,-56 -59,-53 -21,2 -32,13 -50,51 -12,26 -29,47 -37,47 -8,0 -15,7 -15,15 0,28 27,15 64,-30 60,-73 73,-58 27,33 -22,42 -53,97 -69,121 -34,50 -141,161 -155,161 -17,0 1,-55 34,-109 49,-78 28,-72 -33,11 -68,91 -139,157 -178,165 -17,3 -30,9 -30,14 0,17 39,48 67,55 16,3 33,7 38,9 18,5 108,-7 169,-22 z m -2379,3 c 259,-69 488,-360 511,-650 l 6,-71 -39,42 c -69,76 -105,93 -194,93 h -77 l -37,43 c -66,76 -143,200 -235,380 l -92,177 h 54 c 29,0 76,-6 103,-14 z m 1159,-129 98,-23 -26,-17 c -34,-23 -33,-43 5,-75 18,-15 46,-39 63,-54 l 31,-26 -70,24 c -91,30 -186,32 -233,4 -18,-11 -35,-20 -37,-20 -3,0 -5,18 -5,40 0,89 -53,132 -138,112 -26,-6 -49,-8 -51,-6 -10,10 44,53 78,63 50,14 167,5 285,-22 z m 4357,-2 c 134,-23 289,-93 289,-130 0,-17 -16,-20 -25,-5 -5,8 -11,7 -21,-1 -18,-15 -18,-24 1,-43 14,-14 12,-16 -17,-24 -51,-13 -104,4 -194,63 -46,30 -97,61 -114,70 l -30,16 v -42 c 0,-53 35,-89 118,-119 70,-25 92,-44 66,-54 -20,-7 -59,4 -161,45 -39,16 -81,29 -92,29 -47,0 -5,-64 60,-90 22,-10 27,-15 17,-21 -43,-27 -138,15 -220,97 l -57,57 16,31 c 43,85 123,127 259,135 12,0 59,-6 105,-14 z M 3364,5105 c 80,-23 217,-83 239,-105 5,-4 -16,-11 -47,-14 -68,-9 -80,-23 -74,-81 5,-41 4,-45 -16,-45 -39,0 -129,28 -208,64 l -78,35 v -27 c 0,-55 -36,-64 -131,-36 -60,18 -169,24 -211,10 l -28,-8 22,51 c 37,90 123,160 221,181 71,15 214,4 311,-25 z m 5446,-13 c 83,-42 113,-96 118,-216 3,-63 -1,-112 -12,-156 -18,-71 -91,-230 -106,-230 -5,0 -17,11 -26,25 -16,24 -16,30 5,106 25,92 20,109 -35,109 h -34 l 6,44 c 13,94 -40,209 -112,243 -28,14 -34,22 -32,42 3,24 7,25 45,23 38,-3 43,-1 49,23 6,24 10,26 43,20 20,-3 61,-18 91,-33 z m 1310,-8 c 81,-19 194,-74 240,-117 l 34,-32 -143,-9 c -163,-10 -224,-1 -285,40 -42,29 -51,27 -42,-10 9,-35 62,-85 118,-111 51,-24 53,-35 6,-35 -40,0 -81,23 -168,94 -42,33 -86,68 -99,76 l -23,15 23,29 c 12,16 45,39 73,52 62,29 166,32 266,8 z m -4107,-71 c 174,-90 273,-216 302,-385 l 6,-38 h -39 c -23,0 -45,-6 -52,-15 -11,-14 -15,-12 -31,14 -12,21 -31,34 -61,42 -24,6 -54,14 -68,18 -14,4 -32,22 -42,42 -10,19 -18,27 -18,18 0,-9 -9,-24 -20,-34 -19,-17 -20,-17 -49,14 -66,70 -101,279 -58,344 9,15 22,27 28,27 6,0 52,-21 102,-47 z m 3553,-25 c 84,-31 173,-94 267,-190 81,-84 103,-118 75,-118 -6,0 -37,25 -69,55 -62,59 -107,74 -95,33 4,-13 9,-36 13,-52 l 6,-29 -32,19 c -17,10 -78,56 -134,100 -56,45 -104,81 -106,79 -9,-9 53,-97 85,-122 20,-15 32,-29 26,-31 -14,-4 -71,25 -212,109 -63,37 -127,71 -142,75 -33,7 -29,17 23,50 87,54 188,62 295,22 z m -5181,-39 c 66,-11 147,-28 180,-38 l 60,-18 -55,-17 c -98,-30 -230,-45 -470,-56 -237,-10 -331,-16 -383,-27 l -29,-5 18,27 c 27,42 122,104 193,126 125,40 277,42 486,8 z m 609,-80 c 71,-33 144,-63 163,-66 39,-7 43,-20 7,-29 -74,-19 -214,31 -286,102 -39,37 -47,54 -26,54 6,0 70,-27 142,-61 z m -4308,21 c 131,-46 204,-122 204,-213 0,-26 -2,-47 -5,-47 -3,0 -33,14 -66,30 -60,31 -99,75 -99,114 0,15 -6,17 -37,13 -144,-21 -138,-21 -151,8 -17,37 -36,26 -40,-23 -2,-23 -5,-42 -8,-42 -3,0 -22,13 -42,29 -81,65 -126,57 -105,-20 12,-47 9,-49 -12,-9 -25,48 -20,102 13,132 63,59 220,72 348,28 z m 5834,-97 c 141,-52 225,-158 265,-337 l 6,-28 -34,21 c -54,33 -85,27 -51,-10 11,-12 13,-23 7,-34 -9,-15 -11,-15 -28,1 -10,10 -27,39 -38,64 -19,41 -21,43 -27,21 -3,-13 -13,-29 -21,-34 -37,-24 -141,77 -198,192 -30,60 -56,154 -47,169 7,12 107,-3 166,-25 z m 615,12 c 27,-9 84,-14 170,-15 l 130,-1 -27,-24 c -60,-52 -219,-58 -277,-9 -16,13 -31,33 -34,44 -3,11 -4,20 -4,20 1,0 20,-7 42,-15 z m -4016,-31 36,-15 -25,-21 c -23,-19 -33,-20 -135,-13 -60,4 -112,9 -114,11 -10,9 38,46 70,54 43,11 122,3 168,-16 z m -1860,-9 c 129,-31 261,-121 355,-244 41,-53 116,-179 116,-194 0,-4 -15,-7 -34,-7 -18,0 -39,-7 -46,-15 -25,-30 -57,-16 -148,64 -50,44 -101,85 -113,92 -45,23 -91,28 -127,13 -19,-7 -38,-11 -43,-8 -5,3 -34,54 -64,113 -53,107 -107,171 -142,171 -25,0 -8,11 29,20 54,13 149,11 217,-5 z m 2898,-53 c 33,-10 86,-37 119,-60 78,-54 221,-188 211,-198 -15,-15 -114,-15 -180,0 -38,9 -101,31 -142,50 -131,60 -295,179 -264,191 78,28 101,34 146,34 28,1 78,-7 110,-17 z m 511,-70 3,-84 -33,7 c -76,15 -136,36 -150,52 -24,27 -32,67 -15,81 21,17 86,31 142,29 l 50,-2 z m 869,41 c 10,-15 30,-54 44,-87 l 26,-61 56,3 c 52,4 59,1 87,-26 16,-17 30,-36 30,-43 0,-18 -134,-5 -201,20 -74,28 -234,125 -234,143 0,17 72,23 119,10 43,-12 51,-6 31,25 -9,13 -13,28 -10,33 11,18 34,10 52,-17 z m 1449,-4 c 96,-17 197,-71 273,-147 91,-90 204,-239 197,-257 -9,-25 -30,-17 -76,30 -24,25 -50,45 -57,45 -16,0 -16,-5 -1,-47 6,-18 9,-35 5,-39 -3,-3 -39,21 -79,54 -121,99 -170,114 -207,65 l -20,-28 -61,65 c -84,91 -104,138 -101,238 1,29 4,32 34,32 18,0 60,-5 93,-11 z m -3547,-24 c 179,-9 371,-57 527,-131 71,-33 214,-137 214,-154 0,-5 -28,1 -62,14 -35,13 -78,27 -96,31 -31,6 -33,5 -30,-16 3,-22 15,-32 52,-43 15,-5 16,-9 6,-21 -17,-20 -45,-19 -109,5 -59,23 -81,16 -81,-26 0,-13 -3,-24 -6,-24 -4,0 -32,14 -63,30 -31,17 -150,74 -266,128 -115,54 -248,122 -295,152 l -85,55 70,5 c 39,3 81,5 95,3 14,-1 72,-5 129,-8 z m 4135,-20 c 152,-32 236,-124 236,-259 0,-41 -15,-54 -38,-33 -32,28 -77,44 -195,71 -85,20 -130,36 -164,59 -47,32 -96,92 -108,134 -5,19 -1,22 57,31 92,14 135,13 212,-3 z m -5688,-26 c 80,-30 163,-85 313,-208 88,-72 137,-119 134,-127 -8,-20 -19,-17 -68,16 -51,35 -95,40 -95,11 0,-21 16,-37 45,-43 34,-8 -28,-28 -86,-28 -89,0 -128,27 -316,219 -95,97 -173,177 -173,178 0,1 15,4 33,6 55,8 159,-4 213,-24 z m 6084,10 c 86,-13 194,-68 269,-136 34,-30 61,-58 61,-63 0,-13 -62,-47 -99,-54 -42,-8 -91,5 -208,56 -51,21 -115,46 -143,54 l -50,15 v 64 c 0,52 3,64 18,68 31,8 86,7 152,-4 z m -5055,-10 c 22,-6 119,-48 215,-94 96,-46 219,-100 273,-120 136,-51 219,-131 155,-149 -76,-20 -249,2 -384,48 -150,51 -356,167 -459,259 l -40,35 35,16 c 41,18 147,21 205,5 z m -482,-54 c 86,-22 176,-72 342,-189 83,-59 186,-124 229,-146 78,-38 79,-39 54,-51 -39,-17 -87,-4 -159,43 -128,82 -185,94 -177,37 4,-27 3,-29 -32,-29 -60,0 -164,61 -307,179 -72,59 -149,119 -169,132 -38,23 -38,23 -14,30 45,13 175,9 233,-6 z m 6567,-35 c 19,-12 4,-40 -28,-55 -12,-5 -21,-14 -19,-20 5,-15 49,-19 57,-4 14,22 40,1 40,-31 0,-36 -34,-108 -55,-116 -17,-7 -8,-34 11,-34 8,0 29,20 46,45 17,25 33,43 36,41 8,-8 -61,-139 -118,-224 -61,-91 -193,-253 -253,-311 l -36,-34 -7,38 c -3,20 -4,76 -2,124 8,127 39,206 150,374 52,78 102,156 111,174 14,27 28,40 47,42 3,0 12,-4 20,-9 z M 5921,4314 c 190,-95 402,-150 864,-224 222,-35 430,-75 498,-95 43,-13 52,-13 80,1 119,62 236,75 396,45 63,-12 126,-19 142,-16 16,4 75,25 132,47 172,68 215,79 333,85 61,3 127,3 147,-1 l 35,-7 9,-127 c 11,-179 7,-408 -11,-537 -9,-60 -34,-185 -57,-276 l -41,-167 -77,-25 c -42,-14 -123,-51 -181,-83 -137,-75 -193,-100 -260,-117 l -55,-14 -12,64 c -18,98 -94,334 -117,366 -57,78 -240,181 -387,219 -118,29 -277,23 -369,-15 l -65,-27 -30,29 c -61,58 -88,66 -230,66 -122,-1 -135,-3 -215,-33 -46,-18 -101,-46 -122,-62 l -38,-31 -56,17 c -108,31 -206,1 -421,-128 -242,-144 -325,-170 -415,-130 -51,22 -89,65 -133,149 -35,66 -37,67 -265,135 -74,22 -155,50 -180,63 l -46,23 -87,-29 -87,-30 -73,36 c -173,86 -345,69 -660,-62 l -109,-46 -81,80 c -98,95 -146,133 -209,164 -37,18 -47,28 -51,53 -7,42 9,123 39,202 13,35 24,73 24,83 0,37 57,41 152,11 79,-25 118,-25 160,-1 61,36 162,60 373,91 290,41 361,64 458,150 l 47,42 103,-18 c 56,-9 136,-17 177,-18 72,-1 78,1 137,40 90,61 134,68 337,58 216,-10 283,-7 354,16 31,10 60,18 65,19 4,1 39,-15 78,-35 z m 3414,-150 c 41,-16 76,-140 74,-262 -1,-68 -2,-72 -10,-37 -4,22 -8,65 -8,96 -1,45 -6,64 -30,96 -16,22 -44,51 -63,63 -18,13 -35,25 -37,26 -1,2 0,7 4,13 7,12 44,14 70,5 z m -155,-60 c 0,-19 -47,-77 -100,-123 -59,-51 -95,-102 -88,-123 2,-6 34,13 72,42 73,56 121,80 160,80 24,0 25,-2 14,-25 -6,-14 -44,-46 -85,-72 -114,-71 -133,-133 -40,-133 h 41 l -38,-39 c -28,-29 -74,-55 -167,-96 -141,-63 -183,-90 -213,-137 -27,-42 -30,-25 -12,62 38,180 174,375 359,512 74,54 97,67 97,52 z M 3370,3970 c -7,-16 -21,-32 -32,-36 -27,-8 -149,16 -142,28 17,26 174,65 183,45 1,-4 -2,-21 -9,-37 z m 1076,-581 c 155,-47 348,-174 442,-290 45,-56 48,-72 14,-77 -13,-2 -39,14 -76,47 -92,84 -121,90 -103,22 6,-22 8,-43 5,-47 -10,-10 -102,36 -247,124 -166,102 -252,131 -405,139 l -109,6 24,20 c 33,27 119,66 171,77 64,14 205,3 284,-21 z m 4622,9 c 7,-7 12,-18 12,-26 0,-19 -82,-53 -146,-59 -56,-6 -61,-11 -43,-44 9,-17 19,-20 67,-17 53,3 57,1 60,-19 3,-22 0,-23 -67,-23 -69,0 -71,-1 -71,-25 0,-28 29,-45 78,-45 25,-1 25,-2 8,-12 -11,-6 -51,-36 -90,-66 -39,-30 -90,-63 -114,-73 -53,-23 -130,-24 -179,-4 -34,14 -35,17 -30,55 21,156 197,308 412,355 77,17 88,18 103,3 z m -2319,-53 c 89,-30 205,-86 245,-118 l 29,-24 -65,-80 c -40,-49 -72,-100 -83,-132 l -17,-51 -30,16 c -16,8 -90,73 -163,143 -130,126 -212,185 -274,197 -17,4 -31,10 -31,13 0,12 74,50 116,61 62,15 190,4 273,-25 z m -1729,-40 c 63,-29 132,-56 153,-60 52,-10 49,-34 -13,-99 -51,-54 -59,-73 -38,-94 21,-21 -27,-14 -55,8 -15,12 -61,62 -103,113 -86,103 -114,130 -164,157 l -35,18 35,10 c 52,16 94,6 220,-53 z m 2332,4 c 61,-31 130,-92 192,-169 l 54,-66 -29,-17 c -38,-21 -37,-52 2,-106 34,-48 32,-64 -11,-89 -40,-23 -46,-46 -21,-87 18,-31 18,-35 4,-35 -34,0 -104,43 -138,85 -33,40 -55,87 -129,282 -34,89 -77,156 -119,182 l -31,20 24,9 c 71,27 137,24 202,-9 z m -3292,-90 c 82,-13 202,-53 258,-85 l 43,-26 -26,-24 c -42,-39 -28,-53 89,-96 70,-25 106,-57 106,-94 v -27 l -147,6 c -82,3 -165,10 -185,17 -43,12 -44,19 -27,101 10,47 9,54 -7,66 -20,14 -72,17 -91,5 -9,-6 -3,-18 22,-42 45,-43 46,-76 5,-85 -38,-8 -85,2 -101,22 -7,8 -12,30 -12,48 l 1,34 -47,-5 c -25,-2 -106,-9 -180,-14 -73,-5 -136,-11 -139,-15 -12,-12 18,-27 62,-32 30,-4 46,-10 46,-19 0,-30 -138,-3 -190,36 -21,16 -22,21 -11,50 54,157 251,223 531,179 z m 2221,-17 c 30,-12 75,-38 98,-58 39,-34 41,-37 24,-49 -18,-13 -51,-71 -72,-128 l -11,-28 -54,30 c -84,48 -130,61 -286,76 -80,8 -157,18 -172,22 l -28,8 20,32 c 23,39 84,80 153,105 74,26 249,21 328,-10 z m -521,-254 c 80,-15 202,-55 288,-94 96,-44 104,-51 91,-75 -10,-19 -11,-19 -53,6 -49,29 -66,31 -66,10 0,-8 20,-25 45,-37 29,-14 48,-31 52,-46 7,-30 1,-35 -31,-22 -35,13 -123,13 -131,0 -3,-5 -1,-10 4,-10 6,0 11,-5 11,-11 0,-18 -88,1 -231,52 -161,56 -269,74 -360,60 -35,-6 -65,-9 -67,-6 -2,2 5,24 17,49 59,121 213,165 431,124 z m -786,-42 c 35,-14 69,-53 60,-68 -9,-14 -81,-9 -156,12 -39,11 -73,22 -76,25 -3,3 3,14 13,25 22,24 107,28 159,6 z m -1301,-45 c 37,-10 70,-21 73,-23 2,-3 -3,-22 -11,-42 -19,-45 -8,-66 34,-66 25,-1 25,-1 6,-16 -15,-11 -46,-14 -136,-13 -156,2 -171,-9 -99,-74 41,-37 50,-66 26,-86 -10,-9 -16,-8 -26,4 -26,32 -70,3 -62,-41 4,-18 -69,-43 -203,-69 -67,-14 -143,-34 -169,-45 -26,-11 -50,-20 -52,-20 -8,0 -4,101 7,152 17,80 64,172 118,227 49,51 143,105 209,120 68,16 213,12 285,-8 z m 5067,2 c 0,-5 -14,-16 -30,-25 -38,-22 -38,-46 0,-62 29,-12 27,-13 -110,-64 -124,-46 -349,-112 -384,-112 -14,0 -36,63 -36,105 0,68 70,125 182,150 67,14 378,21 378,8 z M 6994,2711 c 66,-35 90,-53 83,-60 -18,-18 -72,-12 -133,15 -33,15 -81,29 -107,33 l -49,6 22,28 c 32,41 72,36 184,-22 z m -450,12 c -4,-10 -12,-42 -18,-70 -8,-39 -15,-53 -27,-53 -10,0 -25,-7 -33,-16 -38,-37 -50,38 -16,94 27,43 112,84 94,45 z m -1024,-84 c 30,-6 101,-24 158,-41 90,-28 101,-33 88,-46 -8,-8 -38,-17 -66,-20 l -51,-5 30,-31 c 17,-18 31,-35 31,-39 0,-3 -46,-3 -102,0 -100,6 -103,6 -88,-13 8,-10 23,-27 35,-37 19,-18 15,-18 -145,-13 -142,4 -355,27 -368,40 -7,8 34,90 62,123 33,39 116,81 183,93 53,9 147,5 233,-11 z m 2435,-71 c 39,-11 126,-42 195,-68 69,-27 137,-52 153,-56 37,-8 40,-18 16,-39 -19,-18 -22,-18 -111,8 -102,29 -125,26 -134,-23 l -6,-28 -52,15 c -42,12 -93,32 -203,80 -22,9 -15,-42 8,-63 12,-10 46,-26 77,-34 62,-17 77,-36 37,-46 -39,-10 -91,11 -197,78 -51,32 -103,61 -115,64 -13,4 -23,10 -23,14 0,4 19,29 43,55 67,75 159,88 312,43 z m -680,-42 c 150,-42 283,-130 301,-200 7,-31 -20,-90 -52,-111 -23,-15 -24,-14 -24,5 0,12 12,26 31,35 43,23 37,56 -14,70 -21,6 -42,17 -47,25 -16,25 -24,1 -12,-37 6,-20 9,-40 7,-44 -7,-10 -131,20 -195,48 -57,25 -338,203 -339,215 -2,13 37,17 159,14 76,-2 149,-10 185,-20 z m -610,-96 c 49,-23 85,-54 85,-72 -1,-7 -16,-30 -35,-51 l -34,-39 -55,42 c -59,45 -83,75 -97,123 l -8,29 52,-6 c 29,-4 70,-16 92,-26 z m -1640,-94 c 33,-8 107,-35 165,-59 58,-24 129,-52 158,-61 29,-10 52,-21 52,-25 0,-18 -44,-63 -81,-81 -53,-28 -146,-26 -294,6 -66,14 -150,30 -187,36 -38,6 -68,15 -68,22 0,21 47,111 68,129 21,20 86,46 112,46 8,1 42,-6 75,-13 z m -1590,-72 c -32,-48 -56,-105 -90,-209 -25,-79 -51,-148 -58,-153 -7,-5 -37,-12 -67,-16 -30,-4 -107,-24 -170,-45 -141,-47 -170,-54 -170,-43 0,32 46,177 74,236 90,184 261,289 483,295 l 43,1 z m 1255,-154 c 47,-11 136,-35 197,-53 l 113,-33 -60,-29 c -33,-16 -60,-32 -60,-35 0,-10 48,-30 72,-30 20,0 21,-1 3,-20 -25,-28 -47,-25 -119,15 -76,43 -106,45 -106,10 0,-27 24,-46 82,-64 45,-15 66,-37 50,-53 -19,-19 -95,2 -287,75 -153,59 -170,68 -173,90 -5,44 34,106 81,128 53,24 100,24 207,-1 z m 3225,-26 c 0,-37 -86,-78 -192,-90 -49,-6 -53,-5 -53,13 0,33 26,45 103,51 81,5 97,13 97,49 0,24 1,25 23,11 12,-9 22,-24 22,-34 z m -3813,-20 c 201,-85 232,-102 218,-119 -7,-8 -15,-38 -19,-67 l -6,-52 -65,3 c -193,8 -300,72 -300,181 0,51 17,110 31,110 5,0 69,-25 141,-56 z m 2366,20 c 15,-10 22,-24 20,-37 -4,-29 -58,-34 -131,-14 -29,8 -65,18 -80,21 -61,14 10,44 108,45 41,1 68,-4 83,-15 z m 707,-39 c 55,0 114,3 130,8 l 30,7 -34,-30 c -72,-62 -217,-81 -281,-37 -18,12 -40,32 -48,45 l -15,23 59,-8 c 33,-5 104,-8 159,-8 z m 938,-175 c 41,-32 43,-75 13,-224 -15,-73 -26,-139 -24,-147 3,-16 -32,-24 -67,-15 -13,3 -34,25 -50,51 -18,32 -35,47 -53,51 l -28,6 9,91 c 5,51 15,106 23,123 15,30 56,59 68,47 12,-12 6,-55 -14,-93 -21,-40 -27,-100 -11,-100 5,0 21,14 35,30 27,32 42,76 52,154 4,25 10,46 14,46 4,0 19,-9 33,-20 z m 203,-172 c 19,-34 41,-58 61,-67 17,-8 34,-23 37,-35 3,-12 3,-132 -1,-268 l -6,-248 h -45 c -88,0 -126,34 -190,173 l -31,67 26,52 c 14,29 44,125 66,215 22,90 43,163 47,163 3,0 19,-24 36,-52 z m -5081,-70 c 3,-2 -23,-34 -57,-69 -35,-36 -88,-92 -118,-126 -64,-70 -122,-103 -196,-110 l -54,-6 v 51 c 0,43 9,69 51,149 28,54 53,100 55,102 15,16 304,24 319,9 z m -100,-364 c -18,-61 -61,-107 -175,-184 -85,-59 -122,-96 -140,-145 -7,-17 -17,-25 -34,-25 -39,0 -40,16 -2,66 41,54 45,76 15,95 -20,14 -18,16 43,65 107,87 165,125 235,154 37,16 69,27 70,26 2,-1 -4,-25 -12,-52 z m 5464,-50 c 51,-46 76,-116 67,-187 -9,-63 -44,-147 -61,-147 -28,0 -72,50 -85,94 -23,82 -1,276 32,276 4,0 26,-16 47,-36 z m 122,-314 c 26,-14 24,-47 -6,-111 -17,-38 -21,-57 -14,-66 8,-9 5,-15 -14,-24 -61,-28 -74,28 -36,146 22,66 33,74 70,55 z"
       id="path1" />
    <path
       d="m 4220,2982 c 0,-12 10,-33 23,-48 31,-35 122,-46 163,-19 36,23 22,34 -73,55 -43,9 -86,21 -95,25 -14,5 -18,2 -18,-13 z"
       id="path2" />
    <path
       d="m 8315,1591 c 3,-16 -1,-70 -10,-120 -18,-98 -15,-135 12,-145 23,-9 29,0 47,81 23,101 21,168 -4,193 -31,31 -53,26 -45,-9 z"
       id="path3" />
  </g>
  <text
     xml:space="preserve"
     style="font-style:oblique;font-weight:bold;font-size:58.2664px;font-family:Courier;-inkscape-font-specification:'Courier, Bold Oblique';writing-mode:lr-tb;direction:ltr;fill:#000000;stroke-width:0.726246"
     x="84.047905"
     y="289.64005"
     id="text3"
     transform="scale(1.0211405,0.97929716)"><tspan
       sodipodi:role="line"
       id="tspan3"
       style="stroke-width:0.726246"
       x="84.047905"
       y="289.64005">Rope</tspan></text>
</svg>
