<?xml version="1.0" encoding="UTF-8" standalone="no"?>
<!-- Generator: Adobe Illustrator 22.0.1, SVG Export Plug-In . SVG Version: 6.00 Build 0)  -->

<svg
   version="1.1"
   id="Layer_1"
   x="0px"
   y="0px"
   viewBox="0 0 350.01846 401.29355"
   enable-background="new 0 0 720 503.999"
   xml:space="preserve"
   sodipodi:docname="Study.svg"
   width="350.01846"
   height="401.29355"
   inkscape:version="1.4.3 (0d15f75, 2025-12-25)"
   xmlns:inkscape="http://www.inkscape.org/namespaces/inkscape"
   xmlns:sodipodi="http://sodipodi.sourceforge.net/DTD/sodipodi-0.dtd"
   xmlns="http://www.w3.org/2000/svg"
   xmlns:svg="http://www.w3.org/2000/svg"><defs
   id="defs199" /><sodipodi:namedview
   id="namedview199"
   pagecolor="#ffffff"
   bordercolor="#000000"
   borderopacity="0.25"
   inkscape:showpageshadow="2"
   inkscape:pageopacity="0.0"
   inkscape:pagecheckerboard="0"
   inkscape:deskcolor="#d1d1d1"
   inkscape:zoom="1.5536751"
   inkscape:cx="130.65795"
   inkscape:cy="181.50513"
   inkscape:window-width="1470"
   inkscape:window-height="923"
   inkscape:window-x="0"
   inkscape:window-y="33"
   inkscape:window-maximized="0"
   inkscape:current-layer="Layer_1" />
<symbol
   id="New_Symbol"
   viewBox="-0.763 -0.763 1.526 1.525"
   transform="matrix(0.49591243,0,0,0.82104084,0.37838118,0.62645416)">
	<path
   fill="#ffffff"
   d="m 0.763,-0.001 c 0,-0.421 -0.342,-0.762 -0.763,-0.762 -0.421,0 -0.763,0.341 -0.763,0.762 0,0.421 0.342,0.764 0.763,0.764 0.421,0 0.763,-0.343 0.763,-0.764 z"
   id="path1" />
</symbol>

<g
   id="g1"
   transform="matrix(0.49591243,0,0,0.82104084,0.37838118,0.62645416)">
	<polygon
   fill="#755753"
   points="705.044,487.999 16.045,487.999 39.293,416.999 676.512,416.999 "
   id="polygon1" />
</g>
<polygon
   fill="#ead3aa"
   points="675.94,416.941 675.94,21.641 107.802,21.641 404.038,416.883 "
   id="polygon2"
   transform="matrix(0.49591243,0,0,0.82104084,0.37838118,0.62645416)" />
<polygon
   fill="#ead9be"
   points="108.072,21.641 38.333,21.641 38.333,416.941 404.372,416.941 "
   id="polygon3"
   transform="matrix(0.49591243,0,0,0.82104084,0.37838118,0.62645416)" />
<polygon
   fill="#937872"
   points="38.333,385 38.333,389.698 481.682,389.698 476.884,385 "
   id="polygon4"
   transform="matrix(0.49591243,0,0,0.82104084,0.37838118,0.62645416)" />
<polygon
   fill="#937872"
   points="222.774,131.774 222.774,385 433.742,385 "
   id="polygon5"
   transform="matrix(0.49591243,0,0,0.82104084,0.37838118,0.62645416)" />
<polygon
   fill="#8c6e65"
   points="385.728,386 499,386 499,38.698 223,38.698 223,167.877 "
   id="polygon6"
   transform="matrix(0.49591243,0,0,0.82104084,0.37838118,0.62645416)" />
<polygon
   fill="#8c6e65"
   points="677.505,389.698 388.477,389.698 385.294,385 677.505,385 "
   id="polygon7"
   transform="matrix(0.49591243,0,0,0.82104084,0.37838118,0.62645416)" />
<polygon
   fill="#846966"
   points="440.975,452.401 27.284,452.011 37.438,421 415.659,421 "
   id="polygon8"
   transform="matrix(0.49591243,0,0,0.82104084,0.37838118,0.62645416)" />
<g
   id="g19"
   transform="matrix(0.49591243,0,0,0.82104084,0.37838118,0.62645416)">
	<g
   id="g8">
		<path
   fill="#f2ebdf"
   d="m 185.602,80.434 v 36.625 c 1.123,1.589 2.244,3.182 3.363,4.78 V 77.48 Z"
   id="path8" />
	</g>
	<g
   id="g9">
		<polygon
   fill="#b5b5b5"
   points="110.912,185.195 113.824,182.239 113.824,80.403 110.912,77.448 "
   id="polygon9" />
	</g>
	<path
   opacity="0.11"
   fill="#110d0d"
   d="m 110.814,78.303 -0.006,106.048 7.32,5.837 h 74.79 v -62.87 C 180.848,110.014 168.978,93.119 154.69,78.285 Z"
   id="path9" />
	<path
   opacity="0.23"
   fill="#0a0707"
   d="m 187.555,77.449 -32.865,0.013 c 14.288,15.834 26.158,32.729 38.228,50.033 V 82.683 Z"
   id="path10" />
	<path
   fill="#423838"
   d="m 110.475,77.449 v 107.747 h 78.49 V 121.808 C 178.233,106.486 167.426,91.548 154.706,77.449 Z"
   id="path11" />
	<path
   fill="#211b1b"
   d="m 154.706,77.48 c 12.72,14.099 23.527,29.037 34.259,44.359 V 77.48 Z"
   id="path12" />
	<path
   fill="#f9f6f4"
   d="M 113.897,80.404 V 182.24 l 71.822,-0.145 0.02,-64.625 C 176.853,104.89 168.078,92.14 157.792,80.405 h -43.895 z"
   id="path13" />
	<polygon
   fill="#efe9e6"
   points="185.588,117.039 185.588,80.434 157.354,80.434 "
   id="polygon13" />
	<g
   id="g15">
		<g
   id="g14">
			<polygon
   fill="#211f1d"
   points="114.488,182.239 113.55,182.239 113.429,80.404 114.488,81.286 "
   id="polygon14" />
		</g>
	</g>
	<g
   id="g16">
		<path
   fill="#211f1d"
   d="m 184.687,182.176 1.052,-0.004 v -64.894 c -0.35,-0.497 -0.701,-0.995 -1.052,-1.491 z"
   id="path15" />
		<path
   fill="#141010"
   d="m 184.687,81.287 v 34.499 c 0.351,0.496 0.701,0.994 1.052,1.491 V 80.404 Z"
   id="path16" />
	</g>
	<polygon
   fill="#211f1d"
   points="113.338,80.328 114.488,81.286 158.112,81.286 157.281,80.328 "
   id="polygon16" />
	<path
   fill="#141010"
   d="m 185.739,80.404 -28.457,-0.075 c 0.256,0.292 0.576,0.665 0.831,0.958 h 26.575 z"
   id="path17" />
	<g
   id="g17">
		<polygon
   fill="#312929"
   points="113.672,182.239 110.475,185.175 110.475,77.449 113.429,80.404 "
   id="polygon17" />
	</g>
	<g
   id="g18">
		<polygon
   fill="#211f1d"
   points="185.739,182.172 113.636,182.272 114.494,181.395 185.166,181.47 "
   id="polygon18" />
	</g>
</g>
<g
   opacity="0.82"
   id="g21"
   transform="matrix(0.49591243,0,0,0.82104084,0.37838118,0.62645416)">
	<g
   id="g20">
		<polygon
   opacity="0.23"
   fill="#110d0d"
   points="169.625,212.086 169.625,257.493 133.613,257.493 130.863,254.912 166.875,209.506 "
   id="polygon19" />
	</g>
</g>
<g
   id="g23"
   transform="matrix(0.49591243,0,0,0.82104084,0.37838118,0.62645416)">
	<g
   id="g22">
		<rect
   x="130.86301"
   y="209.506"
   fill="#f9f6f4"
   width="36.012001"
   height="45.405998"
   id="rect21" />
	</g>
</g>
<g
   id="g25"
   transform="matrix(0.49591243,0,0,0.82104084,0.37838118,0.62645416)">
	<g
   id="g24">
		<rect
   x="130.849"
   y="209.506"
   fill="#423838"
   width="36.064999"
   height="0.82300001"
   id="rect23" />
	</g>
</g>
<g
   id="g27"
   transform="matrix(0.49591243,0,0,0.82104084,0.37838118,0.62645416)">
	<g
   id="g26">
		<rect
   x="130.849"
   y="254.089"
   fill="#423838"
   width="36.064999"
   height="0.82300001"
   id="rect25" />
	</g>
</g>
<g
   id="g29"
   transform="matrix(0.49591243,0,0,0.82104084,0.37838118,0.62645416)">
	<g
   id="g28">
		<polygon
   fill="#312929"
   points="130.849,254.912 130.849,209.506 131.787,210.316 131.787,254.102 "
   id="polygon27" />
	</g>
</g>
<g
   id="g31"
   transform="matrix(0.49591243,0,0,0.82104084,0.37838118,0.62645416)">
	<g
   id="g30">
		<polygon
   fill="#211f1d"
   points="165.976,254.089 165.976,210.329 166.914,209.506 166.914,254.912 "
   id="polygon29" />
	</g>
</g>
<g
   id="g32"
   transform="matrix(0.49591243,0,0,0.82104084,0.37838118,0.62645416)">
	<path
   fill="#211b1b"
   d="m 215.866,293.086 c 0.23,-1.394 -0.767,-2.717 -2.215,-2.938 v 0 c -1.448,-0.221 -2.822,0.738 -3.052,2.133 l -5.649,34.254 c 1.901,-0.441 3.792,-0.98 5.664,-1.597 z"
   id="path31" />
	<path
   fill="#312929"
   d="M 204.949,326.535 186.801,436.57 c -0.23,1.394 0.767,2.717 2.215,2.938 1.449,0.221 2.822,-0.738 3.052,-2.133 l 18.544,-112.438 c -1.871,0.618 -3.762,1.157 -5.663,1.598 z"
   id="path32" />
</g>
<g
   id="g34"
   transform="matrix(0.49591243,0,0,0.82104084,0.37838118,0.62645416)">
	<path
   fill="#211b1b"
   d="m 499.599,292.28 c -0.23,-1.395 -1.603,-2.354 -3.052,-2.133 -1.449,0.221 -2.445,1.543 -2.216,2.938 l 4.586,27.805 c 1.872,0.692 3.817,1.408 5.761,2.186 z"
   id="path33" />
	<path
   fill="#312929"
   d="M 523.396,436.57 504.678,323.077 c -1.944,-0.778 -3.888,-1.494 -5.761,-2.186 l 19.211,116.484 c 0.23,1.394 1.603,2.354 3.052,2.133 1.449,-0.222 2.446,-1.544 2.216,-2.938 z"
   id="path34" />
</g>
<g
   id="g36"
   transform="matrix(0.49591243,0,0,0.82104084,0.37838118,0.62645416)">
	<path
   fill="#211b1b"
   d="m 490.122,292.137 c -0.215,-1.302 -1.497,-2.198 -2.85,-1.992 -1.353,0.207 -2.284,1.441 -2.069,2.743 l 13.034,79.03 c 1.744,1.086 3.708,2.173 5.58,3.26 z"
   id="path35" />
	<path
   fill="#312929"
   d="m 512.344,426.88 -8.527,-51.702 c -1.872,-1.086 -3.836,-2.173 -5.58,-3.26 l 9.189,55.713 c 0.215,1.302 1.497,2.198 2.85,1.992 1.352,-0.206 2.283,-1.441 2.068,-2.743 z"
   id="path36" />
</g>
<g
   id="g38"
   transform="matrix(0.49591243,0,0,0.82104084,0.37838118,0.62645416)">
	<path
   fill="#211b1b"
   d="m 220.944,292.137 c 0.215,-1.302 1.497,-2.198 2.85,-1.992 1.353,0.207 2.284,1.441 2.069,2.744 l -13.034,79.03 c -1.744,1.086 -3.708,2.173 -5.58,3.259 z"
   id="path37" />
	<path
   fill="#312929"
   d="m 198.721,426.88 8.527,-51.702 c 1.872,-1.086 3.836,-2.173 5.58,-3.259 l -9.188,55.713 c -0.215,1.302 -1.497,2.198 -2.85,1.992 -1.353,-0.207 -2.284,-1.442 -2.069,-2.744 z"
   id="path38" />
</g>
<path
   fill="#312929"
   d="M 265.82889,238.82354 H 89.264236 c -0.598568,0 -1.088525,0.81118 -1.088525,1.80218 v 1.54192 c 0,0.99099 0.489957,1.80218 1.088525,1.80218 H 265.8284 c 0.59857,0 1.08853,-0.81119 1.08853,-1.80218 v -1.54192 c 4.9e-4,-0.991 -0.48947,-1.80218 -1.08804,-1.80218 z"
   id="path39"
   style="stroke-width:0.638094" />
<g
   id="g48"
   transform="matrix(0.49591243,0,0,0.82104084,0.37838118,0.62645416)">
	<g
   id="g45">
		<g
   id="g44">
			<polygon
   opacity="0.18"
   fill="#211b1b"
   points="357.867,289.913 335.376,289.913 337.493,273.337 355.75,273.337 "
   id="polygon39" />
			<g
   id="g40">
				<polygon
   fill="#f4f1ea"
   points="355.709,289.913 333.217,289.913 335.334,273.337 353.592,273.337 "
   id="polygon40" />
			</g>
			<path
   opacity="0.18"
   fill="#211b1b"
   d="M 409.818,189.49 H 289.241 c -2.273,0 -4.115,1.836 -4.115,4.1 v 69.691 10.269 c 0,2.265 1.842,4.1 4.115,4.1 h 120.576 c 2.272,0 4.115,-1.835 4.115,-4.1 v -7.517 -72.443 c 10e-4,-2.264 -1.842,-4.1 -4.114,-4.1 z"
   id="path40" />
			<path
   fill="#fcfaf5"
   d="m 281.762,264.364 v 7.517 c 0,2.264 1.842,4.1 4.115,4.1 h 120.575 c 2.273,0 4.115,-1.836 4.115,-4.1 v -7.517 z"
   id="path41" />
			<path
   fill="#191515"
   d="m 406.453,188.092 h -66.695 -53.88 c -2.273,0 -4.115,1.836 -4.115,4.101 v 72.443 h 128.806 v -72.443 c -0.001,-2.265 -1.843,-4.101 -4.116,-4.101 z"
   id="path42" />
			<polygon
   fill="#211b1b"
   points="406.477,192.186 335.693,192.186 285.717,192.186 285.717,260.671 406.477,260.671 "
   id="polygon42" />
			<rect
   x="285.30899"
   y="191.97301"
   fill="#0c0a0a"
   width="120.938"
   height="0.56800002"
   id="rect42" />
			<rect
   x="285.362"
   y="192.282"
   fill="#0c0a0a"
   width="0.472"
   height="67.916"
   id="rect43" />
			<rect
   x="406.004"
   y="191.97301"
   fill="#0c0a0a"
   width="0.472"
   height="68.697998"
   id="rect44" />
		</g>
		<rect
   x="285.30899"
   y="259.91299"
   fill="#0c0a0a"
   width="120.938"
   height="0.56900001"
   id="rect45" />
	</g>
	<g
   id="g47">
		<g
   id="g46">
			<path
   opacity="0.08"
   fill="#ffffff"
   d="m 281.762,264.536 v 0.272 7.245 c 0,2.264 1.842,4.1 4.115,4.1 h 15.99 c -7.057,-8.739 -13.595,-17.737 -20.105,-26.749 z"
   id="path45" />
			<polyline
   fill="#0c0a0a"
   points="285.309,192.714 285.309,192.146 406.247,192.146 406.247,192.714    "
   id="polyline45" />
			<rect
   x="406.004"
   y="192.146"
   fill="#0c0a0a"
   width="0.472"
   height="68.697998"
   id="rect46" />
		</g>
	</g>
</g>
<g
   opacity="0.3"
   id="g51"
   transform="matrix(0.49591243,0,0,0.82104084,0.37838118,0.62645416)">
	<g
   id="g49">
		<path
   opacity="0.3"
   fill="#3a2104"
   d="m 453.659,203.935 c -2.185,0 -3.963,-2.163 -3.963,-4.822 0,-2.659 1.778,-4.821 3.963,-4.821 2.185,0 3.963,2.163 3.963,4.821 0,2.659 -1.778,4.822 -3.963,4.822 z m 0,-9.143 c -1.91,0 -3.463,1.938 -3.463,4.321 0,2.383 1.553,4.322 3.463,4.322 1.91,0 3.463,-1.939 3.463,-4.322 0,-2.382 -1.553,-4.321 -3.463,-4.321 z"
   id="path48" />
	</g>
	<g
   id="g50">
		<rect
   x="434.01501"
   y="199.114"
   opacity="0.82"
   fill="#3a2104"
   width="37.813"
   height="37.813"
   id="rect49" />
	</g>
</g>
<g
   id="g54"
   transform="matrix(0.49591243,0,0,0.82104084,0.37838118,0.62645416)">
	<g
   id="g52">
		<path
   fill="#494846"
   d="m 451.95,203.935 c -2.185,0 -3.963,-2.163 -3.963,-4.822 0,-2.659 1.778,-4.821 3.963,-4.821 2.185,0 3.963,2.163 3.963,4.821 0,2.659 -1.778,4.822 -3.963,4.822 z m 0,-9.143 c -1.91,0 -3.463,1.938 -3.463,4.321 0,2.383 1.553,4.322 3.463,4.322 1.91,0 3.463,-1.939 3.463,-4.322 0,-2.382 -1.553,-4.321 -3.463,-4.321 z"
   id="path51" />
	</g>
	<g
   id="g53">
		<rect
   x="432.306"
   y="199.114"
   fill="#efe7df"
   width="37.813"
   height="37.813"
   id="rect52" />
	</g>
</g>
<g
   opacity="0.72"
   id="g55"
   transform="matrix(0.49591243,0,0,0.82104084,0.37838118,0.62645416)">
	<rect
   x="432.306"
   y="199.114"
   fill="#211b1b"
   width="37.813"
   height="4.5710001"
   id="rect54" />
</g>
<path
   fill="#6d5759"
   d="M 73.60233,93.551852 H 70.15921 V 132.02911 H 69.229375 V 93.551852 h -3.44312 V 92.12735 h 7.815579 v 1.424502 z"
   id="path55"
   style="stroke-width:0.638094" />
<path
   fill="#6d5759"
   d="m 81.927708,93.551852 h -3.44312 v 38.477258 h -0.92934 V 93.551852 h -3.44312 V 92.12735 h 7.81558 z"
   id="path56"
   style="stroke-width:0.638094" />
<path
   fill="#6d5759"
   d="m 77.510121,102.08657 h -3.44312 v 38.47726 h -0.929836 v -38.47726 h -3.443121 v -1.4245 h 7.815581 v 1.4245 z"
   id="path57"
   style="stroke-width:0.638094" />
<g
   id="g59"
   transform="matrix(0.49591243,0,0,0.82104084,0.37838118,0.62645416)">
	<path
   fill="#6d5759"
   d="m 153.357,241.27 v 0.887 h -9.901 v -23.871 h 1.483 v 22.984 z"
   id="path58" />
	<path
   fill="#6d5759"
   d="m 157.032,245.244 v 0.887 h -9.901 V 222.26 h 1.483 v 22.984 z"
   id="path59" />
</g>
<g
   id="g78"
   transform="matrix(0.49591243,0,0,0.82104084,0.37838118,0.62645416)">
	<g
   id="g63">
		<g
   id="g60">
			<polygon
   fill="#191919"
   points="398.501,363.175 398.013,362.522 396.059,363.978 396.642,364.561 "
   id="polygon59" />
			<polygon
   fill="#474646"
   points="396.059,363.978 353.712,395.545 354.2,396.2 396.642,364.561 "
   id="polygon60" />
		</g>
		<g
   id="g62">
			<polygon
   fill="#191919"
   points="396.994,355.673 396.529,355.003 390.949,358.868 391.535,359.455 "
   id="polygon61" />
			<polygon
   fill="#474646"
   points="390.949,358.868 356.578,382.678 357.042,383.349 391.535,359.455 "
   id="polygon62" />
		</g>
	</g>
	<g
   id="g67">
		<g
   id="g64">
			<polygon
   fill="#191919"
   points="362.855,362.522 362.368,363.175 363.432,363.97 364.015,363.387 "
   id="polygon63" />
			<polygon
   fill="#474646"
   points="364.015,363.387 363.432,363.97 406.668,396.2 407.156,395.545 "
   id="polygon64" />
		</g>
		<g
   id="g66">
			<polygon
   fill="#191919"
   points="364.338,355.003 363.874,355.673 368.514,358.887 369.1,358.301 "
   id="polygon65" />
			<polygon
   fill="#474646"
   points="369.1,358.301 368.514,358.887 403.826,383.349 404.291,382.678 "
   id="polygon66" />
		</g>
	</g>
	<g
   id="g68">
		<path
   fill="#d8b193"
   d="m 362.417,364.929 c 1.891,-7.875 3.119,-13.064 3.119,-13.064 l -5.606,-0.881 -2.91,12.498 c 1.589,1.146 3.46,1.531 5.397,1.447 z"
   id="path67" />
		<path
   fill="#ebc3a2"
   d="m 357.02,363.481 -18.062,77.556 c 0,0 0.401,1.769 3.375,0.643 1.622,-0.613 14.137,-51.991 20.084,-76.752 -1.937,0.085 -3.808,-0.3 -5.397,-1.447 z"
   id="path68" />
	</g>
	<g
   id="g70">
		<path
   fill="#d8b193"
   d="m 397.843,364.929 c -1.891,-7.875 -3.12,-13.064 -3.12,-13.064 l 5.606,-0.881 2.91,12.498 c -1.588,1.146 -3.46,1.531 -5.396,1.447 z"
   id="path69" />
		<path
   fill="#ebc3a2"
   d="m 403.24,363.481 18.062,77.556 c 0,0 -0.401,1.769 -3.375,0.643 -1.622,-0.613 -14.137,-51.991 -20.083,-76.752 1.935,0.085 3.807,-0.3 5.396,-1.447 z"
   id="path70" />
	</g>
	<g
   id="g77">
		<g
   id="g73">
			<g
   id="g72">
				<path
   fill="#e2dbd0"
   d="m 341.007,341.078 c 5.332,6.142 15.912,11.365 40.872,11.088 l 0.158,-81.353 c 0,0 -15.753,-0.32 -21.861,1.287 -6.108,1.607 -8.519,5.305 -12.377,15.913 -3.858,10.609 -13.982,50.194 -13.982,50.194 0,0 -0.33,1.484 -0.083,2.327 0.674,-1.371 2.873,-4.525 7.273,0.544 z"
   id="path71" />
				<path
   fill="#ddd6cc"
   d="m 341.007,341.078 c -4.4,-5.069 -6.599,-1.916 -7.274,-0.543 0.121,0.413 0.378,0.672 0.884,0.524 0,0 2.25,-1.124 4.019,0 1.768,1.126 5.465,11.101 38.578,12.378 4.054,0.156 4.662,0 4.662,0 l 0.003,-1.271 c -24.96,0.278 -35.54,-4.946 -40.872,-11.088 z"
   id="path72" />
			</g>
			<path
   fill="#fcfaf5"
   d="m 382.037,270.789 v 1.312 c 0,0 -9.566,0.06 -13.906,0.301 -4.34,0.24 -10.848,0.021 -14.826,5.967 -3.835,5.733 -7.474,21.099 -7.474,21.099 l -7.354,25.799 c 0,0 -4.012,14.238 -4.291,15.812 0,0 -1.255,-0.36 -0.364,-3.636 0.849,-3.12 8.191,-29.817 8.191,-29.817 l 5.305,-18.245 c 0,0 3.235,-11.9 7.716,-15.03 4.259,-2.973 9,-3.548 15.914,-3.562 5.544,-0.012 11.089,0 11.089,0 z"
   id="path73" />
		</g>
		<g
   id="g76">
			<g
   id="g75">
				<path
   fill="#e2dbd0"
   d="m 422.677,341.078 c -5.332,6.142 -15.912,11.365 -40.872,11.088 l -0.158,-81.353 c 0,0 15.753,-0.32 21.861,1.287 6.108,1.607 8.519,5.305 12.378,15.913 3.858,10.609 13.982,50.194 13.982,50.194 0,0 0.33,1.484 0.083,2.327 -0.675,-1.371 -2.874,-4.525 -7.274,0.544 z"
   id="path74" />
				<path
   fill="#ddd6cc"
   d="m 422.677,341.078 c 4.4,-5.069 6.599,-1.916 7.274,-0.543 -0.121,0.413 -0.378,0.672 -0.884,0.524 0,0 -2.25,-1.124 -4.019,0 -1.768,1.126 -5.465,11.101 -38.578,12.378 -4.054,0.156 -4.662,0 -4.662,0 l -0.003,-1.271 c 24.96,0.278 35.54,-4.946 40.872,-11.088 z"
   id="path75" />
			</g>
			<path
   fill="#fcfaf5"
   d="m 381.647,270.789 v 1.312 c 0,0 9.566,0.06 13.906,0.301 4.34,0.24 10.848,0.021 14.827,5.967 3.835,5.733 7.474,21.099 7.474,21.099 l 7.354,25.799 c 0,0 4.012,14.238 4.29,15.812 0,0 1.256,-0.36 0.365,-3.636 -0.85,-3.12 -8.191,-29.817 -8.191,-29.817 l -5.304,-18.245 c 0,0 -3.235,-11.9 -7.716,-15.03 -4.259,-2.973 -9,-3.548 -15.914,-3.562 -5.546,-0.012 -11.091,0 -11.091,0 z"
   id="path76" />
		</g>
	</g>
</g>
<g
   id="g90"
   transform="matrix(0.49591243,0,0,0.82104084,0.37838118,0.62645416)">
	<g
   id="g79">
		<rect
   x="550.70898"
   y="22.715"
   fill="#755b57"
   width="1.5319999"
   height="94.148003"
   id="rect78" />
	</g>
	<g
   id="g80">
		<rect
   x="550.70898"
   y="22.715"
   fill="#937973"
   width="0.64600003"
   height="94.387001"
   id="rect79" />
	</g>
	<g
   id="g81">
		<path
   fill="#8c6e65"
   d="m 550.996,115.829 c -0.222,0.083 -0.426,0.213 -0.601,0.38 -0.391,0.372 -0.64,0.927 -0.64,1.545 v 9.664 c 0,0.618 0.249,1.173 0.64,1.545 0.175,0.167 0.379,0.297 0.601,0.38 0.163,0.061 0.336,0.096 0.515,0.101 v -13.718 c -0.179,0.007 -0.352,0.042 -0.515,0.103 z"
   id="path80" />
		<path
   fill="#725650"
   d="m 552.198,115.86 c -0.199,-0.086 -0.414,-0.135 -0.64,-0.135 -0.016,0 -0.031,0.002 -0.047,0.003 v 13.718 c 0.016,0.001 0.031,0.003 0.047,0.003 0.225,0 0.44,-0.049 0.64,-0.135 0.678,-0.292 1.163,-1.032 1.163,-1.894 v -9.664 c 0,-0.864 -0.485,-1.604 -1.163,-1.896 z"
   id="path81" />
	</g>
	<g
   id="g89">
		<g
   id="g82">
			<path
   fill="#211b1b"
   d="m 535.527,174.878 c 5.658,-5.581 11.989,-13.394 14.548,-29.019 1.035,-5.718 0.703,-12.466 1.034,-18.925 h -1.354 c 0,0 0.753,8.929 -1.313,18.106 -2.065,9.177 -4.984,17.61 -9.654,22.199 -4.67,4.589 -8.172,6.697 -8.307,6.945 -0.135,0.248 0.135,5.457 0.629,6.821 0.132,0.363 1.647,0.568 3.799,0.674 -0.454,-2.692 -0.576,-5.785 0.618,-6.801 z"
   id="path82" />
		</g>
		<g
   id="g83">
			<path
   fill="#312929"
   d="m 572.69,174.184 c -0.135,-0.248 -3.637,-2.356 -8.307,-6.945 -4.67,-4.589 -7.588,-13.021 -9.654,-22.199 -2.065,-9.177 -1.368,-18.106 -1.368,-18.106 h -1.775 -0.477 c -0.33,6.459 10e-4,13.207 -1.034,18.925 -2.559,15.626 -8.89,23.439 -14.548,29.019 -1.195,1.016 -1.072,4.109 -0.617,6.8 5.924,0.29 16.676,-0.178 16.676,-0.178 0,0 19.981,0.868 20.475,-0.496 0.494,-1.364 0.764,-6.572 0.629,-6.82 z"
   id="path83" />
		</g>
		<g
   id="g88">
			<g
   id="g84">
				<path
   fill="#a5683d"
   d="m 549.143,182.012 c -0.108,-0.626 -0.029,-1.252 0.201,-1.723 -3.342,0.018 -6.441,0.074 -9.098,0.159 0.251,0.554 0.508,1.101 0.774,1.641 2.432,0.07 5.197,0.117 8.157,0.134 -0.013,-0.07 -0.025,-0.138 -0.034,-0.211 z"
   id="path84" />
			</g>
			<g
   id="g85">
				<path
   fill="#d18f5d"
   d="m 531.177,181.256 c 0,0.353 3.941,0.661 9.842,0.832 -0.265,-0.539 -0.523,-1.086 -0.774,-1.641 -5.469,0.176 -9.068,0.472 -9.068,0.809 z"
   id="path85" />
			</g>
			<g
   id="g86">
				<path
   fill="#a5683d"
   d="m 571.941,181.256 c 0,-0.315 -3.089,-0.596 -7.876,-0.773 0.21,0.466 0.241,1.016 0.147,1.541 4.704,-0.178 7.729,-0.456 7.729,-0.768 z"
   id="path86" />
			</g>
			<g
   id="g87">
				<path
   fill="#d18f5d"
   d="m 564.065,180.483 c -3.445,-0.125 -7.751,-0.2 -12.424,-0.2 -0.777,0 -1.544,0.002 -2.298,0.006 -0.229,0.471 -0.308,1.096 -0.201,1.723 0.009,0.073 0.022,0.141 0.033,0.21 0.809,0.005 1.631,0.007 2.466,0.007 4.74,0 9.104,-0.077 12.573,-0.205 0.097,-0.525 0.065,-1.075 -0.149,-1.541 z"
   id="path87" />
			</g>
		</g>
	</g>
</g>
<g
   id="g102"
   transform="matrix(0.49591243,0,0,0.82104084,0.37838118,0.62645416)">
	<g
   id="g91">
		<rect
   x="608.08301"
   y="22.715"
   fill="#755b57"
   width="1.212"
   height="74.524002"
   id="rect90" />
	</g>
	<g
   id="g92">
		<rect
   x="608.08301"
   y="22.715"
   fill="#937973"
   width="0.51099998"
   height="74.713997"
   id="rect91" />
	</g>
	<g
   id="g93">
		<path
   fill="#8c6e65"
   d="m 608.311,96.421 c -0.176,0.065 -0.337,0.169 -0.476,0.301 -0.309,0.295 -0.506,0.734 -0.506,1.223 v 7.65 c 0,0.489 0.197,0.929 0.506,1.223 0.139,0.132 0.3,0.235 0.476,0.301 0.129,0.048 0.266,0.076 0.408,0.08 V 96.34 c -0.142,0.005 -0.279,0.033 -0.408,0.081 z"
   id="path92" />
		<path
   fill="#725650"
   d="m 609.262,96.445 c -0.158,-0.068 -0.328,-0.107 -0.506,-0.107 -0.013,0 -0.025,0.002 -0.037,0.002 v 10.858 c 0.013,0 0.025,0.002 0.037,0.002 0.178,0 0.349,-0.039 0.506,-0.107 0.537,-0.231 0.921,-0.817 0.921,-1.5 v -7.65 c 0,-0.681 -0.384,-1.266 -0.921,-1.498 z"
   id="path93" />
	</g>
	<g
   id="g101">
		<g
   id="g94">
			<path
   fill="#211b1b"
   d="m 596.066,143.162 c 4.478,-4.417 9.49,-10.602 11.516,-22.971 0.819,-4.526 0.557,-9.868 0.818,-14.98 h -1.071 c 0,0 0.596,7.068 -1.039,14.332 -1.635,7.264 -3.945,13.939 -7.641,17.572 -3.696,3.632 -6.469,5.301 -6.575,5.497 -0.107,0.197 0.107,4.32 0.498,5.399 0.104,0.288 1.304,0.45 3.007,0.533 -0.362,-2.129 -0.459,-4.578 0.487,-5.382 z"
   id="path94" />
		</g>
		<g
   id="g95">
			<path
   fill="#312929"
   d="m 625.483,142.612 c -0.107,-0.196 -2.879,-1.865 -6.575,-5.497 -3.696,-3.632 -6.007,-10.307 -7.642,-17.572 -1.635,-7.264 -1.083,-14.332 -1.083,-14.332 h -1.405 -0.378 c -0.261,5.113 10e-4,10.454 -0.818,14.98 -2.026,12.369 -7.037,18.553 -11.516,22.971 -0.946,0.804 -0.849,3.253 -0.489,5.383 4.69,0.229 13.2,-0.141 13.2,-0.141 0,0 15.816,0.687 16.207,-0.393 0.392,-1.079 0.605,-5.202 0.499,-5.399 z"
   id="path95" />
		</g>
		<g
   id="g100">
			<g
   id="g96">
				<path
   fill="#a5683d"
   d="m 606.844,148.809 c -0.085,-0.496 -0.023,-0.991 0.159,-1.364 -2.646,0.014 -5.098,0.058 -7.202,0.126 0.199,0.439 0.403,0.872 0.613,1.299 1.925,0.056 4.114,0.093 6.456,0.106 -0.009,-0.055 -0.019,-0.109 -0.026,-0.167 z"
   id="path96" />
			</g>
			<g
   id="g97">
				<path
   fill="#d18f5d"
   d="m 592.622,148.211 c 0,0.279 3.12,0.523 7.791,0.659 -0.21,-0.427 -0.414,-0.86 -0.613,-1.299 -4.329,0.139 -7.178,0.373 -7.178,0.64 z"
   id="path97" />
			</g>
			<g
   id="g98">
				<path
   fill="#a5683d"
   d="m 624.89,148.211 c 0,-0.25 -2.445,-0.471 -6.235,-0.612 0.166,0.369 0.191,0.804 0.116,1.22 3.724,-0.141 6.119,-0.361 6.119,-0.608 z"
   id="path98" />
			</g>
			<g
   id="g99">
				<path
   fill="#d18f5d"
   d="m 618.656,147.599 c -2.727,-0.099 -6.135,-0.158 -9.834,-0.158 -0.615,0 -1.222,0.002 -1.819,0.005 -0.181,0.373 -0.244,0.868 -0.159,1.364 0.008,0.058 0.017,0.111 0.026,0.167 0.64,0.004 1.291,0.006 1.952,0.006 3.752,0 7.206,-0.061 9.953,-0.163 0.075,-0.417 0.05,-0.852 -0.119,-1.221 z"
   id="path99" />
			</g>
		</g>
	</g>
</g>
<g
   id="g118"
   transform="matrix(0.49591243,0,0,0.82104084,0.37838118,0.62645416)">
	<g
   id="g115">
		<path
   fill="#203a0b"
   d="m 444.418,275.137 c -1.421,0.179 -3.327,-2.57 -3.642,-5.269 -0.536,1.254 -1.765,4.33 -2.189,7.012 1.864,0.498 3.743,0.805 5.628,0.957 0.194,-0.906 0.359,-1.82 0.502,-2.741 -0.098,0.016 -0.197,0.032 -0.299,0.041 z"
   id="path102" />
		<path
   fill="#203a0b"
   d="m 440.777,269.869 c 0.314,2.698 2.221,5.447 3.642,5.269 0.102,-0.009 0.2,-0.025 0.299,-0.041 1.009,-6.594 0.834,-13.541 1.72,-20.095 -0.141,-0.013 -0.283,-0.039 -0.425,-0.084 -1.876,-0.613 -2.984,-0.538 -3.428,0.493 -0.826,1.92 -3.429,5.884 -1.553,13.875 0,0 -0.099,0.214 -0.255,0.583 z"
   id="path103" />
		<path
   fill="#30441e"
   d="m 449.863,269.176 c -0.017,-0.294 -0.048,-0.557 -0.098,-0.827 -0.259,-1.424 1.969,-6.212 0.906,-10.535 -0.52,-2.11 -0.935,-2.589 -2.525,-2.89 -0.434,-0.082 -1.065,0.137 -1.709,0.077 -0.886,6.554 -0.711,13.501 -1.72,20.095 2.492,-0.439 3.826,-3.12 5.146,-5.92 z"
   id="path104" />
		<path
   fill="#30441e"
   d="m 449.101,277.908 c 0.005,-0.042 0.013,-0.081 0.017,-0.121 0.577,-5.499 0.814,-7.35 0.745,-8.61 -1.319,2.8 -2.653,5.48 -5.145,5.92 -0.143,0.921 -0.308,1.835 -0.502,2.741 1.626,0.13 3.257,0.148 4.885,0.07 z"
   id="path105" />
		<path
   fill="#211b1b"
   d="m 445.807,256.51 c -0.06,0.34 0.028,0.638 0.198,0.667 0.17,0.03 0.355,-0.221 0.415,-0.559 0.06,-0.339 -0.029,-0.639 -0.198,-0.668 -0.169,-0.029 -0.354,0.221 -0.415,0.56 z"
   id="path106" />
		<path
   fill="#211b1b"
   d="m 446.069,255.097 c -0.025,0.137 0.093,0.271 0.262,0.301 0.171,0.03 0.326,-0.057 0.351,-0.192 0.023,-0.138 -0.093,-0.272 -0.263,-0.302 -0.17,-0.03 -0.326,0.055 -0.35,0.193 z"
   id="path107" />
		<path
   fill="#211b1b"
   d="m 445.478,259.294 c -0.024,0.342 0.096,0.63 0.268,0.643 0.172,0.013 0.33,-0.257 0.354,-0.6 0.025,-0.343 -0.094,-0.63 -0.267,-0.643 -0.172,-0.013 -0.331,0.256 -0.355,0.6 z"
   id="path108" />
		<path
   fill="#211b1b"
   d="m 445.478,262.317 c -0.024,0.342 0.096,0.631 0.268,0.643 0.172,0.012 0.33,-0.257 0.354,-0.6 0.025,-0.345 -0.094,-0.632 -0.267,-0.644 -0.172,-0.012 -0.331,0.257 -0.355,0.601 z"
   id="path109" />
		<path
   fill="#211b1b"
   d="m 445.164,265.452 c -0.025,0.343 0.095,0.631 0.267,0.643 0.172,0.013 0.33,-0.257 0.354,-0.6 0.025,-0.342 -0.095,-0.631 -0.268,-0.644 -0.169,-0.012 -0.329,0.257 -0.353,0.601 z"
   id="path110" />
		<path
   fill="#211b1b"
   d="m 445.164,268.273 c -0.025,0.345 0.095,0.633 0.267,0.645 0.172,0.013 0.33,-0.256 0.354,-0.6 0.025,-0.342 -0.095,-0.631 -0.268,-0.644 -0.169,-0.012 -0.329,0.258 -0.353,0.599 z"
   id="path111" />
		<path
   fill="#211b1b"
   d="m 444.85,271.142 c -0.023,0.342 0.096,0.63 0.267,0.643 0.172,0.012 0.33,-0.257 0.355,-0.6 0.023,-0.344 -0.097,-0.632 -0.269,-0.643 -0.169,-0.013 -0.329,0.255 -0.353,0.6 z"
   id="path112" />
		<path
   fill="#211b1b"
   d="m 444.839,274.917 c 0.172,0.002 0.314,-0.275 0.319,-0.618 0.004,-0.345 -0.132,-0.625 -0.304,-0.628 -0.172,-0.002 -0.315,0.275 -0.318,0.618 -0.005,0.345 0.131,0.626 0.303,0.628 z"
   id="path113" />
		<path
   fill="#3c4009"
   d="m 444.135,278.024 c 0.09,0.015 0.182,-0.056 0.256,-0.172 -0.149,-0.011 -0.299,-0.024 -0.447,-0.037 0.04,0.117 0.106,0.197 0.191,0.209 z"
   id="path114" />
		<path
   fill="#3c4009"
   d="m 444.314,276.792 c -0.171,-0.023 -0.349,0.232 -0.398,0.572 -0.024,0.172 -0.012,0.331 0.028,0.451 0.148,0.013 0.298,0.026 0.447,0.037 0.065,-0.102 0.118,-0.239 0.142,-0.398 0.048,-0.341 -0.048,-0.637 -0.219,-0.662 z"
   id="path115" />
	</g>
	<g
   id="g117">
		<path
   fill="#eae5dc"
   d="m 448.751,275.343 h -14.607 c -0.006,0.245 -0.022,0.487 -0.022,0.736 0,6.171 2.293,11.47 5.578,13.831 h 4.905 c 2.595,-3.76 4.306,-8.76 4.146,-14.567 z"
   id="path116" />
		<path
   fill="#d3ccc2"
   d="m 452.921,276.08 c 0,-0.249 -0.017,-0.491 -0.022,-0.736 h -4.147 c 0.16,5.807 -1.551,10.807 -4.146,14.568 h 2.734 c 3.287,-2.359 5.581,-7.66 5.581,-13.832 z"
   id="path117" />
	</g>
</g>
<g
   id="g127"
   transform="matrix(0.49591243,0,0,0.82104084,0.37838118,0.62645416)">
	<g
   id="g123">
		<g
   id="g122">
			<g
   id="g121">
				<g
   id="g120">
					<path
   fill="#d3cfcb"
   d="m 254.091,287.311 c -0.431,0.081 -0.248,0.735 0.18,0.654 2.23,-0.417 4.274,-0.916 6.097,-1.704 0.036,-0.194 0.061,-0.383 0.077,-0.566 -1.999,0.855 -4.249,1.221 -6.354,1.616 z"
   id="path118" />
					<path
   fill="#d3cfcb"
   d="m 260.578,278.307 c -0.38,0.217 -0.039,0.803 0.345,0.587 0.779,-0.442 1.607,-0.806 2.463,-1.083 0.176,-0.263 0.351,-0.521 0.525,-0.775 -1.258,0.3 -2.558,0.833 -3.333,1.271 z"
   id="path119" />
					<path
   fill="#eae5df"
   d="m 263.911,277.036 c -0.174,0.254 -0.349,0.512 -0.525,0.775 0.643,-0.208 1.299,-0.371 1.972,-0.451 3.347,-0.395 -1.084,5.553 -1.726,6.214 -0.92,0.948 -2.01,1.617 -3.186,2.12 -0.016,0.184 -0.042,0.373 -0.077,0.566 2.768,-1.198 5.014,-3.072 6.572,-6.404 1.462,-3.129 -0.716,-3.373 -3.03,-2.82 z"
   id="path120" />
				</g>
			</g>
		</g>
	</g>
	<g
   id="g126">
		<g
   id="g125">
			<g
   id="g124">
				<path
   fill="#eae5df"
   d="m 257.329,276.279 h -24.825 c 0.15,6.737 4.903,12.335 11.261,13.837 h 6.455 c 3.853,-3.441 6.093,-8.585 7.109,-13.837 z"
   id="path123" />
				<path
   fill="#d3cfcb"
   d="m 261.826,276.279 h -4.497 c -1.015,5.252 -3.256,10.396 -7.109,13.837 h 0.353 c 6.354,-1.503 11.103,-7.102 11.253,-13.837 z"
   id="path124" />
			</g>
		</g>
	</g>
</g>
<g
   id="g145"
   transform="matrix(0.49591243,0,0,0.82104084,0.37838118,0.62645416)">
	<rect
   x="246.86099"
   y="147.411"
   fill="#312929"
   width="221.48599"
   height="3.9400001"
   id="rect127" />
	<polygon
   opacity="0.16"
   fill="#3a2104"
   points="473.139,161.847 468.347,151.351 246.861,151.351 "
   id="polygon127" />
	<g
   opacity="0.19"
   id="g128">
		<polygon
   fill="#3a2104"
   points="318.796,147.411 318.796,130.699 343.598,147.396 "
   id="polygon128" />
	</g>
	<rect
   x="254.946"
   y="134.409"
   fill="#e5d2b7"
   width="65.552002"
   height="1.855"
   id="rect128" />
	<rect
   x="257.11099"
   y="136.26401"
   fill="#5b3c3e"
   width="64.083"
   height="2.6670001"
   id="rect129" />
	<rect
   x="259.035"
   y="138.931"
   fill="#ead3aa"
   width="57.984001"
   height="4.7540002"
   id="rect130" />
	<rect
   x="317.01999"
   y="138.931"
   fill="#f4e6ce"
   width="3.4790001"
   height="4.7540002"
   id="rect131" />
	<rect
   x="253.632"
   y="143.686"
   fill="#413031"
   width="68.18"
   height="3.711"
   id="rect132" />
	<rect
   x="261.47"
   y="138.931"
   fill="#f4e6ce"
   width="7.5450001"
   height="4.7540002"
   id="rect133" />
	<rect
   x="260.51401"
   y="130.69901"
   fill="#6d5759"
   width="58.282001"
   height="3.711"
   id="rect134" />
	<polygon
   opacity="0.19"
   fill="#3a2104"
   points="435.931,147.411 421.045,147.411 428.522,133.449 "
   id="polygon134" />
	<g
   id="g144">
		<g
   id="g140">
			<g
   id="g134">
				<path
   fill="#d1c8bd"
   d="m 429.4,137.144 c 0,-5.008 -4.534,-9.102 -10.286,-9.472 1.392,6.256 0.956,12.67 -0.685,18.973 6.074,-0.073 10.971,-4.295 10.971,-9.501 z"
   id="path134" />
			</g>
			<g
   id="g135">
				<path
   fill="#e2dbd0"
   d="m 419.114,127.673 c -0.28,-0.019 -0.56,-0.037 -0.846,-0.037 -6.148,0 -11.132,4.257 -11.132,9.508 0,5.252 4.984,9.508 11.132,9.508 0.054,0 0.107,-0.006 0.161,-0.007 1.641,-6.303 2.077,-12.717 0.685,-18.972 z"
   id="path135" />
			</g>
			<g
   id="g136">
				<path
   fill="#e2dbd0"
   d="m 413.891,145.872 v 1.539 h 3.112 c 0.477,-0.503 0.939,-1.019 1.397,-1.539 z"
   id="path136" />
			</g>
			<g
   id="g137">
				<path
   fill="#d1c8bd"
   d="M 422.646,145.872 H 418.4 c -0.458,0.52 -0.92,1.036 -1.397,1.539 h 5.644 v -1.539 z"
   id="path137" />
			</g>
			<g
   id="g138">
				<rect
   x="419.35199"
   y="126.878"
   fill="#d1c8bd"
   width="3.744"
   height="1.683"
   id="rect137" />
			</g>
			<g
   id="g139">
				<rect
   x="413.44199"
   y="126.878"
   fill="#e2dbd0"
   width="5.9099998"
   height="1.683"
   id="rect138" />
			</g>
		</g>
		<g
   id="g141">
			<rect
   x="413.44199"
   y="128.33299"
   fill="#b5aca1"
   width="9.6540003"
   height="0.228"
   id="rect140" />
		</g>
		<g
   id="g142">
			<polygon
   fill="#bfb6ac"
   points="413.891,145.872 413.891,146.256 417.977,146.256 418.426,145.872 "
   id="polygon141" />
		</g>
		<g
   id="g143">
			<polygon
   fill="#b5aca1"
   points="422.646,145.872 418.426,145.872 417.977,146.256 422.646,146.256 "
   id="polygon142" />
		</g>
	</g>
</g>
<g
   id="g150"
   transform="matrix(0.49591243,0,0,0.82104084,0.37838118,0.62645416)">
	<path
   fill="#a9a8a8"
   d="m 495.65,289.573 c 0,0.182 -4.992,0.33 -11.149,0.33 -6.157,0 -11.149,-0.148 -11.149,-0.33 0,-0.183 4.992,-0.33 11.149,-0.33 6.157,0 11.149,0.147 11.149,0.33 z"
   id="path145" />
	<g
   id="g147">
		<g
   id="g146">
			<path
   fill="#ef9700"
   d="m 484.887,221.545 c -2.225,-2.543 -0.032,-5.318 -0.011,-5.347 l 0.605,0.487 c -0.075,0.092 -1.803,2.301 -0.011,4.349 z"
   id="path146" />
		</g>
		<path
   fill="#e0d9bd"
   d="m 486.537,222.017 c 0,-1.124 -0.912,-2.035 -2.036,-2.035 -1.125,0 -2.036,0.911 -2.036,2.035 v 23.143 c 1.427,-2.517 2.807,-5.082 4.072,-7.728 z"
   id="path147" />
	</g>
	<path
   fill="#ccc6ac"
   d="m 482.464,245.16 v 17.768 c 0,1.125 0.912,2.036 2.036,2.036 1.124,0 2.036,-0.911 2.036,-2.036 v -25.496 c -1.265,2.647 -2.645,5.211 -4.072,7.728 z"
   id="path148" />
	<rect
   x="482.077"
   y="261.86301"
   fill="#a9a8a8"
   width="4.8470001"
   height="5.4289999"
   id="rect148" />
	<path
   fill="#a9a8a8"
   d="m 485.616,288.955 c 0,0.511 -0.499,0.816 -1.115,0.816 v 0 c -0.617,0 -1.115,-0.304 -1.115,-0.816 v -21.999 c 0,-0.512 0.498,-0.925 1.115,-0.925 v 0 c 0.616,0 1.115,0.413 1.115,0.925 z"
   id="path149" />
	<rect
   x="483.159"
   y="261.86301"
   fill="#d1d1d1"
   width="1.341"
   height="5.4289999"
   id="rect149" />
	<path
   fill="#d1d1d1"
   d="m 484.501,289.543 c 0,0.185 -0.09,0.227 -0.336,0.193 v 0 c -0.184,0 -0.319,-0.106 -0.335,-0.193 v -21.917 c 0,-0.185 0.151,-0.334 0.335,-0.334 v 0 c 0.185,0 0.336,0.149 0.336,0.334 z"
   id="path150" />
	<rect
   x="483.38501"
   y="267.29199"
   fill="#686868"
   width="2.23"
   height="1.26"
   id="rect150" />
</g>
<g
   opacity="0.21"
   id="g164"
   transform="matrix(0.49591243,0,0,0.82104084,0.37838118,0.62645416)">
	<g
   id="g151">
		<path
   fill="#312929"
   d="m 371.185,82.064 c -32.741,0 -65.438,-5.531 -87.478,-10.282 -24.875,-5.362 -41.91,-10.912 -42.08,-10.968 l 0.078,-0.237 c 0.169,0.055 17.194,5.603 42.058,10.962 22.945,4.946 57.444,10.743 91.515,10.246 34.068,-0.492 64.613,-6.232 84.239,-10.961 21.263,-5.123 34.639,-10.194 34.771,-10.245 l 0.09,0.233 c -0.133,0.051 -13.524,5.127 -34.803,10.255 -19.638,4.731 -50.202,10.476 -84.293,10.968 -1.365,0.019 -2.732,0.029 -4.097,0.029 z"
   id="path151" />
	</g>
	<g
   id="g153">
		<path
   fill="#312929"
   d="m 268.01,76.904 c 0.815,-0.821 1.467,-1.835 1.872,-3.014 1.309,-3.817 -0.592,-8.169 -4.281,-9.805 -2.965,-1.315 -6.253,-0.642 -8.496,1.371 0.635,5.964 4.548,13.254 10.905,11.448 z"
   id="path152" />
		<path
   fill="#312929"
   d="m 267.854,77.004 c -6.394,1.666 -10.146,-5.71 -10.65,-11.686 -1.261,1.083 -2.244,2.54 -2.608,4.415 -0.659,3.39 0.98,6.948 4.033,8.563 3.162,1.675 6.849,0.998 9.225,-1.292 z"
   id="path153" />
	</g>
	<g
   id="g155">
		<path
   fill="#312929"
   d="m 310.841,84.496 c 0.815,-0.821 1.467,-1.834 1.872,-3.013 1.309,-3.816 -0.591,-8.168 -4.279,-9.805 -2.965,-1.316 -6.254,-0.644 -8.498,1.37 0.636,5.963 4.549,13.254 10.905,11.448 z"
   id="path154" />
		<path
   fill="#312929"
   d="m 310.686,84.596 c -6.394,1.666 -10.146,-5.71 -10.65,-11.686 -1.261,1.083 -2.243,2.538 -2.608,4.413 -0.66,3.39 0.978,6.948 4.03,8.565 3.163,1.675 6.851,0.999 9.228,-1.292 z"
   id="path155" />
	</g>
	<g
   id="g157">
		<path
   fill="#312929"
   d="m 358.504,90.363 c 0.816,-0.822 1.468,-1.836 1.872,-3.016 1.308,-3.818 -0.595,-8.171 -4.286,-9.805 -2.964,-1.312 -6.25,-0.639 -8.492,1.373 0.636,5.963 4.549,13.254 10.906,11.448 z"
   id="path156" />
		<path
   fill="#312929"
   d="m 358.348,90.462 c -6.395,1.666 -10.146,-5.71 -10.65,-11.686 -1.262,1.083 -2.244,2.54 -2.608,4.416 -0.658,3.39 0.981,6.947 4.033,8.563 3.163,1.674 6.849,0.998 9.225,-1.293 z"
   id="path157" />
	</g>
	<g
   id="g159">
		<path
   fill="#312929"
   d="m 390.174,91.318 c -0.816,-0.822 -1.468,-1.836 -1.872,-3.016 -1.308,-3.818 0.595,-8.171 4.285,-9.805 2.964,-1.312 6.25,-0.64 8.492,1.373 -0.636,5.964 -4.549,13.255 -10.905,11.448 z"
   id="path158" />
		<path
   fill="#312929"
   d="m 390.33,91.418 c 6.395,1.666 10.146,-5.71 10.65,-11.686 1.263,1.084 2.245,2.542 2.609,4.42 0.656,3.391 -0.984,6.947 -4.037,8.561 -3.162,1.671 -6.847,0.995 -9.222,-1.295 z"
   id="path159" />
	</g>
	<g
   id="g161">
		<path
   fill="#312929"
   d="m 427.875,85.451 c -0.816,-0.822 -1.468,-1.836 -1.872,-3.016 -1.308,-3.818 0.595,-8.171 4.286,-9.805 2.964,-1.312 6.25,-0.639 8.492,1.373 -0.637,5.964 -4.55,13.255 -10.906,11.448 z"
   id="path160" />
		<path
   fill="#312929"
   d="m 428.03,85.551 c 6.395,1.666 10.146,-5.71 10.65,-11.686 1.262,1.084 2.245,2.541 2.608,4.418 0.657,3.391 -0.983,6.947 -4.035,8.562 -3.162,1.673 -6.847,0.996 -9.223,-1.294 z"
   id="path161" />
	</g>
	<g
   id="g163">
		<path
   fill="#312929"
   d="m 466.04,75.882 c -0.815,-0.821 -1.467,-1.835 -1.872,-3.015 -1.309,-3.817 0.593,-8.17 4.282,-9.805 2.964,-1.314 6.252,-0.641 8.494,1.372 -0.635,5.964 -4.548,13.255 -10.904,11.448 z"
   id="path162" />
		<path
   fill="#312929"
   d="m 466.196,75.982 c 6.394,1.666 10.146,-5.709 10.65,-11.686 1.262,1.083 2.244,2.54 2.608,4.415 0.659,3.391 -0.98,6.948 -4.033,8.563 -3.163,1.675 -6.849,0.999 -9.225,-1.292 z"
   id="path163" />
	</g>
</g>
<g
   id="g177"
   transform="matrix(0.49591243,0,0,0.82104084,0.37838118,0.62645416)">
	<g
   id="g165">
		<path
   fill="#ead3aa"
   d="m 367.852,81.44 c -32.741,0 -65.438,-5.531 -87.478,-10.282 -24.875,-5.362 -41.91,-10.912 -42.08,-10.968 l 0.078,-0.237 c 0.169,0.055 17.194,5.603 42.058,10.961 22.945,4.946 57.444,10.743 91.515,10.247 34.068,-0.492 64.613,-6.232 84.239,-10.961 21.263,-5.124 34.639,-10.194 34.771,-10.245 l 0.09,0.233 c -0.133,0.051 -13.524,5.127 -34.803,10.255 -19.638,4.731 -50.202,10.476 -84.293,10.968 -1.365,0.02 -2.732,0.029 -4.097,0.029 z"
   id="path164" />
	</g>
	<g
   id="g166">
		<path
   fill="#e8a23d"
   d="m 264.676,76.281 c 0.815,-0.821 1.467,-1.835 1.872,-3.014 1.309,-3.817 -0.592,-8.169 -4.281,-9.805 -2.965,-1.315 -6.253,-0.642 -8.496,1.371 0.636,5.963 4.549,13.254 10.905,11.448 z"
   id="path165" />
		<path
   fill="#ce8e3a"
   d="m 264.52,76.38 c -6.394,1.666 -10.146,-5.71 -10.65,-11.686 -1.261,1.083 -2.244,2.54 -2.608,4.415 -0.659,3.39 0.98,6.948 4.033,8.563 3.163,1.675 6.85,0.999 9.225,-1.292 z"
   id="path166" />
	</g>
	<g
   id="g168">
		<path
   fill="#e8a23d"
   d="m 307.508,83.872 c 0.815,-0.821 1.467,-1.834 1.872,-3.013 1.309,-3.816 -0.591,-8.168 -4.279,-9.805 -2.965,-1.316 -6.254,-0.644 -8.498,1.37 0.636,5.964 4.549,13.255 10.905,11.448 z"
   id="path167" />
		<path
   fill="#ce8e3a"
   d="m 307.352,83.972 c -6.394,1.666 -10.146,-5.709 -10.65,-11.686 -1.261,1.083 -2.243,2.538 -2.608,4.413 -0.66,3.39 0.978,6.948 4.03,8.565 3.164,1.675 6.852,0.999 9.228,-1.292 z"
   id="path168" />
	</g>
	<g
   id="g170">
		<path
   fill="#e8a23d"
   d="m 355.17,89.739 c 0.816,-0.822 1.468,-1.836 1.872,-3.016 1.308,-3.818 -0.595,-8.171 -4.286,-9.805 -2.964,-1.312 -6.25,-0.639 -8.492,1.373 0.637,5.964 4.55,13.255 10.906,11.448 z"
   id="path169" />
		<path
   fill="#ce8e3a"
   d="m 355.014,89.839 c -6.395,1.666 -10.146,-5.709 -10.65,-11.685 -1.262,1.083 -2.244,2.54 -2.608,4.416 -0.658,3.39 0.981,6.947 4.033,8.563 3.163,1.673 6.85,0.996 9.225,-1.294 z"
   id="path170" />
	</g>
	<g
   id="g172">
		<path
   fill="#e8a23d"
   d="m 386.841,90.695 c -0.816,-0.822 -1.468,-1.836 -1.872,-3.016 -1.308,-3.818 0.595,-8.171 4.286,-9.805 2.964,-1.312 6.25,-0.64 8.492,1.373 -0.637,5.963 -4.55,13.254 -10.906,11.448 z"
   id="path171" />
		<path
   fill="#ce8e3a"
   d="m 386.996,90.795 c 6.395,1.666 10.146,-5.71 10.65,-11.686 1.263,1.084 2.245,2.542 2.609,4.42 0.656,3.391 -0.984,6.947 -4.037,8.561 -3.162,1.671 -6.846,0.994 -9.222,-1.295 z"
   id="path172" />
	</g>
	<g
   id="g174">
		<path
   fill="#e8a23d"
   d="m 424.541,84.828 c -0.816,-0.822 -1.468,-1.836 -1.872,-3.016 -1.308,-3.818 0.595,-8.171 4.286,-9.805 2.964,-1.312 6.25,-0.639 8.492,1.373 -0.637,5.963 -4.55,13.254 -10.906,11.448 z"
   id="path173" />
		<path
   fill="#ce8e3a"
   d="m 424.697,84.928 c 6.395,1.666 10.146,-5.709 10.65,-11.685 1.262,1.084 2.245,2.541 2.608,4.418 0.657,3.391 -0.983,6.947 -4.035,8.562 -3.162,1.671 -6.848,0.995 -9.223,-1.295 z"
   id="path174" />
	</g>
	<g
   id="g176">
		<path
   fill="#e8a23d"
   d="m 462.707,75.259 c -0.815,-0.821 -1.468,-1.835 -1.872,-3.015 -1.309,-3.817 0.593,-8.17 4.282,-9.805 2.964,-1.314 6.252,-0.641 8.495,1.372 -0.636,5.964 -4.549,13.254 -10.905,11.448 z"
   id="path175" />
		<path
   fill="#ce8e3a"
   d="m 462.862,75.359 c 6.394,1.666 10.146,-5.71 10.65,-11.686 1.262,1.083 2.244,2.54 2.608,4.415 0.659,3.391 -0.98,6.948 -4.033,8.563 -3.162,1.675 -6.849,0.998 -9.225,-1.292 z"
   id="path176" />
	</g>
</g>
<g
   id="g198"
   transform="matrix(0.49591243,0,0,0.82104084,0.37838118,0.62645416)">
	<polygon
   opacity="0.18"
   fill="#312929"
   points="624.176,367.471 630.926,367.471 626.505,320.645 "
   id="polygon177" />
	<g
   id="g187">
		<g
   id="g181">
			<polygon
   fill="#567030"
   points="600.385,321.318 610.09,303.363 622.706,309.672 618.339,318.891 "
   id="polygon178" />
			<polygon
   fill="#567030"
   points="584.857,308.701 592.863,308.701 600.385,321.318 584.857,318.891 "
   id="polygon179" />
			<polygon
   fill="#405122"
   points="622.706,309.672 616.802,316.019 600.385,321.318 618.339,318.891 "
   id="polygon180" />
			<polygon
   fill="#405122"
   points="584.857,308.701 592.863,308.701 600.385,321.318 598.634,321.044 592.621,309.672 "
   id="polygon181" />
		</g>
		<polygon
   fill="#8e566a"
   points="624.176,367.471 565.849,367.471 562.209,320.645 626.505,320.645 "
   id="polygon182" />
		<path
   opacity="0.56"
   fill="#77465a"
   d="m 562.897,329.491 c 0.746,0 63.168,0 63.168,0 l -0.13,2.617 -62.969,-1.727 z"
   id="path182" />
		<rect
   x="599.33099"
   y="320.64499"
   fill="#567030"
   width="3.0409999"
   height="46.827"
   id="rect182" />
		<polygon
   fill="#567030"
   points="626.065,329.491 562.897,329.491 562.723,327.251 626.177,327.251 "
   id="polygon183" />
		<polygon
   opacity="0.56"
   fill="#77465a"
   points="602.372,367.471 606.114,367.471 602.372,320.645 "
   id="polygon184" />
		<polygon
   fill="#405122"
   points="605.014,329.491 602.372,329.491 602.372,327.251 603.66,327.251 "
   id="polygon185" />
		<polygon
   fill="#405122"
   points="597.941,329.491 599.331,329.491 599.331,327.251 598.443,327.251 "
   id="polygon186" />
		<polygon
   opacity="0.56"
   fill="#77465a"
   points="624.176,367.471 565.849,367.471 565.849,364.384 624.516,361.296 "
   id="polygon187" />
	</g>
	<g
   id="g191">
		<polygon
   fill="#ef9700"
   points="606.051,368.31 618.143,345.94 633.863,353.799 628.422,365.287 "
   id="polygon188" />
		<polygon
   fill="#ef9700"
   points="586.704,352.59 596.68,352.59 606.051,368.31 586.704,365.287 "
   id="polygon189" />
		<polygon
   opacity="0.54"
   fill="#ad6600"
   points="633.863,353.799 626.507,361.708 606.051,368.31 628.422,365.287 "
   id="polygon190" />
		<polygon
   opacity="0.54"
   fill="#ad6600"
   points="586.704,352.59 596.68,352.59 606.051,368.31 603.871,367.969 596.378,353.799 "
   id="polygon191" />
	</g>
	<polygon
   fill="#d8bf98"
   points="635.695,425.816 563.021,425.816 558.486,367.471 638.597,367.471 "
   id="polygon192" />
	<polygon
   fill="#ef9700"
   points="638.048,378.493 559.343,378.493 559.126,375.703 638.187,375.703 "
   id="polygon193" />
	<polygon
   opacity="0.57"
   fill="#ad6600"
   points="611.82,378.493 608.528,378.493 608.528,375.703 610.132,375.703 "
   id="polygon194" />
	<polygon
   opacity="0.57"
   fill="#ad6600"
   points="603.007,378.493 604.739,378.493 604.739,375.703 603.632,375.703 "
   id="polygon195" />
	<polygon
   opacity="0.23"
   fill="#ad6600"
   points="559.343,378.493 638.048,378.493 637.891,381.652 559.411,379.364 "
   id="polygon196" />
	<rect
   x="604.73901"
   y="367.47101"
   fill="#ef9700"
   width="3.789"
   height="58.345001"
   id="rect196" />
	<polygon
   opacity="0.23"
   fill="#ad6600"
   points="608.528,425.816 612.551,425.816 608.528,367.471 "
   id="polygon197" />
	<polygon
   opacity="0.12"
   fill="#312929"
   points="646.926,419.47 638.597,367.471 635.695,425.816 "
   id="polygon198" />
</g>
<g
   opacity="0.63"
   id="g199"
   transform="matrix(0.49591243,0,0,0.82104084,0.37838118,0.62645416)">
	<path
   fill="#312929"
   d="m 450.699,216.754 c -0.026,1.264 -1.372,2.394 -2.798,3.659 -1.453,1.237 -2.851,2.475 -2.905,3.766 0,0.269 0,3.12 0,4.465 h 5.703 v 0.726 h -6.455 c 0,-0.377 0,-4.815 0,-5.192 0.081,-1.614 1.586,-2.959 3.147,-4.277 1.264,-1.076 2.556,-2.26 2.582,-3.147 v -2.986 c 0,-2.071 -1.238,-2.69 -2.394,-2.69 -1.641,0 -2.501,1.157 -2.501,2.771 v 1.103 h -0.7 v -1.157 c 0,-2.421 1.669,-3.416 3.201,-3.416 1.372,0 3.12,0.861 3.12,3.362 z"
   id="path198" />
	<path
   fill="#312929"
   d="m 459.657,223.694 v 2.233 c 0,2.017 -1.156,3.659 -3.362,3.659 -2.26,0 -3.47,-1.641 -3.47,-3.659 0,-0.188 0,-0.188 0,-1.157 h 0.726 c 0,0.027 0,-0.188 0,1.157 0,1.668 0.995,2.932 2.744,2.932 1.802,0 2.636,-1.264 2.636,-2.932 v -2.233 c 0,-1.937 -0.887,-3.04 -2.636,-3.04 -1.13,0 -2.421,0.861 -2.717,2.017 h -0.753 V 210.54 h 6.375 v 0.672 h -5.649 v 10.168 c 0.673,-0.941 1.749,-1.453 2.744,-1.453 2.044,0.001 3.362,1.4 3.362,3.767 z"
   id="path199" />
</g>
<text
   xml:space="preserve"
   style="font-style:oblique;font-weight:bold;font-size:52.4353px;font-family:Courier;-inkscape-font-specification:'Courier, Bold Oblique';writing-mode:lr-tb;direction:ltr;fill:#000000;stroke-width:0.653566"
   x="110.10547"
   y="99.660362"
   id="text199"
   transform="scale(0.95752121,1.0443633)"><tspan
     sodipodi:role="line"
     id="tspan199"
     x="110.10547"
     y="99.660362"
     style="stroke-width:0.653566">Study</tspan></text></svg>
